<svg width="161" height="43" viewBox="0 0 161 43" fill="none" xmlns="http://www.w3.org/2000/svg">
    <path d="M26.0684 20.0113C26.0247 15.2574 30.0366 12.9446 30.2201 12.8369C27.948 9.5875 24.4263 9.14352 23.1888 9.10812C20.231 8.8028 17.3619 10.8442 15.8552 10.8442C14.3184 10.8442 11.9982 9.13762 9.49754 9.18777C6.27961 9.23645 3.2692 11.064 1.61813 13.9019C-1.78926 19.6883 0.751996 28.1917 4.01654 32.8689C5.64956 35.1596 7.55776 37.7172 10.0554 37.6272C12.4989 37.5284 13.4117 36.0991 16.3604 36.0991C19.2821 36.0991 20.1392 37.6272 22.6865 37.5697C25.309 37.5284 26.96 35.2687 28.5359 32.9574C30.4231 30.3319 31.1809 27.7462 31.211 27.6135C31.1494 27.5928 26.118 25.7092 26.0684 20.0113Z" fill="white"/>
    <path d="M21.2565 6.03127C22.5707 4.4191 23.4699 2.22577 23.2203 0C21.3181 0.0826 18.9393 1.29063 17.5694 2.8674C16.3574 4.25685 15.2748 6.53425 15.5545 8.67595C17.6912 8.8323 19.8851 7.61837 21.2565 6.03127Z" fill="white"/>
    <path d="M57.8941 36.7982H54.4792L52.6086 31.0325H46.1066L44.3247 36.7982H41L47.4419 17.1689H51.4207L57.8941 36.7982ZM52.0447 28.6135L50.353 23.4878C50.1741 22.9642 49.8388 21.7311 49.344 19.79H49.2839C49.0869 20.6249 48.7696 21.858 48.3336 23.4878L46.672 28.6135H52.0447Z" fill="white"/>
    <path d="M74.4604 29.5472C74.4604 31.9544 73.7973 33.8572 72.471 35.254C71.2831 36.4974 69.808 37.1184 68.0471 37.1184C66.1464 37.1184 64.7811 36.4487 63.9495 35.1094H63.8894V42.5656H60.6835V27.3037C60.6835 25.7904 60.6429 24.2372 60.5647 22.6442H63.3841L63.5631 24.8877H63.6232C64.6924 23.1973 66.3149 22.3536 68.4922 22.3536C70.1944 22.3536 71.6154 23.013 72.7522 24.3331C73.892 25.6547 74.4604 27.3922 74.4604 29.5472ZM71.1944 29.6623C71.1944 28.2846 70.8786 27.1489 70.244 26.255C69.5508 25.3228 68.62 24.8567 67.4532 24.8567C66.6622 24.8567 65.9434 25.1163 65.3014 25.6281C64.6578 26.1444 64.2367 26.8185 64.0398 27.6533C63.9405 28.0427 63.8909 28.3613 63.8909 28.6121V30.9721C63.8909 32.0016 64.2127 32.8704 64.8563 33.5799C65.4999 34.2893 66.3359 34.6433 67.3644 34.6433C68.5719 34.6433 69.5117 34.1861 70.1839 33.2745C70.8575 32.3615 71.1944 31.1579 71.1944 29.6623Z" fill="white"/>
    <path d="M91.0568 29.5472C91.0568 31.9544 90.3937 33.8572 89.0659 35.254C87.8795 36.4974 86.4044 37.1184 84.6435 37.1184C82.7428 37.1184 81.3775 36.4487 80.5474 35.1094H80.4873V42.5656H77.2814V27.3037C77.2814 25.7904 77.2408 24.2372 77.1626 22.6442H79.982L80.161 24.8877H80.2211C81.2888 23.1973 82.9113 22.3536 85.0901 22.3536C86.7908 22.3536 88.2118 23.013 89.3516 24.3331C90.4869 25.6547 91.0568 27.3922 91.0568 29.5472ZM87.7908 29.6623C87.7908 28.2846 87.4735 27.1489 86.8389 26.255C86.1457 25.3228 85.2179 24.8567 84.0496 24.8567C83.2571 24.8567 82.5398 25.1163 81.8963 25.6281C81.2527 26.1444 80.8331 26.8185 80.6362 27.6533C80.5384 28.0427 80.4873 28.3613 80.4873 28.6121V30.9721C80.4873 32.0016 80.8091 32.8704 81.4497 33.5799C82.0932 34.2879 82.9293 34.6433 83.9608 34.6433C85.1683 34.6433 86.1081 34.1861 86.7803 33.2745C87.454 32.3615 87.7908 31.1579 87.7908 29.6623Z" fill="white"/>
    <path d="M109.612 31.2936C109.612 32.9633 109.022 34.3217 107.835 35.3705C106.531 36.5166 104.716 37.0889 102.384 37.0889C100.231 37.0889 98.5046 36.6817 97.1979 35.8661L97.9407 33.245C99.3482 34.0798 100.892 34.4987 102.575 34.4987C103.783 34.4987 104.722 34.2303 105.398 33.6963C106.07 33.1624 106.405 32.4456 106.405 31.5517C106.405 30.7552 106.128 30.0841 105.574 29.5398C105.022 28.9955 104.1 28.4896 102.813 28.022C99.3091 26.7403 97.5588 24.8626 97.5588 22.3934C97.5588 20.7798 98.1723 19.4567 99.4008 18.4271C100.625 17.3961 102.258 16.8813 104.3 16.8813C106.121 16.8813 107.634 17.1926 108.841 17.8135L108.04 20.3771C106.912 19.7753 105.637 19.4744 104.21 19.4744C103.082 19.4744 102.201 19.7473 101.569 20.2901C101.035 20.7753 100.768 21.3668 100.768 22.0674C100.768 22.8433 101.073 23.4849 101.686 23.9894C102.22 24.4555 103.19 24.9599 104.598 25.5042C106.319 26.1842 107.584 26.9792 108.397 27.8907C109.208 28.7993 109.612 29.9366 109.612 31.2936Z" fill="white"/>
    <path d="M120.212 25.0042H116.678V31.8762C116.678 33.6241 117.301 34.4973 118.549 34.4973C119.122 34.4973 119.597 34.4486 119.973 34.3512L120.062 36.7393C119.43 36.9708 118.599 37.0874 117.569 37.0874C116.302 37.0874 115.313 36.7083 114.599 35.9516C113.888 35.1935 113.53 33.922 113.53 32.1358V25.0012H111.424V22.6412H113.53V20.0496L116.678 19.1174V22.6412H120.212V25.0042Z" fill="white"/>
    <path d="M136.156 29.6047C136.156 31.7803 135.521 33.5665 134.255 34.9633C132.927 36.4015 131.165 37.1183 128.968 37.1183C126.851 37.1183 125.165 36.4295 123.908 35.0518C122.651 33.6742 122.023 31.9352 122.023 29.8392C122.023 27.6459 122.669 25.8493 123.967 24.4525C125.262 23.0542 127.009 22.355 129.206 22.355C131.323 22.355 133.027 23.0439 134.312 24.423C135.542 25.7608 136.156 27.488 136.156 29.6047ZM132.83 29.7064C132.83 28.4011 132.545 27.2815 131.97 26.3479C131.297 25.218 130.337 24.6546 129.091 24.6546C127.803 24.6546 126.824 25.2195 126.152 26.3479C125.576 27.283 125.292 28.4202 125.292 29.7654C125.292 31.0708 125.576 32.1903 126.152 33.1225C126.845 34.2524 127.813 34.8158 129.063 34.8158C130.287 34.8158 131.248 34.2406 131.941 33.093C132.532 32.1417 132.83 31.0103 132.83 29.7064Z" fill="white"/>
    <path d="M146.577 25.4098C146.259 25.3523 145.921 25.3228 145.566 25.3228C144.438 25.3228 143.566 25.7402 142.953 26.5766C142.419 27.3141 142.151 28.2463 142.151 29.3717V36.7983H138.947L138.977 27.1017C138.977 25.4703 138.936 23.985 138.857 22.6457H141.649L141.766 25.3538H141.855C142.193 24.4231 142.727 23.6738 143.458 23.1118C144.172 22.6059 144.944 22.3536 145.775 22.3536C146.071 22.3536 146.339 22.3743 146.577 22.4112V25.4098Z" fill="white"/>
    <path d="M160.914 29.0516C160.914 29.615 160.877 30.0899 160.797 30.4779H151.179C151.217 31.8762 151.682 32.9455 152.575 33.6831C153.385 34.3424 154.433 34.6728 155.721 34.6728C157.145 34.6728 158.444 34.45 159.612 34.0031L160.114 36.1861C158.749 36.7702 157.137 37.0608 155.277 37.0608C153.04 37.0608 151.283 36.4147 150.005 35.1241C148.73 33.8335 148.091 32.1004 148.091 29.9262C148.091 27.7919 148.685 26.0145 149.874 24.5971C151.119 23.0837 152.802 22.327 154.919 22.327C156.999 22.327 158.573 23.0837 159.642 24.5971C160.489 25.7992 160.914 27.286 160.914 29.0516ZM157.857 28.2359C157.878 27.3037 157.669 26.4983 157.235 25.8183C156.68 24.9437 155.827 24.5071 154.68 24.5071C153.632 24.5071 152.779 24.9334 152.128 25.7889C151.594 26.4688 151.277 27.2845 151.179 28.2344H157.857V28.2359Z" fill="white"/>
    <path d="M50.9846 5.09322C50.9846 6.8293 50.4538 8.13615 49.3937 9.01377C48.4118 9.82355 47.0163 10.2292 45.2089 10.2292C44.3127 10.2292 43.5458 10.1908 42.9037 10.1141V0.628395C43.7413 0.495645 44.6435 0.427795 45.6179 0.427795C47.3396 0.427795 48.6373 0.79507 49.5125 1.52962C50.4929 2.36005 50.9846 3.54742 50.9846 5.09322ZM49.323 5.136C49.323 4.01057 49.0193 3.1477 48.4118 2.54589C47.8043 1.94557 46.9171 1.64467 45.7487 1.64467C45.2525 1.64467 44.8299 1.67712 44.4796 1.74497V8.95625C44.6735 8.98575 45.0284 8.99902 45.5442 8.99902C46.7502 8.99902 47.681 8.6701 48.3366 8.01225C48.9922 7.3544 49.323 6.39565 49.323 5.136Z" fill="white"/>
    <path d="M59.7948 6.60948C59.7948 7.67885 59.4835 8.555 58.861 9.24235C58.2084 9.94888 57.3437 10.3014 56.2641 10.3014C55.2235 10.3014 54.395 9.96363 53.777 9.28513C53.1604 8.6081 52.8522 7.75408 52.8522 6.72453C52.8522 5.64778 53.1695 4.76425 53.807 4.07838C54.4446 3.3925 55.3017 3.04883 56.3814 3.04883C57.4219 3.04883 58.258 3.3866 58.891 4.06363C59.4925 4.72148 59.7948 5.57108 59.7948 6.60948ZM58.1602 6.65963C58.1602 6.018 58.0189 5.46783 57.7377 5.0091C57.4069 4.4545 56.9362 4.1772 56.3242 4.1772C55.6912 4.1772 55.21 4.4545 54.8792 5.0091C54.5965 5.46783 54.4566 6.02685 54.4566 6.68765C54.4566 7.32928 54.598 7.87945 54.8792 8.33818C55.2205 8.89278 55.6957 9.17008 56.3092 9.17008C56.9107 9.17008 57.3828 8.88835 57.7227 8.32343C58.0144 7.85585 58.1602 7.30125 58.1602 6.65963Z" fill="white"/>
    <path d="M71.6078 3.19043L69.3899 10.1436H67.9463L67.0275 7.12425C66.7945 6.37053 66.605 5.62123 66.4576 4.87783H66.4291C66.2922 5.64188 66.1028 6.3897 65.8592 7.12425L64.8833 10.1436H63.4232L61.3375 3.19043H62.957L63.7585 6.49591C63.9525 7.27766 64.1119 8.02253 64.2397 8.72758H64.2682C64.3855 8.14643 64.5795 7.40598 64.8532 6.51066L65.8592 3.19191H67.1433L68.1072 6.43986C68.3403 7.23193 68.5297 7.99451 68.6756 8.72906H68.7192C68.826 8.01368 68.9869 7.25111 69.2004 6.43986L70.0605 3.19191H71.6078V3.19043Z" fill="white"/>
    <path d="M79.7775 10.1436H78.2016V6.16111C78.2016 4.93391 77.7264 4.32031 76.7731 4.32031C76.3054 4.32031 75.928 4.48846 75.6348 4.82623C75.3446 5.16401 75.1972 5.56226 75.1972 6.01803V10.1421H73.6213V5.17728C73.6213 4.56663 73.6018 3.90436 73.5642 3.18751H74.9491L75.0228 4.27458H75.0664C75.2499 3.93681 75.5235 3.65803 75.8829 3.43531C76.31 3.17571 76.7881 3.04443 77.3114 3.04443C77.9731 3.04443 78.5234 3.25388 78.961 3.67426C79.5053 4.18903 79.7775 4.95751 79.7775 5.97821V10.1436Z" fill="white"/>
    <path d="M84.1232 10.1436H82.5488V0H84.1232V10.1436Z" fill="white"/>
    <path d="M93.4011 6.60948C93.4011 7.67885 93.0898 8.555 92.4673 9.24235C91.8147 9.94888 90.9486 10.3014 89.8704 10.3014C88.8283 10.3014 87.9998 9.96363 87.3833 9.28513C86.7668 8.6081 86.4585 7.75408 86.4585 6.72453C86.4585 5.64778 86.7758 4.76425 87.4134 4.07838C88.0509 3.3925 88.908 3.04883 89.9862 3.04883C91.0283 3.04883 91.8628 3.3866 92.4974 4.06363C93.0988 4.72148 93.4011 5.57108 93.4011 6.60948ZM91.7651 6.65963C91.7651 6.018 91.6237 5.46783 91.3425 5.0091C91.0132 4.4545 90.541 4.1772 89.9305 4.1772C89.296 4.1772 88.8148 4.4545 88.4855 5.0091C88.2028 5.46783 88.063 6.02685 88.063 6.68765C88.063 7.32928 88.2043 7.87945 88.4855 8.33818C88.8268 8.89278 89.302 9.17008 89.9155 9.17008C90.517 9.17008 90.9876 8.88835 91.3275 8.32343C91.6207 7.85585 91.7651 7.30125 91.7651 6.65963Z" fill="white"/>
    <path d="M101.028 10.1436H99.6128L99.4955 9.34265H99.4519C98.9677 9.98133 98.2776 10.3014 97.3813 10.3014C96.7122 10.3014 96.1709 10.0905 95.7634 9.67158C95.3935 9.29103 95.2085 8.81755 95.2085 8.25558C95.2085 7.40598 95.5694 6.75845 96.2957 6.31005C97.0205 5.86165 98.04 5.64188 99.3527 5.6522V5.5224C99.3527 4.60643 98.8625 4.14918 97.8806 4.14918C97.1814 4.14918 96.5648 4.32175 96.0325 4.66395L95.7122 3.64915C96.3709 3.24943 97.1844 3.04883 98.1437 3.04883C99.9963 3.04883 100.926 4.00758 100.926 5.92508V8.48568C100.926 9.1804 100.96 9.73353 101.028 10.1436ZM99.3918 7.75408V6.68175C97.6535 6.65225 96.7844 7.11983 96.7844 8.083C96.7844 8.44585 96.8836 8.71725 97.0866 8.89868C97.2896 9.0801 97.5483 9.17008 97.8565 9.17008C98.2024 9.17008 98.5257 9.0624 98.8204 8.84853C99.1166 8.63318 99.2986 8.3603 99.3662 8.02548C99.3828 7.95025 99.3918 7.8588 99.3918 7.75408Z" fill="white"/>
    <path d="M109.982 10.1436H108.584L108.51 9.027H108.467C108.02 9.8766 107.259 10.3014 106.19 10.3014C105.336 10.3014 104.625 9.97247 104.061 9.31462C103.497 8.65677 103.216 7.80275 103.216 6.75402C103.216 5.6286 103.521 4.71705 104.135 4.02085C104.729 3.37185 105.456 3.04735 106.322 3.04735C107.274 3.04735 107.94 3.36152 108.319 3.99135H108.349V0H109.927V8.27032C109.927 8.94735 109.945 9.57127 109.982 10.1436ZM108.349 7.21127V6.05192C108.349 5.85133 108.334 5.68907 108.306 5.56518C108.217 5.19348 108.026 4.88077 107.736 4.62855C107.443 4.37632 107.089 4.24948 106.682 4.24948C106.094 4.24948 105.634 4.4781 105.295 4.93682C104.96 5.39555 104.79 5.98112 104.79 6.6965C104.79 7.38385 104.951 7.9414 105.274 8.37062C105.616 8.82787 106.076 9.0565 106.652 9.0565C107.169 9.0565 107.583 8.86622 107.897 8.4842C108.201 8.13167 108.349 7.70687 108.349 7.21127Z" fill="white"/>
    <path d="M123.46 6.60948C123.46 7.67885 123.149 8.555 122.526 9.24235C121.874 9.94888 121.011 10.3014 119.929 10.3014C118.89 10.3014 118.062 9.96363 117.442 9.28513C116.826 8.6081 116.517 7.75408 116.517 6.72453C116.517 5.64778 116.835 4.76425 117.472 4.07838C118.11 3.3925 118.967 3.04883 120.048 3.04883C121.087 3.04883 121.925 3.3866 122.556 4.06363C123.158 4.72148 123.46 5.57108 123.46 6.60948ZM121.827 6.65963C121.827 6.018 121.686 5.46783 121.404 5.0091C121.072 4.4545 120.603 4.1772 119.99 4.1772C119.358 4.1772 118.877 4.4545 118.544 5.0091C118.262 5.46783 118.122 6.02685 118.122 6.68765C118.122 7.32928 118.263 7.87945 118.544 8.33818C118.886 8.89278 119.361 9.17008 119.974 9.17008C120.576 9.17008 121.05 8.88835 121.389 8.32343C121.68 7.85585 121.827 7.30125 121.827 6.65963Z" fill="white"/>
    <path d="M131.933 10.1436H130.359V6.16111C130.359 4.93391 129.884 4.32031 128.929 4.32031C128.461 4.32031 128.084 4.48846 127.792 4.82623C127.501 5.16401 127.355 5.56226 127.355 6.01803V10.1421H125.777V5.17728C125.777 4.56663 125.759 3.90436 125.722 3.18751H127.105L127.179 4.27458H127.222C127.407 3.93681 127.681 3.65803 128.039 3.43531C128.467 3.17571 128.944 3.04443 129.469 3.04443C130.129 3.04443 130.679 3.25388 131.117 3.67426C131.663 4.18903 131.933 4.95751 131.933 5.97821V10.1436Z" fill="white"/>
    <path d="M142.539 4.34833H140.804V7.72608C140.804 8.58453 141.112 9.01375 141.723 9.01375C142.005 9.01375 142.24 8.99015 142.425 8.94148L142.465 10.1141C142.154 10.2292 141.745 10.2867 141.241 10.2867C140.619 10.2867 140.135 10.1008 139.784 9.72913C139.432 9.35743 139.258 8.73203 139.258 7.8544V4.34833H138.222V3.19045H139.258V1.91605L140.802 1.4588V3.18898H142.538V4.34833H142.539Z" fill="white"/>
    <path d="M150.882 10.1436H149.304V6.19057C149.304 4.9442 148.829 4.32027 147.877 4.32027C147.146 4.32027 146.647 4.68165 146.374 5.4044C146.327 5.55632 146.3 5.74217 146.3 5.96047V10.1421H144.725V0H146.3V4.19047H146.33C146.826 3.4279 147.537 3.04735 148.459 3.04735C149.112 3.04735 149.652 3.2568 150.08 3.67717C150.614 4.2008 150.882 4.9796 150.882 6.00915V10.1436Z" fill="white"/>
    <path d="M159.487 6.33811C159.487 6.61541 159.466 6.84846 159.429 7.03873H154.703C154.724 7.72608 154.949 8.24971 155.387 8.61256C155.787 8.93706 156.302 9.09931 156.934 9.09931C157.633 9.09931 158.271 8.99016 158.845 8.77038L159.092 9.84418C158.42 10.1303 157.629 10.2734 156.713 10.2734C155.615 10.2734 154.751 9.95628 154.125 9.32203C153.497 8.68778 153.185 7.83671 153.185 6.76881C153.185 5.72008 153.476 4.84688 154.06 4.15068C154.671 3.40728 155.496 3.03558 156.539 3.03558C157.558 3.03558 158.332 3.40728 158.856 4.15068C159.278 4.74068 159.487 5.47081 159.487 6.33811ZM157.984 5.93838C157.996 5.47966 157.892 5.08436 157.678 4.75101C157.405 4.32178 156.988 4.10643 156.424 4.10643C155.91 4.10643 155.49 4.31588 155.17 4.73626C154.909 5.07108 154.754 5.47081 154.703 5.93838H157.984Z" fill="white"/>
    </svg>
    