<svg width="36" height="36" viewBox="0 0 36 36" fill="none" xmlns="http://www.w3.org/2000/svg">
    <path d="M22.6471 1.5405C18.533 2.68489 14.729 4.66643 11.3304 7.43612C3.42331 13.9531 -0.528428 23.8279 0.759769 33.8497C0.897071 34.9177 1.79953 35.7178 2.8712 35.8021C3.02158 35.8139 3.17529 35.8119 3.3302 35.7947C4.59371 35.6507 5.49116 34.5478 5.33503 33.3316C4.23566 24.785 7.6019 16.368 14.3305 10.8232C17.2249 8.46367 20.4616 6.77544 23.9512 5.80468C25.1725 5.46502 25.8699 4.23553 25.5098 3.0576C25.1508 1.87976 23.8673 1.20075 22.6471 1.5405ZM33.6834 0.41682C33.423 0.396344 33.1202 0.38448 32.8555 0.406032C31.588 0.513882 30.6158 1.59136 30.7343 2.81223C30.8413 3.90614 31.7214 4.74683 32.8144 4.8328C32.8985 4.83941 32.9839 4.84136 33.0704 4.8386C33.1588 4.83579 33.2473 4.83389 33.3355 4.8401C34.6047 4.93992 35.7116 4.03059 35.8076 2.80922C35.9037 1.58785 34.9526 0.516644 33.6834 0.41682Z" fill="url(#paint0_linear_95_997)"/>
    <defs>
    <linearGradient id="paint0_linear_95_997" x1="19.4685" y1="-0.701211" x2="-7.9392e-07" y2="50" gradientUnits="userSpaceOnUse">
    <stop stop-color="white"/>
    <stop offset="1" stop-color="white" stop-opacity="0.53"/>
    </linearGradient>
    </defs>
    </svg>
    