<svg width="48" height="48" viewBox="0 0 48 48" fill="none" xmlns="http://www.w3.org/2000/svg">
<path d="M40.962 30.7939L37.662 27.4939C36.6783 26.5181 35.3505 25.968 33.965 25.9621C32.5794 25.9562 31.247 26.495 30.255 27.4624C29.7257 27.9948 29.0274 28.326 28.2803 28.3991C27.5332 28.4722 26.7839 28.2826 26.1615 27.8629C23.7048 26.2234 21.5943 24.117 19.95 21.6634C19.5378 21.0341 19.355 20.2818 19.4326 19.5335C19.5102 18.7851 19.8434 18.0864 20.376 17.5549C21.3346 16.5621 21.8665 15.2334 21.8579 13.8532C21.8492 12.4731 21.3006 11.1512 20.3295 10.1704L17.0295 6.87045C16.0415 5.88586 14.7036 5.33301 13.3088 5.33301C11.9139 5.33301 10.576 5.88586 9.58801 6.87045L8.63851 7.82145C3.68851 12.7714 4.05901 23.1784 14.358 33.4714C20.568 39.6829 26.8185 42.284 31.887 42.284C33.379 42.3336 34.866 42.0859 36.2613 41.5551C37.6565 41.0243 38.9322 40.2212 40.014 39.1924L40.965 38.2414C41.9514 37.253 42.5051 35.9135 42.5046 34.5171C42.504 33.1207 41.9492 31.7816 40.962 30.7939ZM38.841 36.1204L37.89 37.0714C33.99 40.9714 25.3815 40.2589 16.476 31.3519C7.57051 22.4449 6.85651 13.8304 10.7565 9.93045L11.7 8.98095C12.1248 8.55767 12.7001 8.32001 13.2998 8.32001C13.8994 8.32001 14.4747 8.55767 14.8995 8.98095L18.1995 12.2809C18.6166 12.7001 18.8534 13.2657 18.8592 13.857C18.8651 14.4483 18.6397 15.0185 18.231 15.4459C17.2174 16.466 16.5852 17.8034 16.4402 19.2341C16.2952 20.6647 16.6462 22.1018 17.4345 23.3044C19.3028 26.1003 21.7054 28.4993 24.504 30.3634C25.7031 31.1519 27.1364 31.505 28.5645 31.3638C29.9925 31.2227 31.329 30.5958 32.3505 29.5879C32.7771 29.1744 33.3489 28.9448 33.943 28.9485C34.5371 28.9521 35.106 29.1887 35.5275 29.6074L38.8275 32.9074C39.0402 33.1171 39.2093 33.3667 39.3252 33.6419C39.441 33.9171 39.5013 34.2125 39.5026 34.5111C39.5038 34.8098 39.446 35.1057 39.3325 35.3819C39.219 35.658 39.0519 35.9091 38.841 36.1204Z" fill="#E31E26"/>
</svg>
