<svg width="48" height="48" viewBox="0 0 48 48" fill="none" xmlns="http://www.w3.org/2000/svg">
<g clip-path="url(#clip0_95_2716)">
<path d="M0.571429 43.4671C0.88702 43.4671 1.14286 43.2112 1.14286 42.8956C1.14286 42.5801 0.88702 42.3242 0.571429 42.3242C0.255837 42.3242 0 42.5801 0 42.8956C0 43.2112 0.255837 43.4671 0.571429 43.4671Z" fill="#515151"/>
<path d="M3.14287 42.3242H2.28572C2.13417 42.3242 1.98883 42.3844 1.88166 42.4916C1.7745 42.5987 1.71429 42.7441 1.71429 42.8956C1.71429 43.0472 1.7745 43.1925 1.88166 43.2997C1.98883 43.4069 2.13417 43.4671 2.28572 43.4671H3.14287C3.29442 43.4671 3.43976 43.4069 3.54693 43.2997C3.65409 43.1925 3.71429 43.0472 3.71429 42.8956C3.71429 42.7441 3.65409 42.5987 3.54693 42.4916C3.43976 42.3844 3.29442 42.3242 3.14287 42.3242ZM45.7143 42.3242H44.8572C44.7056 42.3242 44.5603 42.3844 44.4531 42.4916C44.3459 42.5987 44.2857 42.7441 44.2857 42.8956C44.2857 43.0472 44.3459 43.1925 44.4531 43.2997C44.5603 43.4069 44.7056 43.4671 44.8572 43.4671H45.7143C45.8658 43.4671 46.0112 43.4069 46.1184 43.2997C46.2255 43.1925 46.2857 43.0472 46.2857 42.8956C46.2857 42.7441 46.2255 42.5987 46.1184 42.4916C46.0112 42.3844 45.8658 42.3242 45.7143 42.3242Z" fill="#515151"/>
<path d="M47.4285 43.4671C47.7441 43.4671 48 43.2112 48 42.8956C48 42.5801 47.7441 42.3242 47.4285 42.3242C47.113 42.3242 46.8571 42.5801 46.8571 42.8956C46.8571 43.2112 47.113 43.4671 47.4285 43.4671Z" fill="#515151"/>
<path d="M33.7583 44.6099H31.3846C31.241 44.6214 31.1069 44.6866 31.0092 44.7925C30.9114 44.8984 30.8571 45.0372 30.8571 45.1813C30.8571 45.3254 30.9114 45.4642 31.0092 45.5701C31.1069 45.676 31.241 45.7412 31.3846 45.7527H33.7583C33.9019 45.7412 34.036 45.676 34.1337 45.5701C34.2315 45.4642 34.2857 45.3254 34.2857 45.1813C34.2857 45.0372 34.2315 44.8984 34.1337 44.7925C34.036 44.6866 33.9019 44.6214 33.7583 44.6099ZM16.6154 44.6099H14.2418C14.0981 44.6214 13.9641 44.6866 13.8663 44.7925C13.7686 44.8984 13.7143 45.0372 13.7143 45.1813C13.7143 45.3254 13.7686 45.4642 13.8663 45.5701C13.9641 45.676 14.0981 45.7412 14.2418 45.7527H16.6154C16.7591 45.7412 16.8931 45.676 16.9909 45.5701C17.0886 45.4642 17.1429 45.3254 17.1429 45.1813C17.1429 45.0372 17.0886 44.8984 16.9909 44.7925C16.8931 44.6866 16.7591 44.6214 16.6154 44.6099ZM29.7143 44.6099H18.2857C18.1342 44.6099 17.9888 44.6701 17.8817 44.7772C17.7745 44.8844 17.7143 45.0297 17.7143 45.1813C17.7143 45.3328 17.7745 45.4782 17.8817 45.5854C17.9888 45.6925 18.1342 45.7527 18.2857 45.7527H22.84V46.3241H20.5714C20.4199 46.3241 20.2745 46.3844 20.1674 46.4915C20.0602 46.5987 20 46.744 20 46.8956C20 47.0471 20.0602 47.1925 20.1674 47.2996C20.2745 47.4068 20.4199 47.467 20.5714 47.467H27.7143C27.8659 47.467 28.0112 47.4068 28.1184 47.2996C28.2255 47.1925 28.2857 47.0471 28.2857 46.8956C28.2857 46.744 28.2255 46.5987 28.1184 46.4915C28.0112 46.3844 27.8659 46.3241 27.7143 46.3241H25.16V45.7527H29.7143C29.8659 45.7527 30.0112 45.6925 30.1184 45.5854C30.2255 45.4782 30.2857 45.3328 30.2857 45.1813C30.2857 45.0297 30.2255 44.8844 30.1184 44.7772C30.0112 44.6701 29.8659 44.6099 29.7143 44.6099Z" fill="#E31E26"/>
<path d="M22.7689 37.2531L22.9676 37.6716C23.0603 37.8669 23.2066 38.0319 23.3893 38.1474C23.5721 38.263 23.7838 38.3243 24 38.3243C24.2162 38.3243 24.428 38.263 24.6107 38.1474C24.7935 38.0319 24.9397 37.8669 25.0324 37.6716L25.2311 37.2531C27.0565 33.4787 29.3343 29.9405 32.0144 26.7164C33.22 25.2443 33.9823 23.4598 34.2122 21.5709C34.4421 19.6821 34.1303 17.7668 33.313 16.0485C32.4957 14.3302 31.2066 12.8796 29.5963 11.8661C27.9859 10.8526 26.1205 10.3179 24.2177 10.3243H23.7823C21.8796 10.3179 20.0142 10.8526 18.4038 11.8661C16.7934 12.8796 15.5044 14.3302 14.6871 16.0485C13.8698 17.7668 13.5579 19.6821 13.7878 21.5709C14.0178 23.4598 14.78 25.2443 15.9857 26.7164C18.6658 29.9405 20.9436 33.4787 22.7689 37.2531ZM23.7823 11.4671H24.2177C25.904 11.4607 27.5573 11.934 28.9848 12.8317C30.4123 13.7294 31.5551 15.0145 32.2799 16.5371C33.0046 18.0598 33.2814 19.7571 33.0779 21.4311C32.8745 23.1051 32.1992 24.6867 31.1309 25.9914C28.3902 29.2863 26.0623 32.9036 24.1987 36.7629L24 37.1814L23.8013 36.7629C21.9378 32.9036 19.6098 29.2863 16.8692 25.9914C15.8008 24.6867 15.1255 23.1051 14.9221 21.4311C14.7187 19.7571 14.9954 18.0598 15.7202 16.5371C16.4449 15.0145 17.5877 13.7294 19.0152 12.8317C20.4427 11.934 22.096 11.4607 23.7823 11.4671Z" fill="#515151"/>
<path d="M17.0517 22.2553C17.2011 22.2301 17.3345 22.1466 17.4223 22.0231C17.5102 21.8996 17.5454 21.7463 17.5202 21.5969C17.4999 21.476 17.4828 21.354 17.4691 21.231L17.4669 21.2103L17.4668 21.2099L17.4663 21.2052L17.4663 21.2049L17.4646 21.1895L17.4641 21.1846L17.4641 21.184L17.4636 21.1796L17.4636 21.1791L17.462 21.1639L17.4619 21.163L17.4615 21.159L17.4614 21.1579L17.461 21.1538L17.4609 21.153L17.4599 21.1429L17.4595 21.1381L17.4594 21.1371L17.459 21.1331L17.4589 21.132L17.4585 21.128L17.4584 21.127L17.4575 21.1171L17.4574 21.1164L17.457 21.1122L17.4569 21.1111L17.4565 21.1073L17.4564 21.106L17.4561 21.1021L17.456 21.1011L17.4551 21.0913L17.455 21.0902L17.4547 21.0864L17.4545 21.085L17.4542 21.0814L17.4541 21.0801L17.4538 21.0761L17.4537 21.0752L17.4532 21.0702L17.4528 21.0654L17.4527 21.064L17.4524 21.0605L17.4523 21.059L17.452 21.0555L17.4519 21.0541L17.4515 21.05L17.4515 21.0493L17.4511 21.0444L17.451 21.0432L17.4507 21.0395L17.4505 21.038L17.4503 21.0347L17.4501 21.033L17.4499 21.0296L17.4497 21.0281L17.4494 21.0239L17.4493 21.0233L17.449 21.0184L17.4489 21.0171L17.4486 21.0136L17.4485 21.0118L17.4482 21.0087L17.4481 21.0069L17.4478 21.0037L17.4477 21.0021L17.4473 20.9974L17.4473 20.9968L17.447 20.9925L17.4469 20.9909L17.4466 20.9876L17.4465 20.9859L17.4463 20.9828L17.4461 20.981L17.4459 20.9776L17.4458 20.9762L17.4454 20.9714L17.4454 20.9702L17.4451 20.9665L17.445 20.9648L17.4448 20.9617L17.4446 20.9598L17.4444 20.9568L17.4443 20.955L17.444 20.9514L17.444 20.9501L17.4436 20.9454L17.4435 20.944L17.4433 20.9405L17.4432 20.9387L17.443 20.9357L17.4428 20.9337L17.4427 20.9306L17.4425 20.9289L17.4423 20.9251L17.4422 20.9242L17.4419 20.9193L17.4418 20.9176L17.4416 20.9144L17.4415 20.9125L17.4413 20.9096L17.4412 20.9076L17.441 20.9046L17.4409 20.9028L17.4406 20.8984L17.4405 20.8971L17.4403 20.8933L17.4402 20.8913L17.44 20.8885L17.4399 20.8863L17.4398 20.8836L17.4396 20.8815L17.4395 20.8784L17.4394 20.8766L17.4391 20.872L17.439 20.8705L17.4388 20.8672L17.4387 20.8652L17.4385 20.8623L17.4384 20.8602L17.4383 20.8574L17.4382 20.8554L17.438 20.8521L17.4379 20.8505L17.4377 20.8458L17.4376 20.8443L17.4374 20.841L17.4373 20.839L17.4372 20.8363L17.437 20.8339L17.4369 20.8314L17.4368 20.8292L17.4367 20.8261L17.4365 20.8238L17.4363 20.8197L17.4362 20.8177L17.4361 20.8149L17.436 20.8128L17.4359 20.81L17.4358 20.8079L17.4356 20.805L17.4356 20.803L17.4354 20.7991L17.4353 20.7973L17.4351 20.7935L17.435 20.7917L17.4349 20.7886L17.4348 20.7867L17.4347 20.7837L17.4346 20.7818L17.4345 20.7783L17.4344 20.777L17.4342 20.7721L17.4342 20.771L17.434 20.7673L17.4339 20.7655L17.4338 20.7624L17.4338 20.7605L17.4336 20.7574L17.4336 20.7555L17.4334 20.7523L17.4334 20.7506L17.4332 20.7459L17.4331 20.7444L17.433 20.741L17.4329 20.7391L17.4328 20.7362L17.4328 20.7342L17.4327 20.7312L17.4326 20.7292L17.4325 20.7257L17.4324 20.7244L17.4323 20.7197L17.4322 20.718L17.4321 20.7148L17.4321 20.7129L17.4319 20.7099L17.4319 20.7079L17.4318 20.7048L17.4317 20.7031L17.4316 20.6986L17.4316 20.6976L17.4314 20.6934L17.4314 20.6917L17.4313 20.6885L17.4312 20.6866L17.4312 20.6836L17.4311 20.6816L17.431 20.6785L17.431 20.6767L17.4308 20.672L17.4308 20.6708L17.4307 20.6671L17.4307 20.6652L17.4306 20.6622L17.4306 20.6602L17.4305 20.6572L17.4304 20.6553L17.4304 20.6517L17.4303 20.6504L17.4302 20.6456L17.4302 20.6443L17.4301 20.6407L17.4301 20.639L17.43 20.6357L17.43 20.6339L17.4299 20.6307L17.4299 20.629L17.4298 20.625L17.4298 20.6241L17.4297 20.6192L17.4297 20.6178L17.4296 20.6143L17.4296 20.6125L17.4295 20.6094L17.4295 20.6076L17.4294 20.6043L17.4294 20.6026L17.4293 20.5978L17.4292 20.5929L17.4292 20.5912L17.4292 20.588L17.4292 20.586L17.4291 20.583L17.4291 20.5811L17.4291 20.5778L17.429 20.5762L17.429 20.5714L17.429 20.5705L17.4289 20.5664L17.4289 20.5648L17.4289 20.5615L17.4289 20.5597L17.4288 20.5565L17.4288 20.5547L17.4288 20.5511L17.4288 20.5498L17.4287 20.5449L17.4287 20.5436L17.4287 20.5401L17.4287 20.5382L17.4287 20.5351V20.5332L17.4287 20.5299L17.4286 20.5283L17.4286 20.5242V20.5234L17.4286 20.5185V20.517L17.4286 20.5135V20.5086L17.4286 20.5067V20.4865L17.4286 20.4857V20.4809L17.4287 20.4589C17.429 20.3073 17.3692 20.1616 17.2624 20.0539C17.1556 19.9462 17.0105 19.8852 16.8588 19.8843L16.8556 19.8843C16.7047 19.8842 16.56 19.944 16.4532 20.0505C16.3463 20.1571 16.2862 20.3016 16.2858 20.4525L16.2857 20.4969C16.2857 20.9291 16.3217 21.3606 16.3932 21.7868C16.4057 21.8608 16.4325 21.9317 16.4724 21.9953C16.5122 22.0589 16.5642 22.1141 16.6253 22.1576C16.6865 22.2011 16.7556 22.2321 16.8288 22.2489C16.9019 22.2657 16.9777 22.2679 17.0517 22.2553Z" fill="#515151"/>
<path d="M30.8779 22.5139C30.8078 22.4871 30.7332 22.4743 30.6582 22.4763C30.5832 22.4783 30.5094 22.495 30.4409 22.5256C30.3724 22.5561 30.3106 22.5999 30.259 22.6543C30.2074 22.7088 30.1671 22.7729 30.1403 22.8429C30.1241 22.8851 30.1076 22.9271 30.0906 22.9689L30.0788 22.9977L30.0787 22.998L30.0772 23.0017L30.0769 23.0024L30.0755 23.0058L30.0751 23.0067L30.0737 23.01L30.0733 23.011L30.0719 23.0143L30.0717 23.015L30.0635 23.0345L30.0632 23.0354L30.0619 23.0385L30.0613 23.0398L30.0602 23.0426L30.0595 23.0442L30.0583 23.0469L30.0577 23.0485L30.0565 23.0512L30.0559 23.0527L30.0546 23.0556L30.0541 23.0569L30.0528 23.0599L30.0523 23.0611L30.0497 23.0674L30.0493 23.0683L30.0482 23.0708L30.0474 23.0726L30.0464 23.0749L30.0455 23.0771L30.0446 23.0792L30.0437 23.0814L30.0427 23.0836L30.0418 23.0858L30.0409 23.088L30.0399 23.0902L30.039 23.0923L30.038 23.0947L30.0371 23.0966L30.0359 23.0994L30.0353 23.101L30.0334 23.1053L30.0315 23.1097L30.031 23.1108L30.0296 23.1141L30.0289 23.1156L30.0277 23.1185L30.027 23.1201L30.0258 23.1229L30.025 23.1245L30.0239 23.1272L30.0231 23.129L30.0219 23.1317L30.0212 23.1333L30.0199 23.1363L30.0193 23.1377L30.0174 23.1419L30.0154 23.1465L30.0134 23.1509L30.013 23.1519L30.0115 23.1552L30.0109 23.1566L30.0095 23.1597L30.0089 23.1611L30.0076 23.1641L30.007 23.1655L30.0056 23.1686L30.005 23.1699L30.0035 23.1732L30.0031 23.1742L30.0014 23.178L30.0011 23.1786L29.9971 23.1876L29.9969 23.188L29.9951 23.1919L29.9947 23.1929L29.9932 23.1963L29.9926 23.1976L29.9912 23.2006L29.9905 23.2021L29.9892 23.205L29.9886 23.2064L29.9871 23.2096L29.9866 23.2108L29.985 23.2143L29.9846 23.2151L29.9828 23.2192L29.9826 23.2195L29.9786 23.2284L29.9783 23.229L29.9766 23.2328L29.9761 23.2338L29.9746 23.2371L29.974 23.2383L29.9725 23.2416L29.972 23.2427L29.9705 23.246L29.97 23.2471L29.9684 23.2506L29.968 23.2515L29.9662 23.2553L29.9659 23.2558L29.9598 23.2691L29.9595 23.2698L29.9578 23.2734L29.9572 23.2747L29.9557 23.2778L29.9551 23.2791L29.9537 23.2822L29.9531 23.2835L29.9516 23.2866L29.9511 23.2878L29.9495 23.2911L29.949 23.2922L29.9471 23.2962L29.947 23.2965L29.9428 23.3054L29.9426 23.3057L29.9408 23.3096L29.9402 23.3108L29.9387 23.314L29.9381 23.3152L29.9366 23.3183L29.936 23.3197L29.9345 23.3227L29.9339 23.324L29.9325 23.327L29.9318 23.3284L29.9303 23.3316L29.9298 23.3327L29.9278 23.3368L29.9256 23.3414L29.9235 23.3456L29.9229 23.347L29.9214 23.35L29.9208 23.3513L29.9193 23.3543L29.9186 23.3558L29.9173 23.3586L29.9165 23.3601L29.9152 23.3628L29.9144 23.3645L29.913 23.3673L29.9124 23.3687L29.9108 23.3719L29.9102 23.373L29.9082 23.3771L29.906 23.3816L29.9054 23.3829L29.904 23.3858L29.9032 23.3874L29.9019 23.3901L29.901 23.3919L29.8998 23.3943L29.8989 23.3962L29.8977 23.3986L29.8968 23.4005L29.8956 23.4029L29.8947 23.4047L29.8935 23.4071L29.8925 23.409L29.8914 23.4112L29.8904 23.4133L29.8893 23.4156L29.8875 23.4192L29.8863 23.4216L29.8853 23.4236L29.8842 23.4258L29.8832 23.4279L29.8821 23.43L29.8811 23.4321L29.88 23.4343L29.8789 23.4364L29.8779 23.4385L29.8768 23.4406L29.8758 23.4426L29.8746 23.445L29.8738 23.4465L29.8725 23.4492L29.8719 23.4503L29.8668 23.4604L29.8664 23.4613L29.865 23.4641L29.8642 23.4656L29.8628 23.4683L29.8621 23.4697L29.8607 23.4724L29.86 23.4738L29.8586 23.4766L29.8579 23.478L29.8565 23.4807L29.8558 23.4821L29.8543 23.4849L29.854 23.4856L29.8465 23.5002L29.8461 23.5011L29.8445 23.5041L29.8439 23.5052L29.8424 23.5082L29.8418 23.5093L29.8403 23.5122L29.8397 23.5134L29.8381 23.5165L29.8377 23.5173L29.836 23.5206L29.8358 23.521L29.8256 23.5405L29.8238 23.544L29.8234 23.5446L29.8216 23.548L29.8214 23.5486L29.8196 23.552L29.8192 23.5527L29.8174 23.5561L29.8172 23.5565L29.8028 23.5837L29.8007 23.5877L29.7986 23.5916C29.7481 23.686 29.6953 23.7791 29.6404 23.8707C29.5626 24.0007 29.5396 24.1563 29.5765 24.3033C29.6135 24.4503 29.7073 24.5766 29.8373 24.6544C29.9673 24.7323 30.123 24.7553 30.27 24.7183C30.4169 24.6814 30.5433 24.5876 30.6211 24.4576C30.8512 24.0735 31.0474 23.67 31.2075 23.2519C31.2343 23.1818 31.2471 23.1071 31.245 23.0321C31.2429 22.957 31.2261 22.8832 31.1955 22.8146C31.1649 22.7461 31.1211 22.6843 31.0666 22.6327C31.0121 22.5811 30.948 22.5407 30.8779 22.5139Z" fill="#E31E26"/>
<path d="M28.5138 25.4615C28.3822 25.4614 28.2546 25.5069 28.1528 25.5903C28.018 25.7003 27.8789 25.805 27.7354 25.9044L27.7314 25.9071L27.7311 25.9073L27.7275 25.9098L27.727 25.9102L27.7235 25.9126L27.7229 25.913L27.7194 25.9153L27.7189 25.9157L27.7153 25.9182L27.7149 25.9184L27.6988 25.9295L27.6985 25.9297L27.6948 25.9322L27.6944 25.9325L27.691 25.9348L27.6899 25.9355L27.687 25.9375L27.6859 25.9382L27.683 25.9402L27.6819 25.941L27.679 25.9429L27.6779 25.9436L27.675 25.9456L27.674 25.9463L27.666 25.9517L27.6656 25.952L27.6621 25.9543L27.6609 25.9551L27.6582 25.9569L27.6567 25.958L27.6543 25.9596L27.6527 25.9606L27.6504 25.9622L27.6487 25.9633L27.6464 25.9649L27.6448 25.9659L27.6425 25.9675L27.6408 25.9686L27.6384 25.9702L27.6369 25.9712L27.6342 25.973L27.6329 25.9738L27.6291 25.9764L27.6275 25.9775L27.6252 25.979L27.6233 25.9803L27.6213 25.9816L27.6193 25.9829L27.6174 25.9841L27.6152 25.9856L27.6135 25.9867L27.6113 25.9882L27.6097 25.9892L27.6074 25.9908L27.6058 25.9918L27.6034 25.9934L27.6021 25.9942L27.5995 25.9959L27.5983 25.9967L27.5852 26.0053L27.5842 26.006L27.5814 26.0077L27.5803 26.0085L27.5776 26.0102L27.5764 26.011L27.5736 26.0128L27.5726 26.0134L27.5697 26.0153L27.5688 26.0159L27.5658 26.0179L27.5651 26.0183L27.5619 26.0204L27.5616 26.0206L27.5394 26.0349L27.5357 26.0372L27.5354 26.0374L27.532 26.0396L27.5316 26.0399C27.4259 26.1073 27.3182 26.1718 27.2085 26.2333C27.0767 26.3077 26.9797 26.4314 26.939 26.5772C26.8983 26.723 26.917 26.879 26.9912 27.0109C27.0653 27.1429 27.1888 27.24 27.3345 27.2811C27.4802 27.3221 27.6363 27.3036 27.7684 27.2297C28.1585 27.0108 28.5289 26.7585 28.8755 26.4756C28.9669 26.401 29.0329 26.3 29.0646 26.1863C29.0963 26.0727 29.092 25.9521 29.0524 25.841C29.0127 25.7299 28.9397 25.6338 28.8433 25.5658C28.7469 25.4979 28.6318 25.4614 28.5138 25.4615ZM30.4919 19.4718C30.5102 19.5886 30.5254 19.7064 30.5375 19.8252L30.5391 19.8407L30.5406 19.8563L30.5411 19.8614L30.5425 19.8768L30.5426 19.8773L30.544 19.8923L30.544 19.8928L30.5444 19.8974L30.5445 19.898L30.5454 19.9079L30.5454 19.9087L30.5458 19.913L30.5459 19.9137L30.5468 19.9237L30.5468 19.9241L30.5472 19.9285L30.5473 19.9295L30.5476 19.9339L30.5477 19.9343L30.5481 19.9394L30.5485 19.9442L30.5486 19.9452L30.5489 19.9492L30.549 19.9501L30.5498 19.9598L30.5499 19.9609L30.5502 19.9648L30.5503 19.9659L30.5506 19.9706L30.551 19.9757L30.5511 19.9764L30.5514 19.9805L30.5515 19.9816L30.5518 19.9857L30.5519 19.9865L30.5522 19.9913L30.5523 19.9922L30.5526 19.9962L30.5527 19.9975L30.553 20.0011L30.5531 20.0023L30.5538 20.0119L30.5539 20.0132L30.5541 20.0168L30.5542 20.0181L30.5545 20.0224L30.5546 20.0229L30.5549 20.0277L30.555 20.0288L30.5553 20.0325L30.5554 20.0339L30.5556 20.0378L30.5557 20.0387L30.556 20.0436L30.5561 20.0443L30.5564 20.0484L30.5564 20.0497L30.5567 20.0533L30.5568 20.0546L30.5571 20.0594L30.5574 20.0641L30.5575 20.0655L30.5577 20.069L30.5578 20.0705L30.5581 20.0745L30.5581 20.0752L30.5584 20.0799L30.5585 20.0813L30.5587 20.0847L30.5588 20.0863L30.559 20.09L30.5591 20.091L30.5594 20.0958L30.5594 20.0969L30.5596 20.1006L30.5597 20.1021L30.5599 20.1056L30.56 20.1069L30.5603 20.1117L30.5603 20.1122L30.5606 20.1164L30.5607 20.1179L30.5609 20.1213L30.5609 20.1228L30.5612 20.1269L30.5612 20.1276L30.5615 20.1323L30.5615 20.1337L30.5617 20.1372L30.5618 20.1387L30.562 20.1424L30.5621 20.1435L30.5623 20.1482L30.5624 20.1494L30.5626 20.1529L30.5626 20.1546L30.5628 20.1578L30.5629 20.1595L30.5631 20.1641L30.5632 20.1648L30.5634 20.1688L30.5634 20.1705L30.5636 20.1737L30.5637 20.1754L30.5639 20.1792L30.5639 20.1801L30.5641 20.1848L30.5642 20.1863L30.5644 20.1896L30.5644 20.1913L30.5646 20.1948L30.5646 20.196L30.5648 20.2007L30.5649 20.2017L30.5651 20.2056L30.5651 20.2071L30.5653 20.2106L30.5653 20.2119L30.5655 20.2167L30.5655 20.2171L30.5657 20.2215L30.5658 20.2229L30.5659 20.2264L30.566 20.2278L30.5662 20.2323V20.2326L30.5664 20.2374L30.5664 20.2387L30.5666 20.2422L30.5666 20.2438L30.5667 20.2475L30.5668 20.2486L30.567 20.2534L30.567 20.2545L30.5671 20.2581L30.5672 20.2598L30.5673 20.2631L30.5674 20.2646L30.5675 20.2693L30.5675 20.2701L30.5677 20.274L30.5677 20.2758L30.5678 20.279L30.5679 20.2806L30.568 20.2847L30.5681 20.2854L30.5682 20.29L30.5682 20.2916L30.5684 20.2949L30.5684 20.2965L30.5685 20.3004L30.5685 20.3013L30.5687 20.3061L30.5687 20.3071L30.5688 20.3109L30.5689 20.3125L30.569 20.316L30.569 20.3173L30.5691 20.3221L30.5691 20.3228L30.5692 20.3268L30.5693 20.3285L30.5694 20.3319L30.5694 20.3333L30.5695 20.3378L30.5695 20.3381L30.5696 20.343L30.5697 20.3443L30.5698 20.3478L30.5698 20.3493L30.5699 20.3532L30.5699 20.3542L30.57 20.3589L30.57 20.3601L30.5701 20.3638L30.5701 20.3653L30.5702 20.3689L30.5702 20.3702L30.5703 20.375L30.5703 20.3757L30.5704 20.3798L30.5704 20.3813L30.5705 20.3848L30.5705 20.3862L30.5706 20.3907L30.5706 20.3958L30.5707 20.3972L30.5707 20.4008L30.5707 20.4022L30.5708 20.4061V20.4069L30.5709 20.4119L30.5709 20.4132L30.5709 20.4167L30.5709 20.4183L30.571 20.4219L30.571 20.4232L30.571 20.428V20.4287L30.5711 20.4328L30.5711 20.4344L30.5711 20.4377L30.5711 20.4393L30.5712 20.4436V20.444L30.5712 20.4488L30.5712 20.4503L30.5713 20.4537L30.5713 20.4554L30.5713 20.4591V20.4602L30.5713 20.465V20.4662L30.5713 20.4698V20.4714L30.5714 20.4749V20.4763L30.5714 20.481V20.4858L30.5714 20.4874V20.503L30.5714 20.5126V20.5134L30.5714 20.5235C30.5713 20.5526 30.571 20.5818 30.5705 20.6108C30.5692 20.6858 30.5827 20.7603 30.6103 20.8302C30.6378 20.9 30.6788 20.9637 30.731 21.0176C30.7831 21.0716 30.8454 21.1147 30.9142 21.1446C30.9831 21.1745 31.0571 21.1905 31.1321 21.1918L31.142 21.1919C31.2919 21.1918 31.4357 21.1329 31.5425 21.0279C31.6493 20.9228 31.7106 20.78 31.7132 20.6302C31.7139 20.5859 31.7143 20.5415 31.7143 20.4971C31.7143 20.0946 31.6831 19.6926 31.621 19.2949C31.6096 19.2207 31.5836 19.1494 31.5445 19.0851C31.5055 19.0209 31.4542 18.965 31.3935 18.9207C31.3328 18.8763 31.264 18.8444 31.1909 18.8266C31.1179 18.8089 31.0421 18.8058 30.9678 18.8174C30.8936 18.8291 30.8223 18.8552 30.7582 18.8944C30.6941 18.9336 30.6383 18.9851 30.5941 19.0459C30.5499 19.1067 30.5181 19.1756 30.5006 19.2487C30.4831 19.3218 30.4801 19.3976 30.4919 19.4718Z" fill="#515151"/>
<path d="M25.155 26.9751C25.1244 26.9751 25.0939 26.9776 25.0637 26.9824C24.9944 26.9937 24.9248 27.0039 24.8549 27.013L24.8547 27.013L24.8507 27.0135L24.8384 27.0151L24.8347 27.0155L24.8339 27.0157L24.8304 27.0161L24.8297 27.0162L24.8187 27.0176L24.8176 27.0177L24.8145 27.0181L24.8131 27.0183L24.81 27.0186L24.8086 27.0188L24.8022 27.0196L24.8015 27.0197L24.7987 27.02L24.7969 27.0202L24.7941 27.0206L24.7923 27.0208L24.7896 27.0211L24.7877 27.0213L24.7833 27.0219L24.7809 27.0222L24.7784 27.0224L24.7762 27.0227L24.7738 27.023L24.7715 27.0233L24.7692 27.0235L24.7665 27.0239L24.7642 27.0241L24.7602 27.0246L24.758 27.0248L24.7556 27.0251L24.7533 27.0254L24.7507 27.0257L24.7487 27.0259L24.7455 27.0263L24.744 27.0264L24.7395 27.0269L24.7379 27.0271L24.7347 27.0275L24.733 27.0277L24.7298 27.028L24.7282 27.0282L24.7242 27.0286L24.7235 27.0287L24.7188 27.0292L24.7175 27.0294L24.714 27.0297L24.7124 27.0299L24.709 27.0303L24.7076 27.0304L24.698 27.0314L24.6972 27.0315L24.6932 27.0319L24.6919 27.0321L24.6882 27.0325L24.6871 27.0326L24.6774 27.0336L24.6764 27.0337L24.6725 27.0341L24.6713 27.0342L24.6672 27.0346L24.6665 27.0347L24.6566 27.0357L24.6559 27.0358L24.6516 27.0362L24.6507 27.0363L24.6462 27.0367L24.6458 27.0367L24.6357 27.0377L24.6352 27.0378L24.6308 27.0382L24.63 27.0383L24.6254 27.0387L24.6251 27.0387L24.6149 27.0397L24.6146 27.0397L24.6099 27.0401L24.6093 27.0402L24.5941 27.0416L24.5891 27.042L24.5886 27.0421L24.5733 27.0434L24.5682 27.0439L24.5474 27.0456L24.5265 27.0473L24.5108 27.0485L24.5057 27.0489L24.49 27.0501L24.4848 27.0504L24.4639 27.0519L24.4482 27.053L24.4429 27.0534L24.4273 27.0544L24.4221 27.0547L24.4063 27.0557L24.4011 27.056L24.3855 27.057L24.3851 27.057L24.3803 27.0573L24.38 27.0573L24.3645 27.0581L24.3641 27.0582L24.3592 27.0585L24.3487 27.059L24.3437 27.0593L24.3431 27.0593L24.3383 27.0595L24.338 27.0596L24.3277 27.0601L24.3274 27.0601L24.3227 27.0603L24.322 27.0604L24.3173 27.0606L24.317 27.0606L24.3067 27.0611L24.3063 27.0611L24.3017 27.0613L24.301 27.0613L24.2963 27.0615L24.296 27.0616L24.2857 27.062L24.2853 27.062L24.2807 27.0622L24.28 27.0622L24.2752 27.0625L24.2647 27.0629L24.2643 27.0629L24.2597 27.0631L24.2589 27.0631L24.2543 27.0633L24.2539 27.0633L24.2437 27.0637L24.2429 27.0637L24.2387 27.0638L24.2378 27.0639L24.2333 27.064L24.2328 27.0641L24.2228 27.0644L24.2217 27.0644L24.2177 27.0646L24.2166 27.0646L24.2123 27.0647L24.2117 27.0647L24.2016 27.0651L24.2007 27.0651L24.1966 27.0652L24.1955 27.0653L24.1911 27.0654L24.1906 27.0654L24.1854 27.0655L24.1806 27.0657L24.1794 27.0657L24.1756 27.0658L24.1743 27.0658L24.1701 27.0659L24.1694 27.066L24.1644 27.0661H24.1638L24.1595 27.0662L24.1582 27.0662L24.1544 27.0663L24.1532 27.0664L24.149 27.0664L24.1483 27.0665L24.1433 27.0666L24.1426 27.0666L24.1384 27.0667L24.1371 27.0667L24.1333 27.0668L24.1321 27.0668L24.1278 27.0669L24.1271 27.0669L24.1222 27.067L24.1212 27.067L24.1173 27.0671L24.1159 27.0671L24.1123 27.0672L24.1108 27.0672L24.1068 27.0672L24.1059 27.0673L24.101 27.0673H24.1L24.0961 27.0674L24.0947 27.0674L24.0911 27.0675L24.0897 27.0675L24.0854 27.0676H24.0848L24.0799 27.0676L24.0786 27.0676L24.075 27.0677L24.0734 27.0677L24.0699 27.0677L24.0685 27.0677L24.0642 27.0678H24.0638L24.0587 27.0678L24.0574 27.0678L24.0538 27.0679L24.0522 27.0679L24.0488 27.0679L24.0472 27.0679L24.0429 27.0679L24.0424 27.068L24.0375 27.068L24.0362 27.068L24.0326 27.068H24.031L24.0275 27.068H24.0261L24.0215 27.0681H24.0212L24.0163 27.0681H24.0149L24.0114 27.0681H23.9872L23.9851 27.0681H23.9805L23.9765 27.0681H23.976C23.9585 27.068 23.9413 27.0679 23.9238 27.0677H23.9208C23.7696 27.0678 23.6245 27.1276 23.517 27.2339C23.4095 27.3402 23.3481 27.4846 23.3462 27.6358C23.3453 27.7107 23.3592 27.7851 23.3871 27.8546C23.4151 27.9241 23.4565 27.9874 23.509 28.0408C23.5615 28.0942 23.6241 28.1367 23.6931 28.1658C23.7622 28.195 23.8363 28.2101 23.9112 28.2105L24 28.2109C24.4173 28.2109 24.834 28.1774 25.246 28.1106C25.3877 28.0876 25.5155 28.0121 25.604 27.8991C25.6926 27.7862 25.7354 27.644 25.7239 27.5009C25.7124 27.3579 25.6475 27.2243 25.5421 27.1269C25.4367 27.0295 25.2985 26.9753 25.155 26.9751Z" fill="#E31E26"/>
<path d="M21.6893 26.6504C21.6709 26.6435 21.6525 26.6365 21.6341 26.6294L21.6301 26.6279L21.6297 26.6277L21.6259 26.6262L21.6254 26.6261L21.6217 26.6246L21.6209 26.6243L21.6174 26.6229L21.617 26.6228L21.6009 26.6165L21.6005 26.6164L21.5972 26.615L21.5961 26.6146L21.593 26.6134L21.5918 26.6129L21.5888 26.6117L21.5873 26.6112L21.5845 26.61L21.5829 26.6094L21.5801 26.6083L21.5785 26.6077L21.5758 26.6066L21.5742 26.6059L21.5714 26.6048L21.5697 26.6042L21.5653 26.6024L21.5628 26.6014L21.5609 26.6006L21.5583 26.5996L21.5565 26.5989L21.5539 26.5978L21.552 26.5971L21.5494 26.596L21.5476 26.5953L21.5449 26.5942L21.5432 26.5935L21.5403 26.5924L21.5388 26.5918L21.5357 26.5905L21.5343 26.59L21.5302 26.5883L21.5299 26.5882L21.5254 26.5863L21.5248 26.5861L21.5209 26.5845L21.5198 26.584L21.5165 26.5827L21.515 26.5821L21.512 26.5809L21.5105 26.5803L21.5075 26.5791L21.5061 26.5785L21.5029 26.5771L21.5017 26.5766L21.4982 26.5752L21.4972 26.5748L21.4929 26.573L21.4836 26.5692L21.4792 26.5674L21.4784 26.567L21.4747 26.5655L21.4738 26.5651L21.4702 26.5636L21.4693 26.5632L21.4656 26.5617L21.4648 26.5613L21.461 26.5598L21.4603 26.5595L21.4422 26.5518L21.4418 26.5517L21.4376 26.5499L21.4371 26.5497L21.4331 26.548L21.4325 26.5477L21.4285 26.546L21.428 26.5458L21.424 26.5441L21.4235 26.5439L21.4007 26.5341L21.3962 26.5322L21.3959 26.532L21.3918 26.5302L21.3912 26.53L21.3872 26.5283L21.3867 26.5281L21.3826 26.5263L21.3822 26.5261L21.3595 26.5162L21.355 26.5142L21.3547 26.5141L21.3506 26.5123L21.35 26.512L21.346 26.5102L21.3456 26.51L21.3412 26.5081L21.3185 26.498L21.3181 26.4978L21.3141 26.496L21.3134 26.4957L21.3095 26.494L21.309 26.4937L21.3049 26.4919L21.3045 26.4917L21.282 26.4815L21.2776 26.4795L21.2771 26.4793L21.2731 26.4775L21.2726 26.4772L21.2687 26.4755L21.2681 26.4752L21.264 26.4733L21.2637 26.4732L21.2457 26.4649L21.2414 26.4629L21.2406 26.4625L21.237 26.4608L21.2361 26.4604L21.2326 26.4588L21.2317 26.4584L21.228 26.4567L21.2273 26.4563L21.2235 26.4546L21.2229 26.4543L21.2095 26.448L21.2053 26.446L21.2043 26.4455L21.2009 26.4439L21.1998 26.4434L21.1965 26.4419L21.1953 26.4413L21.1922 26.4398L21.191 26.4393L21.1878 26.4378L21.1866 26.4372L21.1831 26.4355L21.1823 26.4351L21.1692 26.4289L21.1681 26.4284L21.1648 26.4268L21.1636 26.4262L21.1605 26.4248L21.1591 26.4241L21.1563 26.4227L21.1547 26.422L21.152 26.4207L21.1503 26.4198L21.1476 26.4185L21.1461 26.4178L21.1432 26.4164L21.1417 26.4157L21.1377 26.4137L21.1333 26.4116L21.1318 26.4109L21.129 26.4095L21.1273 26.4087L21.1248 26.4075L21.1228 26.4065L21.1205 26.4054L21.1185 26.4044L21.1163 26.4033L21.1142 26.4023L21.1121 26.4012L21.1099 26.4002L21.1079 26.3992L21.1057 26.3981L21.1036 26.3971L21.1014 26.396L21.0999 26.3952L21.0947 26.3927L21.0933 26.392L21.0906 26.3907L21.0891 26.3899L21.0865 26.3886L21.0849 26.3879L21.0823 26.3866L21.0808 26.3858L21.078 26.3844L21.0767 26.3838L21.0739 26.3824L21.0726 26.3817L21.0696 26.3803L21.0687 26.3798L21.0655 26.3782L21.0536 26.3723L21.0502 26.3705L21.0493 26.3701L21.046 26.3684L21.0453 26.3681L21.042 26.3664L21.0412 26.366L21.0379 26.3643L21.0371 26.3639L21.0338 26.3623L21.0331 26.3619L21.0058 26.348L21.002 26.346L21.0017 26.3459C20.8854 26.2861 20.771 26.223 20.6586 26.1565C20.5281 26.0803 20.3728 26.0589 20.2266 26.0969C20.0804 26.135 19.9552 26.2293 19.8784 26.3594C19.8016 26.4895 19.7794 26.6447 19.8167 26.7911C19.854 26.9375 19.9478 27.0631 20.0775 27.1406C20.4629 27.3685 20.8675 27.5624 21.2866 27.72C21.4284 27.7732 21.5855 27.7679 21.7234 27.7053C21.8613 27.6428 21.9687 27.528 22.022 27.3863C22.0754 27.2446 22.0703 27.0875 22.0079 26.9495C21.9455 26.8115 21.8309 26.704 21.6893 26.6504ZM26.382 14.3704C26.4161 14.3836 26.45 14.3971 26.4838 14.4109L26.4842 14.4111L26.4883 14.4128L26.4888 14.413L26.4929 14.4147L26.4934 14.4149L26.5162 14.4243L26.5168 14.4245L26.5205 14.4261L26.5217 14.4266L26.525 14.428L26.5262 14.4285L26.5294 14.4298L26.5308 14.4304L26.534 14.4317L26.5352 14.4322L26.5384 14.4336L26.5397 14.4341L26.5436 14.4357L26.5441 14.436L26.5486 14.4379L26.549 14.438L26.5529 14.4397L26.5547 14.4404L26.5573 14.4415L26.5593 14.4424L26.5616 14.4434L26.5636 14.4442L26.5661 14.4452L26.5681 14.4461L26.5705 14.4471L26.5725 14.4479L26.5748 14.4489L26.5769 14.4498L26.5793 14.4509L26.5812 14.4517L26.5838 14.4528L26.588 14.4546L26.5898 14.4553L26.5923 14.4564L26.5941 14.4572L26.5966 14.4583L26.5985 14.4591L26.6009 14.4601L26.6028 14.461L26.6052 14.462L26.6071 14.4628L26.6096 14.4639L26.6114 14.4647L26.6139 14.4658L26.6158 14.4666L26.6183 14.4677L26.6198 14.4684L26.6226 14.4695L26.6229 14.4697L26.6302 14.4729L26.6309 14.4732L26.6338 14.4744L26.6352 14.4751L26.6379 14.4762L26.6395 14.477L26.6422 14.4781L26.6438 14.4789L26.6464 14.48L26.6482 14.4808L26.6508 14.4819L26.6523 14.4826L26.6551 14.4838L26.6565 14.4844L26.6594 14.4857L26.6603 14.4861L26.6709 14.4908L26.6719 14.4913L26.6748 14.4926L26.6762 14.4932L26.6789 14.4944L26.6805 14.4951L26.6832 14.4963L26.6847 14.497L26.6875 14.4983L26.689 14.4989L26.6918 14.5002L26.6932 14.5008L26.6961 14.5021L26.6972 14.5026L26.7115 14.5091L26.7128 14.5097L26.7156 14.5109L26.7171 14.5116L26.7198 14.5128L26.7213 14.5135L26.7241 14.5148L26.7255 14.5154L26.7283 14.5167L26.7298 14.5174L26.7326 14.5187L26.7339 14.5193L26.7369 14.5206L26.7378 14.5211L26.7483 14.5259L26.7493 14.5263L26.7519 14.5276L26.7536 14.5283L26.7561 14.5295L26.7578 14.5303L26.7604 14.5315L26.7621 14.5323L26.7646 14.5334L26.7664 14.5343L26.7689 14.5354L26.7706 14.5362L26.7732 14.5374L26.7748 14.5382L26.7774 14.5394L26.7791 14.5402L26.7882 14.5444L26.7899 14.5453L26.7923 14.5464L26.7942 14.5473L26.7966 14.5484L26.7985 14.5493L26.8007 14.5504L26.8028 14.5513L26.805 14.5524L26.8071 14.5534L26.8093 14.5544L26.8114 14.5554L26.8136 14.5564L26.8156 14.5574L26.8178 14.5585L26.8203 14.5596L26.8233 14.5611L26.8262 14.5624L26.828 14.5633L26.8305 14.5645L26.8325 14.5654L26.8348 14.5665L26.8367 14.5675L26.8391 14.5686L26.841 14.5695L26.8434 14.5707L26.8453 14.5716L26.8476 14.5727L26.8496 14.5737L26.8521 14.5749L26.8538 14.5757L26.8568 14.5771L26.8581 14.5778L26.8624 14.5798L26.863 14.5801L26.8667 14.5819L26.868 14.5826L26.871 14.584L26.8724 14.5847L26.8753 14.5861L26.8768 14.5869L26.8795 14.5882L26.8812 14.589L26.8839 14.5903L26.8854 14.5911L26.8884 14.5925L26.8896 14.5931L26.8931 14.5948L26.8939 14.5952L26.9027 14.5996L26.907 14.6017L26.9077 14.602L26.9113 14.6038L26.9124 14.6043L26.9156 14.6059L26.9168 14.6065L26.9199 14.608L26.9211 14.6087L26.9244 14.6103L26.9254 14.6108L26.929 14.6126L26.9296 14.6129L26.9471 14.6217L26.9477 14.6219L26.9514 14.6238L26.9522 14.6242L26.9558 14.626L26.9566 14.6264L26.9602 14.6283L26.9609 14.6286L26.9648 14.6306L26.9652 14.6308L26.9872 14.642L26.9914 14.6441L26.992 14.6444L26.9958 14.6464L26.9963 14.6467L27.0004 14.6488C27.1242 14.7124 27.2459 14.7799 27.365 14.8511L27.3692 14.8536L27.3695 14.8538L27.3733 14.8561L27.3738 14.8564L27.3777 14.8587L27.3948 14.869L27.395 14.8692L27.3988 14.8715L27.3996 14.872L27.4029 14.8739L27.4039 14.8746L27.4056 14.8756C27.5351 14.9539 27.6904 14.9776 27.8374 14.9415C27.9844 14.9054 28.1111 14.8125 28.1896 14.6831C28.2682 14.5537 28.2922 14.3985 28.2564 14.2514C28.2206 14.1043 28.1279 13.9775 27.9987 13.8987C27.616 13.6664 27.2137 13.4678 26.7965 13.3053C26.6554 13.2509 26.4984 13.2547 26.3601 13.3158C26.2217 13.3769 26.1132 13.4904 26.0584 13.6313C26.0035 13.7723 26.0068 13.9292 26.0675 14.0677C26.1281 14.2063 26.2412 14.3151 26.382 14.3704ZM19.4227 15.5847C19.5561 15.5849 19.6853 15.5381 19.7877 15.4527C19.8861 15.3704 19.9867 15.2911 20.0897 15.2148L20.0934 15.2121L20.097 15.2094L20.1181 15.1938L20.1187 15.1934L20.1217 15.1913L20.1225 15.1907L20.1253 15.1886L20.1263 15.1879L20.129 15.1859L20.1298 15.1853L20.1328 15.1831L20.1335 15.1826L20.1365 15.1804L20.1369 15.1801L20.1505 15.1702L20.1511 15.1699L20.1537 15.1679L20.1549 15.1671L20.1575 15.1653L20.1587 15.1644L20.1611 15.1626L20.1624 15.1616L20.1649 15.1599L20.1662 15.1589L20.1686 15.1572L20.1701 15.1562L20.1724 15.1545L20.1738 15.1535L20.1762 15.1518L20.1774 15.1509L20.1828 15.1471L20.1836 15.1465L20.1857 15.1449L20.1874 15.1438L20.1896 15.1422L20.1912 15.141L20.1934 15.1395L20.195 15.1383L20.1972 15.1368L20.1989 15.1356L20.2009 15.1341L20.2027 15.1329L20.2047 15.1314L20.2066 15.1301L20.2086 15.1287L20.2106 15.1273L20.2124 15.126L20.2147 15.1244L20.2162 15.1233L20.2197 15.1208L20.2212 15.1198L20.2239 15.1179L20.2254 15.1169L20.2277 15.1152L20.2293 15.1141L20.2316 15.1125L20.2332 15.1114L20.2355 15.1097L20.2371 15.1087L20.2395 15.107L20.2409 15.106L20.2434 15.1042L20.2449 15.1032L20.2474 15.1014L20.2487 15.1005L20.2516 15.0985L20.2526 15.0978L20.2604 15.0924L20.2617 15.0915L20.2643 15.0897L20.2657 15.0888L20.2683 15.087L20.2696 15.086L20.2722 15.0843L20.2736 15.0833L20.2761 15.0816L20.2776 15.0806L20.2801 15.0788L20.2815 15.0779L20.2841 15.0761L20.2854 15.0752L20.2883 15.0732L20.2893 15.0725L20.293 15.07L20.3012 15.0644L20.3017 15.064L20.3051 15.0617L20.3061 15.061L20.309 15.059L20.3103 15.0581L20.3129 15.0564L20.3142 15.0555L20.3169 15.0537L20.3182 15.0528L20.3209 15.0509L20.3221 15.0501L20.325 15.0482L20.3261 15.0475L20.3299 15.0449L20.3381 15.0394L20.3385 15.0391L20.342 15.0367L20.3429 15.0361L20.346 15.034L20.347 15.0334L20.35 15.0314L20.3511 15.0307L20.3541 15.0287L20.355 15.028L20.3581 15.0259L20.359 15.0254L20.3624 15.0231L20.3628 15.0228L20.3792 15.012L20.3797 15.0116L20.3831 15.0093L20.384 15.0088L20.3871 15.0067L20.3881 15.0061L20.3911 15.0041L20.3922 15.0034L20.3952 15.0014L20.3962 15.0008L20.3994 14.9986L20.4001 14.9981L20.4165 14.9874L20.4205 14.9848L20.421 14.9845L20.4244 14.9823L20.4254 14.9817L20.4285 14.9797L20.4294 14.979L20.4326 14.977L20.4335 14.9764L20.4368 14.9743L20.4375 14.9738L20.441 14.9716L20.4415 14.9712L20.4539 14.9633L20.4579 14.9607L20.4584 14.9603L20.4619 14.9581L20.4627 14.9576L20.466 14.9555L20.4668 14.955L20.4701 14.9529L20.4709 14.9524L20.4743 14.9502L20.475 14.9498L20.4788 14.9474L20.4956 14.9367L20.4958 14.9365L20.4996 14.9342L20.5003 14.9337L20.5037 14.9316L20.5045 14.9311L20.5078 14.929L20.5085 14.9285L20.512 14.9264L20.5124 14.9261L20.5162 14.9237L20.5167 14.9234L20.5334 14.913L20.5374 14.9105L20.5379 14.9102L20.5415 14.908L20.5422 14.9075L20.5456 14.9054L20.5464 14.9049L20.5497 14.9028L20.5505 14.9024L20.554 14.9002L20.5544 14.9L20.5583 14.8976L20.5587 14.8973L20.5754 14.8871L20.5759 14.8868L20.5795 14.8846L20.5802 14.8841L20.5836 14.8821L20.5844 14.8816L20.5877 14.8795L20.5886 14.879L20.5919 14.877L20.5928 14.8765L20.5964 14.8743L20.5968 14.8741L20.6136 14.8639L20.6177 14.8614L20.6183 14.8611L20.6219 14.8589L20.6225 14.8585L20.6259 14.8565L20.6268 14.856L20.6303 14.8539L20.6308 14.8536L20.6347 14.8513L20.635 14.8511L20.6561 14.8385L20.6564 14.8383L20.6602 14.8361L20.6609 14.8357L20.6645 14.8336L20.665 14.8332L20.6686 14.8311L20.6693 14.8307L20.6729 14.8286L20.6734 14.8283L20.6775 14.8259L20.6946 14.8159L20.6988 14.8134L20.6993 14.8132L20.703 14.811L20.7036 14.8107L20.7072 14.8085L20.7076 14.8083L20.7115 14.806L20.712 14.8058L20.7247 14.7984C20.8561 14.7228 20.952 14.598 20.9913 14.4517C21.0307 14.3053 21.0103 14.1493 20.9347 14.018C20.859 13.8867 20.7343 13.7908 20.588 13.7514C20.4416 13.7121 20.2856 13.7324 20.1543 13.8081C19.7668 14.0315 19.3993 14.288 19.056 14.5748C18.9659 14.6501 18.9012 14.7513 18.8706 14.8646C18.8401 14.978 18.8452 15.098 18.8853 15.2083C18.9253 15.3187 18.9984 15.414 19.0946 15.4814C19.1907 15.5487 19.3053 15.5848 19.4227 15.5847Z" fill="#515151"/>
<path d="M29.1504 16.4153L29.153 16.4186L29.1533 16.419L29.1558 16.4221L29.1562 16.4226L29.1586 16.4256L29.159 16.4261L29.1614 16.4291L29.1619 16.4298L29.1724 16.4432L29.1746 16.4459L29.1754 16.447L29.1772 16.4493L29.1783 16.4507L29.18 16.4529L29.1813 16.4545L29.1828 16.4564L29.1842 16.4583L29.1857 16.4601L29.1872 16.462L29.1885 16.4638L29.1902 16.4659L29.1914 16.4675L29.1934 16.47L29.1943 16.4712L29.2001 16.4788L29.2004 16.479L29.2031 16.4825L29.2034 16.483L29.206 16.4863L29.2066 16.4871L29.209 16.4902L29.2096 16.4909L29.2119 16.494L29.2125 16.4948L29.2149 16.4979L29.2154 16.4986L29.218 16.5019L29.2184 16.5024C29.3728 16.7038 29.5154 16.914 29.6456 17.1319L29.6481 17.1361L29.6506 17.1402L29.6508 17.1406L29.6532 17.1446L29.6659 17.166L29.6683 17.1701L29.6686 17.1707L29.6707 17.1742L29.6712 17.1751L29.6732 17.1784L29.6736 17.1792L29.6756 17.1826L29.6761 17.1834L29.6782 17.187L29.6785 17.1876L29.6809 17.1915L29.6883 17.2044L29.6887 17.2051L29.6907 17.2085L29.6914 17.2096L29.6931 17.2127L29.6938 17.2139L29.6955 17.2168L29.6963 17.2181L29.6978 17.2209L29.6987 17.2223L29.7002 17.225L29.7011 17.2265L29.7027 17.2293L29.7034 17.2306L29.7055 17.2341L29.7058 17.2347L29.7082 17.2389L29.7086 17.2396L29.7105 17.243L29.7113 17.2444L29.7129 17.2471L29.7138 17.2487L29.7152 17.2512L29.7162 17.253L29.7176 17.2553L29.7186 17.2571L29.7199 17.2594L29.721 17.2613L29.7222 17.2635L29.7233 17.2655L29.7245 17.2676L29.7256 17.2696L29.7269 17.2719L29.728 17.2737L29.7292 17.276L29.7314 17.2798L29.7325 17.2818L29.7337 17.284L29.7348 17.2859L29.736 17.2881L29.7371 17.29L29.7384 17.2922L29.7394 17.294L29.7407 17.2964L29.7417 17.2981L29.743 17.3005L29.7439 17.3022L29.7453 17.3046L29.7463 17.3063L29.7476 17.3087L29.7484 17.3102L29.7499 17.3128L29.7502 17.3135L29.754 17.3204L29.7542 17.3207C29.7905 17.3864 29.8394 17.4443 29.8981 17.491C29.9568 17.5378 30.0241 17.5725 30.0963 17.5933C30.1684 17.614 30.2439 17.6204 30.3184 17.6119C30.393 17.6035 30.4652 17.5805 30.5308 17.5442C30.5965 17.5078 30.6544 17.4589 30.7011 17.4002C30.7479 17.3416 30.7827 17.2742 30.8034 17.2021C30.8242 17.13 30.8305 17.0545 30.8221 16.9799C30.8136 16.9054 30.7906 16.8332 30.7543 16.7675C30.5376 16.3761 30.2874 16.0042 30.0066 15.656C29.9114 15.538 29.7734 15.4626 29.6227 15.4465C29.472 15.4303 29.321 15.4746 29.203 15.5697C29.0851 15.6648 29.0097 15.8029 28.9935 15.9536C28.9773 16.1043 29.0217 16.2552 29.1168 16.3732C29.1279 16.3871 29.1393 16.4013 29.1504 16.4153ZM18.3963 23.9313L18.3947 23.9287L18.3939 23.9274L18.3923 23.9248L18.3914 23.9234L18.3898 23.9207L18.3892 23.9198L18.3874 23.9168L18.3806 23.9057L18.3804 23.9052L18.3785 23.9022L18.3779 23.9012L18.3762 23.8984L18.3755 23.8972L18.3739 23.8946L18.373 23.8931L18.3715 23.8906L18.3707 23.8892L18.369 23.8866L18.3682 23.8852L18.3667 23.8826L18.3659 23.8813L18.3642 23.8786L18.3638 23.8778L18.3579 23.868L18.3572 23.8668L18.3558 23.8644L18.3548 23.8628L18.3534 23.8604L18.3524 23.8588L18.351 23.8564L18.35 23.8548L18.3485 23.8523L18.3476 23.8507L18.3462 23.8484L18.3452 23.8467L18.3437 23.8443L18.3429 23.8428L18.3413 23.8402L18.3407 23.8391L18.335 23.8295L18.3344 23.8284L18.3329 23.8259L18.332 23.8244L18.3306 23.8219L18.3296 23.8203L18.3282 23.8179L18.3272 23.8162L18.3259 23.8139L18.3249 23.8122L18.3235 23.8099L18.3225 23.8081L18.3211 23.8058L18.3201 23.8041L18.3188 23.8018L18.3177 23.8L18.3164 23.7977L18.3157 23.7965L18.3126 23.7912L18.3118 23.7898L18.3105 23.7876L18.3094 23.7857L18.3082 23.7835L18.307 23.7816L18.3058 23.7795L18.3047 23.7775L18.3034 23.7753L18.3024 23.7735L18.3011 23.7713L18.3 23.7694L18.2987 23.7671L18.2976 23.7653L18.2964 23.7631L18.2952 23.761L18.2941 23.759L18.2925 23.7563L18.2917 23.755L18.2894 23.751L18.2885 23.7494L18.2871 23.7468L18.2861 23.7452L18.2847 23.7427L18.2838 23.741L18.2828 23.7394C18.2459 23.6739 18.1964 23.6163 18.1372 23.57C18.0779 23.5237 18.0101 23.4895 17.9377 23.4694C17.8652 23.4494 17.7895 23.4438 17.7148 23.453C17.6402 23.4623 17.5682 23.4862 17.5028 23.5233C17.4374 23.5605 17.38 23.6102 17.3339 23.6696C17.2878 23.7289 17.2538 23.7969 17.234 23.8694C17.2141 23.9419 17.2088 24.0176 17.2183 24.0922C17.2278 24.1668 17.2519 24.2388 17.2893 24.3041C17.5104 24.6929 17.7648 25.0619 18.0497 25.4068C18.1461 25.5238 18.285 25.5976 18.4358 25.6121C18.5867 25.6266 18.7371 25.5806 18.8541 25.4842C18.971 25.3878 19.0448 25.2489 19.0594 25.098C19.0739 24.9472 19.0279 24.7967 18.9315 24.6798C18.8839 24.6223 18.8375 24.5641 18.792 24.505L18.7893 24.5015L18.7866 24.498L18.7863 24.4977L18.7838 24.4944L18.7676 24.4732L18.7652 24.47L18.7646 24.4693L18.7625 24.4665L18.7618 24.4657L18.7597 24.4628L18.7591 24.462L18.7569 24.4592L18.7563 24.4584L18.7542 24.4556L18.7536 24.4547L18.7514 24.4518L18.7512 24.4516L18.7411 24.4381L18.7405 24.4374L18.7385 24.4347L18.7377 24.4337L18.7357 24.431L18.735 24.43L18.733 24.4274L18.7321 24.4262L18.7303 24.4237L18.7294 24.4226L18.7275 24.42L18.7267 24.4189L18.7247 24.4163L18.7241 24.4154L18.7147 24.4028L18.7138 24.4016L18.7122 24.3993L18.7111 24.3978L18.7093 24.3955L18.7083 24.3941L18.7066 24.3918L18.7055 24.3903L18.7039 24.3881L18.7027 24.3865L18.7012 24.3844L18.7 24.3828L18.6983 24.3805L18.6973 24.3792L18.6956 24.3768L18.6947 24.3755L18.6908 24.3702L18.6902 24.3695L18.6884 24.367L18.6875 24.3657L18.6858 24.3634L18.6847 24.3619L18.6832 24.3598L18.6819 24.3581L18.6804 24.356L18.6791 24.3542L18.6777 24.3522L18.6764 24.3505L18.6749 24.3485L18.6736 24.3466L18.6722 24.3447L18.6708 24.3427L18.6694 24.3409L18.6679 24.3387L18.6667 24.337L18.6648 24.3344L18.6628 24.3316L18.6613 24.3295L18.66 24.3278L18.6585 24.3257L18.6572 24.3239L18.6558 24.3219L18.6544 24.32L18.6531 24.3181L18.6517 24.3161L18.6503 24.3142L18.649 24.3124L18.6476 24.3104L18.6462 24.3085L18.6449 24.3066L18.6435 24.3046L18.6422 24.3029L18.6407 24.3008L18.6394 24.2989L18.637 24.2956L18.6354 24.2933L18.6341 24.2915L18.6327 24.2895L18.6314 24.2876L18.63 24.2856L18.6287 24.2838L18.6272 24.2817L18.6259 24.2799L18.6246 24.2779L18.6232 24.276L18.6218 24.274L18.6205 24.2722L18.6191 24.2702L18.6178 24.2683L18.6163 24.2662L18.6151 24.2645L18.6132 24.2617L18.6124 24.2606L18.6097 24.2568L18.6088 24.2555L18.6071 24.253L18.6059 24.2513L18.6044 24.2491L18.6032 24.2474L18.6017 24.2452L18.6004 24.2434L18.599 24.2414L18.5977 24.2395L18.5963 24.2375L18.595 24.2356L18.5937 24.2337L18.5923 24.2317L18.5909 24.2297L18.5896 24.2279L18.5879 24.2254L18.587 24.224L18.5844 24.2202L18.5833 24.2187L18.5817 24.2163L18.5805 24.2146L18.5791 24.2125L18.5778 24.2107L18.5764 24.2086L18.5751 24.2067L18.5737 24.2047L18.5724 24.2028L18.5711 24.2008L18.5697 24.1989L18.5684 24.1969L18.5671 24.1951L18.5656 24.1929L18.5645 24.1912L18.563 24.1891L18.5618 24.1872L18.5603 24.185L18.5581 24.1818L18.5566 24.1796L18.5553 24.1777L18.554 24.1758L18.5525 24.1736L18.5514 24.1719L18.5499 24.1697L18.5487 24.168L18.5473 24.166L18.546 24.164L18.5447 24.1621L18.5434 24.1601L18.5421 24.1581L18.5408 24.1563L18.5394 24.1541L18.5383 24.1524L18.5368 24.1503L18.5357 24.1486L18.5326 24.1439L18.5317 24.1427L18.5302 24.1404L18.5291 24.1388L18.5277 24.1366L18.5265 24.1348L18.5251 24.1327L18.5239 24.1309L18.5225 24.1288L18.5213 24.127L18.5199 24.1249L18.5187 24.1231L18.5173 24.121L18.5161 24.1191L18.5147 24.1171L18.5135 24.1153L18.5121 24.1131L18.5111 24.1115L18.5055 24.103L18.5045 24.1016L18.5031 24.0993L18.502 24.0977L18.5005 24.0955L18.4994 24.0937L18.498 24.0916L18.4968 24.0898L18.4953 24.0876L18.4943 24.0859L18.4928 24.0837L18.4917 24.082L18.4902 24.0797L18.4891 24.0781L18.4877 24.0759L18.4866 24.0743L18.4806 24.065L18.4802 24.0643L18.4786 24.0618L18.4776 24.0603L18.4761 24.0579L18.4751 24.0564L18.4735 24.054L18.4725 24.0525L18.471 24.0501L18.47 24.0485L18.4685 24.0462L18.4674 24.0446L18.4659 24.0422L18.4651 24.0408L18.4634 24.0382L18.4627 24.0371L18.4609 24.0343L18.4542 24.0238L18.4535 24.0228L18.4519 24.0202L18.451 24.0189L18.4495 24.0164L18.4485 24.0149L18.447 24.0124L18.446 24.011L18.4445 24.0085L18.4435 24.0071L18.4419 24.0045L18.4411 24.0032L18.4395 24.0006L18.4386 23.9992L18.4369 23.9966L18.4366 23.996L18.4304 23.9862L18.4297 23.985L18.4281 23.9826L18.4272 23.9811L18.4256 23.9786L18.4247 23.9772L18.4231 23.9746L18.4223 23.9732L18.4207 23.9707L18.4198 23.9693L18.4182 23.9667L18.4174 23.9654L18.4157 23.9628L18.4149 23.9614L18.4133 23.9588L18.4126 23.9578L18.4063 23.9475L18.4061 23.9472L18.4043 23.9443L18.4036 23.9432L18.402 23.9406L18.4012 23.9393L18.3995 23.9366L18.3987 23.9353L18.3971 23.9327L18.3963 23.9313ZM22.7638 14.0322C22.797 14.0322 22.8301 14.0293 22.8627 14.0236C23.0566 13.9898 23.2532 13.9646 23.4526 13.948L23.4578 13.9476L23.4838 13.9455L23.4842 13.9455L23.4888 13.9451L23.4894 13.9451L23.4941 13.9447L23.4945 13.9447L23.51 13.9436L23.515 13.9432L23.5157 13.9431L23.5201 13.9428L23.5208 13.9428L23.5254 13.9424L23.5258 13.9424L23.5413 13.9413L23.5463 13.941L23.5468 13.9409L23.5514 13.9406L23.5519 13.9406L23.5568 13.9403L23.5572 13.9402L23.5726 13.9392L23.5731 13.9392L23.5775 13.9389L23.5785 13.9389L23.5826 13.9386L23.5836 13.9386L23.5879 13.9383L23.5886 13.9382L23.6039 13.9373L23.6045 13.9373L23.6089 13.937L23.61 13.9369L23.6139 13.9367L23.6151 13.9366L23.6193 13.9364L23.62 13.9364L23.6303 13.9358L23.6353 13.9355L23.6362 13.9355L23.6403 13.9352L23.6414 13.9352L23.6454 13.935L23.6465 13.9349L23.6507 13.9347L23.6515 13.9346L23.6616 13.9341L23.6624 13.9341L23.6667 13.9339L23.6679 13.9338L23.6716 13.9336L23.673 13.9336L23.6768 13.9334L23.6781 13.9333L23.6821 13.9331L23.683 13.9331L23.6932 13.9326L23.694 13.9326L23.6981 13.9324L23.6995 13.9323L23.7031 13.9322L23.7046 13.9321L23.7083 13.9319L23.7095 13.9319L23.7137 13.9317L23.7146 13.9317L23.7246 13.9312L23.7257 13.9312L23.7297 13.931L23.731 13.931L23.7346 13.9308L23.7362 13.9308L23.7397 13.9306L23.7412 13.9306L23.7452 13.9304L23.7461 13.9304L23.7562 13.93L23.7574 13.93L23.7612 13.9298L23.7627 13.9298L23.7661 13.9297L23.7678 13.9296L23.7712 13.9295L23.7728 13.9294L23.7767 13.9293L23.7778 13.9293L23.7877 13.9289L23.7892 13.9289L23.7927 13.9288L23.7944 13.9287L23.7978 13.9286L23.7994 13.9286L23.8029 13.9285L23.8044 13.9284L23.8083 13.9283L23.8094 13.9283L23.8144 13.9282L23.815 13.9281L23.8194 13.928L23.8209 13.928L23.8243 13.9279L23.8261 13.9278L23.8293 13.9278L23.8312 13.9277L23.8345 13.9276L23.8361 13.9276L23.84 13.9275L23.8411 13.9275L23.8461 13.9273H23.8468L23.851 13.9272L23.8526 13.9272L23.8561 13.9271L23.8578 13.9271L23.8611 13.927L23.8628 13.927L23.8662 13.9269L23.8678 13.9269L23.8719 13.9268L23.8728 13.9268L23.8778 13.9267L23.879 13.9267L23.8827 13.9266L23.8845 13.9266L23.8878 13.9265L23.8896 13.9265L23.8927 13.9264L23.8947 13.9264L23.8979 13.9264L23.8996 13.9263L23.9038 13.9263L23.9045 13.9263L23.9095 13.9262L23.9109 13.9262L23.9144 13.9261L23.9163 13.9261L23.9195 13.9261L23.9214 13.9261L23.9245 13.926L23.9263 13.926L23.9298 13.926L23.9313 13.9259L23.9357 13.9259H23.9363L23.9413 13.9259L23.9428 13.9258L23.9462 13.9258L23.9481 13.9258L23.9512 13.9258H23.9532L23.9562 13.9257H23.9582L23.9615 13.9257L23.9631 13.9257L23.9678 13.9257H23.9681L23.9731 13.9256H23.9746L23.9781 13.9256H23.9799L23.9831 13.9256H23.99L23.9934 13.9256H24.0066L24.0101 13.9256H24.0152L24.017 13.9256H24.0221L24.0256 13.9256H24.0271L24.0311 13.9256L24.0322 13.9257L24.0371 13.9257C24.0753 13.9259 24.1134 13.9264 24.1515 13.9273L24.1646 13.9274C24.3151 13.9274 24.4595 13.8681 24.5665 13.7623C24.6734 13.6565 24.7344 13.5128 24.736 13.3623C24.7377 13.2119 24.68 13.0668 24.5754 12.9587C24.4708 12.8506 24.3277 12.788 24.1773 12.7847C24.1184 12.7834 24.0592 12.7827 24 12.7827C23.5529 12.7827 23.1067 12.8212 22.6663 12.8978C22.5254 12.9224 22.3989 12.9988 22.3117 13.1121C22.2245 13.2254 22.1829 13.3673 22.1952 13.5097C22.2074 13.6521 22.2726 13.7848 22.3779 13.8815C22.4831 13.9783 22.6209 14.032 22.7638 14.0322ZM17.0993 18.5593C17.1697 18.5854 17.2446 18.5973 17.3196 18.5944C17.3946 18.5915 17.4683 18.5739 17.5365 18.5424C17.6046 18.511 17.666 18.4665 17.7169 18.4114C17.7678 18.3562 17.8074 18.2916 17.8333 18.2211L17.8336 18.2204L17.8348 18.2173L17.8352 18.2162L17.8364 18.2129L17.8367 18.212L17.8442 18.192L17.8443 18.1916L17.8457 18.188L17.846 18.1872L17.8473 18.1836L17.8476 18.1829L17.8489 18.1793L17.8492 18.1786L17.8505 18.175L17.8507 18.1745L17.8602 18.1497L17.8617 18.1456L17.8618 18.1453L17.8634 18.1413L17.865 18.1371C17.9913 17.809 18.1439 17.4915 18.3213 17.1879C18.359 17.1231 18.3836 17.0514 18.3937 16.9771C18.4038 16.9027 18.3991 16.8271 18.3799 16.7545C18.3608 16.682 18.3275 16.6139 18.282 16.5542C18.2366 16.4945 18.1798 16.4443 18.115 16.4066C18.0501 16.3688 17.9784 16.3442 17.9041 16.3341C17.8297 16.3241 17.7541 16.3287 17.6816 16.3479C17.609 16.3671 17.5409 16.4003 17.4812 16.4458C17.4215 16.4913 17.3714 16.548 17.3336 16.6129C17.1079 16.9996 16.9164 17.4053 16.7612 17.8253C16.7352 17.8957 16.7233 17.9706 16.7263 18.0455C16.7292 18.1205 16.7469 18.1942 16.7783 18.2624C16.8097 18.3305 16.8542 18.3918 16.9093 18.4428C16.9644 18.4937 17.029 18.5333 17.0993 18.5593ZM24 15.3541C22.9828 15.3541 21.9885 15.6557 21.1428 16.2209C20.297 16.786 19.6379 17.5892 19.2486 18.5289C18.8594 19.4686 18.7575 20.5027 18.9559 21.5003C19.1544 22.4979 19.6442 23.4143 20.3634 24.1335C21.0827 24.8528 21.999 25.3426 22.9967 25.541C23.9943 25.7395 25.0283 25.6376 25.9681 25.2484C26.9078 24.8591 27.711 24.1999 28.2761 23.3542C28.8412 22.5085 29.1428 21.5141 29.1428 20.497C29.1413 19.1335 28.599 17.8263 27.6348 16.8621C26.6707 15.898 25.3635 15.3557 24 15.3541ZM24 24.497C23.2089 24.497 22.4355 24.2624 21.7777 23.8229C21.1199 23.3833 20.6072 22.7586 20.3045 22.0277C20.0017 21.2968 19.9225 20.4925 20.0768 19.7166C20.2312 18.9407 20.6121 18.228 21.1716 17.6686C21.731 17.1091 22.4437 16.7282 23.2196 16.5738C23.9955 16.4195 24.7998 16.4987 25.5307 16.8015C26.2616 17.1042 26.8863 17.6169 27.3259 18.2747C27.7654 18.9325 28 19.7059 28 20.497C28 21.5578 27.5786 22.5753 26.8284 23.3254C26.0783 24.0756 25.0609 24.497 24 24.497Z" fill="#E31E26"/>
<path d="M43.0633 42.3247H35.1796C35.6121 42.2232 36.031 42.1157 36.4334 42.0017C40.3167 40.9014 42.2858 39.3759 42.2858 37.4676C42.2858 35.5593 40.3167 34.0338 36.4334 32.9335C34.23 32.3392 31.9788 31.9392 29.7056 31.738C29.464 32.0982 29.2267 32.4589 28.9971 32.8207C36.0269 33.4268 41.1429 35.2777 41.1429 37.4676C41.1429 40.1501 33.4678 42.3247 24 42.3247C14.5323 42.3247 6.85718 40.1501 6.85718 37.4676C6.85718 35.2777 11.9732 33.4268 19.003 32.8207C18.7733 32.4589 18.5361 32.0981 18.2945 31.738C16.0213 31.9392 13.77 32.3392 11.5667 32.9335C7.68334 34.0338 5.71432 35.5592 5.71432 37.4676C5.71432 39.3759 7.68334 40.9014 11.5667 42.0017C11.9691 42.1157 12.388 42.2232 12.8204 42.3247H4.93681C4.85551 42.3141 4.77289 42.3209 4.69445 42.3448C4.61602 42.3687 4.54357 42.409 4.48196 42.4631C4.42035 42.5171 4.37098 42.5838 4.33717 42.6584C4.30335 42.7331 4.28586 42.8142 4.28586 42.8961C4.28586 42.9781 4.30335 43.0592 4.33717 43.1339C4.37098 43.2085 4.42035 43.2752 4.48196 43.3292C4.54357 43.3833 4.61602 43.4236 4.69445 43.4475C4.77289 43.4714 4.85551 43.4782 4.93681 43.4676H43.0633C43.1446 43.4782 43.2272 43.4714 43.3056 43.4475C43.3841 43.4236 43.4565 43.3833 43.5181 43.3292C43.5797 43.2752 43.6291 43.2085 43.6629 43.1339C43.6967 43.0592 43.7142 42.9781 43.7142 42.8961C43.7142 42.8142 43.6967 42.7331 43.6629 42.6584C43.6291 42.5838 43.5797 42.5171 43.5181 42.4631C43.4565 42.409 43.3841 42.3687 43.3056 42.3448C43.2272 42.3209 43.1446 42.3141 43.0633 42.3247ZM12.5715 12.3247C12.741 12.3247 12.9067 12.2745 13.0477 12.1803C13.1886 12.0861 13.2985 11.9522 13.3634 11.7956C13.4282 11.639 13.4452 11.4666 13.4121 11.3004C13.3791 11.1341 13.2974 10.9814 13.1776 10.8615C13.0577 10.7416 12.905 10.66 12.7387 10.6269C12.5724 10.5938 12.4001 10.6108 12.2435 10.6757C12.0868 10.7406 11.953 10.8504 11.8588 10.9914C11.7646 11.1323 11.7143 11.2981 11.7143 11.4676C11.7146 11.6948 11.805 11.9127 11.9657 12.0734C12.1264 12.2341 12.3442 12.3245 12.5715 12.3247ZM12.5715 11.039C12.6562 11.039 12.7391 11.0641 12.8096 11.1112C12.88 11.1583 12.935 11.2253 12.9674 11.3036C12.9999 11.3819 13.0083 11.4681 12.9918 11.5512C12.9753 11.6343 12.9344 11.7107 12.8745 11.7706C12.8146 11.8306 12.7382 11.8714 12.6551 11.8879C12.5719 11.9045 12.4858 11.896 12.4075 11.8635C12.3291 11.8311 12.2622 11.7762 12.2151 11.7057C12.168 11.6352 12.1429 11.5523 12.1429 11.4676C12.143 11.3539 12.1882 11.245 12.2685 11.1647C12.3489 11.0843 12.4578 11.0391 12.5715 11.039ZM46.9286 18.4744C46.8156 18.4744 46.7051 18.5079 46.6111 18.5707C46.5172 18.6335 46.4439 18.7227 46.4007 18.8271C46.3574 18.9316 46.3461 19.0465 46.3682 19.1573C46.3902 19.2681 46.4446 19.37 46.5246 19.4499C46.6045 19.5298 46.7063 19.5842 46.8171 19.6063C46.928 19.6283 47.0429 19.617 47.1473 19.5738C47.2517 19.5305 47.3409 19.4573 47.4037 19.3633C47.4665 19.2693 47.5 19.1588 47.5 19.0458C47.4999 18.8943 47.4396 18.7491 47.3325 18.6419C47.2254 18.5348 47.0801 18.4746 46.9286 18.4744ZM46.9286 19.3315C46.8721 19.3315 46.8169 19.3148 46.7699 19.2834C46.7229 19.252 46.6863 19.2074 46.6646 19.1552C46.643 19.103 46.6374 19.0455 46.6484 18.9901C46.6594 18.9347 46.6866 18.8837 46.7266 18.8438C46.7665 18.8038 46.8175 18.7766 46.8729 18.7656C46.9283 18.7546 46.9857 18.7602 47.038 18.7819C47.0902 18.8035 47.1348 18.8401 47.1662 18.8871C47.1976 18.9341 47.2143 18.9893 47.2143 19.0458C47.2143 19.1216 47.1841 19.1942 47.1306 19.2478C47.077 19.3013 47.0044 19.3315 46.9286 19.3315ZM37.6429 19.6516C37.5299 19.6516 37.4194 19.6852 37.3254 19.7479C37.2315 19.8107 37.1582 19.9 37.115 20.0044C37.0717 20.1088 37.0604 20.2237 37.0825 20.3345C37.1045 20.4454 37.1589 20.5472 37.2388 20.6271C37.3187 20.707 37.4206 20.7615 37.5314 20.7835C37.6423 20.8056 37.7572 20.7942 37.8616 20.751C37.966 20.7077 38.0552 20.6345 38.118 20.5405C38.1808 20.4466 38.2143 20.3361 38.2143 20.2231C38.2141 20.0716 38.1539 19.9263 38.0468 19.8192C37.9396 19.7121 37.7944 19.6518 37.6429 19.6516ZM37.6429 20.5088C37.5864 20.5088 37.5311 20.492 37.4842 20.4606C37.4372 20.4292 37.4006 20.3846 37.3789 20.3324C37.3573 20.2802 37.3516 20.2228 37.3627 20.1673C37.3737 20.1119 37.4009 20.061 37.4409 20.021C37.4808 19.9811 37.5317 19.9539 37.5872 19.9428C37.6426 19.9318 37.7 19.9375 37.7522 19.9591C37.8044 19.9807 37.8491 20.0173 37.8805 20.0643C37.9119 20.1113 37.9286 20.1666 37.9286 20.2231C37.9285 20.2988 37.8984 20.3715 37.8448 20.425C37.7913 20.4786 37.7186 20.5087 37.6429 20.5088ZM41.4902 0.533203C41.3771 0.533203 41.2667 0.566717 41.1727 0.629506C41.0787 0.692296 41.0055 0.781541 40.9622 0.885955C40.919 0.99037 40.9077 1.10527 40.9297 1.21611C40.9518 1.32696 41.0062 1.42878 41.0861 1.50869C41.166 1.58861 41.2678 1.64303 41.3787 1.66508C41.4895 1.68713 41.6044 1.67581 41.7088 1.63256C41.8132 1.58931 41.9025 1.51607 41.9653 1.4221C42.0281 1.32813 42.0616 1.21765 42.0616 1.10463C42.0614 0.953133 42.0011 0.807888 41.894 0.700762C41.7869 0.593636 41.6417 0.533376 41.4902 0.533203ZM41.4902 1.39035C41.4336 1.39035 41.3784 1.37359 41.3314 1.34219C41.2844 1.3108 41.2478 1.26618 41.2262 1.21397C41.2046 1.16176 41.1989 1.10431 41.2099 1.04889C41.221 0.993468 41.2482 0.942559 41.2881 0.902601C41.3281 0.862643 41.379 0.835432 41.4344 0.824407C41.4898 0.813383 41.5473 0.819041 41.5995 0.840666C41.6517 0.862291 41.6963 0.898912 41.7277 0.945897C41.7591 0.992883 41.7759 1.04812 41.7759 1.10463C41.7758 1.18038 41.7457 1.25301 41.6921 1.30658C41.6385 1.36014 41.5659 1.39027 41.4902 1.39035ZM5.22995 18.034C5.22995 17.921 5.19644 17.8105 5.13365 17.7166C5.07086 17.6226 4.98162 17.5494 4.8772 17.5061C4.77279 17.4629 4.65789 17.4515 4.54705 17.4736C4.4362 17.4956 4.33438 17.5501 4.25446 17.63C4.17455 17.7099 4.12013 17.8117 4.09808 17.9226C4.07603 18.0334 4.08734 18.1483 4.13059 18.2527C4.17384 18.3571 4.24709 18.4464 4.34106 18.5092C4.43503 18.572 4.54551 18.6055 4.65853 18.6055C4.81003 18.6053 4.95527 18.545 5.0624 18.4379C5.16952 18.3308 5.22978 18.1855 5.22995 18.034ZM4.37281 18.034C4.37281 17.9775 4.38957 17.9223 4.42096 17.8753C4.45236 17.8283 4.49698 17.7917 4.54919 17.7701C4.6014 17.7484 4.65884 17.7428 4.71427 17.7538C4.76969 17.7648 4.8206 17.7921 4.86056 17.832C4.90051 17.872 4.92773 17.9229 4.93875 17.9783C4.94977 18.0337 4.94412 18.0912 4.92249 18.1434C4.90087 18.1956 4.86425 18.2402 4.81726 18.2716C4.77028 18.303 4.71504 18.3198 4.65853 18.3198C4.58277 18.3197 4.51014 18.2896 4.45658 18.236C4.40301 18.1824 4.37289 18.1098 4.37281 18.034Z" fill="#515151"/>
<path d="M2.6346 4.54211L3.05945 3.98354L2.79117 3.83154L2.5186 4.45726H2.50945L2.2326 3.83583L1.95945 3.9924L2.38002 4.53783V4.54669L1.7226 4.46183V4.76583L2.38431 4.68097V4.68983L1.95945 5.23497L2.21431 5.39611L2.50517 4.76583H2.51374L2.78202 5.39154L3.06374 5.23069L2.6346 4.69411V4.68526L3.30945 4.76583V4.46183L2.6346 4.55126V4.54211Z" fill="#E31E26"/>
<path d="M19.924 1.59878L19.6794 1.91278L19.8263 2.00535L19.9937 1.64249H19.9989L20.1532 2.00278L20.3154 1.91021L20.0683 1.60135V1.59621L20.4569 1.64249V1.46735L20.0683 1.51878V1.51364L20.3129 1.19192L20.1586 1.10449L20.0014 1.46478H19.9963L19.8369 1.10706L19.6794 1.19706L19.9217 1.51106V1.51621L19.5432 1.46735V1.64249L19.924 1.59364V1.59878Z" fill="#E31E26"/>
<path d="M41.9828 11.6163V11.318L41.3208 11.4057V11.3968L41.7374 10.8488L41.4743 10.6997L41.2068 11.3137H41.198L40.9263 10.704L40.6585 10.8577L41.0708 11.3926V11.4014L40.426 11.318V11.6163L41.0751 11.5329V11.5417L40.6585 12.0766L40.9083 12.2346L41.1937 11.6163H41.2022L41.4654 12.23L41.7417 12.0723L41.3208 11.546V11.5371L41.9828 11.6163Z" fill="#E31E26"/>
<path d="M28.374 6.7447L28.7334 6.27213L28.5066 6.14355L28.2757 6.67298H28.268L28.0337 6.14727L27.8029 6.27955L28.1586 6.74098V6.7487L27.6023 6.6767V6.93384L28.1623 6.86213V6.86955L27.8029 7.33098L28.0183 7.46727L28.2643 6.93384H28.2717L28.4989 7.46355L28.7372 7.32727L28.374 6.87327V6.86584L28.9452 6.93384V6.6767L28.374 6.75241V6.7447Z" fill="#E31E26"/>
</g>
<defs>
<clipPath id="clip0_95_2716">
<rect width="48" height="48" fill="white"/>
</clipPath>
</defs>
</svg>
