<svg width="48" height="48" viewBox="0 0 48 48" fill="none" xmlns="http://www.w3.org/2000/svg">
<path d="M33.75 30.951V29.25C33.75 27.8576 34.3031 26.5223 35.2877 25.5377C36.2723 24.5531 37.6076 24 39 24C39.6894 24 40.3721 24.1358 41.0091 24.3996C41.646 24.6635 42.2248 25.0502 42.7123 25.5377C43.1998 26.0252 43.5865 26.604 43.8504 27.2409C44.1142 27.8779 44.25 28.5606 44.25 29.25V30.9532L33.75 30.951Z" fill="#5A5B5D"/>
<path d="M44.25 29.25C44.2496 28.0534 43.8404 26.8928 43.0902 25.9605C42.34 25.0282 41.2938 24.3802 40.125 24.1238C38.9562 24.3802 37.91 25.0282 37.1598 25.9605C36.4096 26.8928 36.0004 28.0534 36 29.25V30.951H44.25V29.25Z" fill="#77787C"/>
<path d="M40.5 35.688V37.5L42.7793 37.785C43.8065 37.9135 44.7516 38.4127 45.4367 39.1889C46.1218 39.965 46.5 40.9647 46.5 42V46.5H31.5V42C31.5 40.9647 31.8782 39.965 32.5633 39.1889C33.2484 38.4127 34.1935 37.9135 35.2207 37.785L37.5 37.5V35.688H40.5Z" fill="#B4B5B9"/>
<path d="M42.7793 37.785L40.5 37.5V35.688H39V37.5L36.7207 37.785C35.6935 37.9135 34.7484 38.4127 34.0633 39.1889C33.3782 39.965 33 40.9647 33 42V46.5H46.5V42C46.5 40.9647 46.1218 39.965 45.4367 39.1889C44.7516 38.4127 43.8065 37.9135 42.7793 37.785Z" fill="#DCDDDF"/>
<path d="M40.5 35.6851V37.5001L39 40.5001L37.5 37.5001V35.6851H40.5Z" fill="#ECB8AD"/>
<path d="M37.5 36.438V37.5L39 40.5L40.5 37.5V36.438C40.0267 36.6438 39.5161 36.75 39 36.75C38.4839 36.75 37.9733 36.6438 37.5 36.438Z" fill="#FDE1D5"/>
<path d="M35.25 30.75H34.5C34.1022 30.75 33.7206 30.908 33.4393 31.1893C33.158 31.4706 33 31.8522 33 32.25C33 32.6478 33.158 33.0294 33.4393 33.3107C33.7206 33.592 34.1022 33.75 34.5 33.75H35.562M42.75 30.75H43.5C43.8978 30.75 44.2794 30.908 44.5607 31.1893C44.842 31.4706 45 31.8522 45 32.25C45 32.6478 44.842 33.0294 44.5607 33.3107C44.2794 33.592 43.8978 33.75 43.5 33.75H42.438" fill="#ECB8AD"/>
<path d="M42.9683 37.8135L42 39.75V41.25L39 40.5L40.5 37.5L42.9683 37.8135Z" fill="#77787C"/>
<path d="M35.0317 37.8135L36 39.75V41.25L39 40.5L37.5 37.5L35.0317 37.8135Z" fill="#77787C"/>
<path d="M44.25 43.5H42.75V46.5H44.25V43.5Z" fill="#5A5B5D"/>
<path d="M35.25 43.5H33.75V46.5H35.25V43.5Z" fill="#5A5B5D"/>
<path d="M25.5 25.938V27.75L27.7793 28.035C28.8065 28.1635 29.7516 28.6627 30.4367 29.4389C31.1218 30.215 31.5 31.2147 31.5 32.25V36.75H16.5V32.25C16.5 31.2147 16.8782 30.215 17.5633 29.4389C18.2484 28.6627 19.1935 28.1635 20.2208 28.035L22.5 27.75V25.938H25.5Z" fill="#50BAE3"/>
<path d="M27.7793 28.035L25.5 27.75V25.938H24V27.75L21.7208 28.035C20.6935 28.1635 19.7484 28.6627 19.0633 29.4389C18.3782 30.215 18 31.2147 18 32.25V36.75H31.5V32.25C31.5 31.2147 31.1218 30.215 30.4367 29.4389C29.7516 28.6627 28.8065 28.1635 27.7793 28.035Z" fill="#B5DEEB"/>
<path d="M25.5 25.9351V27.7501L24 30.7501L22.5 27.7501V25.9351H25.5Z" fill="#ECB8AD"/>
<path d="M22.5 26.688V27.75L24 30.75L25.5 27.75V26.688C25.0267 26.8938 24.5161 27 24 27C23.4839 27 22.9733 26.8938 22.5 26.688Z" fill="#FDE1D5"/>
<path d="M18.75 21.2017V18C18.75 17.0054 19.1451 16.0516 19.8483 15.3483C20.5516 14.6451 21.5054 14.25 22.5 14.25H24.75C25.3467 14.25 25.919 14.4871 26.341 14.909C26.7629 15.331 27 15.9033 27 16.5C27.5967 16.5 28.169 16.7371 28.591 17.159C29.0129 17.581 29.25 18.1533 29.25 18.75V21.2025" fill="#5A5B5D"/>
<path d="M21 18V21.2017H29.25V18.75C29.25 18.1533 29.0129 17.581 28.591 17.159C28.169 16.7371 27.5967 16.5 27 16.5C27 15.9033 26.7629 15.331 26.341 14.909C25.919 14.4871 25.3467 14.25 24.75 14.25C23.7554 14.25 22.8016 14.6451 22.0983 15.3483C21.3951 16.0516 21 17.0054 21 18Z" fill="#77787C"/>
<path d="M20.25 21H19.5C19.1022 21 18.7206 21.158 18.4393 21.4393C18.158 21.7206 18 22.1022 18 22.5C18 22.8978 18.158 23.2794 18.4393 23.5607C18.7206 23.842 19.1022 24 19.5 24H20.562M27.75 21H28.5C28.8978 21 29.2794 21.158 29.5607 21.4393C29.842 21.7206 30 22.1022 30 22.5C30 22.8978 29.842 23.2794 29.5607 23.5607C29.2794 23.842 28.8978 24 28.5 24H27.438" fill="#ECB8AD"/>
<path d="M27.75 20.25V22.5C27.75 23.4946 27.3549 24.4484 26.6517 25.1517C25.9484 25.8549 24.9946 26.25 24 26.25C23.0054 26.25 22.0516 25.8549 21.3483 25.1517C20.6451 24.4484 20.25 23.4946 20.25 22.5V20.25H21.6285C22.3191 20.25 22.9922 20.0327 23.5524 19.6289C24.1127 19.2251 24.5317 18.6552 24.75 18L27.75 20.25Z" fill="#ECB8AD"/>
<path d="M21.6285 20.25H21V22.5C21.0019 23.4272 21.3484 24.3206 21.9721 25.0066C22.5958 25.6927 23.4522 26.1225 24.375 26.2125C25.2978 26.1225 26.1542 25.6927 26.7779 25.0066C27.4016 24.3206 27.7481 23.4272 27.75 22.5V20.25L24.75 18C24.5317 18.6552 24.1127 19.2251 23.5524 19.6289C22.9922 20.0327 22.3191 20.25 21.6285 20.25Z" fill="#FDE1D5"/>
<path d="M27.9683 28.0635L27 30V31.5L24 30.75L25.5 27.75L27.9683 28.0635Z" fill="#4197CD"/>
<path d="M20.0317 28.0635L21 30V31.5L24 30.75L22.5 27.75L20.0317 28.0635Z" fill="#4197CD"/>
<path d="M29.25 33.75H27.75V36.75H29.25V33.75Z" fill="#29678C"/>
<path d="M20.25 33.75H18.75V36.75H20.25V33.75Z" fill="#29678C"/>
<path d="M13.2 38.7367C13.5924 38.5567 13.9392 38.2907 14.215 37.9585C14.4907 37.6263 14.6883 37.2363 14.793 36.8175L15 36C14.6022 36 14.2206 35.842 13.9393 35.5607C13.658 35.2794 13.5 34.8978 13.5 34.5V29.25C13.5 27.8576 12.9469 26.5223 11.9623 25.5377C10.9777 24.5531 9.64239 24 8.25 24C6.85761 24 5.52226 24.5531 4.53769 25.5377C3.55312 26.5223 3 27.8576 3 29.25V34.5C3 34.8978 2.84196 35.2794 2.56066 35.5607C2.27936 35.842 1.89782 36 1.5 36L1.704 36.8175C1.80906 37.2366 2.00706 37.6267 2.28333 37.959C2.5596 38.2912 2.90707 38.557 3.3 38.7367H13.2Z" fill="#936C42"/>
<path d="M13.5 34.5V29.25C13.4996 28.0534 13.0904 26.8928 12.3402 25.9605C11.59 25.0282 10.5438 24.3802 9.375 24.1238C8.20616 24.3802 7.15999 25.0282 6.4098 25.9605C5.6596 26.8928 5.25041 28.0534 5.25 29.25V34.5C5.25 34.8979 5.09196 35.2794 4.81066 35.5607C4.52936 35.842 4.14782 36 3.75 36L3.954 36.8175C4.05906 37.2366 4.25706 37.6268 4.53333 37.959C4.8096 38.2912 5.15707 38.557 5.55 38.7368H13.2C13.5924 38.5567 13.9392 38.2907 14.215 37.9585C14.4907 37.6263 14.6883 37.2364 14.793 36.8175L15 36C14.6022 36 14.2206 35.842 13.9393 35.5607C13.658 35.2794 13.5 34.8979 13.5 34.5Z" fill="#CEAE84"/>
<path d="M4.5 30.75H3.75C3.35218 30.75 2.97064 30.908 2.68934 31.1893C2.40804 31.4706 2.25 31.8522 2.25 32.25C2.25 32.6478 2.40804 33.0294 2.68934 33.3107C2.97064 33.592 3.35218 33.75 3.75 33.75H4.812M12 30.75H12.75C13.1478 30.75 13.5294 30.908 13.8107 31.1893C14.092 31.4706 14.25 31.8522 14.25 32.25C14.25 32.6478 14.092 33.0294 13.8107 33.3107C13.5294 33.592 13.1478 33.75 12.75 33.75H11.688" fill="#ECB8AD"/>
<path d="M6.75 35.6873V37.5L5.2095 37.7565C4.38257 37.8944 3.63136 38.3212 3.08947 38.9608C2.54757 39.6005 2.25012 40.4117 2.25 41.25V46.5H14.25V41.25C14.2499 40.4117 13.9524 39.6005 13.4105 38.9608C12.8686 38.3212 12.1174 37.8944 11.2905 37.7565L9.75 37.5V35.6873H6.75Z" fill="#4F61A6"/>
<path d="M11.2905 37.7565L9.75 37.5V35.6873H8.25V37.5L6.7095 37.7565C5.88257 37.8944 5.13136 38.3212 4.58947 38.9608C4.04757 39.6005 3.75012 40.4117 3.75 41.25V46.5H14.25V41.25C14.2499 40.4117 13.9524 39.6005 13.4105 38.9608C12.8686 38.3212 12.1174 37.8944 11.2905 37.7565Z" fill="#7383BC"/>
<path d="M12 30V32.25C12 32.7425 11.903 33.2301 11.7145 33.6851C11.5261 34.14 11.2499 34.5534 10.9017 34.9017C10.5534 35.2499 10.14 35.5261 9.68506 35.7145C9.23009 35.903 8.74246 36 8.25 36C7.75754 36 7.26991 35.903 6.81494 35.7145C6.35997 35.5261 5.94657 35.2499 5.59835 34.9017C5.25013 34.5534 4.97391 34.14 4.78545 33.6851C4.597 33.2301 4.5 32.7425 4.5 32.25V30H5.8785C6.56911 30 7.24221 29.7827 7.80245 29.3789C8.36269 28.9751 8.78166 28.4052 9 27.75L12 30Z" fill="#ECB8AD"/>
<path d="M9.75 35.6851V37.5001L8.25 40.5001L6.75 37.5001V35.6851H9.75Z" fill="#ECB8AD"/>
<path d="M6.75 36.438V37.5L8.25 40.5L9.75 37.5V36.438C9.27669 36.6438 8.76611 36.75 8.25 36.75C7.73389 36.75 7.22331 36.6438 6.75 36.438Z" fill="#FDE1D5"/>
<path d="M4.66351 37.8938L5.25001 41.25L8.25001 40.5L6.75001 37.5L4.66351 37.8938Z" fill="#223584"/>
<path d="M11.8365 37.8938L11.25 41.25L8.25 40.5L9.75 37.5L11.8365 37.8938Z" fill="#223584"/>
<path d="M12 43.5H10.5V46.5H12V43.5Z" fill="#17256B"/>
<path d="M6 43.5H4.5V46.5H6V43.5Z" fill="#17256B"/>
<path d="M5.8785 30H5.25V32.25C5.25194 33.1772 5.5984 34.0706 6.2221 34.7566C6.84579 35.4427 7.7022 35.8725 8.625 35.9625C9.5478 35.8725 10.4042 35.4427 11.0279 34.7566C11.6516 34.0706 11.9981 33.1772 12 32.25V30L9 27.75C8.78166 28.4052 8.36269 28.9751 7.80245 29.3789C7.24221 29.7827 6.56911 30 5.8785 30Z" fill="#FDE1D5"/>
<path d="M35.25 30.927C35.2499 30.3172 35.3919 29.7158 35.6648 29.1705C35.7655 28.969 35.9204 28.7995 36.1121 28.681C36.3038 28.5626 36.5247 28.4999 36.75 28.5C36.9753 28.4999 37.1962 28.5626 37.3879 28.681C37.5796 28.7995 37.7345 28.969 37.8352 29.1705L37.9148 29.3295C38.0155 29.531 38.1704 29.7005 38.3621 29.819C38.5538 29.9374 38.7747 30.0001 39 30C39.2253 30.0001 39.4462 29.9374 39.6379 29.819C39.8296 29.7005 39.9845 29.531 40.0852 29.3295L40.1648 29.1705C40.2655 28.969 40.4204 28.7995 40.6121 28.681C40.8038 28.5626 41.0247 28.4999 41.25 28.5C41.4753 28.4999 41.6962 28.5626 41.8879 28.681C42.0796 28.7995 42.2345 28.969 42.3352 29.1705C42.6081 29.7158 42.7501 30.3172 42.75 30.927V32.25C42.75 32.7425 42.653 33.2301 42.4645 33.6851C42.2761 34.14 41.9999 34.5534 41.6517 34.9017C41.3034 35.2499 40.89 35.5261 40.4351 35.7145C39.9801 35.903 39.4925 36 39 36C38.5075 36 38.0199 35.903 37.5649 35.7145C37.11 35.5261 36.6966 35.2499 36.3483 34.9017C36.0001 34.5534 35.7239 34.14 35.5355 33.6851C35.347 33.2301 35.25 32.7425 35.25 32.25V30.927Z" fill="#ECB8AD"/>
<path d="M39.375 35.9625C40.2978 35.8725 41.1542 35.4427 41.7779 34.7566C42.4016 34.0706 42.7481 33.1772 42.75 32.25V30.927C42.7501 30.3173 42.6081 29.7158 42.3352 29.1705C42.2344 28.969 42.0795 28.7996 41.8878 28.6812C41.6962 28.5627 41.4753 28.5 41.25 28.5C41.0247 28.5 40.8038 28.5627 40.6122 28.6812C40.4205 28.7996 40.2656 28.969 40.1648 29.1705L40.0852 29.3295C39.9844 29.531 39.8295 29.7005 39.6378 29.8189C39.4462 29.9373 39.2253 30.0001 39 30.0001C38.7747 30.0001 38.5538 29.9373 38.3622 29.8189C38.1705 29.7005 38.0156 29.531 37.9148 29.3295L37.8352 29.1705C37.7559 29.0082 37.6407 28.8659 37.4984 28.7545C37.3562 28.643 37.1905 28.5653 37.0138 28.5271C36.8372 28.4889 36.6542 28.4913 36.4786 28.534C36.303 28.5767 36.1394 28.6587 36 28.7738V32.25C36.0019 33.1772 36.3484 34.0706 36.9721 34.7566C37.5958 35.4427 38.4522 35.8725 39.375 35.9625Z" fill="#FDE1D5"/>
<path d="M11.2507 9L12.7507 12.75L16.5 12.7493L13.5007 15.75L15.0007 19.5L11.2507 17.25L7.50073 19.5L9.00073 15.75L6.00073 12.75H9.75073L11.2507 9Z" fill="#E32127"/>
<path d="M16.5 12.7493L12.7507 12.75L11.2507 9V17.25L15.0007 19.5L13.5007 15.75L16.5 12.7493Z" fill="#E47971"/>
<path d="M24.0007 1.5L25.5007 5.25L29.25 5.24925L26.2507 8.25L27.7507 12L24.0007 9.75L20.2507 12L21.7507 8.25L18.7507 5.25H22.5007L24.0007 1.5Z" fill="#E32127"/>
<path d="M29.25 5.24925L25.5007 5.25L24.0007 1.5V9.75L27.7507 12L26.2507 8.25L29.25 5.24925Z" fill="#E47971"/>
<path d="M36.7507 9L38.2507 12.75L42 12.7493L39.0007 15.75L40.5007 19.5L36.7507 17.25L33.0007 19.5L34.5007 15.75L31.5007 12.75H35.2507L36.7507 9Z" fill="#E32127"/>
<path d="M42 12.7493L38.2507 12.75L36.7507 9V17.25L40.5007 19.5L39.0007 15.75L42 12.7493Z" fill="#E47971"/>
</svg>
