<svg width="320" height="185" viewBox="0 0 320 185" fill="none" xmlns="http://www.w3.org/2000/svg">
<g clip-path="url(#clip0_113_4513)">
<path d="M277.723 185.016C301.24 185.016 320.305 182.004 320.305 178.288C320.305 174.572 301.24 171.56 277.723 171.56C254.205 171.56 235.14 174.572 235.14 178.288C235.14 182.004 254.205 185.016 277.723 185.016Z" fill="#EBEBEB"/>
<path d="M292.633 145.068C292.633 145.068 292.633 161.853 292.633 161.865C292.633 165.077 292.606 167.891 292.45 169.345C292.451 169.353 292.451 169.361 292.45 169.369C292.45 169.713 292.372 170.054 292.22 170.363C292.22 170.363 292.22 170.363 292.2 170.382C291.249 171.033 265.596 171.914 264.691 171.641C263.787 171.369 264.489 168.772 265.471 167.942C266.453 167.112 276.113 162.387 276.113 162.387L276.276 145.606L292.633 145.068Z" fill="#AD6359"/>
<path d="M292.629 158.418V161.864C292.629 165.076 292.602 167.891 292.446 169.345C292.448 169.352 292.448 169.36 292.446 169.368C292.408 169.707 292.331 170.041 292.216 170.362C292.216 170.362 292.216 170.362 292.196 170.381C291.245 171.032 265.592 171.913 264.688 171.641C263.783 171.368 264.485 168.772 265.467 167.941C266.449 167.111 276.109 162.386 276.109 162.386L276.062 158.878L292.629 158.418Z" fill="#C7C7C7"/>
<path d="M264.684 171.641C265.592 171.913 291.237 171.036 292.193 170.382C292.559 170.14 292.649 166.394 292.629 161.864C292.629 161.817 292.629 161.771 292.629 161.724L276.078 162.114V162.394C276.078 162.394 266.411 167.123 265.436 167.953C264.462 168.783 263.779 171.376 264.684 171.641Z" fill="#455A64"/>
<path d="M264.941 170.639C269.26 170.382 286.708 169.766 290.996 169.859C291.031 169.859 291.035 169.883 290.996 169.886C286.708 170.23 269.268 170.705 264.937 170.725C264.851 170.709 264.847 170.643 264.941 170.639Z" fill="#263238"/>
<path d="M274.702 162.484C276.389 162.094 278.479 162.297 279.824 163.466C279.874 163.509 279.824 163.583 279.753 163.568C278.109 163.099 276.42 162.807 274.713 162.698C274.688 162.695 274.665 162.683 274.647 162.664C274.63 162.646 274.619 162.622 274.618 162.596C274.617 162.571 274.624 162.545 274.64 162.525C274.655 162.504 274.677 162.49 274.702 162.484Z" fill="#263238"/>
<path d="M273.497 163.268C275.189 162.878 277.278 163.081 278.619 164.246C278.67 164.293 278.619 164.367 278.549 164.352C276.906 163.883 275.218 163.592 273.513 163.482C273.487 163.48 273.463 163.468 273.446 163.45C273.428 163.431 273.417 163.407 273.415 163.382C273.413 163.356 273.42 163.331 273.435 163.31C273.45 163.289 273.472 163.274 273.497 163.268Z" fill="#263238"/>
<path d="M272.296 164.047C273.984 163.657 276.074 163.864 277.419 165.029C277.469 165.076 277.419 165.146 277.348 165.134C275.704 164.664 274.015 164.371 272.308 164.261C272.283 164.258 272.259 164.246 272.242 164.227C272.225 164.208 272.214 164.184 272.213 164.159C272.212 164.133 272.219 164.108 272.234 164.088C272.25 164.067 272.272 164.053 272.296 164.047Z" fill="#263238"/>
<path d="M294.103 82.8265L294.087 83.9375L293.459 132.999L293.455 133.186L293.085 162.574L275.131 162.215L278.596 82.885L278.643 81.8247L278.818 72.6213H293.982L294.103 82.8265Z" fill="#263238"/>
<path d="M275.882 159.222C278.685 159.195 277.882 159.163 280.685 159.171C282.057 159.171 291.069 159.206 292.348 159.432C292.379 159.432 292.375 159.483 292.348 159.491C291.066 159.686 282.053 159.491 280.681 159.467C277.878 159.409 278.681 159.393 275.882 159.304C275.876 159.306 275.869 159.306 275.863 159.305C275.856 159.304 275.85 159.301 275.844 159.297C275.839 159.293 275.834 159.288 275.831 159.282C275.828 159.276 275.827 159.269 275.827 159.263C275.827 159.256 275.828 159.249 275.831 159.243C275.834 159.237 275.839 159.232 275.844 159.228C275.85 159.224 275.856 159.222 275.863 159.22C275.869 159.219 275.876 159.22 275.882 159.222Z" fill="#455A64"/>
<path d="M291.978 78.3169C291.319 88.6273 290.848 98.9533 290.419 109.279C289.99 119.605 289.69 129.811 289.511 140.098C289.409 145.895 289.368 151.691 289.386 157.483C289.386 157.491 289.389 157.499 289.395 157.505C289.401 157.511 289.409 157.514 289.417 157.514C289.425 157.514 289.433 157.511 289.439 157.505C289.445 157.499 289.448 157.491 289.448 157.483C289.604 152.318 289.764 147.153 289.9 141.988C290.037 136.823 290.162 131.658 290.29 126.497C290.571 116.224 290.919 105.959 291.335 95.7023C291.569 89.9098 291.838 84.1211 292.076 78.3324C292.095 78.2389 291.982 78.2428 291.978 78.3169Z" fill="#455A64"/>
<path d="M312.77 144.16C312.77 144.16 315.031 160.793 315.035 160.805C315.483 163.986 315.814 166.777 315.861 168.243V168.266C315.909 168.607 315.875 168.954 315.764 169.279C315.764 169.279 315.764 169.279 315.764 169.303C314.91 170.082 289.612 174.409 288.676 174.261C287.74 174.113 288.087 171.443 288.933 170.492C289.779 169.541 298.729 163.553 298.729 163.553L296.628 146.904L312.77 144.16Z" fill="#AD6359"/>
<path d="M314.567 157.39C314.567 157.39 315.031 160.793 315.035 160.804C315.483 163.985 315.814 166.776 315.861 168.242V168.265C315.868 168.606 315.835 168.946 315.764 169.279C315.764 169.279 315.764 169.279 315.764 169.302C314.91 170.082 289.612 174.409 288.676 174.261C287.74 174.112 288.087 171.442 288.933 170.491C289.779 169.54 298.729 163.553 298.729 163.553L298.211 160.091L314.567 157.39Z" fill="#C7C7C7"/>
<path d="M288.661 174.249C289.596 174.397 314.891 170.066 315.748 169.291C316.08 168.998 315.663 165.275 315.031 160.793C315.031 160.746 315.031 160.699 315.031 160.652L298.659 163.264L298.714 163.541C298.714 163.541 289.772 169.54 288.91 170.495C288.049 171.45 287.741 174.12 288.661 174.249Z" fill="#455A64"/>
<path d="M288.781 173.231C293.026 172.397 310.221 169.43 314.509 168.943C314.544 168.943 314.548 168.943 314.509 168.97C310.318 169.89 293.089 172.716 288.805 173.317C288.703 173.313 288.692 173.251 288.781 173.231Z" fill="#263238"/>
<path d="M297.353 163.837C298.975 163.237 301.072 163.143 302.557 164.118C302.616 164.157 302.557 164.239 302.507 164.231C300.815 163.985 299.101 163.923 297.396 164.048C297.371 164.048 297.346 164.04 297.326 164.024C297.306 164.008 297.292 163.985 297.287 163.96C297.282 163.935 297.286 163.909 297.298 163.887C297.31 163.864 297.33 163.847 297.353 163.837Z" fill="#263238"/>
<path d="M296.266 164.772C297.891 164.172 299.984 164.079 301.473 165.053C301.532 165.092 301.473 165.174 301.419 165.166C299.727 164.924 298.014 164.862 296.308 164.983C296.283 164.983 296.258 164.975 296.238 164.959C296.218 164.943 296.204 164.921 296.199 164.896C296.194 164.87 296.198 164.844 296.21 164.822C296.222 164.799 296.242 164.782 296.266 164.772Z" fill="#263238"/>
<path d="M295.178 165.712C296.803 165.112 298.901 165.014 300.386 165.993C300.444 166.032 300.386 166.11 300.331 166.102C298.639 165.859 296.926 165.799 295.221 165.922C295.195 165.923 295.17 165.915 295.15 165.899C295.13 165.883 295.117 165.86 295.111 165.835C295.106 165.81 295.11 165.784 295.122 165.762C295.135 165.739 295.154 165.721 295.178 165.712Z" fill="#263238"/>
<path d="M280.362 72.6062C280.428 72.918 281.488 77.8374 282.587 82.063C283.367 85.1502 284.209 87.8633 284.681 88.144C285.215 88.4597 287.799 89.6136 288.692 89.9761L292.676 128.08L298.071 163.389L315.694 160.66L303.154 83.4234L301.111 72.614L280.362 72.6062Z" fill="#263238"/>
<path d="M298.176 159.877C300.944 159.433 300.145 159.518 302.916 159.097C304.273 158.895 313.191 157.573 314.489 157.604C314.517 157.604 314.525 157.655 314.489 157.663C313.25 158.053 304.312 159.222 302.951 159.394C300.172 159.752 300.963 159.62 298.18 159.947C298.173 159.944 298.167 159.94 298.163 159.934C298.159 159.928 298.156 159.921 298.156 159.913C298.155 159.906 298.157 159.899 298.161 159.892C298.164 159.886 298.17 159.88 298.176 159.877Z" fill="#455A64"/>
<path d="M303.528 87.684C303.06 87.5632 302.557 87.5242 302.078 87.4462C301.688 87.3878 301.298 87.3176 300.908 87.2357C300.175 87.1021 299.481 86.8093 298.873 86.3782C298.211 85.8636 297.876 85.0801 297.556 84.3278C297.365 83.8795 297.166 83.439 296.967 82.9946C296.874 82.7789 296.776 82.5645 296.675 82.3514C296.538 82.0997 296.419 81.8393 296.316 81.5718C296.316 81.5328 296.242 81.5523 296.258 81.5718C296.321 81.7535 296.374 81.9382 296.418 82.1253C296.484 82.3436 296.546 82.558 296.613 82.7724C296.729 83.1622 296.846 83.5521 296.975 83.9224C297.164 84.6246 297.438 85.3014 297.79 85.9377C298.495 87.0642 299.762 87.5203 301.025 87.6801C301.388 87.723 301.754 87.7503 302.117 87.7698C302.576 87.8107 303.037 87.8107 303.497 87.7698C303.582 87.801 303.602 87.7113 303.528 87.684Z" fill="#455A64"/>
<path d="M283.301 87.47C285.159 88.1464 286.955 88.9824 288.668 89.9687C288.735 90.0077 288.688 90.1129 288.618 90.0818C286.809 89.3021 284.965 88.5615 283.203 87.6883C283.179 87.6728 283.161 87.6489 283.152 87.6212C283.144 87.5934 283.146 87.5636 283.158 87.5372C283.17 87.5107 283.191 87.4894 283.217 87.477C283.243 87.4647 283.273 87.4622 283.301 87.47Z" fill="#455A64"/>
<path d="M282.755 75.085C282.755 75.0226 282.868 75.0071 282.868 75.085C282.868 77.1015 282.97 79.1168 283.172 81.1232C283.258 82.0548 284.006 87.2042 285.62 86.83C285.889 86.7676 286.029 86.4986 286.072 86.0932C286.066 85.5601 285.994 85.0298 285.858 84.5145C285.678 83.4347 285.534 82.3549 285.441 81.2674C285.254 79.2409 285.276 77.2005 285.507 75.1786C285.51 75.167 285.517 75.1569 285.527 75.1496C285.536 75.1424 285.548 75.1384 285.56 75.1384C285.572 75.1384 285.583 75.1424 285.593 75.1496C285.602 75.1569 285.609 75.167 285.612 75.1786C285.563 77.9897 285.727 80.8005 286.103 83.5867C286.306 84.9238 286.98 86.9391 285.577 87.1457C284.174 87.3523 283.238 83.9804 283.055 83.0566C282.612 80.4234 282.511 77.744 282.755 75.085Z" fill="#455A64"/>
<path d="M285.577 86.9591C285.723 87.3062 285.844 87.6631 285.94 88.0272C286.044 88.3077 286.095 88.6051 286.092 88.9043C286.089 88.9164 286.084 88.9277 286.075 88.9365C286.066 88.9453 286.055 88.9514 286.043 88.9539C286.031 88.9564 286.018 88.9553 286.007 88.9506C285.995 88.9459 285.986 88.9379 285.979 88.9277C285.807 88.6641 285.676 88.3764 285.589 88.074C285.468 87.7426 285.335 87.4152 285.222 87.0839C285.214 87.0606 285.211 87.0359 285.212 87.0113C285.213 86.9866 285.22 86.9625 285.23 86.9402C285.241 86.9179 285.256 86.898 285.274 86.8815C285.293 86.865 285.314 86.8523 285.337 86.8441C285.361 86.8359 285.385 86.8324 285.41 86.8338C285.435 86.8351 285.459 86.8413 285.481 86.852C285.503 86.8627 285.523 86.8776 285.54 86.896C285.556 86.9144 285.569 86.9358 285.577 86.9591Z" fill="#455A64"/>
<path d="M309.698 142.449C308.971 138.093 308.246 133.736 307.523 129.378C306.089 120.693 304.615 112.008 303.317 103.3C302.587 98.4068 301.879 93.5108 301.193 88.6122C301.193 88.5264 301.049 88.5264 301.056 88.6122C302.05 97.3751 303.282 106.111 304.623 114.823C305.964 123.535 307.457 132.201 309.028 140.862C309.909 145.719 310.739 150.607 311.757 155.422C311.757 155.468 311.846 155.457 311.838 155.422C311.207 151.079 310.42 146.768 309.698 142.449Z" fill="#455A64"/>
<path d="M288.813 89.9413C288.813 89.8672 288.692 89.8672 288.696 89.9413C289.004 95.6364 292.091 126.466 293.436 133.467C293.436 133.502 293.498 133.502 293.498 133.467C293.33 127.764 289.074 93.1377 288.813 89.9413Z" fill="#455A64"/>
<path d="M287.931 50.6328C287.393 53.6499 284.879 60.6392 280.221 66.615C278.42 68.9148 271.824 71.5304 266.504 73.1209C264.532 73.7445 262.516 74.2201 260.473 74.5437C260.266 74.5715 260.058 74.5884 259.849 74.5943C257.374 74.645 256.057 70.782 256.061 67.9871C256.061 67.913 256.061 67.8351 256.061 67.761C256.061 67.6869 256.061 67.6791 256.061 67.6363C256.107 66.5019 256.392 65.5976 256.918 65.2974C257.105 65.1926 257.298 65.0976 257.495 65.0128C258.497 64.5802 260.251 64.0149 262.262 63.4146C262.734 63.2704 263.225 63.1262 263.72 62.9819C268.398 61.6137 273.762 60.1831 274.311 59.7621C275.149 59.115 280.548 53.9852 283.838 49.4283C286.232 46.0798 288.82 45.6121 287.931 50.6328Z" fill="#FFBF9D"/>
<path d="M266.504 73.1057C264.532 73.7293 262.516 74.2049 260.473 74.5285C257.94 74.9037 255.371 74.9926 252.818 74.7936C251.258 74.6416 246.799 73.7294 246.826 72.5171C246.854 71.3048 248.175 71.4568 248.175 71.4568C248.175 71.4568 246.351 70.7903 246.487 69.5741C246.6 68.5761 247.996 68.5995 248.499 68.6385C248.51 68.6327 248.523 68.6297 248.536 68.6297C248.548 68.6297 248.561 68.6327 248.573 68.6385H248.662C248.662 68.6385 246.838 67.816 247.06 66.6154C247.259 65.5395 248.888 65.9449 249.231 66.0424C248.951 65.9215 247.649 65.294 248.187 64.4831C248.908 63.3839 251.905 64.9821 253.644 65.0601C253.73 65.0601 254.166 65.0601 254.813 65.0601C256.193 64.2103 257.877 63.4657 258.602 63.3683C259.82 63.2822 261.043 63.2913 262.259 63.3956C262.73 63.2513 263.222 63.1071 263.717 62.9629C264.598 64.144 267.135 68.0967 266.504 73.1057Z" fill="#455A64"/>
<path d="M261.705 64.8721L261.553 70.1696V70.3061L261.44 74.325C261.124 74.4121 260.802 74.4798 260.477 74.5277C257.943 74.9029 255.375 74.9918 252.822 74.7928C251.262 74.6407 246.803 73.7286 246.83 72.5163C246.857 71.304 248.179 71.456 248.179 71.456C248.179 71.456 246.355 70.7894 246.491 69.5732C246.604 68.5753 248 68.5987 248.502 68.6377H248.584H248.674C248.674 68.6377 246.85 67.8152 247.072 66.6146C247.271 65.5387 248.9 65.9441 249.243 66.0416H249.286H249.255C248.974 65.9207 247.672 65.2931 248.21 64.4823C248.931 63.3831 251.929 64.9813 253.667 65.0592C253.753 65.0592 254.19 65.0592 254.837 65.0592L257.515 64.993L261.705 64.8721Z" fill="#455A64"/>
<path d="M255.18 67.2545C254.438 67.3947 253.686 67.4742 252.931 67.4923C251.596 67.4982 250.303 67.0299 249.282 66.1709C249.224 66.128 249.22 66.0851 249.243 66.0617C249.257 66.0545 249.272 66.0508 249.288 66.0508C249.304 66.0508 249.319 66.0545 249.333 66.0617C250.377 66.6798 251.541 67.0691 252.747 67.2038C253.55 67.2624 254.356 67.252 255.157 67.1727C255.215 67.1766 255.231 67.2467 255.18 67.2545Z" fill="#263238"/>
<path d="M254.817 69.8661C252.283 70.0844 250.798 70.1 248.537 68.7708C248.467 68.7318 248.456 68.6616 248.495 68.6383C248.506 68.6324 248.519 68.6294 248.532 68.6294C248.544 68.6294 248.557 68.6324 248.569 68.6383C250.954 69.6479 252.221 69.8077 254.806 69.8077C254.848 69.7999 254.852 69.8622 254.817 69.8661Z" fill="#263238"/>
<path d="M248.37 71.53C250.759 72.3448 252.139 72.5708 254.646 72.2434C254.655 72.2463 254.664 72.2522 254.67 72.2603C254.676 72.2683 254.679 72.2782 254.679 72.2882C254.679 72.2983 254.676 72.3081 254.67 72.3162C254.664 72.3243 254.655 72.3302 254.646 72.3331C252.124 72.9178 250.401 72.6488 248.335 71.6041C248.214 71.5339 248.222 71.4794 248.37 71.53Z" fill="#263238"/>
<path d="M260.532 69.9827C260.399 69.957 260.269 69.9205 260.142 69.8735L260.037 69.8307C258.088 68.9848 257.659 65.9131 257.659 65.9131C256.963 66.0055 256.26 66.0368 255.558 66.0066C254.548 65.9638 253.539 65.7806 252.977 65.3245C252.828 65.2071 252.71 65.0561 252.63 64.884C252.588 64.7926 252.559 64.6954 252.545 64.5955C252.543 64.5865 252.543 64.5772 252.545 64.5682C252.502 64.003 253.714 63.4612 255.133 63.0753C256.692 62.6465 258.52 62.4087 259.241 62.5179C260.437 62.7776 261.61 63.1308 262.75 63.5742C263.233 63.7496 263.553 63.8744 263.553 63.8744C263.553 63.8744 262.89 70.4894 260.532 69.9827Z" fill="#455A64"/>
<path d="M252.747 64.9934C253.964 66.2564 256.061 65.8393 257.64 65.7457C257.663 65.7428 257.686 65.7457 257.708 65.7542C257.73 65.7626 257.749 65.7764 257.764 65.7942C257.779 65.812 257.79 65.8333 257.794 65.8561C257.799 65.879 257.798 65.9026 257.792 65.925C258.103 67.4102 258.961 69.4138 260.45 70.0375C260.493 70.057 260.473 70.1233 260.427 70.1077C258.754 69.6516 257.737 67.7688 257.499 66.1043C255.885 66.2252 253.765 66.5526 252.736 65.0051C252.732 64.9934 252.74 64.9856 252.747 64.9934Z" fill="#263238"/>
<path d="M285.281 59.7348L275.657 57.6961C275.657 57.6961 282.556 49.3815 285.277 47.5065C288.337 45.3976 288.746 47.4246 288.134 50.9056C287.522 54.3866 285.281 59.7348 285.281 59.7348Z" fill="#E31E26"/>
<path opacity="0.1" d="M285.281 59.7348L275.657 57.6961C275.657 57.6961 282.556 49.3815 285.277 47.5065C288.337 45.3976 288.746 47.4246 288.134 50.9056C287.522 54.3866 285.281 59.7348 285.281 59.7348Z" fill="black"/>
<path d="M303.723 80.6947C303.66 80.7649 278.253 80.8467 277.995 80.57C277.652 80.1802 282.962 50.964 285.729 47.3544C286.322 46.5748 290.512 45.8614 292.196 47.3076C297.634 51.9736 303.961 80.4569 303.723 80.6947Z" fill="#E31E26"/>
<path opacity="0.1" d="M287.039 57.3684H291.865V56.5888H287.039V57.3684Z" fill="black"/>
<path d="M275.178 61.8749L260.267 66.8438L266.735 86.2517L281.646 81.2828L275.178 61.8749Z" fill="#A6A6A6"/>
<path d="M270.991 62.1497L263.921 64.4973L264.632 66.6393L271.702 64.2916L270.991 62.1497Z" fill="#EBEBEB"/>
<path d="M269.385 62.693L268.515 62.9854L268.184 61.9952L266.071 62.6969L266.399 63.687L265.526 63.9755L264.929 62.1746L268.8 60.8921L269.385 62.693Z" fill="#EBEBEB"/>
<path d="M294.418 49.1205C298.577 54.4843 307.574 68.3381 305.068 71.2539C300.955 76.0173 290.859 80.2701 287.694 81.2291C286.334 81.6423 281.457 71.7255 282.739 70.9069C284.279 69.9246 294.979 66.1903 294.921 65.2625C294.89 64.7363 292.972 59.9026 291.873 54.2465C290.602 47.6899 292.995 47.2689 294.418 49.1205Z" fill="#FFBF9D"/>
<path d="M287.623 70.2319C287.623 70.2319 283.452 69.0235 280.724 68.3648C279.184 67.975 276.494 67.5851 275.239 67.8463C273.364 68.2127 265.759 70.9648 266.383 72.8086C266.948 74.4926 273.181 71.3117 273.181 71.3117C273.181 71.3117 266.605 73.9624 267.657 75.8647C268.71 77.767 275.267 73.2335 275.267 73.2335C275.267 73.2335 268.57 76.1103 269.965 77.9112C271.021 79.2638 277.2 75.4944 277.2 75.4944C277.2 75.4944 271.462 78.0086 272.487 79.447C273.618 81.0336 279.543 77.9112 279.543 77.9112C282.763 81.1271 285.608 81.3376 287.651 81.2479C288.13 81.2168 287.623 70.2319 287.623 70.2319Z" fill="#FFBF9D"/>
<path d="M287.659 68.7814C287.102 69.0455 286.517 69.2481 285.916 69.3856C284.459 69.526 282.299 68.7463 280.709 68.3643C279.118 67.9823 276.479 67.5847 275.224 67.8459C273.349 68.2123 265.744 70.9644 266.367 72.8082C266.933 74.4921 273.166 71.3113 273.166 71.3113C273.166 71.3113 266.59 73.962 267.642 75.8643C268.695 77.7665 275.267 73.233 275.267 73.233C275.267 73.233 268.57 76.1098 269.965 77.9108C271.022 79.2634 277.2 75.4939 277.2 75.4939C277.2 75.4939 271.462 78.0082 272.487 79.4466C273.618 81.0331 279.543 77.9108 279.543 77.9108C282.763 81.1267 285.608 81.3372 287.651 81.2475C287.752 81.2475 291.28 80.3081 291.276 79.9027C291.249 76.679 287.659 68.7814 287.659 68.7814Z" fill="#455A64"/>
<path d="M275.384 70.2477C274.604 70.5323 273.805 70.8129 273.045 71.1637C272.285 71.5146 271.544 71.8966 270.823 72.3332C269.872 72.8653 268.985 73.5048 268.18 74.2393C269.704 73.0426 272.394 71.7368 273.15 71.3859C273.906 71.0351 274.639 70.6453 275.395 70.2906C275.419 70.2672 275.403 70.2399 275.384 70.2477Z" fill="#263238"/>
<path d="M276.705 72.9527C275.719 73.3425 274.729 73.7323 273.758 74.1728C272.787 74.6132 271.922 75.1317 270.994 75.6423C270.92 75.6813 270.967 75.7086 271.041 75.6696C271.988 75.1941 272.904 74.8315 273.859 74.3677C274.814 73.9038 275.75 73.4009 276.717 72.976C276.732 72.9682 276.721 72.9488 276.705 72.9527Z" fill="#263238"/>
<path d="M278.257 75.0733C276.732 75.6588 275.272 76.3995 273.899 77.2835C273.829 77.3264 273.899 77.3537 273.961 77.3147C275.399 76.5351 276.518 75.9425 278.276 75.1239C278.304 75.1123 278.292 75.0616 278.257 75.0733Z" fill="#263238"/>
<path d="M292.847 60.893L302.647 60.1875C302.647 60.1875 296.96 50.9997 294.523 48.77C291.795 46.2596 291.097 48.2126 291.225 51.7403C291.354 55.2681 292.847 60.893 292.847 60.893Z" fill="#E31E26"/>
<path opacity="0.1" d="M292.847 60.893L302.647 60.1875C302.647 60.1875 296.96 50.9997 294.523 48.77C291.795 46.2596 291.097 48.2126 291.225 51.7403C291.354 55.2681 292.847 60.893 292.847 60.893Z" fill="black"/>
<path d="M287.351 50.9487C288.239 51.0813 290.859 49.4558 291.833 47.7016C291.904 47.5808 291.444 42.7277 291.467 41.757C291.467 41.5582 285.363 43.1642 285.363 43.1642C285.695 44.3824 285.878 45.6363 285.908 46.8986C285.905 47.0297 285.889 47.1602 285.862 47.2884V47.3547C285.698 48.1187 286.025 50.7538 287.351 50.9487Z" fill="#FFBF9D"/>
<path d="M291.054 41.7844C290.808 43.254 289.822 47.3665 286.454 47.4055C286.246 47.4079 286.037 47.3936 285.831 47.3626V47.2963C285.855 47.1677 285.869 47.0374 285.873 46.9065C285.846 45.6443 285.664 44.3902 285.332 43.1721C285.332 43.1721 289.69 42.0183 291.054 41.7844Z" fill="#263238"/>
<path d="M291.639 33.5283C292.531 35.6021 292.079 41.9248 290.703 43.4762C288.711 45.7215 285.109 46.3102 283.118 43.8388C281.168 41.4414 281.917 33.2126 283.484 31.7547C285.792 29.6302 290.337 30.4683 291.639 33.5283Z" fill="#FFBF9D"/>
<path d="M286.127 37.9404C286.127 37.9404 286.158 37.9638 286.158 37.9833C286.115 38.4082 286.139 38.8994 286.517 39.067C286.517 39.067 286.517 39.0943 286.517 39.0904C286.045 38.9851 286.018 38.338 286.127 37.9404Z" fill="#263238"/>
<path d="M286.536 37.5234C287.226 37.5234 287.187 38.8956 286.536 38.8995C285.885 38.9034 285.959 37.5273 286.536 37.5234Z" fill="#263238"/>
<path d="M283.655 37.9443C283.655 37.9443 283.62 37.9443 283.62 37.9794C283.62 38.4082 283.554 38.8955 283.164 39.028C283.164 39.028 283.164 39.0553 283.164 39.0514C283.64 38.9851 283.726 38.3497 283.655 37.9443Z" fill="#263238"/>
<path d="M283.285 37.4877C282.603 37.4175 282.505 38.7897 283.145 38.8559C283.784 38.9222 283.862 37.5462 283.285 37.4877Z" fill="#263238"/>
<path d="M287.097 36.9074C286.918 36.8496 286.743 36.782 286.571 36.7047C286.375 36.6611 286.199 36.5526 286.072 36.3967C286.041 36.3405 286.029 36.2755 286.039 36.2119C286.049 36.1484 286.08 36.0899 286.127 36.0459C286.232 35.9715 286.355 35.9271 286.484 35.9175C286.612 35.9079 286.741 35.9334 286.856 35.9913C287.108 36.0695 287.322 36.2391 287.456 36.4669C287.483 36.5205 287.493 36.5807 287.487 36.6403C287.48 36.6999 287.456 36.7562 287.419 36.8027C287.381 36.8492 287.33 36.8838 287.273 36.9023C287.216 36.9209 287.155 36.9226 287.097 36.9074Z" fill="#263238"/>
<path d="M282.77 36.7792C282.965 36.7519 283.137 36.6973 283.324 36.6545C283.524 36.6354 283.713 36.5519 283.862 36.4167C283.901 36.3657 283.922 36.3034 283.922 36.2393C283.922 36.1752 283.901 36.1129 283.862 36.0619C283.768 35.9745 283.652 35.9138 283.527 35.8864C283.401 35.859 283.271 35.8658 283.149 35.906C282.887 35.9488 282.651 36.0879 282.486 36.2958C282.454 36.3446 282.436 36.4014 282.434 36.4599C282.432 36.5184 282.447 36.5761 282.477 36.6265C282.507 36.677 282.55 36.718 282.602 36.745C282.654 36.772 282.712 36.7838 282.77 36.7792Z" fill="#263238"/>
<path d="M285.998 40.623C285.886 40.7896 285.74 40.9311 285.57 41.0384C285.401 41.1458 285.21 41.2167 285.012 41.2467C284.839 41.2701 284.663 41.2701 284.49 41.2467C284.456 41.2507 284.422 41.2507 284.388 41.2467H284.295C284.272 41.241 284.253 41.2286 284.238 41.2111C284.223 41.1936 284.214 41.172 284.213 41.1492C284.211 41.135 284.211 41.1206 284.213 41.1064V41.0674C284.213 40.7399 284.26 40.241 284.26 40.241C284.135 40.2995 283.515 40.5567 283.531 40.3852C283.612 38.8942 283.848 37.4155 284.232 35.9726C284.232 35.9622 284.236 35.9523 284.244 35.945C284.251 35.9377 284.261 35.9336 284.271 35.9336C284.282 35.9336 284.291 35.9377 284.299 35.945C284.306 35.9523 284.31 35.9622 284.31 35.9726C284.244 37.3408 283.94 38.7012 283.85 40.0617C284.072 39.9684 284.305 39.9055 284.544 39.8746C284.591 39.8746 284.439 40.8374 284.451 40.9816C284.719 41.0161 284.992 40.9959 285.253 40.9222C285.513 40.8485 285.756 40.7229 285.967 40.5528C285.994 40.545 286.025 40.5918 285.998 40.623Z" fill="#263238"/>
<path d="M284.688 41.0935C284.862 41.3328 285.094 41.5234 285.363 41.647C285.512 41.7084 285.676 41.7233 285.834 41.6899C286.177 41.608 286.193 41.3001 286.138 41.0272C286.107 40.8848 286.06 40.7462 285.998 40.614C285.624 40.9095 285.165 41.0776 284.688 41.0935Z" fill="#263238"/>
<path d="M291.822 39.3749C290.68 39.106 289.92 35.356 289.92 35.356C289.92 35.356 290.009 36.9581 289.705 36.9152C289.401 36.8724 288.064 34.7752 287.85 33.2199C286.992 33.8498 286.055 34.3648 285.063 34.7518C283.656 35.2469 282.221 35.204 282.252 34.9623C282.35 34.2217 282.642 32.374 283.192 31.8438C283.909 31.1938 284.788 30.7487 285.737 30.5553C286.685 30.3619 287.668 30.4273 288.583 30.7446C290.961 31.5242 291.643 32.9899 292.048 34.1359C292.453 35.2819 292.243 39.4568 291.822 39.3749Z" fill="#263238"/>
<path d="M290.882 38.7282C290.882 38.7282 292.106 36.596 293.061 37.0131C294.017 37.4302 293.225 40.4395 292.188 40.9345C292.06 41.0068 291.918 41.0524 291.772 41.0685C291.626 41.0846 291.478 41.071 291.337 41.0284C291.196 40.9858 291.065 40.9151 290.952 40.8206C290.839 40.7261 290.747 40.6097 290.68 40.4785L290.882 38.7282Z" fill="#FFBF9D"/>
<path d="M292.808 37.8699C292.808 37.8699 292.831 37.8699 292.808 37.8972C292.087 38.287 291.756 39.0003 291.541 39.7449C291.578 39.6661 291.632 39.5964 291.699 39.5404C291.766 39.4844 291.844 39.4436 291.928 39.4206C292.012 39.3976 292.1 39.3931 292.186 39.4074C292.272 39.4216 292.354 39.4543 292.426 39.5032C292.446 39.5032 292.426 39.5461 292.426 39.5422C292.29 39.5126 292.148 39.5256 292.02 39.5793C291.892 39.6329 291.783 39.7248 291.709 39.8423C291.587 40.0404 291.486 40.2508 291.409 40.4699C291.381 40.5401 291.257 40.5167 291.276 40.4348C291.171 39.4642 291.795 38.057 292.808 37.8699Z" fill="#263238"/>
<path d="M282.408 33.3093C283.004 33.1378 286.364 33.091 287.896 33.6758C289.428 34.2605 292.184 36.3109 292.34 36.4044C292.496 36.498 292.936 30.9471 288.411 30.1441C283.48 29.267 282.408 33.3093 282.408 33.3093Z" fill="#E31E26"/>
<path d="M292.075 36.2017C292.075 36.2017 288.957 32.4206 287.257 31.602C285.558 30.7834 281.862 30.4325 279.629 31.5357C277.882 32.3972 282.322 34.4944 282.322 34.4944C282.355 34.3057 282.432 34.1272 282.545 33.973C282.659 33.8188 282.807 33.6931 282.977 33.6056C284.068 33.1183 286.193 33.3678 287.409 33.7186C288.945 34.163 292.075 36.2017 292.075 36.2017Z" fill="#E31E26"/>
<path opacity="0.2" d="M292.075 36.2017C292.075 36.2017 288.957 32.4206 287.257 31.602C285.558 30.7834 281.862 30.4325 279.629 31.5357C277.882 32.3972 282.322 34.4944 282.322 34.4944C282.355 34.3057 282.432 34.1272 282.545 33.973C282.659 33.8188 282.807 33.6931 282.977 33.6056C284.068 33.1183 286.193 33.3678 287.409 33.7186C288.945 34.163 292.075 36.2017 292.075 36.2017Z" fill="black"/>
<path d="M289.721 43.4913C290.754 42.9884 291.791 42.4115 292.45 41.3941C292.943 40.6721 293.261 39.8443 293.377 38.9773C293.29 39.3237 293.159 39.6577 292.987 39.9713C292.824 40.2982 292.6 40.5917 292.329 40.8367C291.731 41.9186 290.808 42.7846 289.69 43.312C289.565 43.3626 289.62 43.542 289.721 43.4913Z" fill="#EBEBEB"/>
<g clip-path="url(#clip1_113_4513)">
<path d="M127.246 190.317C192.805 190.317 245.951 186.433 245.951 181.641C245.951 176.849 192.805 172.964 127.246 172.964C61.6868 172.964 8.54058 176.849 8.54058 181.641C8.54058 186.433 61.6868 190.317 127.246 190.317Z" fill="#EBEBEB"/>
<path d="M-6.54063 165.411L26.174 165.295L58.8848 165.251L124.314 165.173L189.743 165.251L222.454 165.295L255.169 165.411L222.454 165.532L189.743 165.576L124.314 165.653L58.8848 165.571L26.174 165.532L-6.54063 165.411Z" fill="#263238"/>
<path d="M50.5817 165.406C50.5817 165.406 49.6893 161.235 47.9045 160.59C46.1197 159.945 45.0332 161.822 45.0332 161.822C45.0332 161.822 44.6113 157.835 42.0795 156.642C39.5478 155.449 37.6514 157.893 37.6514 157.893C37.6514 157.893 35.7114 152.839 32.2388 152.839C28.7661 152.839 27.0201 160.236 27.0201 160.236C27.0201 160.236 24.9734 158.029 22.8733 159.266C20.7732 160.502 20.7732 165.396 20.7732 165.396L50.5817 165.406Z" fill="#455A64"/>
<path d="M116.746 165.405H85.3705C85.3705 165.405 86.4036 160.982 88.4842 160.667C90.5649 160.351 91.5349 162.408 91.5349 162.408C91.5349 162.408 91.4379 156.239 95.3228 155.186C99.2077 154.134 102.467 159.585 102.467 159.585C102.467 159.585 104.892 156.476 108.224 156.675C111.556 156.874 112.385 162.01 112.385 162.01C112.385 162.01 115.412 160.225 116.746 165.405Z" fill="#37474F"/>
<path d="M25.0559 165.404H8.56568C8.56568 165.404 8.60448 162.945 10.2244 162.291C10.6651 162.099 11.1559 162.057 11.623 162.169C12.0901 162.281 12.5082 162.541 12.8143 162.911C12.8143 162.911 13.4788 158.391 16.5004 158.391C19.522 158.391 20.977 162.271 20.977 162.271C21.2317 161.896 21.5909 161.605 22.0099 161.432C22.429 161.26 22.8894 161.214 23.3341 161.301C24.988 161.553 25.0559 165.404 25.0559 165.404Z" fill="#37474F"/>
<path d="M155.432 64.0513L159.625 154.166H235.926L228.027 117.586L202.601 109.826C201.942 109.601 201.342 109.239 200.843 108.765C200.345 108.29 199.96 107.715 199.716 107.081L184.514 69.2796L155.432 64.0513Z" fill="#E31E26"/>
<path d="M163.837 73.5371L165.74 106.047L193.274 108.545L181.408 74.7254L163.837 73.5371Z" fill="#455A64"/>
<g opacity="0.3">
<path d="M164.881 91.3472L165.316 98.7629L173.571 106.756L181.54 107.483L164.881 91.3472Z" fill="white"/>
<path d="M169.468 73.9189L187.125 91.0154L185.271 85.7143L173.355 74.176L169.468 73.9189Z" fill="white"/>
<path d="M164.064 77.3567L164.114 78.254L192.189 105.439L191.733 104.148L164.064 77.3567Z" fill="white"/>
<path d="M165.477 101.497L165.527 102.399L169.659 106.4L170.631 106.488L165.477 101.497Z" fill="white"/>
</g>
<path d="M163.837 73.5371L181.408 74.7254L193.274 108.545L191.431 108.375L180.216 76.4035L163.922 74.963L163.837 73.5371Z" fill="#263238"/>
<path d="M201.689 110.631H201.188V152.792H201.689V110.631Z" fill="#263238"/>
<path d="M231.383 117.681L225.177 116.711L228.794 129.083L231.99 128.758C232.331 128.724 232.645 128.562 232.865 128.306C233.085 128.051 233.193 127.722 233.167 127.391L232.49 118.826C232.461 118.544 232.337 118.279 232.137 118.072C231.937 117.865 231.672 117.728 231.383 117.681Z" fill="white"/>
<path d="M196.69 99.8032C195.187 101.03 196.545 112.069 197.602 111.88C198.658 111.691 200.927 111.274 201.839 110.575C202.751 109.877 207.91 100.943 206.658 99.0902C205.405 97.2375 197.857 98.8574 196.69 99.8032Z" fill="#E31E26"/>
<path opacity="0.1" d="M196.69 99.8032C195.187 101.03 196.545 112.069 197.602 111.88C198.658 111.691 200.927 111.274 201.839 110.575C202.751 109.877 207.91 100.943 206.658 99.0902C205.405 97.2375 197.857 98.8574 196.69 99.8032Z" fill="black"/>
<path opacity="0.1" d="M176.725 115.536H167.273V112.966L176.725 113.465V115.536Z" fill="black"/>
<path d="M157.516 154.165H0.671402L8.9712 45.8679L151.866 38.5249L157.516 154.165Z" fill="#E31E26"/>
<path d="M126.952 74.8072L105.236 58.4386L28.031 67.641L34.4778 110.683L108.736 98.1729L126.952 74.8072ZM118.035 75.4589C118.214 76.1036 118.192 76.7856 117.972 77.4193C117.752 78.0531 117.345 78.6106 116.8 79.0219C116.256 79.4332 115.598 79.6802 114.91 79.7318C114.222 79.7834 113.535 79.6375 112.933 79.3122C112.331 78.9869 111.843 78.4967 111.528 77.903C111.214 77.3093 111.087 76.6385 111.165 75.9746C111.242 75.3106 111.52 74.683 111.963 74.1703C112.407 73.6576 112.996 73.2826 113.658 73.0923C114.563 72.8438 115.533 72.9529 116.353 73.3957C117.173 73.8384 117.778 74.5786 118.035 75.454L118.035 75.4589Z" fill="white"/>
<path d="M114.479 77.3651C115.906 77.2754 117.339 77.2754 118.766 77.3651C120.204 77.4372 121.637 77.5797 123.059 77.7919C125.946 78.2111 128.773 78.9516 131.484 79.9987C132.874 80.5475 134.215 81.2078 135.491 81.9727C136.137 82.351 136.753 82.7875 137.365 83.2289L138.251 83.9467C138.542 84.1892 138.812 84.4608 139.093 84.7178C140.212 85.794 141.169 87.0188 141.933 88.3554L142.469 89.3885C142.624 89.7425 142.759 90.1111 142.904 90.47C143.042 90.8261 143.161 91.1887 143.26 91.5564L143.42 92.0996L143.541 92.6525C143.883 94.1415 144.01 95.6694 143.916 97.1922C143.812 98.7099 143.498 100.207 142.985 101.645C141.952 104.431 140.321 106.975 138.201 109.109C136.165 111.18 133.82 112.944 131.244 114.342C128.729 115.75 126.001 116.765 123.159 117.349L123.044 116.985C125.571 115.838 127.957 114.42 130.157 112.756C132.315 111.152 134.267 109.304 135.972 107.251C137.628 105.282 138.888 103.03 139.689 100.612C140.445 98.268 140.559 95.7742 140.019 93.3752L139.929 92.9242L139.799 92.4828C139.724 92.1853 139.632 91.8922 139.523 91.6049C139.413 91.3285 139.313 91.0423 139.198 90.7659L138.802 89.9511C138.218 88.8743 137.492 87.875 136.643 86.978C134.817 85.1247 132.675 83.5891 130.312 82.4383C127.858 81.2205 125.301 80.2095 122.668 79.4167C119.979 78.5884 117.245 77.9036 114.479 77.3651Z" fill="#263238"/>
<path d="M123.857 112.775L120.631 118.881L127.158 121.549L117.435 120.006L123.857 112.775Z" fill="#263238"/>
<path opacity="0.1" d="M157.516 154.16H0.671402L1.1172 148.349L156.775 138.887L157.516 154.16Z" fill="black"/>
<path d="M-0.120483 159.033H239.422V152.132H-0.120483V159.033Z" fill="#EBEBEB"/>
<path d="M244.405 148.814L220.512 150.235V160.08H246.188L244.405 148.814Z" fill="#DBDBDB"/>
<path d="M10.1931 160.08V150.443L-4.88376 148.935L-6.73706 160.08H10.1931Z" fill="#DBDBDB"/>
<path d="M28.6172 161.469L23.6583 160.766C24.605 154.524 30.2551 142.714 44.8862 142.714C59.5173 142.714 65.0572 154.543 65.9237 160.795L60.9598 161.445L63.4643 161.12L60.9598 161.45C60.8797 160.882 58.7759 147.564 44.8812 147.564C30.8812 147.564 28.7023 160.902 28.6172 161.469Z" fill="#C7C7C7"/>
<path d="M44.7899 145.658C21.4333 145.658 21.3982 180.806 44.7899 180.806C68.1816 180.806 68.1866 145.658 44.7899 145.658Z" fill="#263238"/>
<path d="M44.7898 155.255C34.1909 155.255 34.1708 171.207 44.7898 171.207C55.4087 171.207 55.4087 155.255 44.7898 155.255Z" fill="#C7C7C7"/>
<path d="M168.526 161.478L163.572 160.751C164.514 154.509 170.164 142.699 184.8 142.699C199.436 142.699 204.966 154.528 205.837 160.78L200.863 161.444L203.368 161.119L200.863 161.449C200.778 160.882 198.674 147.563 184.785 147.563C170.895 147.563 168.616 160.911 168.526 161.478Z" fill="#C7C7C7"/>
<path d="M184.79 145.658C161.433 145.658 161.398 180.806 184.79 180.806C208.182 180.806 208.187 145.658 184.79 145.658Z" fill="#263238"/>
<path d="M184.79 155.255C174.191 155.255 174.171 171.207 184.79 171.207C195.409 171.207 195.409 155.255 184.79 155.255Z" fill="#C7C7C7"/>
<g clip-path="url(#clip2_113_4513)">
<path d="M54.2091 127.339C52.76 128.791 50.6175 129.065 50.0878 129.142C48.2429 129.41 46.4438 129.351 44.7828 128.445C44.155 128.104 43.7517 127.768 43.2513 127.276L46.0155 124.862C46.351 125.246 46.5266 125.427 46.7307 125.548C47.534 126.071 48.9076 126.153 49.7844 126.026C50.9169 125.861 51.6515 125.397 51.5605 124.771C51.5391 124.624 51.45 124.524 51.4237 124.471C51.3056 124.3 51.1354 124.156 50.754 124.098C50.2916 123.996 49.4535 124.005 48.3072 123.946C46.521 123.848 45.5279 123.56 44.8475 123.113C44.3948 122.821 43.5593 122.077 43.3769 120.693C43.3261 120.343 43.232 119.567 43.5526 118.693C44.4861 116.131 47.8525 115.679 48.3274 115.61C48.9667 115.517 51.2554 115.223 53.2381 116.289C53.6828 116.525 53.9368 116.733 54.3347 117.032L52.1216 119.517C51.9251 119.32 51.8177 119.223 51.6948 119.146C50.8651 118.571 49.557 118.554 48.6072 118.692C48.5158 118.705 48.0409 118.774 47.6814 118.996C47.6137 119.043 47.223 119.307 47.2845 119.731C47.3193 119.97 47.4949 120.151 47.6963 120.254C48.0545 120.409 48.8248 120.447 49.1617 120.455C49.6107 120.465 50.8221 120.458 52.1414 120.68C52.9643 120.824 55.0205 121.24 55.3897 123.782C55.66 125.643 54.6956 126.836 54.2091 127.339Z" fill="white"/>
<path d="M63.6034 126.782L62.8274 121.44C62.7873 121.163 62.761 121.111 62.703 120.969C62.5764 120.611 62.2146 120.174 61.3013 120.307C61.009 120.35 60.2107 120.503 60.1301 121.361C60.1021 121.553 60.1315 121.756 60.1529 121.903L60.9182 127.172L57.2284 127.708L55.3794 114.979L59.051 114.446L59.6798 118.775C59.8433 118.487 59.9212 118.382 60.033 118.253C60.3475 117.85 61.1128 117.212 62.4463 117.018C63.3413 116.888 64.4044 117.016 65.1583 117.584C65.4306 117.789 65.8628 118.196 66.124 118.967C66.2795 119.396 66.3433 119.706 66.4102 120.167L67.2959 126.264L63.606 126.8L63.6034 126.782Z" fill="white"/>
<path d="M66.8291 112.395L66.4706 109.927L70.1604 109.391L70.5189 111.859L66.8291 112.395ZM68.8092 126.026L66.9656 113.335L70.6554 112.799L72.499 125.49L68.8092 126.026Z" fill="white"/>
<path d="M80.0749 124.616C79.8009 124.656 78.8327 124.796 77.9906 124.392C77.8494 124.318 77.7656 124.255 77.5379 124.1L78.1213 128.116L74.5045 128.641L72.6555 115.913L76.254 115.39L76.3584 116.108C76.5089 115.861 76.5713 115.776 76.6702 115.687C76.9771 115.36 77.6231 114.928 78.6825 114.774C81.5869 114.352 83.0646 116.564 83.4419 119.161C83.8245 121.795 82.9427 124.199 80.0749 124.616ZM79.1691 117.995C78.7787 117.619 78.2931 117.614 78.1104 117.641C77.9643 117.662 77.693 117.72 77.4248 117.928C76.7374 118.461 76.8347 119.387 76.9444 120.142C77.0487 120.861 77.2427 121.811 78.0139 122.113C78.3303 122.236 78.5495 122.204 78.6773 122.186C78.8417 122.162 79.0948 122.106 79.3603 121.879C79.9563 121.36 79.9192 120.463 79.8176 119.763C79.7319 119.173 79.5857 118.423 79.1691 117.995Z" fill="white"/>
<path d="M91.2539 122.993C90.9799 123.033 90.0118 123.174 89.1696 122.769C89.0284 122.696 88.9446 122.633 88.7169 122.478L89.8408 130.214L86.224 130.74L83.8346 114.29L87.433 113.767L87.5374 114.486C87.6879 114.238 87.7503 114.154 87.8492 114.064C88.1561 113.738 88.8021 113.305 89.8615 113.151C92.7659 112.729 94.2436 114.941 94.6209 117.538C95.0035 120.173 94.1217 122.577 91.2539 122.993ZM90.3298 116.375C89.9395 115.999 89.4538 115.994 89.2712 116.021C89.125 116.042 88.8537 116.1 88.5855 116.309C87.8982 116.841 87.9954 117.767 88.1051 118.523C88.2095 119.241 88.4034 120.191 89.1747 120.493C89.491 120.616 89.7102 120.584 89.8381 120.566C90.0025 120.542 90.2555 120.486 90.521 120.259C91.1171 119.74 91.08 118.843 90.9783 118.143C90.9109 117.551 90.7647 116.801 90.3298 116.375Z" fill="white"/>
<path d="M99.1147 117.524C99.1147 117.524 99.1763 117.948 99.3104 118.23C99.4918 118.579 99.9379 119.211 100.922 119.049C101.488 118.967 101.769 118.719 101.927 118.527C102.266 118.158 102.371 117.729 102.425 117.589L105.627 118.441C105.557 118.601 105.477 118.82 105.279 119.131C104.75 119.979 104.081 120.509 103.773 120.704C103.367 120.988 102.452 121.497 101.119 121.691C100.352 121.803 99.605 121.798 98.868 121.604C96.835 121.091 95.5392 119.361 95.2421 117.316C94.9612 115.382 95.6667 114.075 96.1188 113.464C97.2467 111.984 99.0809 111.642 99.6106 111.565C100.232 111.475 102.145 111.291 103.69 112.553C104.198 112.968 104.636 113.544 104.928 114.141C105.301 114.914 105.434 115.704 105.557 116.551L99.1094 117.488L99.1147 117.524ZM101.384 114.656C101.016 113.919 100.324 113.907 100.032 113.949C99.742 114.01 99.5883 114.108 99.4867 114.179C98.8563 114.59 98.8747 115.359 98.8676 115.567L101.553 115.177C101.5 115.071 101.473 114.887 101.384 114.656Z" fill="white"/>
<path d="M112.315 113.124C112.02 113.148 110.436 113.284 110.182 114.619C110.118 114.948 110.153 115.188 110.201 115.519L110.84 119.922L107.169 120.455L105.812 111.116L109.356 110.601L109.474 111.411C109.632 111.219 109.744 111.09 109.908 110.935C110.647 110.244 111.427 110.093 112.395 109.953L112.85 113.084C112.665 113.092 112.479 113.1 112.315 113.124Z" fill="white"/>
<path d="M111.844 104.617L106.329 101.58L106.693 104.086L71.8227 109.151L72.1866 111.656L107.057 106.591L107.421 109.096L111.844 104.617Z" fill="white"/>
<path d="M44.2499 135.69L49.7643 138.726L49.4004 136.221L84.6362 131.102L84.2723 128.597L49.0365 133.715L48.6725 131.21L44.2499 135.69Z" fill="white"/>
</g>
<path d="M47.4793 95.8035C46.7703 95.9065 46.0973 95.9071 45.4602 95.8056C44.8356 95.7023 44.247 95.4967 43.6943 95.1888C43.1522 94.8666 42.6469 94.4484 42.1786 93.9343L43.3248 92.1186C44.063 92.9169 44.7368 93.4465 45.3461 93.7073C45.9555 93.9681 46.6458 94.0425 47.4169 93.9305C47.8896 93.8619 48.3077 93.7236 48.6712 93.5156C49.0347 93.3076 49.3091 93.0543 49.4944 92.7558C49.6796 92.4573 49.7474 92.137 49.6978 91.7949C49.6647 91.5669 49.5961 91.357 49.4921 91.1651C49.388 90.9733 49.2432 90.8067 49.0576 90.6655C48.8844 90.5225 48.6633 90.3994 48.3943 90.2961C48.1378 90.1911 47.8404 90.1114 47.5023 90.057C47.1624 89.9899 46.7755 89.9491 46.3415 89.9344C45.6496 89.8926 45.0384 89.7938 44.5077 89.638C43.9771 89.4822 43.519 89.2576 43.1336 88.9643C42.7481 88.6711 42.4432 88.3208 42.219 87.9135C41.9929 87.4936 41.8404 87.0113 41.7613 86.4666C41.684 85.9345 41.7243 85.4242 41.8819 84.9356C42.0521 84.4453 42.3122 84.0065 42.6624 83.6194C43.0232 83.2177 43.4644 82.8885 43.9859 82.6317C44.5056 82.3622 45.0827 82.1815 45.717 82.0894C46.3887 81.9919 47.0172 81.9912 47.6027 82.0873C48.1882 82.1834 48.7243 82.3772 49.2111 82.6687C49.6961 82.9475 50.1185 83.3195 50.4781 83.7847L49.267 85.4158C48.9576 85.0338 48.6271 84.7261 48.2757 84.4925C47.9225 84.2463 47.5492 84.0806 47.1558 83.9954C46.7606 83.8976 46.3515 83.8793 45.9286 83.9407C45.4435 84.0111 45.0317 84.1485 44.693 84.3529C44.3544 84.5573 44.0996 84.8142 43.9286 85.1236C43.7682 85.4185 43.7147 85.7497 43.768 86.117C43.8066 86.3831 43.8922 86.6229 44.0248 86.8365C44.1556 87.0374 44.3334 87.2121 44.5581 87.3605C44.7935 87.4945 45.0954 87.6059 45.4639 87.6947C45.8306 87.7708 46.2638 87.8244 46.7636 87.8553C47.4698 87.908 48.1078 88.0159 48.6775 88.1789C49.2455 88.3293 49.739 88.5358 50.1581 88.7983C50.5773 89.0608 50.9086 89.3749 51.1522 89.7405C51.4082 90.1044 51.5693 90.5143 51.6355 90.9704C51.7588 91.8191 51.6726 92.5819 51.3772 93.2586C51.0817 93.9353 50.6043 94.4962 49.945 94.9411C49.2838 95.3734 48.4619 95.6609 47.4793 95.8035Z" fill="black"/>
<path d="M55.0643 94.5084L53.1333 81.2068L58.4507 80.4348C59.1596 80.3319 59.8269 80.4226 60.4524 80.7069C61.0885 80.9768 61.6257 81.3968 62.0641 81.967C62.5025 82.5371 62.7768 83.2023 62.8872 83.9624C62.9975 84.7225 62.9236 85.4382 62.6654 86.1095C62.4073 86.7808 62.0135 87.3489 61.4841 87.8138C60.9653 88.2642 60.3513 88.5409 59.6424 88.6438L56.34 89.1232L57.0793 94.2159L55.0643 94.5084ZM56.0531 87.147L59.3182 86.673C59.654 86.6243 59.9449 86.485 60.191 86.2553C60.4352 86.0128 60.6152 85.7215 60.7309 85.3814C60.8572 85.0267 60.8919 84.653 60.8349 84.2603C60.7778 83.8676 60.6393 83.5255 60.4192 83.2341C60.2115 82.9409 59.9571 82.7191 59.6558 82.5688C59.3546 82.4185 59.0361 82.3677 58.7002 82.4165L55.4352 82.8905L56.0531 87.147Z" fill="black"/>
<path d="M66.8891 92.7918L64.9581 79.4901L73.186 78.2957L73.4729 80.2719L67.26 81.1739L68.6172 90.523L74.8301 89.6211L75.117 91.5973L66.8891 92.7918ZM66.9565 86.8253L66.6696 84.8491L72.9571 83.9363L73.244 85.9126L66.9565 86.8253Z" fill="black"/>
<path d="M78.3495 91.128L76.4185 77.8264L84.6464 76.632L84.9333 78.6082L78.7204 79.5101L80.0776 88.8593L86.2905 87.9573L86.5774 89.9336L78.3495 91.128ZM78.4169 85.1616L78.13 83.1854L84.4175 82.2726L84.7044 84.2488L78.4169 85.1616Z" fill="black"/>
<path d="M89.81 89.4643L87.8789 76.1627L92.991 75.4206C93.9239 75.2851 94.7865 75.3216 95.5787 75.53C96.3835 75.7365 97.0965 76.0987 97.7177 76.6164C98.339 77.1342 98.8515 77.7777 99.2553 78.5469C99.6591 79.3162 99.9327 80.1949 100.076 81.183C100.22 82.1711 100.208 83.0976 100.042 83.9626C99.8731 84.8149 99.5647 85.5776 99.1163 86.2506C98.6785 86.9092 98.1032 87.4519 97.3905 87.8788C96.6777 88.3056 95.8549 88.5868 94.9221 88.7222L89.81 89.4643ZM91.5684 87.4046L91.4821 87.2037L94.5419 86.7595C95.2011 86.6638 95.7701 86.4712 96.2488 86.1818C96.7399 85.8906 97.1311 85.5234 97.4224 85.0801C97.7242 84.6224 97.9262 84.0886 98.0281 83.4788C98.1301 82.869 98.1287 82.203 98.0239 81.4809C97.919 80.7588 97.7319 80.1263 97.4626 79.5833C97.1914 79.0277 96.8461 78.5733 96.4265 78.2203C96.007 77.8673 95.5266 77.6201 94.9853 77.4788C94.4441 77.3375 93.8439 77.3146 93.1847 77.4103L90.0689 77.8627L90.156 77.6754L91.5684 87.4046Z" fill="black"/>
<path d="M214.297 133.638H175.92V165.587H214.297V133.638Z" fill="#263238" stroke="#808080" stroke-width="0.389809" stroke-miterlimit="10"/>
<path d="M203.401 133.638H175.92V165.587H203.401V133.638Z" fill="#D1D1D1" stroke="#808080" stroke-width="0.389809" stroke-miterlimit="10"/>
<path d="M200.178 140.448L197.851 135.303L195.516 140.437L196.724 140.441V145.699L198.965 145.703L198.969 140.445L200.178 140.448Z" fill="#263238"/>
<path d="M196.919 146.779V149.406C196.919 149.648 196.993 149.733 197.114 149.737C197.235 149.741 197.309 149.648 197.309 149.406V146.802H197.667V149.39C197.667 149.936 197.476 150.248 197.106 150.244C196.736 150.24 196.545 149.932 196.545 149.39V146.798L196.919 146.779Z" fill="#263238"/>
<path d="M199.039 147.627V148.068C199.039 148.614 198.856 148.91 198.478 148.91H198.299V150.188H197.909V146.801H198.462C198.856 146.801 199.039 147.082 199.039 147.627ZM198.299 147.269V148.438H198.478C198.599 148.438 198.661 148.36 198.661 148.119V147.581C198.661 147.339 198.595 147.257 198.474 147.257L198.299 147.269Z" fill="#263238"/>
<path d="M191.999 133.638H187.322V139.657H191.999V133.638Z" fill="#F5F5F5" stroke="#808080" stroke-width="0.389809" stroke-miterlimit="10"/>
<path d="M245.871 133.638H207.494V165.587H245.871V133.638Z" fill="#263238" stroke="#808080" stroke-width="0.389809" stroke-miterlimit="10"/>
<path d="M234.976 133.638H207.494V165.587H234.976V133.638Z" fill="#D1D1D1" stroke="#808080" stroke-width="0.389809" stroke-miterlimit="10"/>
<path d="M223.574 133.638H218.896V139.657H223.574V133.638Z" fill="#F5F5F5" stroke="#808080" stroke-width="0.389809" stroke-miterlimit="10"/>
<path d="M243.926 101.853H205.549V133.802H243.926V101.853Z" fill="#263238" stroke="#808080" stroke-width="0.389809" stroke-miterlimit="10"/>
<path d="M233.031 101.853H205.549V133.802H233.031V101.853Z" fill="#D1D1D1" stroke="#808080" stroke-width="0.389809" stroke-miterlimit="10"/>
<path d="M230.973 109.069L228.646 103.923L226.311 109.057L227.519 109.061V114.32L229.76 114.323L229.764 109.065L230.973 109.069Z" fill="#263238"/>
<path d="M227.714 115.4V118.027C227.714 118.269 227.788 118.354 227.909 118.358C228.03 118.362 228.104 118.269 228.104 118.027V115.404H228.462V117.992C228.462 118.538 228.271 118.849 227.901 118.846C227.531 118.842 227.34 118.534 227.34 117.992V115.4H227.714Z" fill="#263238"/>
<path d="M229.834 116.248V116.689C229.834 117.235 229.651 117.531 229.273 117.531H229.094V118.81H228.704V115.406H229.257C229.651 115.406 229.834 115.703 229.834 116.248ZM229.094 115.89V117.059H229.273C229.394 117.059 229.456 116.981 229.456 116.74V116.229C229.456 115.987 229.39 115.905 229.269 115.905L229.094 115.89Z" fill="#263238"/>
<path d="M221.629 101.853H216.947V107.872H221.629V101.853Z" fill="#F5F5F5" stroke="#808080" stroke-width="0.389809" stroke-miterlimit="10"/>
<path d="M243.926 69.5H205.549V101.449H243.926V69.5Z" fill="#263238" stroke="#808080" stroke-width="0.389809" stroke-miterlimit="10"/>
<path d="M233.031 69.5H205.549V101.449H233.031V69.5Z" fill="#D1D1D1" stroke="#808080" stroke-width="0.389809" stroke-miterlimit="10"/>
<path d="M219.234 86.2798L209.562 92.2954L212.881 97.6313L222.553 91.6156L219.234 86.2798Z" fill="#F5F5F5" stroke="#808080" stroke-width="0.389809" stroke-miterlimit="10"/>
<path d="M188.601 148.537L178.928 154.553L182.247 159.889L191.919 153.873L188.601 148.537Z" fill="#F5F5F5" stroke="#808080" stroke-width="0.389809" stroke-miterlimit="10"/>
<path d="M221.629 69.5H216.947V75.5186H221.629V69.5Z" fill="#F5F5F5" stroke="#808080" stroke-width="0.389809" stroke-miterlimit="10"/>
</g>
<path d="M187.888 3.52905H177.031V9.68145H187.888V3.52905Z" fill="#263238"/>
<path d="M189.416 1.45996H175.493V5.48537H189.416V1.45996Z" fill="#455A64"/>
<path d="M163.611 9.61315L160.653 12.5718L165.326 17.2454L168.285 14.2868L163.611 9.61315Z" fill="#263238"/>
<path d="M162.911 7.1666L158.21 11.8672L161.263 14.9201L165.963 10.2195L162.911 7.1666Z" fill="#455A64"/>
<path d="M196.632 14.2779L199.591 17.2366L204.264 12.5629L201.306 9.60428L196.632 14.2779Z" fill="#263238"/>
<path d="M198.938 10.2198L203.639 14.9204L206.691 11.8675L201.991 7.16692L198.938 10.2198Z" fill="#455A64"/>
<path d="M208.14 41.3206C211.468 27.1289 202.662 12.9258 188.47 9.59718C174.279 6.26855 160.076 15.0748 156.747 29.2665C153.418 43.4582 162.225 57.6613 176.416 60.9899C190.608 64.3186 204.811 55.5123 208.14 41.3206Z" fill="#455A64"/>
<path d="M182.135 60.0427C196.042 60.0427 207.316 48.7688 207.316 34.8617C207.316 20.9546 196.042 9.68066 182.135 9.68066C168.228 9.68066 156.954 20.9546 156.954 34.8617C156.954 48.7688 168.228 60.0427 182.135 60.0427Z" fill="#263238"/>
<path d="M204.456 38.3977C206.234 26.2435 197.822 14.9496 185.667 13.1721C173.513 11.3947 162.219 19.8067 160.442 31.961C158.664 44.1153 167.076 55.4092 179.231 57.1866C191.385 58.9641 202.679 50.552 204.456 38.3977Z" fill="white"/>
<path opacity="0.5" d="M204.701 35.1918H182.479V12.9695C188.372 12.9695 194.025 15.3108 198.192 19.4782C202.36 23.6457 204.701 29.2981 204.701 35.1918Z" fill="#E31E26"/>
<path d="M182.674 14.5574H182.242V17.9288H182.674V14.5574Z" fill="#C7C7C7"/>
<path d="M172.325 17.2001L171.951 17.416L173.637 20.3358L174.011 20.1199L172.325 17.2001Z" fill="#C7C7C7"/>
<path d="M164.69 24.6774L164.475 25.0513L167.394 26.737L167.61 26.3631L164.69 24.6774Z" fill="#C7C7C7"/>
<path d="M165.202 34.9734H161.83V35.4051H165.202V34.9734Z" fill="#C7C7C7"/>
<path d="M168.159 43.8419L165.226 45.5276L165.442 45.9032L168.375 44.2175L168.159 43.8419Z" fill="#C7C7C7"/>
<path d="M173.64 50.0274L171.956 52.948L172.33 53.1637L174.014 50.243L173.64 50.0274Z" fill="#C7C7C7"/>
<path d="M182.674 52.446H182.242V55.8175H182.674V52.446Z" fill="#C7C7C7"/>
<path d="M191.267 50.0126L190.894 50.2285L192.579 53.1483L192.953 52.9324L191.267 50.0126Z" fill="#C7C7C7"/>
<path d="M197.506 43.6122L197.29 43.9861L200.209 45.6718L200.425 45.2979L197.506 43.6122Z" fill="#C7C7C7"/>
<path d="M203.087 34.9734H199.716V35.4051H203.087V34.9734Z" fill="#C7C7C7"/>
<path d="M200.211 24.6776L197.291 26.3633L197.507 26.7372L200.427 25.0515L200.211 24.6776Z" fill="#C7C7C7"/>
<path d="M192.58 17.2122L190.896 20.1326L191.27 20.3483L192.954 17.428L192.58 17.2122Z" fill="#C7C7C7"/>
<path d="M182.611 19.0928L183.601 36.5087L181.366 36.477L182.008 19.0864L182.611 19.0928Z" fill="#E31E26"/>
<path d="M183.22 35.1887C183.22 35.3409 183.175 35.4897 183.09 35.6162C183.006 35.7426 182.885 35.8411 182.745 35.8991C182.604 35.957 182.449 35.9719 182.3 35.9417C182.151 35.9115 182.014 35.8377 181.907 35.7296C181.799 35.6216 181.727 35.4841 181.698 35.3346C181.669 35.1852 181.685 35.0305 181.744 34.8903C181.803 34.75 181.903 34.6305 182.03 34.5468C182.157 34.4632 182.306 34.4192 182.458 34.4204C182.559 34.4204 182.659 34.4403 182.751 34.479C182.844 34.5177 182.929 34.5744 182.999 34.6458C183.07 34.7173 183.126 34.802 183.164 34.8952C183.202 34.9883 183.221 35.0881 183.22 35.1887Z" fill="#E31E26"/>
<path d="M198.577 35.4466L181.161 36.4307L181.193 34.1958L198.584 34.8371L198.577 35.4466Z" fill="#263238"/>
<path d="M183.22 35.1887C183.22 35.3409 183.175 35.4897 183.09 35.6162C183.006 35.7426 182.885 35.8411 182.745 35.8991C182.604 35.957 182.449 35.9719 182.3 35.9417C182.151 35.9115 182.014 35.8377 181.907 35.7296C181.799 35.6216 181.727 35.4841 181.698 35.3346C181.669 35.1852 181.685 35.0305 181.744 34.8903C181.803 34.75 181.903 34.6305 182.03 34.5468C182.157 34.4632 182.306 34.4192 182.458 34.4204C182.559 34.4204 182.659 34.4403 182.751 34.479C182.844 34.5177 182.929 34.5744 182.999 34.6458C183.07 34.7173 183.126 34.802 183.164 34.8952C183.202 34.9883 183.221 35.0881 183.22 35.1887Z" fill="#E31E26"/>
<path d="M147.797 169.293L174.588 169.2L201.38 169.164L254.959 169.102L308.538 169.164L335.33 169.2L362.117 169.293L335.33 169.391L308.538 169.426L254.959 169.488L201.38 169.426L174.588 169.391L147.797 169.293Z" fill="#263238"/>
<path d="M252.78 31.649C252.78 33.2579 253.227 34.8352 254.071 36.2048C254.915 37.5745 256.123 38.6826 257.56 39.4055C258.998 40.1284 260.608 40.4376 262.211 40.2987C263.813 40.1598 265.346 39.5782 266.638 38.6188L270.89 39.7064L269.121 35.7459C269.744 34.5817 270.094 33.2907 270.144 31.971C270.193 30.6513 269.941 29.3376 269.407 28.13C268.872 26.9223 268.069 25.8525 267.059 25.0018C266.049 24.1512 264.858 23.5421 263.577 23.2209C262.296 22.8998 260.959 22.875 259.667 23.1484C258.375 23.4219 257.162 23.9864 256.121 24.799C255.08 25.6116 254.238 26.651 253.659 27.838C253.08 29.025 252.779 30.3284 252.78 31.649Z" fill="white"/>
<path d="M252.78 31.6486C252.793 33.2547 253.249 34.826 254.097 36.1899C254.306 36.5291 254.537 36.8546 254.787 37.1644C255.048 37.4651 255.327 37.7502 255.622 38.0181C256.202 38.5587 256.858 39.0105 257.571 39.359C258.647 39.8932 259.827 40.1884 261.028 40.2244C261.418 40.247 261.809 40.2392 262.198 40.201C263.777 40.0519 265.284 39.4646 266.548 38.5054L266.599 38.4625H266.665L270.926 39.515L270.727 39.7527L268.941 35.7962L268.902 35.7143L268.949 35.6325C269.551 34.4909 269.892 33.2301 269.947 31.941C269.996 30.6497 269.754 29.364 269.238 28.1793C268.708 26.9987 267.928 25.9468 266.953 25.0959C265.962 24.2506 264.793 23.6406 263.532 23.3118C262.272 22.983 260.953 22.944 259.676 23.1976C257.728 23.5943 255.977 24.6525 254.72 26.1928C253.463 27.7331 252.778 29.6606 252.78 31.6486ZM252.78 31.6486C252.78 30.3273 253.08 29.0232 253.657 27.8343C254.233 26.6454 255.072 25.6026 256.109 24.7841C257.147 23.9519 258.363 23.37 259.662 23.0833C260.961 22.7967 262.309 22.8131 263.601 23.1313C264.903 23.4406 266.117 24.0447 267.148 24.8971C268.711 26.1936 269.777 27.9905 270.166 29.9832C270.556 31.976 270.244 34.042 269.284 35.8313V35.6675L271.039 39.6358L271.183 39.9593L270.844 39.8697L266.595 38.7548L266.712 38.7314C265.395 39.6917 263.838 40.2667 262.213 40.392C261.811 40.4252 261.407 40.4252 261.005 40.392C260.602 40.3701 260.201 40.3206 259.804 40.2439C259.017 40.0891 258.255 39.8267 257.539 39.4643C256.829 39.0965 256.173 38.6321 255.59 38.0844C255.297 37.8111 255.02 37.5208 254.76 37.2151C254.511 36.9025 254.282 36.5744 254.074 36.2328C253.228 34.8534 252.78 33.2668 252.78 31.6486Z" fill="#263238"/>
<path d="M260.12 37.4294L255.996 33.2507L257.379 31.8825L259.792 34.3227L264.798 26.468L266.443 27.5166L260.12 37.4294Z" fill="#E31E26"/>
<path d="M304.975 49.7047C304.877 49.7047 304.955 50.344 304.464 50.8742C303.973 51.4043 303.295 51.4043 303.295 51.494C303.295 51.5836 303.458 51.5992 303.743 51.5719C304.115 51.5323 304.462 51.3625 304.721 51.0924C304.97 50.8322 305.11 50.4861 305.111 50.1257C305.107 49.8451 305.018 49.693 304.975 49.7047Z" fill="#263238"/>
<path d="M253.678 52.2864L254.478 67.9776C254.541 69.211 254.135 70.4226 253.342 71.3691C252.549 72.3157 251.427 72.9271 250.202 73.0806C249.538 73.1608 248.864 73.1041 248.223 72.9139C247.582 72.7237 246.987 72.404 246.474 71.9746C245.962 71.5452 245.542 71.0153 245.243 70.4175C244.943 69.8197 244.769 69.1668 244.732 68.4991C244.647 67.008 244.589 65.7951 244.589 65.7951C244.589 65.7951 240.749 65.6715 240.243 61.909C239.953 59.738 239.725 54.7548 239.586 50.9344C239.54 49.6889 239.964 48.4716 240.773 47.5236C241.582 46.5756 242.718 45.9662 243.955 45.816L246.23 45.5378C247.165 45.4811 248.102 45.6116 248.985 45.9219C249.868 46.2322 250.681 46.7159 251.375 47.3446C252.069 47.9733 252.63 48.7343 253.025 49.5829C253.421 50.4316 253.643 51.3507 253.678 52.2864Z" fill="#FFBF9D"/>
<path d="M244.573 65.7834C246.312 65.5664 247.953 64.856 249.301 63.7361C249.301 63.7361 248.421 66.6256 244.623 66.7453L244.573 65.7834Z" fill="#FF9A6C"/>
<path d="M240.715 54.4351C240.792 54.4969 241.163 54.1454 241.742 54.0759C242.322 54.0063 242.778 54.2458 242.832 54.1647C242.886 54.0836 242.778 54.0141 242.577 53.902C242.305 53.7594 241.997 53.7028 241.692 53.7398C241.388 53.7783 241.105 53.9137 240.885 54.1261C240.723 54.2729 240.68 54.4081 240.715 54.4351Z" fill="#263238"/>
<path d="M246.091 55.3891C246.107 55.5292 246.177 55.6577 246.286 55.7471C246.395 55.8366 246.534 55.88 246.675 55.8681C246.744 55.8657 246.812 55.8493 246.875 55.8199C246.937 55.7906 246.994 55.7489 247.04 55.6973C247.086 55.6457 247.121 55.5853 247.143 55.5197C247.166 55.4541 247.174 55.3847 247.169 55.3157C247.154 55.1755 247.084 55.0471 246.975 54.9576C246.866 54.8681 246.726 54.8247 246.586 54.8367C246.517 54.8391 246.449 54.8554 246.386 54.8848C246.323 54.9141 246.267 54.9559 246.221 55.0075C246.175 55.0591 246.139 55.1195 246.117 55.185C246.095 55.2506 246.086 55.32 246.091 55.3891Z" fill="#263238"/>
<path d="M241.089 55.9958C241.106 56.1362 241.176 56.2647 241.286 56.3541C241.395 56.4435 241.535 56.4868 241.676 56.4748C241.745 56.4718 241.813 56.4551 241.875 56.4256C241.938 56.396 241.994 56.3543 242.04 56.3028C242.086 56.2513 242.121 56.1912 242.144 56.1258C242.166 56.0605 242.175 55.9913 242.171 55.9224C242.155 55.7822 242.085 55.6537 241.976 55.5643C241.867 55.4748 241.728 55.4314 241.587 55.4434C241.518 55.4458 241.45 55.4621 241.387 55.4914C241.324 55.5208 241.268 55.5624 241.221 55.6139C241.175 55.6655 241.139 55.7258 241.116 55.7914C241.094 55.857 241.084 55.9265 241.089 55.9958Z" fill="#263238"/>
<path d="M246.316 53.8284C246.389 53.8902 246.76 53.5425 247.34 53.473C247.919 53.4035 248.379 53.6391 248.433 53.5618C248.487 53.4846 248.375 53.4073 248.174 53.2953C247.903 53.1518 247.593 53.0964 247.289 53.1369C246.987 53.1754 246.705 53.3109 246.486 53.5232C246.339 53.67 246.277 53.8013 246.316 53.8284Z" fill="#263238"/>
<path d="M244.793 58.5831C244.476 58.5245 244.153 58.5063 243.832 58.5291C243.685 58.5291 243.538 58.5291 243.503 58.4209C243.47 58.2695 243.485 58.1114 243.546 57.9689C243.642 57.5826 243.743 57.1963 243.847 56.7907C244.26 55.1142 244.539 53.7429 244.469 53.7274C244.399 53.712 244.013 55.0563 243.604 56.7328C243.503 57.1461 243.411 57.5401 243.322 57.9187C243.254 58.1085 243.254 58.3161 243.322 58.5059C243.35 58.5554 243.389 58.5981 243.436 58.6309C243.482 58.6636 243.536 58.6855 243.592 58.6952C243.677 58.7045 243.762 58.7045 243.847 58.6952C244.166 58.697 244.484 58.6594 244.793 58.5831Z" fill="#263238"/>
<path d="M246.559 58.7758C246.462 58.7758 246.54 59.4093 246.053 59.9346C245.566 60.46 244.894 60.46 244.894 60.5489C244.894 60.6377 245.056 60.6532 245.338 60.6261C245.707 60.5868 246.051 60.4186 246.308 60.151C246.555 59.8931 246.693 59.5501 246.694 59.193C246.69 58.9148 246.602 58.7642 246.559 58.7758Z" fill="#263238"/>
<path d="M246.096 51.7268C246.173 51.8775 246.741 51.7268 247.428 51.7268C248.116 51.7268 248.692 51.8427 248.761 51.692C248.796 51.6186 248.68 51.4834 248.44 51.3598C248.122 51.2091 247.774 51.1329 247.422 51.1369C247.07 51.1409 246.723 51.2251 246.409 51.383C246.173 51.5143 246.061 51.6534 246.096 51.7268Z" fill="#263238"/>
<path d="M240.413 52.6964C240.529 52.8161 240.911 52.6307 241.39 52.565C241.869 52.4994 242.286 52.5457 242.364 52.3989C242.399 52.3255 242.317 52.2019 242.124 52.0976C241.868 51.9756 241.581 51.9351 241.301 51.9817C241.02 52.0208 240.759 52.1464 240.552 52.341C240.398 52.4955 240.359 52.6384 240.413 52.6964Z" fill="#263238"/>
<path d="M252.751 55.2573C252.813 55.2225 255.247 54.1795 255.479 56.7638C255.71 59.3481 253.068 59.0468 253.057 58.9734C253.045 58.9 252.751 55.2573 252.751 55.2573Z" fill="#FFBF9D"/>
<path d="M253.759 57.9314C253.759 57.9314 253.806 57.9584 253.887 57.9893C253.998 58.0248 254.118 58.0165 254.223 57.9661C254.38 57.845 254.502 57.6842 254.577 57.5002C254.652 57.3163 254.676 57.1158 254.648 56.9193C254.634 56.697 254.57 56.4806 254.462 56.2858C254.432 56.207 254.382 56.137 254.318 56.0818C254.254 56.0266 254.178 55.9878 254.095 55.969C254.042 55.9602 253.988 55.97 253.942 55.9968C253.895 56.0235 253.859 56.0656 253.84 56.1158C253.813 56.1931 253.84 56.2433 253.84 56.2471C253.84 56.251 253.779 56.2085 253.79 56.1004C253.8 56.0353 253.831 55.9755 253.879 55.9304C253.946 55.8702 254.033 55.8383 254.122 55.8415C254.23 55.8537 254.333 55.893 254.422 55.9559C254.51 56.0187 254.581 56.103 254.628 56.2008C254.758 56.4151 254.834 56.6577 254.849 56.9077C254.881 57.1342 254.845 57.3651 254.746 57.5713C254.647 57.7776 254.489 57.9499 254.292 58.0666C254.224 58.0934 254.151 58.1045 254.078 58.0992C254.005 58.0938 253.935 58.0721 253.871 58.0357C253.767 57.9932 253.748 57.9391 253.759 57.9314Z" fill="#FF9A6C"/>
<path d="M254.173 55.0056C253.927 55.0171 253.69 55.0951 253.486 55.2312C253.282 55.3673 253.119 55.5564 253.014 55.7782C252.89 56.1645 252.902 56.5894 252.782 56.9757C252.662 57.362 252.322 57.7483 251.917 57.6981C251.779 57.6721 251.65 57.6102 251.543 57.5186C251.437 57.4271 251.356 57.3091 251.31 57.1766C251.22 56.9096 251.183 56.6273 251.202 56.3461C251.202 55.1254 251.314 53.9008 251.202 52.684C251.151 51.4563 250.738 50.2711 250.016 49.2769C249.647 48.7875 249.153 48.4064 248.587 48.1733C248.02 47.9402 247.401 47.8637 246.794 47.9519C246.002 48.1141 245.319 48.6202 244.538 48.8288C244.075 48.9461 243.591 48.9574 243.123 48.8617C242.655 48.7661 242.214 48.566 241.834 48.2764C241.662 48.1691 241.484 48.0711 241.301 47.9828C241.281 47.6964 241.341 47.4102 241.475 47.1561C242.877 45.5028 245.67 44.7495 247.814 45.0199C248.904 45.1523 249.952 45.52 250.886 46.0976C251.82 46.6752 252.617 47.449 253.222 48.3652C254.358 50.2078 254.424 52.9583 254.169 54.994" fill="#263238"/>
<path d="M243.523 46.7973C244.956 46.6814 247.733 46.89 248.962 47.6355C249.109 47.7205 249.275 47.875 249.201 48.0218C249.128 48.1686 248.993 48.1609 248.865 48.1725C247.568 48.3924 246.296 48.7418 245.068 49.2155C244.294 49.5938 243.455 49.8219 242.596 49.8876C242.166 49.9164 241.737 49.8325 241.35 49.6441C240.963 49.4557 240.632 49.1695 240.39 48.8137L240.042 48.9914C240.387 48.359 240.888 47.8253 241.497 47.4412C242.106 47.0571 242.804 46.8355 243.523 46.7973Z" fill="#263238"/>
<path d="M239.455 50.3475C240.141 49.5357 241.072 48.97 242.109 48.7366C245.331 48.0606 250.793 48.4121 254.281 53.6773C254.476 52.6725 254.551 51.6481 254.505 50.6256C254.412 49.853 253.396 45.3527 248.529 44.4913C248.529 44.4913 241.128 42.6564 239.455 50.3475Z" fill="#E31E26"/>
<g opacity="0.2">
<path d="M239.455 50.3475C240.172 49.3807 241.238 48.731 242.426 48.5358C245.323 48.0529 250.994 48.7134 254.281 53.6773C254.476 52.6725 254.551 51.6481 254.505 50.6256C254.412 49.853 253.396 45.3527 248.529 44.4913C248.529 44.4913 241.128 42.6564 239.455 50.3475Z" fill="black"/>
</g>
<path d="M253.748 52.9401C252.052 50.7459 249.746 49.3785 247.305 48.235C244.863 47.0916 240.931 46.149 238.258 45.7782C237.462 45.6188 236.641 45.632 235.851 45.8168C235.457 45.9168 235.099 46.1256 234.817 46.4192C234.536 46.7129 234.343 47.0797 234.26 47.4779C234.136 48.4823 236.048 49.7957 236.937 50.2708C237.799 50.7035 238.683 51.0904 239.587 51.4297C239.587 51.4297 239.343 49.6141 242.198 48.8956C246.084 47.9183 253.879 53.0212 253.748 52.9401Z" fill="#E31E26"/>
<path d="M273.341 170.593L279.522 176.457C279.522 176.457 273.418 183.41 274.206 184.862L289.082 176.275L279.873 165.926L273.341 170.593Z" fill="#455A64"/>
<g opacity="0.6">
<path d="M283.624 172.999C283.791 172.953 283.969 172.97 284.124 173.048C284.279 173.126 284.4 173.258 284.462 173.42C284.514 173.585 284.5 173.762 284.423 173.917C284.347 174.072 284.215 174.191 284.053 174.251C283.876 174.299 283.688 174.28 283.524 174.197C283.361 174.114 283.234 173.974 283.168 173.802C283.132 173.625 283.166 173.44 283.264 173.288C283.361 173.135 283.514 173.026 283.69 172.983" fill="white"/>
</g>
<g opacity="0.6">
<path d="M289.082 176.275L288.143 175.221L274.272 183.893C274.166 184.06 274.103 184.25 274.088 184.447C274.074 184.644 274.109 184.841 274.19 185.021L289.082 176.275Z" fill="white"/>
</g>
<path d="M279.24 176.53C279.286 176.6 279.665 176.406 280.155 176.418C280.646 176.43 281.024 176.607 281.071 176.538C281.117 176.468 280.754 176.125 280.159 176.125C279.564 176.125 279.174 176.472 279.24 176.53Z" fill="#263238"/>
<path d="M278.112 178.118C278.139 178.199 278.521 178.118 278.954 178.272C279.386 178.427 279.653 178.697 279.726 178.659C279.8 178.62 279.591 178.18 279.05 178.006C278.51 177.832 278.069 178.048 278.112 178.118Z" fill="#263238"/>
<path d="M278.401 180.49C278.474 180.463 278.351 180.045 277.922 179.771C277.493 179.497 277.068 179.551 277.072 179.628C277.076 179.705 277.416 179.787 277.764 180.015C278.111 180.242 278.316 180.524 278.401 180.49Z" fill="#263238"/>
<path d="M278.293 174.734C278.362 174.781 278.625 174.479 279.046 174.251C279.467 174.024 279.857 173.958 279.853 173.865C279.849 173.772 279.394 173.718 278.903 173.989C278.412 174.259 278.223 174.7 278.293 174.734Z" fill="#263238"/>
<path d="M277.316 173.239C277.316 173.27 277.641 173.135 278.042 172.775C278.275 172.564 278.481 172.326 278.657 172.065C278.762 171.91 278.855 171.747 278.935 171.578C278.99 171.482 279.027 171.378 279.047 171.269C279.06 171.191 279.047 171.111 279.01 171.041C278.973 170.971 278.914 170.915 278.842 170.883C278.775 170.855 278.703 170.844 278.631 170.85C278.559 170.856 278.49 170.879 278.429 170.917C278.336 170.974 278.253 171.044 278.181 171.126C278.049 171.261 277.93 171.408 277.826 171.566C277.652 171.831 277.521 172.122 277.44 172.428C277.331 172.702 277.311 173.003 277.382 173.289C277.428 173.289 277.451 172.969 277.633 172.493C277.74 172.219 277.882 171.96 278.054 171.721C278.155 171.583 278.268 171.454 278.39 171.335C278.521 171.199 278.649 171.114 278.734 171.157C278.819 171.199 278.772 171.184 278.769 171.25C278.75 171.329 278.722 171.405 278.684 171.477C278.611 171.636 278.529 171.789 278.436 171.937C278.281 172.191 278.103 172.43 277.903 172.652C277.552 173.007 277.289 173.2 277.316 173.239Z" fill="#263238"/>
<path d="M277.471 173.282C277.505 173.282 277.471 172.934 277.223 172.459C277.067 172.181 276.863 171.933 276.621 171.725C276.479 171.599 276.323 171.489 276.157 171.397C276.058 171.325 275.941 171.281 275.819 171.268C275.697 171.255 275.574 171.274 275.462 171.323C275.398 171.363 275.347 171.421 275.315 171.49C275.283 171.559 275.273 171.635 275.284 171.71C275.301 171.818 275.334 171.923 275.381 172.023C275.456 172.201 275.559 172.367 275.686 172.513C275.893 172.76 276.159 172.951 276.458 173.069C276.59 173.139 276.734 173.181 276.882 173.193C277.03 173.205 277.179 173.186 277.32 173.139C277.057 173.068 276.799 172.982 276.547 172.88C276.29 172.752 276.064 172.569 275.887 172.343C275.784 172.212 275.699 172.068 275.636 171.914C275.562 171.744 275.539 171.582 275.609 171.563C275.678 171.546 275.75 171.544 275.82 171.557C275.89 171.571 275.956 171.599 276.014 171.64C276.173 171.721 276.326 171.814 276.47 171.918C276.697 172.102 276.898 172.316 277.065 172.556C277.335 172.984 277.428 173.297 277.471 173.282Z" fill="#263238"/>
<path d="M226.808 171.1L225.332 179.053C225.332 179.053 216.529 181.931 216.471 183.573L233.228 183.774L234.464 171.1H226.808Z" fill="#455A64"/>
<g opacity="0.6">
<path d="M231.842 178.805C232.005 178.851 232.147 178.954 232.24 179.096C232.333 179.238 232.372 179.41 232.348 179.578C232.307 179.745 232.205 179.889 232.061 179.983C231.918 180.077 231.744 180.113 231.575 180.084C231.399 180.037 231.247 179.927 231.148 179.774C231.05 179.621 231.012 179.437 231.042 179.257C231.101 179.086 231.224 178.945 231.386 178.862C231.547 178.78 231.734 178.764 231.907 178.817" fill="white"/>
</g>
<g opacity="0.6">
<path d="M233.228 183.773L233.491 182.556L217.027 182.769C216.851 182.858 216.7 182.989 216.588 183.151C216.475 183.313 216.404 183.5 216.382 183.696L233.228 183.773Z" fill="white"/>
</g>
<path d="M225.054 178.972C225.054 179.053 225.479 179.08 225.897 179.338C226.314 179.597 226.545 179.945 226.623 179.91C226.7 179.875 226.561 179.396 226.047 179.091C225.533 178.786 225.035 178.894 225.054 178.972Z" fill="#263238"/>
<path d="M223.273 179.764C223.273 179.845 223.621 179.976 223.914 180.324C224.208 180.672 224.301 181.046 224.386 181.039C224.471 181.031 224.509 180.556 224.134 180.135C223.76 179.714 223.269 179.683 223.273 179.764Z" fill="#263238"/>
<path d="M222.304 181.961C222.381 181.961 222.485 181.552 222.261 181.1C222.037 180.648 221.636 180.474 221.601 180.543C221.566 180.613 221.817 180.852 221.987 181.231C222.157 181.61 222.223 181.938 222.304 181.961Z" fill="#263238"/>
<path d="M225.749 177.118C225.788 177.195 226.17 177.068 226.645 177.087C227.121 177.106 227.491 177.249 227.534 177.176C227.576 177.103 227.213 176.813 226.653 176.79C226.093 176.766 225.707 177.052 225.749 177.118Z" fill="#263238"/>
<path d="M265.484 113.286C265.762 113.476 266.396 123.021 265.484 125.111L267.802 142.309C267.802 142.309 274.017 152.182 275.269 153.619C276.52 155.056 284.64 169.071 284.64 169.071L275.473 176.978C275.473 176.978 259.547 156.165 256.985 152.472C252.968 146.678 248.228 124.952 248.228 124.952L247.61 114.171L265.484 113.286Z" fill="#263238"/>
<path d="M252.968 127.047C252.689 127.557 240.289 146.62 240.289 146.62C240.289 146.62 238.408 156.718 237.972 161.168C237.535 165.618 234.495 177.075 234.495 177.075L224.513 176.303C224.513 176.303 227.217 146.817 228.882 141.073C230.547 135.329 235.19 124.219 235.19 124.219L239.107 113.832L250.387 114.04L252.968 127.047Z" fill="#263238"/>
<path d="M245.91 116.94C245.922 117.043 245.943 117.145 245.972 117.245C246.026 117.461 246.096 117.755 246.184 118.122C246.381 118.894 246.66 119.988 247.003 121.328C247.703 124.032 248.668 127.775 249.792 131.889C250.917 136.003 252.017 139.708 252.852 142.377C253.269 143.71 253.624 144.788 253.864 145.525C253.988 145.885 254.084 146.171 254.154 146.379C254.185 146.479 254.223 146.577 254.266 146.673C254.25 146.569 254.224 146.467 254.188 146.368L253.933 145.506L252.975 142.338C252.172 139.661 251.098 135.953 249.97 131.839C248.842 127.725 247.861 124.017 247.131 121.313C246.764 119.98 246.466 118.89 246.254 118.122L246.007 117.256C245.982 117.149 245.95 117.043 245.91 116.94Z" fill="#455A64"/>
<path d="M195.027 155.933L169.304 133.439L177.834 124.261L202.8 147.045L195.027 155.933Z" fill="#455A64"/>
<path d="M196.791 149.512L194.819 147.788L192.869 150.018L194.84 151.743L196.791 149.512Z" fill="#FAFAFA"/>
<path d="M175.029 127.278L171.201 131.4L174.306 134.115L178.007 129.882L175.029 127.278Z" fill="#EBEBEB"/>
<path d="M188.487 150.456C188.445 150.417 190.21 148.331 192.428 145.797C194.645 143.263 196.476 141.235 196.518 141.27C196.561 141.304 194.796 143.39 192.578 145.928C190.361 148.466 188.526 150.491 188.487 150.456Z" fill="#263238"/>
<path d="M194.628 155.498L168.908 133.005L151.56 152.843L177.28 175.335L194.628 155.498Z" fill="#455A64"/>
<g opacity="0.3">
<path d="M194.628 155.499L168.908 133.006L151.56 152.844L177.28 175.336L194.628 155.499Z" fill="black"/>
</g>
<path d="M179.052 168.91L177.081 167.186L175.13 169.416L177.102 171.14L179.052 168.91Z" fill="#FAFAFA"/>
<path d="M176.717 139.922L173.015 144.156L175.937 146.712L179.64 142.478L176.717 139.922Z" fill="#EBEBEB"/>
<path d="M163.166 155.416L159.463 159.65L162.386 162.206L166.088 157.972L163.166 155.416Z" fill="#EBEBEB"/>
<path d="M170.749 169.859C170.707 169.824 174.489 165.428 179.194 160.047C183.899 154.666 187.75 150.332 187.793 150.39C187.835 150.448 184.053 154.817 179.344 160.202C174.635 165.587 170.788 169.894 170.749 169.859Z" fill="#263238"/>
<path d="M224.495 120.993L202.974 102.173L188.459 118.771L209.98 137.591L224.495 120.993Z" fill="#455A64"/>
<path d="M211.46 132.214L209.811 130.772L208.181 132.636L209.83 134.078L211.46 132.214Z" fill="#FAFAFA"/>
<path d="M209.512 107.959L206.415 111.501L208.86 113.64L211.957 110.098L209.512 107.959Z" fill="#EBEBEB"/>
<path d="M198.17 120.925L195.073 124.467L197.519 126.606L200.616 123.064L198.17 120.925Z" fill="#EBEBEB"/>
<path d="M204.515 133.007C204.472 132.968 207.632 129.287 211.569 124.787C215.505 120.286 218.734 116.674 218.777 116.698C218.819 116.721 215.659 120.414 211.719 124.918C207.779 129.422 204.557 133.042 204.515 133.007Z" fill="#263238"/>
<path d="M202.07 146.423L176.346 123.929L184.876 114.75L209.842 137.534L202.07 146.423Z" fill="#455A64"/>
<g opacity="0.3">
<path d="M202.07 146.423L176.346 123.93L184.876 114.751L209.842 137.535L202.07 146.423Z" fill="black"/>
</g>
<path d="M203.833 140.001L201.862 138.277L199.911 140.507L201.883 142.231L203.833 140.001Z" fill="#FAFAFA"/>
<path d="M187.949 126.506L184.247 130.74L187.169 133.295L190.872 129.061L187.949 126.506Z" fill="#EBEBEB"/>
<path d="M195.529 140.945C195.487 140.907 197.21 138.84 199.392 136.31C201.575 133.78 203.352 131.786 203.394 131.821C203.437 131.856 201.714 133.926 199.531 136.457C197.349 138.987 195.572 140.98 195.529 140.945Z" fill="#263238"/>
<path d="M186.232 184.399C190.078 184.399 193.196 181.281 193.196 177.435C193.196 173.588 190.078 170.47 186.232 170.47C182.385 170.47 179.267 173.588 179.267 177.435C179.267 181.281 182.385 184.399 186.232 184.399Z" fill="#455A64"/>
<g opacity="0.3">
<path d="M186.232 181.726C188.602 181.726 190.524 179.804 190.524 177.434C190.524 175.064 188.602 173.142 186.232 173.142C183.862 173.142 181.94 175.064 181.94 177.434C181.94 179.804 183.862 181.726 186.232 181.726Z" fill="black"/>
</g>
<path d="M238.304 78.8761C238.091 79.0577 228.681 89.0279 228.681 89.0279L211.151 98.4071L213.222 100.895C213.477 102.096 231.571 96.5143 234.468 93.7484C236.399 91.8826 242.452 86.4861 242.452 86.4861L241.12 76.9949L238.304 78.8761Z" fill="#FFBF9D"/>
<path d="M214.188 99.5842L211.151 98.406C210.997 98.6494 207.563 100.5 205.743 100.932C204.388 101.28 203.062 101.731 201.776 102.281L201.803 102.439C202.006 102.66 202.268 102.819 202.558 102.895C202.849 102.972 203.155 102.964 203.441 102.872C205.226 102.485 208.463 101.836 208.428 101.96C208.393 102.084 206.323 103.559 206.195 104.44C206.083 105.232 206.659 104.969 207.219 104.641C207.779 104.312 213.013 102.709 213.604 101.315C214.195 99.9203 214.188 99.5842 214.188 99.5842Z" fill="#FFBF9D"/>
<path d="M247.714 68.9661L243.314 70.7546C242.236 71.0675 240.769 73.4587 239.494 74.9613L233.823 80.833L241.649 90.3706L247.714 68.9661Z" fill="#E31E26"/>
<path d="M254.521 63.8525L256.649 66.4909C256.649 66.4909 264.916 69.5581 265.773 71.6286C266.979 74.5374 265.387 83.5767 265.387 83.5767L263.201 103.046L266.19 113.823L238.787 114.291C238.787 114.291 240.448 86.0451 240.834 83.0552C241.101 80.9769 243.268 72.378 244.311 69.1486L244.531 70.2611L244.655 69.7551L254.521 63.8525Z" fill="#E31E26"/>
<path d="M241.317 77.543C241.316 77.5726 241.316 77.6022 241.317 77.6318C241.317 77.7052 241.298 77.7902 241.283 77.8984C241.26 78.1494 241.221 78.4894 241.175 78.9259C241.086 79.8144 240.966 81.1046 240.831 82.7C240.56 85.8869 240.251 90.2984 239.946 95.1695C239.641 100.041 239.355 104.441 239.116 107.643C238.996 109.227 238.899 110.513 238.83 111.421C238.799 111.857 238.776 112.193 238.756 112.448C238.756 112.56 238.756 112.645 238.756 112.719C238.751 112.748 238.751 112.778 238.756 112.808C238.756 112.808 238.756 112.781 238.776 112.719C238.795 112.657 238.776 112.56 238.807 112.452C238.834 112.205 238.868 111.861 238.915 111.429C239.007 110.54 239.123 109.25 239.259 107.655C239.529 104.468 239.838 100.056 240.143 95.1811C240.448 90.3061 240.738 85.9101 240.974 82.7077C241.093 81.1239 241.19 79.8376 241.26 78.9298C241.29 78.4971 241.314 78.1572 241.333 77.9022C241.333 77.7941 241.333 77.7052 241.333 77.6357C241.332 77.6042 241.327 77.573 241.317 77.543Z" fill="#263238"/>
<path d="M244.721 69.7239C244.847 69.8818 244.961 70.0497 245.061 70.2261C245.273 70.5505 245.567 71.0373 245.98 71.5935C246.089 71.7367 246.206 71.8735 246.331 72.003C246.463 72.1459 246.583 72.3082 246.718 72.4472C246.777 72.5211 246.851 72.5819 246.934 72.6258C247.018 72.6696 247.11 72.6957 247.204 72.7022C247.413 72.6809 247.61 72.599 247.772 72.4666C248.545 71.9644 249.383 71.3965 250.264 70.7978C252.022 69.5964 253.609 68.4993 254.776 67.7345C255.359 67.3482 255.838 67.0469 256.17 66.8421C256.339 66.7292 256.516 66.6298 256.7 66.5447C256.548 66.6791 256.385 66.8006 256.213 66.9078L254.857 67.8504L250.376 70.9639C249.495 71.5626 248.649 72.1228 247.869 72.6249C247.677 72.7736 247.446 72.8623 247.204 72.8799C247.087 72.8711 246.973 72.8385 246.869 72.784C246.764 72.7295 246.672 72.6544 246.598 72.5631C246.447 72.4086 246.331 72.2464 246.212 72.1034C246.085 71.97 245.967 71.828 245.86 71.6785C245.474 71.0991 245.184 70.6046 244.991 70.2647C244.883 70.0937 244.793 69.9125 244.721 69.7239Z" fill="#263238"/>
<path d="M245.841 78.1647C245.668 78.2023 245.492 78.2204 245.315 78.2188C244.975 78.2381 244.489 78.2613 243.894 78.2806H243.805V78.1879C243.886 77.3882 243.998 76.3839 244.125 75.2945C244.28 73.9618 244.434 72.7566 244.554 71.8874C244.612 71.4509 244.666 71.1148 244.705 70.856C244.714 70.7238 244.743 70.5936 244.79 70.4697C244.807 70.5979 244.807 70.7278 244.79 70.856C244.79 71.1032 244.744 71.4586 244.701 71.8952C244.62 72.7682 244.489 73.9773 244.315 75.31C244.187 76.3993 244.064 77.4037 243.959 78.1995L243.878 78.1067C244.469 78.1067 244.956 78.1067 245.296 78.1067C245.479 78.1054 245.662 78.1248 245.841 78.1647Z" fill="#263238"/>
<path d="M245.837 75.1943C245.993 75.2582 246.121 75.377 246.197 75.5284C246.272 75.6799 246.29 75.8536 246.246 76.0171C246.19 76.1764 246.075 76.3083 245.925 76.3864C245.775 76.4646 245.602 76.483 245.439 76.4382C245.279 76.3806 245.149 76.2621 245.076 76.1085C245.004 75.955 244.995 75.7791 245.052 75.6192C245.108 75.4672 245.217 75.3405 245.359 75.2624C245.501 75.1843 245.667 75.1601 245.825 75.1943" fill="#E0E0E0"/>
<path d="M250.615 80.1077H253.829V77.8981H250.615V80.1077Z" fill="white"/>
<path d="M252.222 79.385L250.588 77.9287L250.65 77.8591L252.226 79.2537C252.809 78.7283 253.667 77.9441 253.717 77.8746H253.748H253.806C253.806 77.9016 253.806 77.9403 252.261 79.3348L252.222 79.385Z" fill="#E31E26"/>
<path d="M253.79 80.1383L252.743 78.906L252.817 78.8442L253.864 80.0765L253.79 80.1383Z" fill="#E31E26"/>
<path d="M251.604 78.7742L250.573 80.0713L250.649 80.1314L251.68 78.8343L251.604 78.7742Z" fill="#E31E26"/>
<path d="M249.892 80.7525C251.491 80.6186 253.099 80.6186 254.698 80.7525C253.099 80.8865 251.491 80.8865 249.892 80.7525Z" fill="white"/>
<g opacity="0.3">
<path d="M260.655 96.2079L259.442 90.0735L258.012 90.0156L257.387 81.5635L258.835 88.3854L260.396 88.0378L261.872 95.9645L260.655 96.2079Z" fill="black"/>
</g>
<path d="M270.926 85.6818L258.835 88.3859C258.835 88.3859 256.958 80.3858 256.885 78.1993C256.811 76.0129 259.589 69.2335 263.788 70.6319C263.788 70.6319 265.063 70.373 266.225 72.0805C266.693 72.7642 270.926 85.6818 270.926 85.6818Z" fill="#E31E26"/>
<path d="M257.174 77.1912C257.144 76.6033 257.19 76.0139 257.309 75.4375C257.454 74.8159 257.673 74.2141 257.962 73.6451C258.268 72.9316 258.752 72.309 259.368 71.8372C260.008 71.3942 260.742 71.1059 261.512 70.9951C262.144 70.9025 262.783 70.8714 263.42 70.9024C263.85 70.9183 264.278 70.9713 264.699 71.0608C264.851 71.1091 265.006 71.1491 265.163 71.1805C265.129 71.1542 265.091 71.1333 265.051 71.1187C264.943 71.0682 264.832 71.0256 264.718 70.9912C264.297 70.8735 263.865 70.7997 263.428 70.771C262.784 70.7206 262.137 70.7387 261.497 70.8251C260.698 70.9321 259.937 71.2274 259.275 71.6865C258.631 72.1742 258.128 72.8249 257.819 73.5717C257.531 74.1546 257.321 74.7728 257.193 75.4104C257.105 75.841 257.075 76.2814 257.104 76.7199C257.114 76.838 257.131 76.9554 257.155 77.0715C257.155 77.1121 257.162 77.1524 257.174 77.1912Z" fill="#263238"/>
<path d="M244.554 105.545C244.554 105.545 238.404 106.487 238.072 107.384C237.74 108.28 237.624 111.842 238.404 112.765C239.185 113.688 241.591 113.352 241.309 112.575C241.027 111.799 239.853 112.066 239.853 112.066L239.08 109.933L240.178 109.072C240.178 109.072 241.804 110.617 242.36 110.563C242.916 110.509 244.512 111.235 245.582 109.79C246.652 108.346 247.363 108.199 247.363 108.199L244.554 105.545Z" fill="#FFBF9D"/>
<path d="M244.35 109.686C244.249 109.767 243.376 111.378 242.418 111.969C241.46 112.56 240.143 113.221 239.776 112.637C239.542 112.245 239.382 111.813 239.305 111.363L243.083 109.489L244.35 109.686Z" fill="#FFBF9D"/>
<path d="M176.779 177.643L156.495 159.873C156.39 159.781 156.304 159.669 156.242 159.543C156.18 159.417 156.143 159.281 156.134 159.141C156.125 159.001 156.143 158.861 156.188 158.729C156.233 158.596 156.304 158.474 156.396 158.368C156.489 158.263 156.601 158.177 156.726 158.115C156.852 158.053 156.989 158.017 157.128 158.008C157.268 157.998 157.408 158.017 157.541 158.062C157.673 158.107 157.796 158.178 157.901 158.27L177.366 175.317C187.371 163.508 228.311 115.252 230.146 114.074C231.456 113.323 232.836 112.7 234.267 112.216C235.25 111.875 236.21 111.471 237.141 111.007C238.172 110.412 239.096 109.649 239.876 108.751C240.059 108.546 240.314 108.42 240.588 108.398C240.862 108.377 241.134 108.462 241.346 108.635C241.559 108.809 241.697 109.059 241.73 109.331C241.763 109.604 241.69 109.879 241.526 110.099C240.576 111.212 239.44 112.152 238.169 112.877C237.15 113.391 236.098 113.838 235.021 114.213C233.742 114.645 232.506 115.193 231.328 115.851C229.373 117.47 198.574 153.584 178.293 177.523C178.204 177.634 178.093 177.726 177.966 177.792C177.84 177.859 177.702 177.898 177.559 177.909H177.482C177.223 177.91 176.973 177.815 176.779 177.643Z" fill="#E0E0E0"/>
<path d="M231.3 115.875C231.277 115.875 231.25 115.902 231.231 115.875C231.212 115.848 231.231 115.783 231.258 115.775L231.354 115.953H231.3C231.277 115.953 231.258 115.929 231.258 115.914C231.258 115.898 231.258 115.875 231.3 115.86C231.343 115.844 231.351 115.833 231.347 115.806C231.344 115.796 231.339 115.787 231.331 115.78C231.324 115.773 231.314 115.769 231.304 115.767H231.273L231.37 115.945C231.397 115.945 231.42 115.868 231.37 115.848C231.32 115.829 231.324 115.864 231.3 115.875Z" fill="#263238"/>
<path d="M176.779 177.643C176.882 177.727 176.998 177.794 177.123 177.84C177.308 177.903 177.508 177.914 177.699 177.872C177.89 177.83 178.067 177.736 178.208 177.6L181.163 174.101L192.269 160.967L209.309 140.964L219.684 128.885L225.29 122.418C226.255 121.325 227.221 120.216 228.206 119.104C228.701 118.548 229.191 117.984 229.701 117.435L230.474 116.601C230.732 116.323 231.011 116.056 231.277 115.786C231.954 115.382 232.664 115.034 233.398 114.747C234.132 114.449 234.874 114.179 235.615 113.893C236.363 113.619 237.097 113.309 237.813 112.962C238.526 112.597 239.197 112.155 239.814 111.645C240.442 111.14 241.014 110.57 241.522 109.945C241.621 109.785 241.671 109.6 241.667 109.413C241.663 109.225 241.604 109.042 241.498 108.887C241.392 108.732 241.243 108.611 241.07 108.539C240.896 108.467 240.706 108.447 240.521 108.481C240.335 108.519 240.164 108.608 240.027 108.74C239.899 108.875 239.752 109.053 239.609 109.196C239.319 109.498 239.014 109.786 238.694 110.057C238.049 110.608 237.33 111.066 236.558 111.417C235.013 112.104 233.39 112.61 231.837 113.306C231.451 113.476 231.065 113.661 230.678 113.87C230.491 113.968 230.31 114.079 230.138 114.202L229.91 114.399L229.686 114.627C229.083 115.237 228.504 115.878 227.924 116.516C225.606 119.088 223.289 121.731 220.971 124.4C212.859 133.756 205.086 142.853 197.793 151.421L177.42 175.371L177.366 175.437L177.3 175.379L159.956 160.171L158.055 158.502C157.916 158.36 157.754 158.241 157.576 158.15C157.444 158.094 157.302 158.067 157.159 158.07C157.015 158.074 156.875 158.108 156.746 158.17C156.617 158.233 156.503 158.323 156.411 158.433C156.32 158.544 156.254 158.673 156.216 158.811C156.169 158.992 156.173 159.183 156.227 159.362C156.28 159.541 156.382 159.702 156.522 159.827L157.402 160.6C157.979 161.115 158.547 161.613 159.106 162.095L165.217 167.464C168.898 170.705 171.784 173.258 173.762 174.977L176.002 176.959C176.508 177.407 176.775 177.643 176.775 177.643C176.775 177.643 176.505 177.423 176.002 176.978L173.739 175.008L165.163 167.53L159.036 162.187L157.333 160.715L156.452 159.943C156.292 159.802 156.174 159.619 156.113 159.415C156.052 159.21 156.05 158.993 156.107 158.787C156.165 158.582 156.279 158.396 156.437 158.253C156.595 158.11 156.791 158.014 157.001 157.977C157.216 157.939 157.437 157.964 157.638 158.05C157.831 158.148 158.007 158.279 158.156 158.436L160.056 160.097L177.439 175.283H177.32L197.666 151.298C204.974 142.726 212.731 133.625 220.843 124.257C223.161 121.584 225.479 118.942 227.797 116.369C228.38 115.732 228.956 115.09 229.566 114.476L229.794 114.244L230.049 114.024C230.227 113.899 230.413 113.784 230.605 113.68C230.991 113.472 231.378 113.294 231.764 113.109C233.332 112.409 234.959 111.903 236.484 111.224C237.24 110.88 237.943 110.433 238.574 109.895C238.89 109.629 239.192 109.346 239.478 109.049C239.625 108.898 239.745 108.751 239.899 108.585C240.1 108.375 240.373 108.247 240.663 108.228C240.953 108.21 241.24 108.301 241.467 108.484C241.693 108.667 241.842 108.928 241.884 109.216C241.927 109.504 241.859 109.797 241.695 110.038C241.179 110.683 240.592 111.268 239.946 111.784C239.317 112.302 238.634 112.752 237.91 113.124C237.184 113.487 236.434 113.777 235.692 114.063C234.951 114.349 234.205 114.619 233.479 114.913C232.753 115.19 232.053 115.53 231.385 115.929C231.123 116.195 230.852 116.45 230.613 116.724L229.84 117.555C229.33 118.107 228.843 118.671 228.345 119.224L225.429 122.534C223.52 124.736 221.651 126.89 219.82 128.997L209.428 141.076L192.362 161.048L181.21 174.139C179.908 175.661 178.919 176.843 178.227 177.616C178.083 177.754 177.902 177.849 177.706 177.89C177.51 177.931 177.307 177.917 177.119 177.848C176.991 177.807 176.875 177.737 176.779 177.643Z" fill="#263238"/>
<path d="M268.026 86.3267L269.053 95.3737C269.178 96.4806 268.939 97.5981 268.372 98.5568C267.804 99.5154 266.939 100.263 265.909 100.685L245.953 108.848L243.983 105.545L260.787 94.5161L259.292 88.3006" fill="#FFBF9D"/>
<path d="M257.233 81.0227C257.226 81.0714 257.226 81.1208 257.233 81.1695C257.256 81.2815 257.283 81.4167 257.314 81.579C257.391 81.9653 257.499 82.4713 257.634 83.1241C257.924 84.4453 258.326 86.257 258.793 88.3391L258.812 88.4279H258.901L261.304 87.891L268.149 86.3458L270.22 85.8552L270.78 85.7084C270.847 85.6983 270.912 85.6774 270.973 85.6466C270.905 85.6491 270.838 85.6582 270.772 85.6737L270.204 85.7818L268.118 86.2184L261.262 87.7249L258.859 88.2657L258.967 88.3314C258.48 86.2531 258.055 84.4453 257.75 83.128C257.596 82.5022 257.468 81.9923 257.364 81.6137C257.321 81.4554 257.287 81.3202 257.256 81.2274C257.262 81.1583 257.254 81.0886 257.233 81.0227Z" fill="#263238"/>
</g>
<defs>
<clipPath id="clip0_113_4513">
<rect width="320" height="185" fill="white"/>
</clipPath>
<clipPath id="clip1_113_4513">
<rect width="246.512" height="142.561" fill="white" transform="translate(-6.73544 38.8643)"/>
</clipPath>
<clipPath id="clip2_113_4513">
<rect width="71.6174" height="28.2933" fill="white" transform="translate(40.5676 111.245) rotate(-8.26496)"/>
</clipPath>
</defs>
</svg>
