<svg width="159" height="159" viewBox="0 0 159 159" fill="none" xmlns="http://www.w3.org/2000/svg">
    <path d="M93.3393 125.6V136.154H89.7141L97.5274 145.255L104.857 136.342H101.153V125.6H93.3393Z" fill="#EBEBEB"/>
    <path d="M107.163 46.1096V49.8239H105.888L108.638 53.0293L111.22 49.8906H109.913V46.1096H107.163Z" fill="#EBEBEB"/>
    <path d="M140.143 80.5684V88.1972H137.522L143.17 94.7766L148.468 88.3307H145.79V80.5684H140.143Z" fill="#EBEBEB"/>
    <path d="M19.3471 111.395V119.024H16.7268L22.3745 125.6L27.6755 119.158H24.9948V111.395H19.3471Z" fill="#EBEBEB"/>
    <path d="M66.2521 123.864V129.556H64.2964L68.5131 134.466L72.4658 129.658H70.4688V123.864H66.2521Z" fill="#EBEBEB"/>
    <path d="M53.5162 30.7504C53.7833 28.8137 51.0485 27.2206 48.9942 27.0552C48.018 26.9757 47.0004 27.1283 46.0718 26.804C44.062 26.1044 43.2575 23.5063 41.3018 22.67C39.8358 22.0499 38.1504 22.6 36.7258 23.306C35.3011 24.0119 33.9019 24.9246 32.3119 25.0264C30.9318 25.1122 29.4309 24.6002 28.2225 25.2744C27.3225 25.78 26.8487 26.8167 26.0187 27.4273C25.1887 28.0378 24.1489 28.1555 23.1567 28.2095C22.1646 28.2636 21.1056 28.2731 20.1866 28.6929C19.2676 29.1127 18.5107 30.0857 18.7015 31.0747L53.5162 30.7504Z" fill="#F5F5F5"/>
    <path d="M148.989 66.8816C149.222 65.1962 146.843 63.8097 145.056 63.6666C144.203 63.5967 143.319 63.727 142.512 63.4472C140.766 62.8366 140.066 60.5852 138.359 59.8602C137.087 59.3196 135.614 59.7997 134.38 60.423C133.147 61.0463 131.919 61.8286 130.539 61.9176C129.337 61.9939 128.033 61.5487 126.981 62.1339C126.198 62.5727 125.788 63.4758 125.073 64.0069C124.357 64.5379 123.444 64.6429 122.57 64.6874C121.695 64.7319 120.786 64.7446 119.988 65.1072C119.19 65.4697 118.528 66.3187 118.694 67.1805L148.989 66.8816Z" fill="#F5F5F5"/>
    <path d="M71.143 15.5815C71.2575 14.7579 70.0936 14.0806 69.2191 14.0106C68.8018 14.0262 68.3841 13.9898 67.9757 13.9025C67.1203 13.6036 66.78 12.5001 65.9437 12.1471C65.3077 11.8864 64.6017 12.1185 63.9975 12.4238C63.3933 12.7291 62.7955 13.1107 62.1213 13.1552C61.533 13.1933 60.8938 12.9739 60.3787 13.2601C59.9971 13.4764 59.7967 13.9152 59.4438 14.176C59.0742 14.3961 58.6495 14.5064 58.2195 14.494C57.7861 14.4803 57.3542 14.5505 56.9475 14.7007C56.7463 14.7777 56.5756 14.9179 56.4609 15.1003C56.3462 15.2826 56.2938 15.4972 56.3115 15.7119L71.143 15.5815Z" fill="#E0E0E0"/>
    <path d="M147.46 137.596C147.67 136.079 145.53 134.835 143.924 134.705C143.157 134.641 142.362 134.759 141.637 134.508C140.066 133.958 139.437 131.929 137.904 131.28C136.756 130.797 135.436 131.229 134.323 131.789C133.21 132.349 132.113 133.061 130.87 133.131C129.792 133.201 128.618 132.813 127.671 133.328C126.968 133.719 126.599 134.533 125.95 135.01C125.302 135.487 124.484 135.579 123.696 135.621C122.907 135.662 122.106 135.672 121.374 136.002C120.643 136.333 120.064 137.09 120.214 137.863L147.46 137.596Z" fill="#E0E0E0"/>
    <path d="M109.657 61.4319L104.191 51.7968C107.57 46.3114 108.775 39.7605 107.569 33.4317C106.363 27.103 102.834 21.454 97.6748 17.5953C92.5156 13.7366 86.0996 11.9471 79.6881 12.5787C73.2765 13.2103 67.333 16.2172 63.0259 21.0084C58.7187 25.7996 56.3594 32.0286 56.4117 38.471C56.464 44.9133 58.9241 51.1032 63.3085 55.8238C67.6929 60.5445 73.6844 63.4545 80.1054 63.9819C86.5264 64.5093 92.9124 62.6159 98.0083 58.6739L109.657 61.4319Z" fill="#FAFAFA"/>
    <path d="M109.657 61.4316L97.9728 58.7729H97.8381L97.9232 58.6594L98.0579 58.787C94.4649 61.5904 90.194 63.3931 85.679 64.0123C84.3244 64.2034 82.9552 64.2722 81.5882 64.2179C80.8792 64.2179 80.1702 64.1612 79.4612 64.1044L77.2847 63.7712C73.8185 63.109 70.5246 61.744 67.6059 59.7605C64.6872 57.777 62.2056 55.2168 60.3139 52.2378C58.4222 49.2588 57.1605 45.9239 56.6065 42.4388C56.0525 38.9537 56.218 35.392 57.0928 31.9732C58.0648 28.0378 59.9632 24.3916 62.6299 21.3385C65.325 18.2166 68.7285 15.7855 72.5557 14.2486C76.2303 12.7952 80.1848 12.187 84.1264 12.4691C87.859 12.7219 91.49 13.7943 94.7611 15.6099C100.628 18.8758 105.014 24.2725 107.012 30.6829C107.807 33.4085 108.185 36.2386 108.133 39.0773C107.99 43.5961 106.66 47.9977 104.276 51.839V51.7468L109.664 61.4316L104.12 51.839V51.7894V51.7468C106.465 47.912 107.761 43.5282 107.877 39.0347C107.916 36.2257 107.531 33.427 106.736 30.7325C104.746 24.3983 100.402 19.069 94.5981 15.8438C91.3742 14.0583 87.7964 13.0053 84.1193 12.7597C80.2324 12.483 76.3331 13.0864 72.7117 14.5251C68.9236 16.0509 65.5582 18.4656 62.8994 21.5653C60.2743 24.5704 58.4029 28.1577 57.4402 32.03C56.5024 35.7423 56.3983 39.6163 57.1353 43.3737C57.8451 46.9251 59.3078 50.2831 61.4247 53.2215C65.2415 58.5248 70.9311 62.1794 77.3414 63.4451L79.4683 63.7783C80.1773 63.8421 80.8863 63.8634 81.5953 63.8988C82.9475 63.9566 84.3022 63.8949 85.6436 63.7145C90.1219 63.1212 94.3647 61.3581 97.9445 58.6027L98.5117 58.1631L98.0721 58.7303L98.0154 58.5885L109.657 61.4316Z" fill="#263238"/>
    <path d="M89.7699 24.8838H73.0662C72.2596 24.8838 71.6057 25.5377 71.6057 26.3443V51.0311C71.6057 51.8378 72.2596 52.4917 73.0662 52.4917H89.7699C90.5765 52.4917 91.2304 51.8378 91.2304 51.0311V26.3443C91.2304 25.5377 90.5765 24.8838 89.7699 24.8838Z" fill="#263238"/>
    <path d="M90.2237 26.5425H72.5133V47.1739H90.2237V26.5425Z" fill="#FAFAFA"/>
    <path d="M81.4181 51.3073C82.2404 51.3073 82.9069 50.6407 82.9069 49.8185C82.9069 48.9962 82.2404 48.3296 81.4181 48.3296C80.5958 48.3296 79.9292 48.9962 79.9292 49.8185C79.9292 50.6407 80.5958 51.3073 81.4181 51.3073Z" fill="#455A64"/>
    <path d="M83.8994 32.8311L90.4363 40.5449L96.5548 32.8311H93.3785V22.2176L87.026 22.1396L87.104 32.8453L83.8994 32.8311Z" fill="#E31E26"/>
    <path d="M84.3036 35.7449C83.4669 36.8832 82.5348 37.9482 81.5172 38.9282C80.5887 39.9892 79.5712 40.9688 78.4757 41.8563C79.3059 40.7149 80.2359 39.6496 81.2549 38.673C82.1827 37.6088 83.2029 36.629 84.3036 35.7449Z" fill="#263238"/>
    <path d="M83.0133 34.802C82.5906 35.4675 82.0695 36.0652 81.4677 36.5745C80.954 37.1635 80.3511 37.6683 79.681 38.0704C80.1009 37.4028 80.6223 36.8048 81.2266 36.298C81.739 35.7077 82.3421 35.2027 83.0133 34.802Z" fill="#263238"/>
    <path d="M127.96 32.5027V37.8801H126.112L130.097 42.5197L133.833 37.9755H131.945V32.5027H127.96Z" fill="#E31E26"/>
    <path opacity="0.3" d="M127.96 32.5027V37.8801H126.112L130.097 42.5197L133.833 37.9755H131.945V32.5027H127.96Z" fill="black"/>
    <path d="M140.947 20.5045C140.452 18.5795 139.43 16.8304 137.997 15.4538C136.563 14.0771 134.774 13.1272 132.83 12.7108C130.887 12.2943 128.866 12.4277 126.994 13.0961C125.122 13.7645 123.473 14.9413 122.233 16.4945C121.891 16.4524 121.547 16.4311 121.203 16.4309C120 16.3752 118.798 16.564 117.671 16.9858C116.543 17.4077 115.513 18.0539 114.642 18.8853C113.771 19.7167 113.078 20.7161 112.604 21.823C112.131 22.9299 111.886 24.1214 111.886 25.3254C111.886 26.5294 112.131 27.7209 112.604 28.8278C113.078 29.9347 113.771 30.9341 114.642 31.7655C115.513 32.5969 116.543 33.2431 117.671 33.665C118.798 34.0868 120 34.2756 121.203 34.2199H140.572C142.362 34.2235 144.082 33.5276 145.366 32.2806C146.651 31.0337 147.397 29.3344 147.446 27.5451C147.495 25.7559 146.842 24.0183 145.628 22.703C144.414 21.3877 142.735 20.5988 140.947 20.5045Z" fill="#E31E26"/>
    <path d="M142.995 31.8223C142.979 31.7968 143.364 31.5583 143.873 31.0464C144.541 30.3835 145.053 29.5807 145.373 28.696C145.693 27.8112 145.813 26.8664 145.724 25.9297C145.657 25.2111 145.517 24.7786 145.545 24.7722C145.598 24.8647 145.636 24.9644 145.66 25.068C145.742 25.3459 145.803 25.6298 145.841 25.917C145.966 26.8732 145.859 27.8453 145.531 28.752C145.203 29.6587 144.663 30.4738 143.955 31.129C143.744 31.3282 143.517 31.509 143.275 31.6696C143.191 31.7355 143.096 31.787 142.995 31.8223Z" fill="#263238"/>
    <path d="M122.481 19.0957C122.481 19.1244 121.988 19.0003 121.193 18.9844C120.156 18.9566 119.125 19.1576 118.174 19.5731C117.223 19.9886 116.376 20.6084 115.691 21.3885C115.164 21.9864 114.928 22.4284 114.9 22.4093C114.937 22.2966 114.989 22.1895 115.055 22.0913C115.217 21.8158 115.4 21.5532 115.602 21.3058C116.277 20.4873 117.135 19.8393 118.107 19.4144C119.079 18.9895 120.137 18.7997 121.196 18.8604C121.517 18.8773 121.836 18.9198 122.15 18.9876C122.264 19.0093 122.376 19.0456 122.481 19.0957Z" fill="#263238"/>
    <path d="M128.488 14.7007C128.488 14.7325 128.135 14.7548 127.588 14.8979C126.874 15.0937 126.202 15.4169 125.604 15.8519C125.008 16.2856 124.498 16.8245 124.096 17.4419C123.778 17.9157 123.657 18.2464 123.629 18.2369C123.639 18.1532 123.663 18.0717 123.699 17.9952C123.778 17.7811 123.877 17.5746 123.994 17.3783C124.165 17.0793 124.363 16.7971 124.586 16.5356C124.864 16.225 125.173 15.9437 125.508 15.6961C125.846 15.4534 126.208 15.2467 126.589 15.0792C126.902 14.9433 127.227 14.8368 127.559 14.7612C127.782 14.7124 128.009 14.6826 128.237 14.6721C128.321 14.6685 128.406 14.6782 128.488 14.7007Z" fill="#263238"/>
    <path d="M136.816 34.1437C136.816 34.1914 134.202 34.2264 130.978 34.2264C127.753 34.2264 125.136 34.1914 125.136 34.1437C125.136 34.096 127.75 34.061 130.978 34.061C134.205 34.061 136.816 34.0992 136.816 34.1437Z" fill="#263238"/>
    <path d="M137.471 50.1674C137.427 50.1674 137.389 48.0241 137.389 45.3974C137.389 42.7708 137.427 40.6274 137.471 40.6274C137.516 40.6274 137.557 42.7676 137.557 45.3974C137.557 48.0273 137.519 50.1674 137.471 50.1674Z" fill="#263238"/>
    <path d="M139.341 54.3457C139.297 54.3457 139.259 51.5886 139.259 48.186C139.259 44.7834 139.297 42.0264 139.341 42.0264C139.386 42.0264 139.427 44.7834 139.427 48.186C139.427 51.5886 139.389 54.3457 139.341 54.3457Z" fill="#263238"/>
    <path d="M19.7827 59.8127V63.1072H18.6506L21.0897 65.9501L23.3793 63.1676H22.2218V59.8127H19.7827Z" fill="#E31E26"/>
    <path opacity="0.3" d="M19.7827 59.8127V63.1072H18.6506L21.0897 65.9501L23.3793 63.1676H22.2218V59.8127H19.7827Z" fill="black"/>
    <path d="M27.7391 52.4698C27.4356 51.2905 26.8094 50.219 25.931 49.3756C25.0525 48.5321 23.9564 47.9502 22.7656 47.6949C21.5749 47.4396 20.3366 47.5212 19.1896 47.9304C18.0426 48.3397 17.0323 49.0604 16.272 50.0117C16.0608 49.9875 15.8485 49.9747 15.636 49.9735C14.9094 49.956 14.1865 50.084 13.5101 50.3499C12.8336 50.6158 12.2172 51.0144 11.6971 51.5221C11.1769 52.0298 10.7636 52.6365 10.4814 53.3063C10.1992 53.9761 10.0538 54.6956 10.0538 55.4225C10.0538 56.1493 10.1992 56.8688 10.4814 57.5387C10.7636 58.2085 11.1769 58.8151 11.6971 59.3228C12.2172 59.8306 12.8336 60.2291 13.5101 60.4951C14.1865 60.761 14.9094 60.889 15.636 60.8714H27.5069C28.602 60.8717 29.6539 60.4447 30.4389 59.6812C31.2239 58.9178 31.68 57.8782 31.7103 56.7836C31.7405 55.689 31.3425 54.6257 30.6008 53.8201C29.8592 53.0145 28.8324 52.5301 27.7391 52.4698Z" fill="#E31E26"/>
    <path d="M28.9921 59.3961C28.9921 59.3738 29.2083 59.2212 29.5136 58.9064C29.9131 58.4973 30.222 58.0086 30.4199 57.4722C30.6096 56.9329 30.6854 56.3601 30.6425 55.79C30.6075 55.3511 30.528 55.084 30.5534 55.0776C30.67 55.2938 30.7394 55.5323 30.757 55.7772C30.84 56.3667 30.7776 56.9674 30.5753 57.5272C30.373 58.087 30.0369 58.5889 29.5963 58.989C29.4257 59.1657 29.2198 59.3044 28.9921 59.3961Z" fill="#263238"/>
    <path d="M16.4247 51.599C16.4247 51.6276 16.1067 51.5608 15.6328 51.5545C15.0015 51.5427 14.3751 51.6676 13.7966 51.9207C13.218 52.1737 12.7011 52.5489 12.2811 53.0205C11.9631 53.3798 11.8041 53.6565 11.7819 53.631C11.8713 53.3769 12.0108 53.1433 12.1921 52.9441C12.604 52.4353 13.1322 52.0328 13.732 51.7705C14.3319 51.5082 14.9859 51.3938 15.6392 51.4368C15.9091 51.4388 16.176 51.4939 16.4247 51.599Z" fill="#263238"/>
    <path d="M20.1039 48.9082C19.9246 48.9666 19.742 49.0144 19.557 49.0513C19.1263 49.1735 18.7205 49.3704 18.3581 49.6332C17.9973 49.8959 17.6843 50.2186 17.4327 50.5872C17.3376 50.7532 17.2314 50.9126 17.1147 51.0642C17.1423 50.8718 17.213 50.6881 17.3214 50.5268C17.5512 50.1192 17.867 49.7665 18.2468 49.4933C18.6253 49.2163 19.0592 49.0243 19.5188 48.9305C19.7095 48.8776 19.9098 48.87 20.1039 48.9082Z" fill="#263238"/>
    <path d="M25.2079 60.8207C25.2079 60.8652 23.6179 60.9034 21.6304 60.9034C19.6429 60.9034 18.0497 60.8652 18.0497 60.8207C18.0497 60.7762 19.6524 60.738 21.624 60.738C23.5956 60.738 25.2079 60.773 25.2079 60.8207Z" fill="#263238"/>
    <path d="M25.6085 70.6342C25.5266 69.6602 25.499 68.6824 25.5258 67.7054C25.4989 66.7273 25.5265 65.7485 25.6085 64.7734C25.6924 65.7484 25.72 66.7273 25.6912 67.7054C25.7199 68.6824 25.6923 69.6603 25.6085 70.6342Z" fill="#263238"/>
    <path d="M26.7533 73.1973C26.7088 73.1973 26.6707 71.5055 26.6707 69.4226C26.6707 67.3397 26.7088 65.6479 26.7533 65.6479C26.7979 65.6479 26.836 67.3397 26.836 69.4226C26.836 71.5055 26.801 73.1973 26.7533 73.1973Z" fill="#263238"/>
    <path d="M36.411 103.852C36.4118 107.015 37.6076 110.06 39.7589 112.378C41.9101 114.697 44.8579 116.116 48.0117 116.353V116.388H119.002C122.792 116.39 126.437 114.932 129.179 112.317C131.922 109.701 133.551 106.13 133.728 102.344C133.906 98.5585 132.617 94.8502 130.131 91.9899C127.645 89.1296 124.152 87.3373 120.379 86.9855C120.192 81.2292 118.009 75.717 114.204 71.3934C110.399 67.0697 105.209 64.2037 99.5232 63.2863C93.8373 62.3688 88.0093 63.457 83.0377 66.3645C78.066 69.272 74.2601 73.8178 72.2719 79.2231C70.2298 78.1927 67.9734 77.6588 65.6861 77.665C61.9365 77.6643 58.3278 79.0936 55.5956 81.6615C52.8633 84.2295 51.2133 87.7428 50.9818 91.4852C50.3081 91.3734 49.6263 91.3181 48.9434 91.3199C45.6199 91.3207 42.4327 92.6414 40.0826 94.9914C37.7325 97.3415 36.4119 100.529 36.411 103.852Z" fill="#E31E26"/>
    <g opacity="0.1">
    <path d="M36.411 103.852C36.4118 107.015 37.6076 110.06 39.7589 112.378C41.9101 114.697 44.8579 116.116 48.0117 116.353V116.388H119.002C122.792 116.39 126.437 114.932 129.179 112.317C131.922 109.701 133.551 106.13 133.728 102.344C133.906 98.5585 132.617 94.8502 130.131 91.9899C127.645 89.1296 124.152 87.3373 120.379 86.9855C120.192 81.2292 118.009 75.717 114.204 71.3934C110.399 67.0697 105.209 64.2037 99.5232 63.2863C93.8373 62.3688 88.0093 63.457 83.0377 66.3645C78.066 69.272 74.2601 73.8178 72.2719 79.2231C70.2298 78.1927 67.9734 77.6588 65.6861 77.665C61.9365 77.6643 58.3278 79.0936 55.5956 81.6615C52.8633 84.2295 51.2133 87.7428 50.9818 91.4852C50.3081 91.3734 49.6263 91.3181 48.9434 91.3199C45.6199 91.3207 42.4327 92.6414 40.0826 94.9914C37.7325 97.3415 36.4119 100.529 36.411 103.852Z" fill="black"/>
    </g>
    <path d="M32.118 103.852C32.1188 107.015 33.3146 110.06 35.4659 112.379C37.6172 114.697 40.565 116.116 43.7187 116.353V116.388H114.706C118.496 116.39 122.14 114.932 124.883 112.317C127.626 109.702 129.255 106.13 129.432 102.344C129.609 98.5586 128.321 94.8503 125.835 91.99C123.349 89.1297 119.856 87.3374 116.083 86.9857C115.897 81.2286 113.716 75.7152 109.911 71.3904C106.106 67.0656 100.916 64.1987 95.2297 63.2811C89.5432 62.3635 83.7145 63.4523 78.7428 66.3609C73.771 69.2694 69.9656 73.8167 67.9789 79.2233C65.9369 78.1929 63.6804 77.659 61.3931 77.6651C57.6435 77.6644 54.0348 79.0938 51.3026 81.6617C48.5704 84.2297 46.9203 87.743 46.6888 91.4854C46.0151 91.3737 45.3333 91.3184 44.6504 91.32C41.3269 91.3209 38.1397 92.6415 35.7896 94.9916C33.4395 97.3417 32.1189 100.529 32.118 103.852Z" fill="#E31E26"/>
    <path d="M89.3231 63.0459V96.0925H76.5267V67.8286C80.2573 65.0623 84.6926 63.4045 89.3231 63.0459Z" fill="white"/>
    <path d="M95.8962 96.0928H69.9537L82.925 112.206L95.8962 96.0928Z" fill="white"/>
    </svg>
    