<svg width="137" height="137" viewBox="0 0 137 137" fill="none" xmlns="http://www.w3.org/2000/svg">
    <path d="M115.594 61.0078C115.594 65.608 108.676 69.2377 107.542 73.4802C106.369 77.8697 110.51 84.4649 108.286 88.3081C106.031 92.2063 98.228 91.902 95.0642 95.0657C91.9006 98.2292 92.2048 106.032 88.3067 108.287C84.4637 110.511 77.8688 106.369 73.4795 107.542C69.2372 108.676 65.6077 115.594 61.0078 115.594C56.4076 115.594 52.778 108.676 48.5354 107.542C44.1459 106.369 37.5507 110.51 33.7076 108.286C29.8093 106.031 30.1136 98.228 26.9499 95.0642C23.7865 91.9006 15.9839 92.2048 13.7286 88.3067C11.5051 84.4637 15.6466 77.8688 14.4733 73.4795C13.3394 69.2372 6.42188 65.6077 6.42188 61.0078C6.42188 56.4076 13.3394 52.778 14.4735 48.5354C15.6468 44.1459 11.5057 37.5507 13.7293 33.7076C15.9849 29.8093 23.7876 30.1136 26.9514 26.9499C30.115 23.7865 29.8108 15.9839 33.7089 13.7286C37.5519 11.5051 44.1468 15.6466 48.5361 14.4733C52.7784 13.3394 56.408 6.42188 61.0078 6.42188C65.608 6.42188 69.2377 13.3394 73.4802 14.4735C77.8697 15.6468 84.4649 11.5057 88.3081 13.7293C92.2063 15.9849 91.902 23.7876 95.0657 26.9514C98.2292 30.115 106.032 29.8108 108.287 33.7089C110.511 37.5519 106.369 44.1468 107.542 48.5361C108.676 52.7784 115.594 56.408 115.594 61.0078Z" fill="#E31E26"/>
    <path d="M61.0078 98.4324C81.6768 98.4324 98.4323 81.6768 98.4323 61.0078C98.4323 40.3388 81.6768 23.5833 61.0078 23.5833C40.3388 23.5833 23.5832 40.3388 23.5832 61.0078C23.5832 81.6768 40.3388 98.4324 61.0078 98.4324Z" fill="white"/>
    <path d="M61.3821 71.6628L70.5263 74.8574C70.6958 74.9184 70.8776 74.9374 71.056 74.9128C71.2344 74.8882 71.4042 74.8206 71.5509 74.716C71.6975 74.6113 71.8165 74.4727 71.8978 74.3119C71.9791 74.1512 72.0202 73.9731 72.0175 73.793L71.7507 64.2617C71.7439 64.0087 71.8257 63.7612 71.9821 63.5622L77.9003 56.0053C78.0107 55.8639 78.0844 55.6974 78.115 55.5206C78.1457 55.3439 78.1322 55.1623 78.0759 54.9919C78.0195 54.8216 77.9221 54.6678 77.7921 54.5442C77.6621 54.4205 77.5037 54.3308 77.3308 54.283L68.0216 51.5869C67.7762 51.5163 67.5624 51.3637 67.4158 51.1545L61.9294 43.2897C61.8252 43.1422 61.6871 43.0219 61.5267 42.9389C61.3663 42.8558 61.1884 42.8125 61.0078 42.8125C60.8272 42.8125 60.6492 42.8558 60.4889 42.9389C60.3285 43.0219 60.1904 43.1422 60.0862 43.2897L54.5996 51.1547C54.4531 51.3639 54.2393 51.5165 53.9938 51.5871L44.6848 54.283C44.5119 54.3308 44.3534 54.4205 44.2235 54.5442C44.0935 54.6678 43.996 54.8216 43.9397 54.9919C43.8834 55.1623 43.8699 55.3439 43.9005 55.5206C43.9311 55.6974 44.0049 55.8639 44.1152 56.0053L50.0335 63.5622C50.1898 63.7612 50.2717 64.0087 50.2648 64.2617L49.998 73.793C49.9954 73.9731 50.0365 74.1512 50.1178 74.3119C50.199 74.4727 50.3181 74.6113 50.4647 74.716C50.6113 74.8206 50.7811 74.8882 50.9595 74.9128C51.138 74.9374 51.3197 74.9184 51.4892 74.8574L60.6334 71.6628C60.8758 71.5782 61.1397 71.5782 61.3821 71.6628Z" fill="#333333"/>
    <path d="M130.578 99.5391C130.578 103.457 125.68 106.374 124.267 109.781C122.803 113.313 124.149 118.825 121.487 121.487C118.825 124.149 113.313 122.803 109.781 124.267C106.374 125.68 103.457 130.578 99.5391 130.578C95.6207 130.578 92.7044 125.68 89.2971 124.267C85.7651 122.803 80.2527 124.149 77.5909 121.487C74.9292 118.825 76.2754 113.313 74.8108 109.781C73.3977 106.374 68.5 103.457 68.5 99.5391C68.5 95.6207 73.3977 92.7044 74.8108 89.2971C76.2755 85.7651 74.9295 80.2527 77.5913 77.5909C80.2531 74.9292 85.7653 76.2754 89.2972 74.8108C92.7045 73.3977 95.6207 68.5 99.5391 68.5C103.457 68.5 106.374 73.3977 109.781 74.8108C113.313 76.2755 118.825 74.9295 121.487 77.5913C124.149 80.2531 122.803 85.7653 124.267 89.2972C125.68 92.7045 130.578 95.6207 130.578 99.5391Z" fill="white"/>
    <path d="M88.3008 99.5391L95.793 107.031L110.777 92.0469" fill="white"/>
    <path d="M77.9269 52.1564L68.9641 49.5611L63.6847 41.9927C63.3673 41.5853 62.9611 41.2557 62.4971 41.0291C62.0331 40.8025 61.5235 40.6847 61.0071 40.6848C60.4907 40.6849 59.9811 40.8029 59.5172 41.0297C59.0533 41.2565 58.6472 41.5862 58.33 41.9937L53.0516 49.5611L44.0877 52.1564C43.5786 52.3019 43.1129 52.5702 42.7318 52.9378C42.3507 53.3054 42.0657 53.761 41.902 54.2646C41.7383 54.7682 41.7008 55.3042 41.7929 55.8257C41.8849 56.3471 42.1037 56.838 42.43 57.255L48.1149 64.5131L47.8588 73.662C47.8441 74.1859 47.9572 74.7054 48.1883 75.1758C48.4194 75.6462 48.7615 76.0533 49.1852 76.3618C49.6129 76.6749 50.1104 76.879 50.6347 76.9566C51.159 77.0342 51.6944 76.9828 52.1944 76.807L61.0078 73.7289L69.8181 76.8071C70.3187 76.9823 70.8544 77.0333 71.3791 76.9557C71.9038 76.8782 72.4018 76.6744 72.8304 76.3618C73.2539 76.0534 73.596 75.6466 73.8271 75.1764C74.0582 74.7062 74.1714 74.1868 74.1568 73.6631L73.9008 64.5131L79.5869 57.254C79.9076 56.8351 80.1217 56.3444 80.2106 55.8244C80.2995 55.3043 80.2606 54.7705 80.0972 54.2688C79.9339 53.7671 79.6509 53.3127 79.2729 52.9447C78.8948 52.5767 78.4328 52.3062 77.9269 52.1564ZM70.2936 62.1749C69.832 62.7666 69.5907 63.5006 69.6111 64.2508L69.8359 72.2781L62.0876 69.572C61.3885 69.328 60.6273 69.328 59.9282 69.572L52.1799 72.2781L52.4047 64.2529C52.4253 63.5006 52.1828 62.7646 51.719 62.1718L46.7594 55.8399L54.5892 53.5728C55.305 53.3656 55.9284 52.9197 56.3556 52.3091L61.0078 45.6384L65.6612 52.3101C66.088 52.92 66.7106 53.3655 67.4255 53.5727L75.2564 55.8398L70.2936 62.1749Z" fill="#333333"/>
    <path d="M112.291 90.4631C112.092 90.2643 111.856 90.1065 111.596 89.9989C111.337 89.8913 111.058 89.8359 110.777 89.8359C110.496 89.8359 110.218 89.8913 109.958 89.9989C109.698 90.1065 109.463 90.2643 109.264 90.4631L95.7929 103.934L89.8141 97.9553C89.41 97.5669 88.8698 97.3525 88.3094 97.3581C87.749 97.3636 87.2131 97.5887 86.8168 97.985C86.4205 98.3813 86.1954 98.9172 86.1899 99.4776C86.1844 100.038 86.3989 100.578 86.7872 100.982L94.2793 108.475C94.478 108.673 94.714 108.831 94.9737 108.939C95.2334 109.046 95.5117 109.102 95.7928 109.102C96.0739 109.102 96.3523 109.046 96.612 108.939C96.8716 108.831 97.1076 108.673 97.3063 108.475L112.291 93.4901C112.49 93.2914 112.647 93.0555 112.755 92.7958C112.863 92.5361 112.918 92.2577 112.918 91.9766C112.918 91.6955 112.863 91.4172 112.755 91.1575C112.647 90.8978 112.49 90.6618 112.291 90.4631Z" fill="#E31E26"/>
    <path d="M128.737 91.8755C127.658 90.9017 126.811 89.6979 126.259 88.353C125.707 87.0081 125.464 85.5564 125.548 84.1051C125.48 76.8564 122.232 73.5917 114.973 73.5307C113.37 73.5439 111.779 73.2532 110.285 72.6741C116.578 65.0402 121.999 61.4921 112.96 52.5521C111.546 51.2775 110.41 49.7255 109.621 47.9927C108.789 43.5053 112.896 37.0186 110.135 32.6445C107.636 27.9984 100.072 28.3449 96.5848 25.4307C93.6599 21.9474 94.0234 14.3799 89.3709 11.8806C85.0022 9.13437 78.5089 13.1918 74.0228 12.4157C69.79 10.7575 66.3018 4.12212 61.0078 4.28138C55.7201 4.12495 52.2181 10.7487 47.9931 12.4158C43.5122 13.2096 36.9925 9.10804 32.6447 11.8806C27.9989 14.3809 28.3451 21.9428 25.4309 25.4308C21.9475 28.3515 14.3801 27.9952 11.8808 32.6447C9.13402 36.9924 13.1922 43.515 12.4159 47.9927C10.7578 52.2209 4.12231 55.7173 4.28157 61.0078C4.11526 66.2952 10.765 69.7884 12.3945 74.0226C13.2223 78.5057 9.12298 85.0002 11.8808 89.371C14.381 94.0185 21.9429 93.6694 25.4309 96.5847C28.3517 100.064 27.9956 107.639 32.6449 110.135C37.0159 112.883 43.5052 108.822 47.9931 109.6C49.7217 110.405 51.2719 111.548 52.5524 112.961C61.4476 121.943 64.9856 116.661 72.6742 110.285C74.3043 114.075 72.6589 119.689 76.078 123C79.2552 126.294 84.7513 124.916 88.4721 126.254C92.0208 128.01 94.8882 132.795 99.5391 132.719C104.187 132.795 107.061 128.011 110.606 126.254C114.336 124.916 119.798 126.294 123 123C126.295 119.797 124.916 114.337 126.254 110.606C126.909 109.355 127.746 108.208 128.737 107.203C133.954 101.918 133.99 97.1875 128.737 91.8755ZM66.5306 109.857C61.8009 114.524 60.2405 114.573 55.485 109.857C53.7321 107.904 51.5375 106.4 49.0845 105.469C46.4275 105.029 43.7037 105.234 41.1428 106.068C38.6811 106.624 36.1338 107.224 34.7852 106.432C33.3724 105.618 32.6231 103.092 31.8739 100.652C31.3149 98.0482 30.1487 95.6131 28.4703 93.5452C26.4025 91.8669 23.9674 90.7007 21.3635 90.1416C15.0838 88.382 14.2908 87.2709 15.9478 80.8726C16.7771 78.3109 16.9826 75.5881 16.547 72.931C15.6159 70.478 14.1112 68.2834 12.1588 66.5305C10.4035 64.6468 8.56252 62.6988 8.56252 61.0077C9.07939 56.9996 15.6616 53.3681 16.5469 49.0843C17.9509 44.955 14.1241 38.4653 15.5834 34.785C18.0567 31.631 25.5566 31.7528 28.4702 28.47C31.7489 25.5582 31.6299 18.0471 34.7849 15.5834C38.473 14.1313 44.9507 17.9533 49.0845 16.5467C53.381 15.6607 56.9981 9.07142 61.0077 8.56216C65.016 9.07951 68.635 15.6617 72.9312 16.5467C77.0666 17.9506 83.5458 14.1241 87.2306 15.5832C90.3785 18.0567 90.2674 25.5564 93.5457 28.4701C96.4631 31.7486 103.965 31.6298 106.432 34.7848C107.877 38.4733 104.067 44.9506 105.469 49.0844C106.36 53.3808 112.941 56.998 113.453 61.0076C113.264 63.9905 108.609 67.2487 106.881 70.0625C101.722 64.968 96.8952 65.3543 91.8758 70.3411C90.866 71.3275 89.7197 72.1637 88.4721 72.824C84.7391 74.1629 79.283 72.7838 76.0778 76.0779C72.7847 79.2813 74.1613 84.741 72.8241 88.472C72.1691 89.7229 71.3323 90.8699 70.341 91.8755C65.3677 96.8581 64.9667 101.753 70.0627 106.881C68.807 107.776 67.6258 108.771 66.5306 109.857ZM125.526 104.377C124.146 105.708 123.056 107.309 122.323 109.081C121.59 110.853 121.23 112.756 121.267 114.673C121.389 116.532 120.941 118.385 119.982 119.982C117.533 121.932 112.034 120.773 108.958 122.294C105.727 123.432 102.717 128.19 99.5392 128.438C96.3582 128.186 93.3555 123.43 90.1205 122.294C88.2819 121.65 86.3525 121.303 84.4049 121.266C79.0382 121.099 77.9719 120.057 77.8121 114.673C77.8505 112.756 77.4918 110.852 76.7586 109.08C76.0253 107.308 74.9335 105.707 73.5516 104.377C69.7762 100.406 69.7595 98.6787 73.5522 94.7013C74.932 93.3702 76.0224 91.7688 76.7553 89.9971C77.4882 88.2255 77.8477 86.3217 77.8115 84.4048C77.6891 82.5457 78.1373 80.6935 79.0961 79.096C81.5447 77.1453 87.0452 78.3048 90.1203 76.7839C93.3517 75.6464 96.3609 70.8876 99.5391 70.6403C101.288 70.5877 103.504 72.8115 105.233 74.3009C107.801 76.6593 111.189 77.9193 114.673 77.8113C120.038 77.9783 121.107 79.0213 121.266 84.4049C121.23 86.3218 121.59 88.2256 122.323 89.9971C123.056 91.7687 124.147 93.37 125.527 94.701C129.301 98.6698 129.319 100.4 125.526 104.377Z" fill="#333333"/>
    </svg>
    