<svg width="153" height="37" viewBox="0 0 153 37" fill="none" xmlns="http://www.w3.org/2000/svg">
    <path d="M76.9533 21.0524C73.8889 21.0524 71.3856 23.34 71.3856 26.4963C71.3856 29.6269 73.8889 31.9385 76.9533 31.9385C80.0242 31.9385 82.5276 29.6269 82.5276 26.4963C82.5276 23.34 80.0242 21.0524 76.9533 21.0524ZM76.9533 29.7949C75.2719 29.7949 73.8253 28.4335 73.8253 26.4963C73.8253 24.5334 75.2719 23.196 76.9533 23.196C78.6347 23.196 80.0878 24.5334 80.0878 26.4963C80.0878 28.4335 78.6347 29.7949 76.9533 29.7949ZM64.8051 21.0524C61.7342 21.0524 59.2373 23.34 59.2373 26.4963C59.2373 29.6269 61.7342 31.9385 64.8051 31.9385C67.8743 31.9385 70.3728 29.6269 70.3728 26.4963C70.3728 23.34 67.8743 21.0524 64.8051 21.0524ZM64.8051 29.7949C63.122 29.7949 61.6706 28.4335 61.6706 26.4963C61.6706 24.5334 63.122 23.196 64.8051 23.196C66.4865 23.196 67.9331 24.5334 67.9331 26.4963C67.9331 28.4335 66.4865 29.7949 64.8051 29.7949ZM50.3492 22.7209V25.0341H55.9805C55.8158 26.3267 55.3755 27.2769 54.7003 27.9392C53.8783 28.7391 52.5981 29.6269 50.3492 29.6269C46.8836 29.6269 44.1699 26.8834 44.1699 23.484C44.1699 20.0846 46.8836 17.341 50.3492 17.341C52.223 17.341 53.5864 18.0593 54.5927 18.9904L56.2545 17.3602C54.8471 16.0421 52.9749 15.0294 50.3492 15.0294C45.5969 15.0294 41.6029 18.8224 41.6029 23.484C41.6029 28.1456 45.5969 31.9385 50.3492 31.9385C52.9178 31.9385 54.8471 31.1131 56.3638 29.5645C57.918 28.04 58.4023 25.8964 58.4023 24.1655C58.4023 23.628 58.3567 23.1336 58.2751 22.7209H50.3492ZM109.461 24.5142C109.003 23.2968 107.589 21.0524 104.709 21.0524C101.855 21.0524 99.4787 23.2584 99.4787 26.4963C99.4787 29.5453 101.83 31.9385 104.983 31.9385C107.532 31.9385 109.003 30.414 109.608 29.5261L107.716 28.2896C107.085 29.195 106.226 29.7949 104.983 29.7949C103.748 29.7949 102.863 29.2398 102.295 28.1456L109.717 25.1333L109.461 24.5142ZM101.894 26.3267C101.83 24.2279 103.556 23.1528 104.792 23.1528C105.761 23.1528 106.583 23.628 106.857 24.3078L101.894 26.3267ZM95.8614 31.6074H98.3012V15.6101H95.8614V31.6074ZM91.8658 22.265H91.7843C91.2363 21.6283 90.191 21.0524 88.8667 21.0524C86.0877 21.0524 83.5469 23.4456 83.5469 26.5139C83.5469 29.5645 86.0877 31.9385 88.8667 31.9385C90.191 31.9385 91.2363 31.3578 91.7843 30.7019H91.8658V31.4826C91.8658 33.5638 90.7324 34.6821 88.9042 34.6821C87.4136 34.6821 86.4889 33.6262 86.1073 32.7384L83.9855 33.607C84.5971 35.05 86.2166 36.8257 88.9042 36.8257C91.7647 36.8257 94.1784 35.1748 94.1784 31.1579V21.3835H91.8658V22.265ZM89.0754 29.7949C87.394 29.7949 85.9866 28.4143 85.9866 26.5139C85.9866 24.5958 87.394 23.196 89.0754 23.196C90.7324 23.196 92.0387 24.5958 92.0387 26.5139C92.0387 28.4143 90.7324 29.7949 89.0754 29.7949ZM120.884 15.6101H115.048V31.6074H117.482V25.546H120.884C123.586 25.546 126.236 23.628 126.236 20.5773C126.236 17.5282 123.579 15.6101 120.884 15.6101ZM120.947 23.3208H117.482V17.8354H120.947C122.764 17.8354 123.801 19.3151 123.801 20.5773C123.801 21.8155 122.764 23.3208 120.947 23.3208ZM135.989 21.022C134.231 21.022 132.402 21.7835 131.651 23.4712L133.81 24.359C134.275 23.4712 135.129 23.1832 136.033 23.1832C137.295 23.1832 138.575 23.9271 138.595 25.2405V25.4085C138.154 25.1589 137.212 24.7894 136.052 24.7894C133.727 24.7894 131.357 26.0451 131.357 28.3887C131.357 30.5324 133.262 31.9129 135.403 31.9129C137.041 31.9129 137.944 31.1883 138.512 30.3452H138.595V31.5818H140.945V25.4453C140.945 22.6089 138.786 21.022 135.989 21.022ZM135.695 29.7885C134.899 29.7885 133.79 29.4014 133.79 28.4335C133.79 27.1953 135.173 26.7202 136.37 26.7202C137.442 26.7202 137.944 26.9522 138.595 27.2577C138.404 28.7391 137.104 29.7885 135.695 29.7885ZM149.507 21.3724L146.71 28.3072H146.627L143.735 21.3724H141.111L145.456 31.0635L142.977 36.4561H145.519L152.214 21.3724H149.507ZM127.573 31.6074H130.013V15.6101H127.573V31.6074Z" fill="white"/>
    <path d="M49.5158 4.60347C49.5158 5.67209 49.1896 6.52794 48.5471 7.16623C47.8083 7.9229 46.8461 8.30363 45.667 8.30363C44.5401 8.30363 43.5779 7.9165 42.7885 7.15343C41.9976 6.37917 41.6029 5.42893 41.6029 4.29153C41.6029 3.15412 41.9976 2.20389 42.7885 1.43602C43.5779 0.666553 44.5401 0.279419 45.667 0.279419C46.228 0.279419 46.7629 0.392999 47.2734 0.604163C47.7822 0.816926 48.1964 1.10488 48.4965 1.46002L47.8148 2.1351C47.2913 1.5288 46.5786 1.22966 45.667 1.22966C44.845 1.22966 44.1324 1.51121 43.5273 2.07911C42.9288 2.64861 42.6287 3.38608 42.6287 4.29153C42.6287 5.19697 42.9288 5.94084 43.5273 6.51034C44.1324 7.07185 44.845 7.3598 45.667 7.3598C46.5395 7.3598 47.2734 7.07185 47.8523 6.50394C48.234 6.12801 48.4509 5.6097 48.5079 4.94741H45.667V4.02277H49.4571C49.5028 4.22274 49.5158 4.41631 49.5158 4.60347Z" fill="white" stroke="white" stroke-width="0.138824" stroke-miterlimit="10"/>
    <path d="M55.5288 1.22166H51.9687V3.65324H55.1782V4.57788H51.9687V7.00946H55.5288V7.95169H50.9608V0.279419H55.5288V1.22166Z" fill="white" stroke="white" stroke-width="0.138824" stroke-miterlimit="10"/>
    <path d="M59.7723 7.95169H58.7644V1.22166H56.5807V0.279419H61.9576V1.22166H59.7723V7.95169Z" fill="white" stroke="white" stroke-width="0.138824" stroke-miterlimit="10"/>
    <path d="M65.8489 7.95169V0.279419H66.8551V7.95169H65.8489Z" fill="white" stroke="white" stroke-width="0.138824" stroke-miterlimit="10"/>
    <path d="M71.3155 7.95169H70.3158V1.22166H68.1239V0.279419H73.5073V1.22166H71.3155V7.95169Z" fill="white" stroke="white" stroke-width="0.138824" stroke-miterlimit="10"/>
    <path d="M83.6872 7.14064C82.9158 7.9165 81.9601 8.30363 80.8202 8.30363C79.6737 8.30363 78.718 7.9165 77.9466 7.14064C77.1768 6.36637 76.7936 5.41613 76.7936 4.29153C76.7936 3.16692 77.1768 2.21668 77.9466 1.44242C78.718 0.666552 79.6737 0.279419 80.8202 0.279419C81.9536 0.279419 82.9093 0.666552 83.6807 1.44882C84.457 2.22948 84.8402 3.17332 84.8402 4.29153C84.8402 5.41613 84.457 6.36637 83.6872 7.14064ZM78.6919 6.49755C79.2725 7.07185 79.9786 7.3598 80.8202 7.3598C81.6552 7.3598 82.3678 7.07185 82.9419 6.49755C83.5209 5.92324 83.8144 5.18577 83.8144 4.29153C83.8144 3.39728 83.5209 2.65981 82.9419 2.08551C82.3678 1.51121 81.6552 1.22326 80.8202 1.22326C79.9786 1.22326 79.2725 1.51121 78.6919 2.08551C78.1129 2.65981 77.8194 3.39728 77.8194 4.29153C77.8194 5.18577 78.1129 5.92324 78.6919 6.49755Z" fill="white" stroke="white" stroke-width="0.138824" stroke-miterlimit="10"/>
    <path d="M86.2542 7.95169V0.279419H87.4773L91.2804 6.24639H91.3245L91.2804 4.77144V0.279419H92.2867V7.95169H91.2364L87.2539 1.69038H87.2098L87.2539 3.17172V7.95169H86.2542Z" fill="white" stroke="white" stroke-width="0.138824" stroke-miterlimit="10"/>
    <path d="M1.42853 2.52283C1.04528 2.91637 0.823486 3.52906 0.823486 4.32252V32.6248C0.823486 33.4183 1.04528 34.031 1.42853 34.4245L1.52312 34.5109L17.6914 18.6577V18.2833L1.52312 2.43005L1.42853 2.52283Z" fill="url(#paint0_linear_0_1)"/>
    <path d="M23.075 23.9447L17.6915 18.6576V18.2833L23.0815 12.9962L23.2022 13.065L29.5854 16.6276C31.407 17.6386 31.407 19.3023 29.5854 20.3197L23.2022 23.8759L23.075 23.9447Z" fill="url(#paint1_linear_0_1)"/>
    <path d="M23.2021 23.876L17.6915 18.4705L1.42859 34.4246C2.03364 35.0484 3.0203 35.1236 4.14233 34.4997L23.2021 23.876Z" fill="url(#paint2_linear_0_1)"/>
    <path d="M23.2021 13.0651L4.14233 2.44129C3.0203 1.82379 2.03364 1.89898 1.42859 2.52287L17.6915 18.4705L23.2021 13.0651Z" fill="url(#paint3_linear_0_1)"/>
    <defs>
    <linearGradient id="paint0_linear_0_1" x1="16.2559" y1="32.9196" x2="-5.21792" y2="11.0279" gradientUnits="userSpaceOnUse">
    <stop stop-color="#00A0FF"/>
    <stop offset="0.0066" stop-color="#00A1FF"/>
    <stop offset="0.2601" stop-color="#00BEFF"/>
    <stop offset="0.5122" stop-color="#00D2FF"/>
    <stop offset="0.7604" stop-color="#00DFFF"/>
    <stop offset="1" stop-color="#00E3FF"/>
    </linearGradient>
    <linearGradient id="paint1_linear_0_1" x1="31.9575" y1="18.4687" x2="0.38816" y2="18.4687" gradientUnits="userSpaceOnUse">
    <stop stop-color="#FFE000"/>
    <stop offset="0.4087" stop-color="#FFBD00"/>
    <stop offset="0.7754" stop-color="#FFA500"/>
    <stop offset="1" stop-color="#FF9C00"/>
    </linearGradient>
    <linearGradient id="paint2_linear_0_1" x1="20.2056" y1="15.532" x2="-8.91459" y2="-14.1549" gradientUnits="userSpaceOnUse">
    <stop stop-color="#FF3A44"/>
    <stop offset="1" stop-color="#C31162"/>
    </linearGradient>
    <linearGradient id="paint3_linear_0_1" x1="-2.66512" y1="43.8406" x2="10.3384" y2="30.5842" gradientUnits="userSpaceOnUse">
    <stop stop-color="#32A071"/>
    <stop offset="0.0685" stop-color="#2DA771"/>
    <stop offset="0.4762" stop-color="#15CF74"/>
    <stop offset="0.8009" stop-color="#06E775"/>
    <stop offset="1" stop-color="#00F076"/>
    </linearGradient>
    </defs>
    </svg>
    