<svg width="37" height="36" viewBox="0 0 37 36" fill="none" xmlns="http://www.w3.org/2000/svg">
<path d="M26.0713 8.19C25.7153 8.19 25.3673 8.29557 25.0713 8.49335C24.7752 8.69114 24.5445 8.97226 24.4083 9.30117C24.2721 9.63008 24.2364 9.992 24.3059 10.3412C24.3753 10.6903 24.5468 11.0111 24.7985 11.2628C25.0502 11.5145 25.371 11.686 25.7201 11.7554C26.0693 11.8249 26.4312 11.7892 26.7601 11.653C27.089 11.5167 27.3701 11.286 27.5679 10.99C27.7657 10.694 27.8713 10.346 27.8713 9.99C27.8713 9.51261 27.6816 9.05477 27.3441 8.71721C27.0065 8.37964 26.5487 8.19 26.0713 8.19ZM32.9713 11.82C32.9421 10.5754 32.709 9.3441 32.2813 8.175C31.8999 7.1747 31.3063 6.26892 30.5413 5.52C29.7985 4.75114 28.8906 4.16126 27.8863 3.795C26.7203 3.35424 25.4876 3.11581 24.2413 3.09C22.6513 3 22.1413 3 18.0613 3C13.9813 3 13.4713 3 11.8813 3.09C10.635 3.11581 9.40229 3.35424 8.23628 3.795C7.23379 4.16497 6.32668 4.75434 5.58128 5.52C4.81242 6.26277 4.22254 7.17066 3.85628 8.175C3.41552 9.34101 3.17709 10.5737 3.15128 11.82C3.06128 13.41 3.06128 13.92 3.06128 18C3.06128 22.08 3.06128 22.59 3.15128 24.18C3.17709 25.4263 3.41552 26.659 3.85628 27.825C4.22254 28.8293 4.81242 29.7372 5.58128 30.48C6.32668 31.2457 7.23379 31.835 8.23628 32.205C9.40229 32.6458 10.635 32.8842 11.8813 32.91C13.4713 33 13.9813 33 18.0613 33C22.1413 33 22.6513 33 24.2413 32.91C25.4876 32.8842 26.7203 32.6458 27.8863 32.205C28.8906 31.8387 29.7985 31.2489 30.5413 30.48C31.3096 29.7339 31.9038 28.8273 32.2813 27.825C32.709 26.6559 32.9421 25.4246 32.9713 24.18C32.9713 22.59 33.0613 22.08 33.0613 18C33.0613 13.92 33.0613 13.41 32.9713 11.82ZM30.2713 24C30.2604 24.9522 30.0879 25.8956 29.7613 26.79C29.5218 27.4428 29.1371 28.0326 28.6363 28.515C28.1497 29.0108 27.5611 29.3946 26.9113 29.64C26.0168 29.9666 25.0734 30.1391 24.1213 30.15C22.6213 30.225 22.0663 30.24 18.1213 30.24C14.1763 30.24 13.6213 30.24 12.1213 30.15C11.1326 30.1685 10.1482 30.0163 9.21128 29.7C8.58995 29.4421 8.02831 29.0592 7.56128 28.575C7.06341 28.0931 6.68354 27.5028 6.45128 26.85C6.08506 25.9427 5.88194 24.9779 5.85128 24C5.85128 22.5 5.76128 21.945 5.76128 18C5.76128 14.055 5.76128 13.5 5.85128 12C5.858 11.0266 6.0357 10.0619 6.37628 9.15C6.64035 8.51687 7.04568 7.95249 7.56128 7.5C8.017 6.98425 8.58021 6.57464 9.21128 6.3C10.1256 5.97007 11.0893 5.79762 12.0613 5.79C13.5613 5.79 14.1163 5.7 18.0613 5.7C22.0063 5.7 22.5613 5.7 24.0613 5.79C25.0134 5.80092 25.9568 5.97337 26.8513 6.3C27.5329 6.55298 28.1447 6.96427 28.6363 7.5C29.1278 7.96077 29.5119 8.5241 29.7613 9.15C30.0947 10.0634 30.2672 11.0277 30.2713 12C30.3463 13.5 30.3613 14.055 30.3613 18C30.3613 21.945 30.3463 22.5 30.2713 24ZM18.0613 10.305C16.54 10.308 15.0537 10.7618 13.7903 11.6091C12.5268 12.4565 11.5428 13.6593 10.9627 15.0656C10.3826 16.472 10.2324 18.0187 10.531 19.5104C10.8296 21.0021 11.5636 22.3718 12.6404 23.4465C13.7172 24.5211 15.0883 25.2525 16.5806 25.5482C18.0728 25.8439 19.6193 25.6907 21.0245 25.1078C22.4297 24.525 23.6306 23.5387 24.4755 22.2736C25.3203 21.0084 25.7713 19.5213 25.7713 18C25.7733 16.9877 25.5751 15.9849 25.1881 15.0494C24.8012 14.114 24.2331 13.2642 23.5166 12.5491C22.8001 11.8339 21.9492 11.2675 21.013 10.8824C20.0767 10.4973 19.0736 10.301 18.0613 10.305ZM18.0613 22.995C17.0734 22.995 16.1076 22.702 15.2862 22.1532C14.4648 21.6043 13.8246 20.8242 13.4465 19.9115C13.0684 18.9988 12.9695 17.9945 13.1623 17.0255C13.355 16.0566 13.8307 15.1666 14.5293 14.468C15.2278 13.7694 16.1179 13.2937 17.0868 13.101C18.0557 12.9082 19.0601 13.0072 19.9728 13.3852C20.8855 13.7633 21.6656 14.4035 22.2145 15.2249C22.7633 16.0464 23.0563 17.0121 23.0563 18C23.0563 18.656 22.9271 19.3055 22.6761 19.9115C22.425 20.5175 22.0571 21.0682 21.5933 21.532C21.1294 21.9958 20.5788 22.3638 19.9728 22.6148C19.3668 22.8658 18.7172 22.995 18.0613 22.995Z" fill="#515151"/>
</svg>
