<svg width="33" height="33" viewBox="0 0 33 33" fill="none" xmlns="http://www.w3.org/2000/svg">
    <path d="M8.57639 6.31945C8.47247 6.32029 8.37203 6.35696 8.29201 6.42327C6.25963 8.06716 4.78695 10.3008 4.07682 12.8165C3.3667 15.3322 3.45405 18.0062 4.32687 20.4701C5.19968 22.9341 6.815 25.0668 8.95035 26.5746C11.0857 28.0823 13.636 28.8909 16.25 28.8889C18.183 28.8946 20.091 28.4528 21.8247 27.5979C21.9318 27.5446 22.0133 27.4509 22.0514 27.3375C22.0895 27.2241 22.081 27.1002 22.0278 26.9931C22.0018 26.9396 21.9655 26.8919 21.921 26.8525C21.8765 26.8131 21.8247 26.7829 21.7685 26.7636C21.7123 26.7444 21.6528 26.7364 21.5935 26.7401C21.5342 26.7438 21.4762 26.7592 21.4229 26.7854C18.7934 28.0767 15.7761 28.3379 12.9638 27.5176C10.1516 26.6974 7.74772 24.8551 6.22465 22.3528C4.74732 19.9249 4.20118 17.0434 4.68765 14.2433C5.17412 11.4432 6.66013 8.91477 8.86979 7.12743C8.91583 7.08986 8.95399 7.04357 8.9821 6.99121C9.0102 6.93885 9.02769 6.88146 9.03356 6.82233C9.03943 6.7632 9.03357 6.70348 9.01631 6.64662C8.99905 6.58976 8.97074 6.53687 8.93299 6.49097C8.89048 6.43718 8.83627 6.39377 8.77449 6.36405C8.7127 6.33433 8.64495 6.31908 8.57639 6.31945ZM16.25 3.61111C14.2332 3.60564 12.2449 4.08723 10.4542 5.01493C10.3476 5.07 10.2673 5.16514 10.2309 5.27942C10.1945 5.3937 10.205 5.51776 10.2601 5.62431C10.3151 5.73085 10.4103 5.81116 10.5246 5.84756C10.6388 5.88396 10.7629 5.87347 10.8694 5.81841C13.1441 4.64427 15.7404 4.24606 18.2624 4.68445C20.7844 5.12285 23.094 6.37381 24.839 8.24668C26.5841 10.1196 27.6689 12.5116 27.9282 15.0583C28.1875 17.605 27.6071 20.1666 26.2753 22.3528C25.574 23.5001 24.6826 24.5198 23.6392 25.3681C23.5469 25.4432 23.488 25.5517 23.4753 25.6701C23.4626 25.7884 23.4972 25.907 23.5715 26C23.6088 26.0464 23.6548 26.0849 23.707 26.1134C23.7592 26.142 23.8165 26.1599 23.8757 26.1662C23.9348 26.1725 23.9946 26.167 24.0517 26.1501C24.1087 26.1332 24.1618 26.1052 24.208 26.0677C25.3304 25.1548 26.289 24.0572 27.0427 22.8222C28.2092 20.9061 28.8447 18.7141 28.8839 16.4712C28.9232 14.2282 28.3648 12.0153 27.2661 10.0595C26.1673 8.10379 24.5679 6.47571 22.6319 5.34246C20.6959 4.20922 18.4933 3.61165 16.25 3.61111Z" fill="black"/>
    <path d="M15.7985 4.06251C15.6867 4.0628 15.5789 4.10462 15.4961 4.17987C13.8008 5.70013 12.5089 7.61705 11.736 9.75904C10.8788 11.8178 10.4193 14.0203 10.3819 16.25C10.3868 18.4847 10.8476 20.695 11.736 22.7455C12.5835 24.8474 13.8647 26.747 15.4961 28.3201C15.5859 28.3922 15.6997 28.4273 15.8145 28.4182C15.9292 28.4091 16.0361 28.3565 16.1134 28.2712C16.1906 28.1858 16.2324 28.0742 16.2301 27.9592C16.2277 27.8441 16.1816 27.7343 16.101 27.6521C14.5594 26.1683 13.3475 24.3765 12.544 22.3934C11.7124 20.4521 11.2839 18.362 11.2847 16.25C11.3136 14.1392 11.7425 12.0531 12.5485 10.1021C13.2782 8.08298 14.4991 6.27729 16.101 4.84793C16.1683 4.78671 16.2156 4.70657 16.2366 4.61801C16.2576 4.52946 16.2513 4.43662 16.2186 4.35169C16.1859 4.26676 16.1283 4.1937 16.0533 4.14209C15.9784 4.09049 15.8896 4.06274 15.7985 4.06251Z" fill="black"/>
    <path d="M16.7013 4.06249C16.6103 4.06273 16.5215 4.09047 16.4465 4.14207C16.3716 4.19368 16.314 4.26674 16.2813 4.35168C16.2486 4.43661 16.2423 4.52944 16.2633 4.61799C16.2843 4.70655 16.3316 4.78669 16.3989 4.84791C18.0008 6.27727 19.2217 8.08296 19.9513 10.1021C20.7574 12.0531 21.1862 14.1392 21.2152 16.25C21.216 18.362 20.7875 20.4521 19.9558 22.3934C19.1524 24.3765 17.9405 26.1682 16.3989 27.6521C16.3509 27.6906 16.3113 27.7385 16.2826 27.7929C16.2538 27.8473 16.2364 27.907 16.2316 27.9683C16.2267 28.0296 16.2344 28.0913 16.2543 28.1496C16.2741 28.2078 16.3056 28.2614 16.3469 28.307C16.3882 28.3526 16.4384 28.3893 16.4944 28.4148C16.5504 28.4403 16.611 28.4541 16.6725 28.4553C16.734 28.4566 16.7951 28.4452 16.8521 28.4219C16.9091 28.3987 16.9607 28.3641 17.0038 28.3201C18.6433 26.7492 19.9324 24.8494 20.7864 22.7455C21.6671 20.6933 22.1202 18.4831 22.118 16.25C22.0805 14.0202 21.621 11.8178 20.7638 9.75902C19.9858 7.61515 18.6876 5.69805 16.9857 4.17985C16.9076 4.10864 16.8069 4.0671 16.7013 4.06249Z" fill="black"/>
    <path d="M28.4374 15.7986H4.06244C3.94273 15.7986 3.82791 15.8462 3.74326 15.9308C3.65861 16.0155 3.61105 16.1303 3.61105 16.25C3.61105 16.3697 3.65861 16.4845 3.74326 16.5692C3.82791 16.6538 3.94273 16.7014 4.06244 16.7014H28.4374C28.5572 16.7014 28.672 16.6538 28.7566 16.5692C28.8413 16.4845 28.8888 16.3697 28.8888 16.25C28.8888 16.1303 28.8413 16.0155 28.7566 15.9308C28.672 15.8462 28.5572 15.7986 28.4374 15.7986ZM26.6319 22.1181H5.868C5.74828 22.1181 5.63347 22.1656 5.54882 22.2503C5.46417 22.3349 5.41661 22.4497 5.41661 22.5695C5.41661 22.6892 5.46417 22.804 5.54882 22.8886C5.63347 22.9733 5.74828 23.0208 5.868 23.0208H26.6319C26.7516 23.0208 26.8664 22.9733 26.9511 22.8886C27.0357 22.804 27.0833 22.6892 27.0833 22.5695C27.0833 22.4497 27.0357 22.3349 26.9511 22.2503C26.8664 22.1656 26.7516 22.1181 26.6319 22.1181ZM26.6319 9.47918H5.868C5.74828 9.47918 5.63347 9.52673 5.54882 9.61139C5.46417 9.69604 5.41661 9.81085 5.41661 9.93057C5.41661 10.0503 5.46417 10.1651 5.54882 10.2497C5.63347 10.3344 5.74828 10.382 5.868 10.382H26.6319C26.7516 10.382 26.8664 10.3344 26.9511 10.2497C27.0357 10.1651 27.0833 10.0503 27.0833 9.93057C27.0833 9.81085 27.0357 9.69604 26.9511 9.61139C26.8664 9.52673 26.7516 9.47918 26.6319 9.47918Z" fill="black"/>
    <path d="M16.2499 4.0625C16.1302 4.0625 16.0154 4.11006 15.9308 4.19471C15.8461 4.27936 15.7986 4.39417 15.7986 4.51389V27.9861C15.7986 28.1058 15.8461 28.2206 15.9308 28.3053C16.0154 28.3899 16.1302 28.4375 16.2499 28.4375C16.3697 28.4375 16.4845 28.3899 16.5691 28.3053C16.6538 28.2206 16.7013 28.1058 16.7013 27.9861V4.51389C16.7013 4.39417 16.6538 4.27936 16.5691 4.19471C16.4845 4.11006 16.3697 4.0625 16.2499 4.0625Z" fill="black"/>
    </svg>
    