<svg width="37" height="36" viewBox="0 0 37 36" fill="none" xmlns="http://www.w3.org/2000/svg">
<path d="M30.7662 2.99997H5.35625C5.07061 2.996 4.787 3.04834 4.52159 3.15399C4.25619 3.25965 4.0142 3.41655 3.80944 3.61573C3.60468 3.81492 3.44117 4.05249 3.32823 4.31488C3.2153 4.57727 3.15516 4.85933 3.15125 5.14497V30.855C3.15516 31.1406 3.2153 31.4227 3.32823 31.6851C3.44117 31.9474 3.60468 32.185 3.80944 32.3842C4.0142 32.5834 4.25619 32.7403 4.52159 32.8459C4.787 32.9516 5.07061 33.0039 5.35625 33H30.7662C31.0519 33.0039 31.3355 32.9516 31.6009 32.8459C31.8663 32.7403 32.1083 32.5834 32.313 32.3842C32.5178 32.185 32.6813 31.9474 32.7943 31.6851C32.9072 31.4227 32.9673 31.1406 32.9712 30.855V5.14497C32.9673 4.85933 32.9072 4.57727 32.7943 4.31488C32.6813 4.05249 32.5178 3.81492 32.313 3.61573C32.1083 3.41655 31.8663 3.25965 31.6009 3.15399C31.3355 3.04834 31.0519 2.996 30.7662 2.99997ZM12.1962 28.11H7.69625V14.61H12.1962V28.11ZM9.94625 12.72C9.32564 12.72 8.73045 12.4734 8.29162 12.0346C7.85278 11.5958 7.60625 11.0006 7.60625 10.38C7.60625 9.75936 7.85278 9.16417 8.29162 8.72534C8.73045 8.2865 9.32564 8.03997 9.94625 8.03997C10.2758 8.00259 10.6095 8.03525 10.9256 8.13579C11.2416 8.23633 11.5329 8.4025 11.7802 8.62341C12.0276 8.84432 12.2255 9.11498 12.3611 9.41769C12.4966 9.72039 12.5666 10.0483 12.5666 10.38C12.5666 10.7116 12.4966 11.0395 12.3611 11.3422C12.2255 11.6449 12.0276 11.9156 11.7802 12.1365C11.5329 12.3574 11.2416 12.5236 10.9256 12.6241C10.6095 12.7247 10.2758 12.7573 9.94625 12.72ZM28.4262 28.11H23.9262V20.865C23.9262 19.05 23.2812 17.865 21.6462 17.865C21.1402 17.8687 20.6475 18.0274 20.2345 18.3197C19.8215 18.6121 19.508 19.024 19.3362 19.5C19.2189 19.8525 19.168 20.2238 19.1862 20.595V28.095H14.6862C14.6862 28.095 14.6862 15.825 14.6862 14.595H19.1862V16.5C19.595 15.7906 20.1896 15.2062 20.9059 14.8098C21.6222 14.4133 22.4331 14.2197 23.2512 14.25C26.2512 14.25 28.4262 16.185 28.4262 20.34V28.11Z" fill="#515151"/>
</svg>
