<svg width="48" height="48" viewBox="0 0 48 48" fill="none" xmlns="http://www.w3.org/2000/svg">
<g clip-path="url(#clip0_95_887)">
<path d="M40.5075 44.055C40.5075 46.2375 33.1125 48 24 48C14.8875 48 7.49249 46.2375 7.49249 44.055C7.49249 42.105 13.4175 40.5 21.1875 40.17H26.8125C34.59 40.5 40.5075 42.105 40.5075 44.055Z" fill="#E3E2E1"/>
<path d="M24 0C15.525 0 8.65503 6.8625 8.65503 15.3375C8.65503 23.8125 24 44.055 24 44.055C24 44.055 39.3375 23.8125 39.3375 15.3375C39.3375 6.8625 32.475 0 24 0ZM24 25.4925C18.39 25.4925 13.845 20.9475 13.845 15.3375C13.845 9.7275 18.39 5.1825 24 5.1825C29.61 5.1825 34.155 9.7275 34.155 15.3375C34.155 20.9475 29.61 25.4925 24 25.4925Z" fill="#E82327"/>
</g>
<defs>
<clipPath id="clip0_95_887">
<rect width="48" height="48" fill="white"/>
</clipPath>
</defs>
</svg>
