<svg width="166" height="66" viewBox="0 0 166 66" fill="none" xmlns="http://www.w3.org/2000/svg">
    <g clip-path="url(#clip0_95_972)">
    <path d="M25.9269 41.7278C22.1192 44.5936 17.1135 44.5068 15.8728 44.5068C11.5516 44.5068 7.44443 43.7686 3.93618 41.1199C2.60989 40.1212 1.79701 39.2094 0.812988 37.9068L7.95783 33.2607C8.59959 34.2594 8.94185 34.737 9.36969 35.0844C11.0382 36.5607 14.1614 37.212 16.215 37.212C18.8676 37.212 20.7073 36.387 20.7073 34.9107C20.7073 34.5633 20.5362 34.3028 20.4934 34.1725C20.2795 33.7383 19.9372 33.3475 19.0815 33.087C18.0547 32.6962 16.1295 32.4357 13.5197 31.9147C9.45525 31.0897 7.2733 30.091 5.86144 28.8318C4.9202 28.0068 3.25165 26.0094 3.29443 22.7528C3.29443 21.9278 3.33721 20.1041 4.36402 18.1936C7.35886 12.5923 15.231 12.6791 16.3434 12.6791C17.8408 12.6791 23.1888 12.766 27.3815 15.8923C28.3228 16.587 28.8362 17.1515 29.6491 17.9765L23.7449 22.9699C23.3599 22.4489 23.146 22.1883 22.8893 21.9712C21.1779 20.3647 18.1831 19.887 15.9583 19.887C15.7444 19.887 14.6321 19.887 13.7336 20.2778C13.5625 20.3647 12.5785 20.8423 12.5785 21.841C12.5785 22.4054 12.9207 22.8831 13.3486 23.187C14.1187 23.6646 15.8728 24.012 16.6429 24.1423C17.6697 24.316 20.4506 24.7068 23.4027 25.662C25.2424 26.2699 29.8202 27.9199 29.8202 33.912C29.8202 38.2975 27.2104 40.7291 25.9269 41.7278Z" fill="#E31E26"/>
    <path d="M47.6609 43.5949V31.0028C47.6609 30.3515 47.6182 30.2212 47.5326 29.8739C47.3615 29.0054 46.6769 27.8765 44.5377 27.8765C43.8532 27.8765 41.9707 27.9633 41.5001 29.9173C41.3718 30.3515 41.3718 30.8291 41.3718 31.1765V43.5949H32.7295V13.591H41.329V23.7949C41.7996 23.187 42.0135 22.9699 42.313 22.7094C43.1687 21.8844 45.1367 20.6686 48.2599 20.6686C50.3563 20.6686 52.7522 21.3199 54.2924 22.8831C54.8486 23.4475 55.7042 24.5331 56.0465 26.4002C56.2604 27.4423 56.3032 28.1804 56.3032 29.266V43.6383H47.6609V43.5949Z" fill="#E31E26"/>
    <path d="M59.8542 11.4633V5.64493H68.4965V11.4633H59.8542ZM59.8542 43.5949V13.6778H68.4965V43.5949H59.8542Z" fill="#E31E26"/>
    <path d="M86.166 44.116C85.5243 44.116 83.2568 44.116 81.4599 42.9002C81.1604 42.6831 80.9892 42.5094 80.5186 42.0752V51.541H72.0475V21.537H80.4758V23.2305C80.9037 22.7094 81.0748 22.5357 81.3315 22.362C82.1444 21.7107 83.7702 20.9291 86.2516 20.9291C93.0542 20.9291 95.7068 26.5305 95.7068 32.6528C95.7068 38.862 92.8831 44.116 86.166 44.116ZM86.2944 28.5278C85.5243 27.5291 84.4119 27.3555 83.9841 27.3555C83.6418 27.3555 83.0001 27.3989 82.3155 27.7897C80.5614 28.7884 80.4758 30.9594 80.4758 32.7397C80.4758 34.4331 80.6042 36.691 82.2727 37.6462C82.9573 38.037 83.4707 38.037 83.7702 38.037C84.1552 38.037 84.7542 37.9936 85.4387 37.5594C86.9789 36.5607 87.1928 34.4765 87.1928 32.8265C87.1928 31.437 87.1073 29.6568 86.2944 28.5278Z" fill="#E31E26"/>
    <path d="M112.35 44.116C111.708 44.116 109.44 44.116 107.643 42.9002C107.344 42.6831 107.173 42.5094 106.702 42.0752V60.312H98.2311V21.537H106.659V23.2305C107.087 22.7094 107.258 22.5357 107.515 22.362C108.328 21.7107 109.954 20.9291 112.435 20.9291C119.238 20.9291 121.89 26.5305 121.89 32.6528C121.89 38.862 119.067 44.116 112.35 44.116ZM112.435 28.5278C111.665 27.5291 110.553 27.3555 110.125 27.3555C109.783 27.3555 109.141 27.3989 108.456 27.7897C106.702 28.7883 106.617 30.9594 106.617 32.7397C106.617 34.4331 106.745 36.691 108.414 37.6462C109.098 38.037 109.611 38.037 109.911 38.037C110.296 38.037 110.895 37.9936 111.58 37.5594C113.12 36.5607 113.334 34.4765 113.334 32.8265C113.376 31.437 113.291 29.6568 112.435 28.5278Z" fill="#E31E26"/>
    <path d="M132.201 34.1292C132.201 34.1292 132.201 35.1278 132.415 35.8226C132.715 36.691 133.527 38.2976 135.838 38.2542C137.164 38.2542 137.891 37.7765 138.319 37.3857C139.218 36.6476 139.603 35.6923 139.774 35.3884L146.833 38.4278C146.619 38.7752 146.362 39.2528 145.806 39.9041C144.309 41.6844 142.597 42.6831 141.827 43.0305C140.801 43.5515 138.533 44.4199 135.41 44.4199C133.613 44.4199 131.902 44.1594 130.276 43.4647C125.784 41.5976 123.388 37.1686 123.388 32.3489C123.388 27.7897 125.441 25.0107 126.682 23.7515C129.762 20.712 134.084 20.5384 135.324 20.5384C136.779 20.5384 141.228 20.7555 144.352 24.1857C145.378 25.3147 146.191 26.791 146.662 28.2673C147.261 30.1778 147.304 32.0449 147.304 34.0423H132.201V34.1292ZM138.362 28.2673C137.763 26.4436 136.18 26.1831 135.495 26.1831C134.811 26.2265 134.426 26.4002 134.169 26.5305C132.586 27.2686 132.372 29.0489 132.287 29.5265H138.576C138.49 29.266 138.49 28.8318 138.362 28.2673Z" fill="#E31E26"/>
    <path d="M163.946 28.3975C163.262 28.3541 159.583 28.137 158.556 31.1331C158.299 31.8712 158.299 32.4357 158.299 33.2173V43.5949H149.7V21.5804H158V23.491C158.427 23.1002 158.727 22.8397 159.155 22.5357C161.08 21.1897 162.92 21.1028 165.187 21.1028V28.4844C164.759 28.441 164.332 28.3975 163.946 28.3975Z" fill="#E31E26"/>
    <path d="M165.701 8.59755L154.063 -0.260345V5.64492H72.3898V11.5502H154.063V17.4554L165.701 8.59755Z" fill="#E31E26"/>
    <path d="M0.299561 57.6633L11.9367 66.5212V60.616H94.466V54.7107H11.9367V48.8055L0.299561 57.6633Z" fill="#E31E26"/>
    </g>
    <defs>
    <clipPath id="clip0_95_972">
    <rect width="166" height="66" fill="white"/>
    </clipPath>
    </defs>
    </svg>
    