<svg width="48" height="48" viewBox="0 0 48 48" fill="none" xmlns="http://www.w3.org/2000/svg">
<g clip-path="url(#clip0_95_2739)">
<path fill-rule="evenodd" clip-rule="evenodd" d="M36.6706 5.86318C36.6706 4.20042 35.3206 2.8501 33.6575 2.8501H14.3425C12.6795 2.8501 11.3295 4.20042 11.3295 5.86318V42.4237C11.3295 44.0864 12.6795 45.4367 14.3425 45.4367H33.6575C35.3206 45.4367 36.6706 44.0864 36.6706 42.4237V5.86318ZM35.4732 39.6888V42.4237C35.4732 43.4259 34.6598 44.2393 33.6575 44.2393H14.3425C13.3403 44.2393 12.5269 43.4259 12.5269 42.4237V39.6888H35.4732ZM24 40.8141C24.6347 40.8141 25.1497 41.3291 25.1497 41.9638C25.1497 42.5984 24.6347 43.1135 24 43.1135C23.3654 43.1135 22.8503 42.5984 22.8503 41.9638C22.8503 41.3291 23.3654 40.8141 24 40.8141ZM12.5269 8.64689V38.4902H35.4732V8.64689H12.5269ZM35.4732 7.44833H12.5269V5.86318C12.5269 4.86092 13.3403 4.04751 14.3425 4.04751H33.6575C34.6598 4.04751 35.4732 4.86092 35.4732 5.86318V7.44833ZM22.2755 6.34663H25.7246C26.0548 6.34663 26.323 6.07846 26.323 5.74821C26.323 5.41795 26.0548 5.14979 25.7246 5.14979H22.2755C21.9452 5.14979 21.6771 5.41795 21.6771 5.74821C21.6771 6.07846 21.9452 6.34663 22.2755 6.34663Z" fill="#515151"/>
<path d="M44.4992 22.1889C45.0989 22.1889 45.5896 22.6796 45.5896 23.2793V33.457C45.5896 34.0567 45.0989 34.5474 44.4992 34.5474H28.8693C28.2695 34.5474 27.7788 34.0567 27.7788 33.457V23.2793C27.7788 22.6796 28.2695 22.1889 28.8693 22.1889H44.4992ZM44.4992 21.4619H28.8693C27.8697 21.4619 27.0518 22.2798 27.0518 23.2793V33.457C27.0518 34.4566 27.8697 35.2744 28.8693 35.2744H44.4992C45.4988 35.2744 46.3166 34.4566 46.3166 33.457V23.2793C46.3166 22.2798 45.4988 21.4619 44.4992 21.4619Z" fill="#515151"/>
<path d="M33.7581 28.623L29.2691 32.4941C29.1237 32.6214 29.1055 32.8576 29.2327 33.003C29.3599 33.1484 29.5962 33.1666 29.7416 33.0394L34.3034 29.0955L33.7581 28.623ZM39.5921 28.6412L39.0469 29.1319L43.5541 33.0757C43.6995 33.2029 43.9358 33.1848 44.063 33.0394C44.1902 32.894 44.172 32.6577 44.0266 32.5305L39.5921 28.6412ZM44.0448 23.7705C43.9176 23.6251 43.6813 23.6069 43.5359 23.7341L36.6842 29.7135L29.7416 23.7159C29.5962 23.5887 29.3599 23.6069 29.2327 23.7523C29.1055 23.8977 29.1237 24.1339 29.2691 24.2612L36.4479 30.4586C36.5206 30.5131 36.5933 30.5495 36.6842 30.5495C36.7751 30.5495 36.8478 30.5131 36.9205 30.4586L44.0085 24.2612C44.1539 24.1521 44.172 23.9159 44.0448 23.7705Z" fill="#E31E26"/>
</g>
<defs>
<clipPath id="clip0_95_2739">
<rect width="48" height="48" fill="white"/>
</clipPath>
</defs>
</svg>
