<svg width="48" height="48" viewBox="0 0 48 48" fill="none" xmlns="http://www.w3.org/2000/svg">
<path d="M16.7715 46.2824C16.5726 46.2824 16.3818 46.2034 16.2412 46.0628C16.1005 45.9221 16.0215 45.7314 16.0215 45.5324V26.9782C16.0215 26.7793 16.1005 26.5885 16.2412 26.4479C16.3818 26.3072 16.5726 26.2282 16.7715 26.2282C16.9704 26.2282 17.1612 26.3072 17.3018 26.4479C17.4425 26.5885 17.5215 26.7793 17.5215 26.9782V45.5324C17.5215 45.7314 17.4425 45.9221 17.3018 46.0628C17.1612 46.2034 16.9704 46.2824 16.7715 46.2824ZM29.115 46.2824C28.9161 46.2824 28.7253 46.2034 28.5847 46.0628C28.444 45.9221 28.365 45.7314 28.365 45.5324V16.1324C28.365 15.9335 28.444 15.7428 28.5847 15.6021C28.7253 15.4615 28.9161 15.3824 29.115 15.3824H39.8918C40.0907 15.3824 40.2814 15.4615 40.4221 15.6021C40.5627 15.7428 40.6418 15.9335 40.6418 16.1324C40.6418 16.3314 40.5627 16.5221 40.4221 16.6628C40.2814 16.8034 40.0907 16.8824 39.8918 16.8824H29.865V45.5324C29.865 45.7314 29.786 45.9221 29.6453 46.0628C29.5047 46.2034 29.3139 46.2824 29.115 46.2824Z" fill="#546E7A"/>
<path d="M13.3755 15.6383H6.06599C5.86708 15.6383 5.67632 15.5593 5.53566 15.4186C5.39501 15.278 5.31599 15.0872 5.31599 14.8883C5.31599 14.6894 5.39501 14.4986 5.53566 14.358C5.67632 14.2173 5.86708 14.1383 6.06599 14.1383H13.3755C13.5744 14.1383 13.7652 14.2173 13.9058 14.358C14.0465 14.4986 14.1255 14.6894 14.1255 14.8883C14.1255 15.0872 14.0465 15.278 13.9058 15.4186C13.7652 15.5593 13.5744 15.6383 13.3755 15.6383ZM13.3755 19.9943H6.06599C5.86708 19.9943 5.67632 19.9153 5.53566 19.7746C5.39501 19.634 5.31599 19.4432 5.31599 19.2443C5.31599 19.0454 5.39501 18.8546 5.53566 18.714C5.67632 18.5733 5.86708 18.4943 6.06599 18.4943H13.3755C13.5744 18.4943 13.7652 18.5733 13.9058 18.714C14.0465 18.8546 14.1255 19.0454 14.1255 19.2443C14.1255 19.4432 14.0465 19.634 13.9058 19.7746C13.7652 19.9153 13.5744 19.9943 13.3755 19.9943ZM13.3755 24.3511H6.06599C5.86708 24.3511 5.67632 24.272 5.53566 24.1314C5.39501 23.9907 5.31599 23.8 5.31599 23.6011C5.31599 23.4021 5.39501 23.2114 5.53566 23.0707C5.67632 22.9301 5.86708 22.8511 6.06599 22.8511H13.3755C13.5744 22.8511 13.7652 22.9301 13.9058 23.0707C14.0465 23.2114 14.1255 23.4021 14.1255 23.6011C14.1255 23.8 14.0465 23.9907 13.9058 24.1314C13.7652 24.272 13.5744 24.3511 13.3755 24.3511ZM13.3755 28.7078H6.06599C5.86708 28.7078 5.67632 28.6288 5.53566 28.4881C5.39501 28.3475 5.31599 28.1567 5.31599 27.9578C5.31599 27.7589 5.39501 27.5681 5.53566 27.4275C5.67632 27.2868 5.86708 27.2078 6.06599 27.2078H13.3755C13.5744 27.2078 13.7652 27.2868 13.9058 27.4275C14.0465 27.5681 14.1255 27.7589 14.1255 27.9578C14.1255 28.1567 14.0465 28.3475 13.9058 28.4881C13.7652 28.6288 13.5744 28.7078 13.3755 28.7078ZM13.3755 33.0646H6.06599C5.86708 33.0646 5.67632 32.9855 5.53566 32.8449C5.39501 32.7042 5.31599 32.5135 5.31599 32.3146C5.31599 32.1156 5.39501 31.9249 5.53566 31.7842C5.67632 31.6436 5.86708 31.5646 6.06599 31.5646H13.3755C13.5744 31.5646 13.7652 31.6436 13.9058 31.7842C14.0465 31.9249 14.1255 32.1156 14.1255 32.3146C14.1255 32.5135 14.0465 32.7042 13.9058 32.8449C13.7652 32.9855 13.5744 33.0646 13.3755 33.0646ZM13.3755 37.4251H6.06599C5.86708 37.4251 5.67632 37.346 5.53566 37.2054C5.39501 37.0647 5.31599 36.874 5.31599 36.6751C5.31599 36.4761 5.39501 36.2854 5.53566 36.1447C5.67632 36.0041 5.86708 35.9251 6.06599 35.9251H13.3755C13.5744 35.9251 13.7652 36.0041 13.9058 36.1447C14.0465 36.2854 14.1255 36.4761 14.1255 36.6751C14.1255 36.874 14.0465 37.0647 13.9058 37.2054C13.7652 37.346 13.5744 37.4251 13.3755 37.4251Z" fill="#E32127"/>
<path d="M2.67 46.2825C2.47109 46.2825 2.28032 46.2035 2.13967 46.0629C1.99902 45.9222 1.92 45.7315 1.92 45.5325V8.34079C1.92005 8.23461 1.94266 8.12965 1.98631 8.03285C2.02996 7.93606 2.09367 7.84964 2.17322 7.77931C2.25277 7.70897 2.34634 7.65633 2.44776 7.62487C2.54917 7.59341 2.65611 7.58383 2.7615 7.59679L16.8615 9.32779C17.0431 9.35012 17.2103 9.43808 17.3316 9.57511C17.4529 9.71214 17.5199 9.88879 17.52 10.0718V24.105C17.52 24.304 17.441 24.4947 17.3003 24.6354C17.1597 24.776 16.9689 24.855 16.77 24.855C16.5711 24.855 16.3803 24.776 16.2397 24.6354C16.099 24.4947 16.02 24.304 16.02 24.105V10.7348L3.42 9.18829V45.5325C3.42 45.7315 3.34098 45.9222 3.20033 46.0629C3.05968 46.2035 2.86891 46.2825 2.67 46.2825Z" fill="#546E7A"/>
<path d="M13.3755 41.775H6.06599C5.86708 41.775 5.67632 41.696 5.53566 41.5554C5.39501 41.4147 5.31599 41.2239 5.31599 41.025C5.31599 40.8261 5.39501 40.6353 5.53566 40.4947C5.67632 40.354 5.86708 40.275 6.06599 40.275H13.3755C13.5744 40.275 13.7652 40.354 13.9058 40.4947C14.0465 40.6353 14.1255 40.8261 14.1255 41.025C14.1255 41.2239 14.0465 41.4147 13.9058 41.5554C13.7652 41.696 13.5744 41.775 13.3755 41.775Z" fill="#E32127"/>
<path d="M45.3277 46.2825C45.1288 46.2825 44.9381 46.2035 44.7974 46.0629C44.6568 45.9222 44.5777 45.7315 44.5777 45.5325V16.8825H42.5625C42.3636 16.8825 42.1728 16.8035 42.0322 16.6629C41.8915 16.5222 41.8125 16.3315 41.8125 16.1325C41.8125 15.9336 41.8915 15.7429 42.0322 15.6022C42.1728 15.4616 42.3636 15.3825 42.5625 15.3825H45.3277C45.5267 15.3825 45.7174 15.4616 45.8581 15.6022C45.9987 15.7429 46.0777 15.9336 46.0777 16.1325V45.5325C46.0777 45.7315 45.9987 45.9222 45.8581 46.0629C45.7174 46.2035 45.5267 46.2825 45.3277 46.2825ZM31.8817 16.8833C31.6828 16.8833 31.4921 16.8043 31.3514 16.6636C31.2108 16.523 31.1317 16.3322 31.1317 16.1333V12.3C31.1317 12.1011 31.2108 11.9104 31.3514 11.7697C31.4921 11.6291 31.6828 11.55 31.8817 11.55H37.2217C37.4207 11.55 37.6114 11.6291 37.7521 11.7697C37.8927 11.9104 37.9717 12.1011 37.9717 12.3C37.9717 12.499 37.8927 12.6897 37.7521 12.8304C37.6114 12.971 37.4207 13.05 37.2217 13.05H32.6317V16.1348C32.6313 16.3335 32.5522 16.5238 32.4115 16.6642C32.2709 16.8045 32.0804 16.8833 31.8817 16.8833Z" fill="#546E7A"/>
<path d="M42.5625 16.8833C42.3636 16.8833 42.1728 16.8042 42.0322 16.6636C41.8915 16.5229 41.8125 16.3322 41.8125 16.1333V13.05H37.2217C37.0228 13.05 36.8321 12.971 36.6914 12.8303C36.5508 12.6897 36.4717 12.4989 36.4717 12.3C36.4717 12.1011 36.5508 11.9103 36.6914 11.7697C36.8321 11.629 37.0228 11.55 37.2217 11.55H42.5625C42.7614 11.55 42.9522 11.629 43.0928 11.7697C43.2335 11.9103 43.3125 12.1011 43.3125 12.3V16.1348C43.3121 16.3334 43.2329 16.5238 43.0923 16.6641C42.9517 16.8044 42.7611 16.8833 42.5625 16.8833ZM34.551 12.762C34.3521 12.762 34.1613 12.683 34.0207 12.5423C33.88 12.4017 33.801 12.2109 33.801 12.012V8.343C33.8011 8.20998 33.8366 8.07937 33.9038 7.96458C33.971 7.84979 34.0675 7.75494 34.1835 7.68975L36.8542 6.18975C36.9402 6.13728 37.0359 6.10267 37.1356 6.08797C37.2352 6.07328 37.3368 6.07882 37.4343 6.10425C37.5317 6.12968 37.6231 6.17448 37.7029 6.23598C37.7826 6.29749 37.8492 6.37443 37.8986 6.46222C37.948 6.55002 37.9792 6.64686 37.9903 6.74697C38.0015 6.84709 37.9923 6.94842 37.9635 7.04492C37.9346 7.14143 37.8866 7.23113 37.8223 7.30867C37.758 7.38621 37.6787 7.45001 37.5892 7.49625L35.301 8.784V12.0143C35.3004 12.2128 35.2211 12.403 35.0805 12.5431C34.9399 12.6833 34.7495 12.762 34.551 12.762Z" fill="#546E7A"/>
<path d="M39.8918 12.762C39.6928 12.762 39.5021 12.683 39.3614 12.5424C39.2208 12.4017 39.1418 12.2109 39.1418 12.012V8.78178L36.8543 7.49403C36.7383 7.42885 36.6418 7.334 36.5745 7.2192C36.5073 7.10441 36.4719 6.9738 36.4718 6.84078V2.46753C36.4718 2.26862 36.5508 2.07785 36.6914 1.9372C36.8321 1.79655 37.0228 1.71753 37.2218 1.71753C37.4207 1.71753 37.6114 1.79655 37.7521 1.9372C37.8927 2.07785 37.9718 2.26862 37.9718 2.46753V6.40203L40.26 7.68978C40.3758 7.75506 40.4722 7.84995 40.5393 7.96474C40.6064 8.07952 40.6417 8.21008 40.6418 8.34303V12.012C40.6418 12.2109 40.5627 12.4017 40.4221 12.5424C40.2814 12.683 40.0907 12.762 39.8918 12.762Z" fill="#546E7A"/>
<path d="M37.8577 21.1815H36.5827C36.3838 21.1815 36.1931 21.1025 36.0524 20.9618C35.9118 20.8212 35.8327 20.6304 35.8327 20.4315C35.8327 20.2326 35.9118 20.0418 36.0524 19.9012C36.1931 19.7605 36.3838 19.6815 36.5827 19.6815H37.8577C38.0567 19.6815 38.2474 19.7605 38.3881 19.9012C38.5287 20.0418 38.6077 20.2326 38.6077 20.4315C38.6077 20.6304 38.5287 20.8212 38.3881 20.9618C38.2474 21.1025 38.0567 21.1815 37.8577 21.1815ZM42.3577 21.1815H41.0827C40.8838 21.1815 40.6931 21.1025 40.5524 20.9618C40.4118 20.8212 40.3327 20.6304 40.3327 20.4315C40.3327 20.2326 40.4118 20.0418 40.5524 19.9012C40.6931 19.7605 40.8838 19.6815 41.0827 19.6815H42.3577C42.5567 19.6815 42.7474 19.7605 42.8881 19.9012C43.0287 20.0418 43.1077 20.2326 43.1077 20.4315C43.1077 20.6304 43.0287 20.8212 42.8881 20.9618C42.7474 21.1025 42.5567 21.1815 42.3577 21.1815ZM33.3577 21.1815H32.0827C31.8838 21.1815 31.6931 21.1025 31.5524 20.9618C31.4118 20.8212 31.3327 20.6304 31.3327 20.4315C31.3327 20.2326 31.4118 20.0418 31.5524 19.9012C31.6931 19.7605 31.8838 19.6815 32.0827 19.6815H33.3577C33.5567 19.6815 33.7474 19.7605 33.8881 19.9012C34.0287 20.0418 34.1077 20.2326 34.1077 20.4315C34.1077 20.6304 34.0287 20.8212 33.8881 20.9618C33.7474 21.1025 33.5567 21.1815 33.3577 21.1815ZM37.8577 25.4813H36.5827C36.3838 25.4813 36.1931 25.4022 36.0524 25.2616C35.9118 25.1209 35.8327 24.9302 35.8327 24.7313C35.8327 24.5324 35.9118 24.3416 36.0524 24.2009C36.1931 24.0603 36.3838 23.9813 36.5827 23.9813H37.8577C38.0567 23.9813 38.2474 24.0603 38.3881 24.2009C38.5287 24.3416 38.6077 24.5324 38.6077 24.7313C38.6077 24.9302 38.5287 25.1209 38.3881 25.2616C38.2474 25.4022 38.0567 25.4813 37.8577 25.4813ZM42.3577 25.4813H41.0827C40.8838 25.4813 40.6931 25.4022 40.5524 25.2616C40.4118 25.1209 40.3327 24.9302 40.3327 24.7313C40.3327 24.5324 40.4118 24.3416 40.5524 24.2009C40.6931 24.0603 40.8838 23.9813 41.0827 23.9813H42.3577C42.5567 23.9813 42.7474 24.0603 42.8881 24.2009C43.0287 24.3416 43.1077 24.5324 43.1077 24.7313C43.1077 24.9302 43.0287 25.1209 42.8881 25.2616C42.7474 25.4022 42.5567 25.4813 42.3577 25.4813ZM33.3577 25.4813H32.0827C31.8838 25.4813 31.6931 25.4022 31.5524 25.2616C31.4118 25.1209 31.3327 24.9302 31.3327 24.7313C31.3327 24.5324 31.4118 24.3416 31.5524 24.2009C31.6931 24.0603 31.8838 23.9813 32.0827 23.9813H33.3577C33.5567 23.9813 33.7474 24.0603 33.8881 24.2009C34.0287 24.3416 34.1077 24.5324 34.1077 24.7313C34.1077 24.9302 34.0287 25.1209 33.8881 25.2616C33.7474 25.4022 33.5567 25.4813 33.3577 25.4813ZM37.8577 29.7803H36.5827C36.3838 29.7803 36.1931 29.7013 36.0524 29.5606C35.9118 29.4199 35.8327 29.2292 35.8327 29.0303C35.8327 28.8314 35.9118 28.6406 36.0524 28.4999C36.1931 28.3593 36.3838 28.2803 36.5827 28.2803H37.8577C38.0567 28.2803 38.2474 28.3593 38.3881 28.4999C38.5287 28.6406 38.6077 28.8314 38.6077 29.0303C38.6077 29.2292 38.5287 29.4199 38.3881 29.5606C38.2474 29.7013 38.0567 29.7803 37.8577 29.7803ZM42.3577 29.7803H41.0827C40.8838 29.7803 40.6931 29.7013 40.5524 29.5606C40.4118 29.4199 40.3327 29.2292 40.3327 29.0303C40.3327 28.8314 40.4118 28.6406 40.5524 28.4999C40.6931 28.3593 40.8838 28.2803 41.0827 28.2803H42.3577C42.5567 28.2803 42.7474 28.3593 42.8881 28.4999C43.0287 28.6406 43.1077 28.8314 43.1077 29.0303C43.1077 29.2292 43.0287 29.4199 42.8881 29.5606C42.7474 29.7013 42.5567 29.7803 42.3577 29.7803ZM33.3577 29.7803H32.0827C31.8838 29.7803 31.6931 29.7013 31.5524 29.5606C31.4118 29.4199 31.3327 29.2292 31.3327 29.0303C31.3327 28.8314 31.4118 28.6406 31.5524 28.4999C31.6931 28.3593 31.8838 28.2803 32.0827 28.2803H33.3577C33.5567 28.2803 33.7474 28.3593 33.8881 28.4999C34.0287 28.6406 34.1077 28.8314 34.1077 29.0303C34.1077 29.2292 34.0287 29.4199 33.8881 29.5606C33.7474 29.7013 33.5567 29.7803 33.3577 29.7803ZM37.8577 34.0793H36.5827C36.3838 34.0793 36.1931 34.0003 36.0524 33.8596C35.9118 33.7189 35.8327 33.5282 35.8327 33.3293C35.8327 33.1304 35.9118 32.9396 36.0524 32.7989C36.1931 32.6583 36.3838 32.5793 36.5827 32.5793H37.8577C38.0567 32.5793 38.2474 32.6583 38.3881 32.7989C38.5287 32.9396 38.6077 33.1304 38.6077 33.3293C38.6077 33.5282 38.5287 33.7189 38.3881 33.8596C38.2474 34.0003 38.0567 34.0793 37.8577 34.0793ZM42.3577 34.0793H41.0827C40.8838 34.0793 40.6931 34.0003 40.5524 33.8596C40.4118 33.7189 40.3327 33.5282 40.3327 33.3293C40.3327 33.1304 40.4118 32.9396 40.5524 32.7989C40.6931 32.6583 40.8838 32.5793 41.0827 32.5793H42.3577C42.5567 32.5793 42.7474 32.6583 42.8881 32.7989C43.0287 32.9396 43.1077 33.1304 43.1077 33.3293C43.1077 33.5282 43.0287 33.7189 42.8881 33.8596C42.7474 34.0003 42.5567 34.0793 42.3577 34.0793ZM33.3577 34.0793H32.0827C31.8838 34.0793 31.6931 34.0003 31.5524 33.8596C31.4118 33.7189 31.3327 33.5282 31.3327 33.3293C31.3327 33.1304 31.4118 32.9396 31.5524 32.7989C31.6931 32.6583 31.8838 32.5793 32.0827 32.5793H33.3577C33.5567 32.5793 33.7474 32.6583 33.8881 32.7989C34.0287 32.9396 34.1077 33.1304 34.1077 33.3293C34.1077 33.5282 34.0287 33.7189 33.8881 33.8596C33.7474 34.0003 33.5567 34.0793 33.3577 34.0793ZM37.8577 38.379H36.5827C36.3838 38.379 36.1931 38.3 36.0524 38.1593C35.9118 38.0187 35.8327 37.8279 35.8327 37.629C35.8327 37.4301 35.9118 37.2393 36.0524 37.0987C36.1931 36.958 36.3838 36.879 36.5827 36.879H37.8577C38.0567 36.879 38.2474 36.958 38.3881 37.0987C38.5287 37.2393 38.6077 37.4301 38.6077 37.629C38.6077 37.8279 38.5287 38.0187 38.3881 38.1593C38.2474 38.3 38.0567 38.379 37.8577 38.379ZM42.3577 38.379H41.0827C40.8838 38.379 40.6931 38.3 40.5524 38.1593C40.4118 38.0187 40.3327 37.8279 40.3327 37.629C40.3327 37.4301 40.4118 37.2393 40.5524 37.0987C40.6931 36.958 40.8838 36.879 41.0827 36.879H42.3577C42.5567 36.879 42.7474 36.958 42.8881 37.0987C43.0287 37.2393 43.1077 37.4301 43.1077 37.629C43.1077 37.8279 43.0287 38.0187 42.8881 38.1593C42.7474 38.3 42.5567 38.379 42.3577 38.379ZM33.3577 38.379H32.0827C31.8838 38.379 31.6931 38.3 31.5524 38.1593C31.4118 38.0187 31.3327 37.8279 31.3327 37.629C31.3327 37.4301 31.4118 37.2393 31.5524 37.0987C31.6931 36.958 31.8838 36.879 32.0827 36.879H33.3577C33.5567 36.879 33.7474 36.958 33.8881 37.0987C34.0287 37.2393 34.1077 37.4301 34.1077 37.629C34.1077 37.8279 34.0287 38.0187 33.8881 38.1593C33.7474 38.3 33.5567 38.379 33.3577 38.379Z" fill="#E32127"/>
<path d="M26.4907 24.855H16.7715C16.5726 24.855 16.3818 24.776 16.2412 24.6353C16.1005 24.4947 16.0215 24.3039 16.0215 24.105C16.0215 23.9061 16.1005 23.7153 16.2412 23.5747C16.3818 23.434 16.5726 23.355 16.7715 23.355H26.4907C26.6897 23.355 26.8804 23.434 27.0211 23.5747C27.1617 23.7153 27.2407 23.9061 27.2407 24.105C27.2407 24.3039 27.1617 24.4947 27.0211 24.6353C26.8804 24.776 26.6897 24.855 26.4907 24.855ZM45.33 46.2825H35.73C35.5311 46.2825 35.3403 46.2035 35.1997 46.0628C35.059 45.9222 34.98 45.7314 34.98 45.5325C34.98 45.3336 35.059 45.1428 35.1997 45.0021C35.3403 44.8615 35.5311 44.7825 35.73 44.7825H45.33C45.5289 44.7825 45.7197 44.8615 45.8603 45.0021C46.001 45.1428 46.08 45.3336 46.08 45.5325C46.08 45.7314 46.001 45.9222 45.8603 46.0628C45.7197 46.2035 45.5289 46.2825 45.33 46.2825ZM33.3577 46.2825H2.67075C2.47183 46.2825 2.28107 46.2035 2.14042 46.0628C1.99976 45.9222 1.92075 45.7314 1.92075 45.5325C1.92075 45.3336 1.99976 45.1428 2.14042 45.0021C2.28107 44.8615 2.47183 44.7825 2.67075 44.7825H33.3577C33.5567 44.7825 33.7474 44.8615 33.8881 45.0021C34.0287 45.1428 34.1077 45.3336 34.1077 45.5325C34.1077 45.7314 34.0287 45.9222 33.8881 46.0628C33.7474 46.2035 33.5567 46.2825 33.3577 46.2825Z" fill="#546E7A"/>
<path d="M38.718 46.2825H35.7262C35.5273 46.2825 35.3366 46.2035 35.1959 46.0628C35.0553 45.9222 34.9762 45.7314 34.9762 45.5325V41.5575C34.9762 41.3586 35.0553 41.1678 35.1959 41.0272C35.3366 40.8865 35.5273 40.8075 35.7262 40.8075H38.718C38.9169 40.8075 39.1077 40.8865 39.2483 41.0272C39.389 41.1678 39.468 41.3586 39.468 41.5575V45.5325C39.468 45.7314 39.389 45.9222 39.2483 46.0628C39.1077 46.2035 38.9169 46.2825 38.718 46.2825ZM36.4762 44.7825H37.968V42.3075H36.4762V44.7825ZM29.115 21.8693H16.7715C16.5726 21.8693 16.3818 21.7902 16.2412 21.6496C16.1005 21.5089 16.0215 21.3182 16.0215 21.1193C16.0215 20.9204 16.1005 20.7296 16.2412 20.5889C16.3818 20.4483 16.5726 20.3693 16.7715 20.3693H29.115C29.3139 20.3693 29.5047 20.4483 29.6453 20.5889C29.786 20.7296 29.865 20.9204 29.865 21.1193C29.865 21.3182 29.786 21.5089 29.6453 21.6496C29.5047 21.7902 29.3139 21.8693 29.115 21.8693Z" fill="#546E7A"/>
<path d="M25.275 28.7078H20.613C20.4141 28.7078 20.2233 28.6287 20.0827 28.4881C19.942 28.3474 19.863 28.1567 19.863 27.9578C19.863 27.7589 19.942 27.5681 20.0827 27.4274C20.2233 27.2868 20.4141 27.2078 20.613 27.2078H25.275C25.4739 27.2078 25.6647 27.2868 25.8053 27.4274C25.946 27.5681 26.025 27.7589 26.025 27.9578C26.025 28.1567 25.946 28.3474 25.8053 28.4881C25.6647 28.6287 25.4739 28.7078 25.275 28.7078ZM25.275 33.0645H20.613C20.4141 33.0645 20.2233 32.9855 20.0827 32.8448C19.942 32.7042 19.863 32.5134 19.863 32.3145C19.863 32.1156 19.942 31.9248 20.0827 31.7842C20.2233 31.6435 20.4141 31.5645 20.613 31.5645H25.275C25.4739 31.5645 25.6647 31.6435 25.8053 31.7842C25.946 31.9248 26.025 32.1156 26.025 32.3145C26.025 32.5134 25.946 32.7042 25.8053 32.8448C25.6647 32.9855 25.4739 33.0645 25.275 33.0645ZM25.275 37.425H20.613C20.4141 37.425 20.2233 37.346 20.0827 37.2053C19.942 37.0647 19.863 36.8739 19.863 36.675C19.863 36.4761 19.942 36.2853 20.0827 36.1447C20.2233 36.004 20.4141 35.925 20.613 35.925H25.275C25.4739 35.925 25.6647 36.004 25.8053 36.1447C25.946 36.2853 26.025 36.4761 26.025 36.675C26.025 36.8739 25.946 37.0647 25.8053 37.2053C25.6647 37.346 25.4739 37.425 25.275 37.425ZM25.275 41.775H20.613C20.4141 41.775 20.2233 41.696 20.0827 41.5553C19.942 41.4147 19.863 41.2239 19.863 41.025C19.863 40.8261 19.942 40.6353 20.0827 40.4947C20.2233 40.354 20.4141 40.275 20.613 40.275H25.275C25.4739 40.275 25.6647 40.354 25.8053 40.4947C25.946 40.6353 26.025 40.8261 26.025 41.025C26.025 41.2239 25.946 41.4147 25.8053 41.5553C25.6647 41.696 25.4739 41.775 25.275 41.775Z" fill="#E32127"/>
</svg>
