<svg width="49" height="48" viewBox="0 0 49 48" fill="none" xmlns="http://www.w3.org/2000/svg">
<g clip-path="url(#clip0_95_2689)">
<path d="M46.9746 5.49752L42.6021 1.12503C41.8833 0.408178 40.9097 0.00561523 39.8946 0.00561523C38.8795 0.00561523 37.9058 0.408178 37.1871 1.12503L32.8521 5.46002L4.23957 34.065C4.14957 34.155 4.08207 34.2675 4.02957 34.3875C4.02207 34.41 4.00707 34.4325 3.99957 34.455C3.99207 34.47 3.97707 34.485 3.97707 34.5L0.152072 46.5975C0.0320725 46.98 0.137072 47.4 0.414572 47.6775C0.617072 47.8875 0.894572 48 1.17207 48C1.27707 48 1.38957 47.985 1.49457 47.9475L13.5996 44.1225C13.6146 44.115 13.6296 44.1075 13.6521 44.1C13.6746 44.0925 13.6971 44.0775 13.7196 44.07C13.8396 44.0175 13.9446 43.95 14.0346 43.86L42.6471 15.2475L46.9821 10.9125C47.7021 10.185 48.1071 9.22502 48.1071 8.20502C48.1071 7.18502 47.7021 6.21752 46.9746 5.49752ZM33.6096 7.73252L36.2271 10.35L9.13707 37.44L6.51957 34.8225L33.6096 7.73252ZM2.82207 45.2775L5.49207 36.84L11.2596 42.6075L2.82207 45.2775ZM13.2696 41.58L10.6521 38.9625L37.7496 11.8725L40.3671 14.49L13.2696 41.58ZM45.4596 9.39752L41.8896 12.9675L35.1396 6.21752L38.7096 2.64752C39.3621 1.99502 40.4271 1.98752 41.0871 2.64752L45.4596 7.02002C45.7746 7.33502 45.9546 7.76252 45.9546 8.20502C45.9546 8.64752 45.7746 9.07502 45.4596 9.39752Z" fill="#515151"/>
</g>
<defs>
<clipPath id="clip0_95_2689">
<rect width="48" height="48" fill="white" transform="translate(0.0995483)"/>
</clipPath>
</defs>
</svg>
