<svg width="49" height="48" viewBox="0 0 49 48" fill="none" xmlns="http://www.w3.org/2000/svg">
<g clip-path="url(#clip0_95_2673)">
<path d="M7.11123 21.9001C6.88623 21.5251 6.43623 21.3751 6.06123 21.6001C5.68623 21.8251 5.53623 22.2751 5.76123 22.6501C5.98623 23.0251 6.21123 23.4751 6.43623 23.8501C6.58623 24.0751 6.81123 24.2251 7.11123 24.2251C7.26123 24.2251 7.33623 24.2251 7.48623 24.1501C7.86123 23.9251 7.93623 23.4751 7.78623 23.1001C7.56123 22.6501 7.33623 22.2751 7.11123 21.9001ZM41.3112 43.7251L39.6612 45.3751C39.2862 45.7501 38.9112 45.9001 38.4612 45.7501C26.5362 42.7501 16.2612 35.6251 9.43623 25.6501C9.21123 25.2751 8.76123 25.2001 8.38623 25.4251C8.01123 25.6501 7.93623 26.1001 8.16123 26.4751C15.1362 36.8251 25.7862 44.1751 38.0862 47.2501C38.3112 47.3251 38.5362 47.3251 38.7612 47.3251C39.5112 47.3251 40.1862 47.0251 40.7862 46.4251L42.4362 44.7751C42.7362 44.4751 42.7362 44.0251 42.4362 43.7251C42.1362 43.4251 41.6112 43.4251 41.3112 43.7251Z" fill="#515151"/>
<path d="M46.4862 36.5249L38.6862 28.7249C38.1612 28.1999 37.4112 27.8999 36.5862 27.8999C35.7612 27.8999 35.0862 28.1999 34.4862 28.7249L29.0112 34.2749C28.5612 34.7249 27.8862 34.7999 27.3612 34.4999C21.8112 31.2749 17.0112 26.4749 13.7112 20.7749C13.4862 20.3249 13.4112 19.5749 13.8612 19.1249L19.3362 13.5749C19.8612 13.0499 20.1612 12.2999 20.1612 11.4749C20.1612 10.7249 19.8612 9.9749 19.3362 9.3749L11.5362 1.6499C10.4112 0.524902 8.53623 0.524902 7.41123 1.6499L1.56123 7.4249C0.961227 8.1749 0.661227 9.0749 0.886227 10.0499C1.71123 13.3499 2.83623 16.6499 4.26123 19.6499C4.48623 20.0999 4.93623 20.2499 5.31123 20.0999C5.68623 19.9499 5.83623 19.4999 5.68623 19.1249C4.26123 16.1249 3.21123 12.9749 2.38623 9.8249C2.23623 9.2249 2.53623 8.7749 2.68623 8.5499L8.46123 2.7749C8.98623 2.2499 9.96123 2.2499 10.4862 2.7749L18.2862 10.4999C18.5112 10.7249 18.6612 11.0999 18.6612 11.4749C18.6612 11.8499 18.5112 12.2249 18.2862 12.4499L12.8112 18.0749C11.8362 19.0499 11.9112 20.4749 12.3612 21.4499C15.8112 27.4499 20.7612 32.3999 26.6862 35.8499C27.8112 36.4499 29.2362 36.2249 30.1362 35.3249L35.6112 29.7749C36.1362 29.2499 37.1112 29.2499 37.6362 29.7749L45.4362 37.5749C45.9612 38.0999 45.9612 39.0749 45.4362 39.5999L43.9362 41.0999C43.6362 41.3999 43.6362 41.8499 43.9362 42.1499C44.0862 42.2999 44.3112 42.3749 44.4612 42.3749C44.6112 42.3749 44.8362 42.2999 44.9862 42.1499L46.4862 40.6499C47.6112 39.5249 47.6112 37.6499 46.4862 36.5249Z" fill="#515151"/>
<path d="M9.06122 5.55L11.5362 8.025C11.6862 8.175 11.9112 8.25 12.0612 8.25C12.2112 8.25 12.4362 8.175 12.5862 8.025C12.8862 7.725 12.8862 7.275 12.5862 6.975L10.0362 4.425C9.51122 3.9 8.53622 3.9 8.08622 4.425L5.53622 6.975C5.23622 7.275 5.23622 7.725 5.53622 8.025C5.83622 8.325 6.28622 8.325 6.58622 8.025L9.06122 5.55ZM15.0612 11.25C15.2862 11.25 15.4362 11.175 15.5862 11.025C15.8862 10.725 15.8862 10.275 15.5862 9.975L14.3862 8.775C14.0862 8.475 13.6362 8.475 13.3362 8.775C13.0362 9.075 13.0362 9.525 13.3362 9.825L14.5362 11.025C14.6862 11.175 14.8362 11.25 15.0612 11.25ZM35.8362 43.575H36.0612C36.3612 43.575 36.6612 43.35 36.8112 43.05C36.9612 42.675 36.7362 42.225 36.2862 42.075C33.7362 41.25 31.7112 40.575 29.9862 39.75C29.6112 39.6 29.1612 39.75 29.0112 40.125C28.8612 40.5 29.0112 40.95 29.3862 41.1C31.1862 42 33.2112 42.75 35.8362 43.575Z" fill="#515151"/>
</g>
<defs>
<clipPath id="clip0_95_2673">
<rect width="48" height="48" fill="white" transform="translate(0.0612183)"/>
</clipPath>
</defs>
</svg>
