<svg width="210" height="210" viewBox="0 0 210 210" fill="none" xmlns="http://www.w3.org/2000/svg">
<path opacity="0.7" d="M28.5306 70.178C28.5306 70.178 16.821 100.418 33.2766 130.868C49.7322 161.318 83.6262 177.404 110.754 191.159C137.882 204.914 166.051 198.215 179.437 175.686C192.822 153.157 174.464 137.076 174.439 104.95C174.413 72.824 179.248 64.319 161.839 37.1786C144.43 10.0382 101.753 4.02799 69.4806 24.1586C37.2078 44.2892 28.5306 70.178 28.5306 70.178Z" fill="white"/>
<path d="M32.3694 69.9085C44.4738 47.6233 74.9238 21.6085 116.697 32.4445C158.47 43.2805 186.694 66.2041 182.07 106.087C177.446 145.971 153.145 179.109 100.8 180.079C48.4554 181.049 5.82538 118.776 32.3694 69.9085Z" fill="#E31E26"/>
<path opacity="0.7" d="M32.3694 69.9085C44.4738 47.6233 74.9238 21.6085 116.697 32.4445C158.47 43.2805 186.694 66.2041 182.07 106.087C177.446 145.971 153.145 179.109 100.8 180.079C48.4554 181.049 5.82538 118.776 32.3694 69.9085Z" fill="white"/>
<path d="M184.426 100.062L157.182 104.28C156.141 104.441 155.428 105.415 155.589 106.456L158.158 123.05C158.319 124.091 159.294 124.804 160.334 124.642L187.579 120.425C188.619 120.264 189.332 119.289 189.171 118.249L186.602 101.655C186.441 100.614 185.467 99.9011 184.426 100.062Z" stroke="#263238" stroke-width="0.42" stroke-linecap="round" stroke-linejoin="round"/>
<path d="M156.005 109.12L187.017 104.32" stroke="#263238" stroke-width="0.42" stroke-linecap="round" stroke-linejoin="round"/>
<path d="M184.593 109.781L179.583 110.556L180.7 117.77L185.71 116.994L184.593 109.781Z" stroke="#263238" stroke-width="0.42" stroke-linecap="round" stroke-linejoin="round"/>
<path d="M181.618 111.733C182.677 110.473 184.415 111.313 184.008 115.223L185.558 115.992L185.709 116.975L180.702 117.752L180.497 116.437L182.387 115.702C182.387 115.702 180.623 112.922 181.618 111.733Z" stroke="#263238" stroke-width="0.42" stroke-linecap="round" stroke-linejoin="round"/>
<path d="M170.751 120.54C170.751 120.54 174.371 120.57 173.334 119.847C172.297 119.125 172.141 118.394 173.023 118.381C173.905 118.369 175.384 120.061 175.266 119.028C175.148 117.995 175.787 118.667 175.909 118.734C176.03 118.801 177.076 118.381 177.127 118.503C177.177 118.625 177.106 118.965 180.512 118.44" stroke="#263238" stroke-width="0.42" stroke-linecap="round" stroke-linejoin="round"/>
<path d="M158.634 112.342L173.821 109.99" stroke="#263238" stroke-width="0.42" stroke-linecap="round" stroke-linejoin="round"/>
<path d="M158.903 114.064L167.849 112.678" stroke="#263238" stroke-width="0.42" stroke-linecap="round" stroke-linejoin="round"/>
<path d="M159.374 117.112L171.852 115.18" stroke="#263238" stroke-width="0.42" stroke-linecap="round" stroke-linejoin="round"/>
<path d="M163.247 105.757L178.476 103.397" stroke="#263238" stroke-width="0.42" stroke-linecap="round" stroke-linejoin="round"/>
<path d="M18.2069 95.105L52.2563 88.3052L64.1465 145.392L27.9551 153.153L18.2069 95.105Z" stroke="#263238" stroke-width="0.42" stroke-linecap="round" stroke-linejoin="round"/>
<path d="M26.5854 145.023L62.7054 138.484" stroke="#263238" stroke-width="0.42" stroke-linecap="round" stroke-linejoin="round"/>
<path d="M58.426 133.615L41.1766 136.798" stroke="#263238" stroke-width="0.42" stroke-linecap="round" stroke-linejoin="round"/>
<path d="M55.869 130.766L50.829 131.509" stroke="#263238" stroke-width="0.42" stroke-linecap="round" stroke-linejoin="round"/>
<path d="M56.6369 124.921L30.8909 129.751" stroke="#263238" stroke-width="0.42" stroke-linecap="round" stroke-linejoin="round"/>
<path d="M22.6588 121.642L57.901 115.421" stroke="#263238" stroke-width="0.42" stroke-linecap="round" stroke-linejoin="round" stroke-dasharray="0.42 0.84"/>
<path d="M60.1065 143.555L38.6991 148.04" stroke="#263238" stroke-width="0.42" stroke-linecap="round" stroke-linejoin="round"/>
<path d="M59.4677 141.738L49.4045 143.544" stroke="#263238" stroke-width="0.42" stroke-linecap="round" stroke-linejoin="round"/>
<path d="M54.0259 111.656L36.3733 115.155" stroke="#263238" stroke-width="0.42" stroke-linecap="round" stroke-linejoin="round"/>
<path d="M52.63 107.722L47.0062 108.826" stroke="#263238" stroke-width="0.42" stroke-linecap="round" stroke-linejoin="round"/>
<path d="M52.2983 105L26.5859 109.956" stroke="#263238" stroke-width="0.42" stroke-linecap="round" stroke-linejoin="round"/>
<path d="M49.9646 91.7632L43.022 93.1996" stroke="#263238" stroke-width="0.42" stroke-linecap="round" stroke-linejoin="round"/>
<path d="M26.5855 96.7036L20.5963 97.867" stroke="#263238" stroke-width="0.42" stroke-linecap="round" stroke-linejoin="round"/>
<path d="M22.7776 101.169C22.9025 100.743 23.117 100.349 23.4068 100.013C23.6965 99.677 24.0548 99.4067 24.4576 99.2205" stroke="#263238" stroke-width="0.42" stroke-linecap="round" stroke-linejoin="round"/>
<path d="M25.4393 105C24.6956 104.912 24.0082 104.56 23.5018 104.009C22.9955 103.457 22.7039 102.742 22.6799 101.993" stroke="#263238" stroke-width="0.42" stroke-linecap="round" stroke-linejoin="round"/>
<path d="M27.7745 104.286C27.3481 104.67 26.8175 104.918 26.2499 105" stroke="#263238" stroke-width="0.42" stroke-linecap="round" stroke-linejoin="round"/>
<path d="M25.7333 98.9185C26.274 98.9362 26.801 99.0936 27.2629 99.3754C27.7247 99.6573 28.1057 100.054 28.3688 100.527C28.6318 101 28.768 101.532 28.7639 102.073C28.7599 102.614 28.6158 103.145 28.3457 103.614" stroke="#263238" stroke-width="0.42" stroke-linecap="round" stroke-linejoin="round"/>
<path d="M31.8566 99.7245C31.298 99.5481 30.7436 99.3465 30.1766 99.2205" stroke="#263238" stroke-width="0.42" stroke-linecap="round" stroke-linejoin="round"/>
<path d="M36.6196 100.111C36.145 101.241 33.4906 100.212 32.7178 99.9771" stroke="#263238" stroke-width="0.42" stroke-linecap="round" stroke-linejoin="round"/>
<path d="M32.0753 97.1128L37.0397 98.2804C36.9599 98.6122 36.8969 98.9482 36.8339 99.28" stroke="#263238" stroke-width="0.42" stroke-linecap="round" stroke-linejoin="round"/>
<path d="M29.6184 98.2802C30.1476 97.0202 29.9376 96.6002 31.2564 96.9068" stroke="#263238" stroke-width="0.42" stroke-linecap="round" stroke-linejoin="round"/>
<path d="M90.1948 187.434L96.7678 189.45L91.8832 183.696C94.5609 180.719 96.0941 176.887 96.2092 172.885" stroke="#263238" stroke-width="0.42" stroke-linecap="round" stroke-linejoin="round"/>
<path d="M82.2198 189.96C84.423 189.257 86.5021 188.212 88.3812 186.864" stroke="#263238" stroke-width="0.42" stroke-linecap="round" stroke-linejoin="round"/>
<path d="M56.8553 177.749C58.7915 187.077 69.0983 192.822 79.8797 190.588" stroke="#263238" stroke-width="0.42" stroke-linecap="round" stroke-linejoin="round"/>
<path d="M58.4261 167.232C58.0123 168.018 57.6612 168.835 57.3761 169.676" stroke="#263238" stroke-width="0.42" stroke-linecap="round" stroke-linejoin="round"/>
<path d="M95.8945 169.651C93.9625 160.323 83.6514 154.578 72.8742 156.816C67.9804 157.777 63.5699 160.402 60.3918 164.246" stroke="#263238" stroke-width="0.42" stroke-linecap="round" stroke-linejoin="round"/>
<path d="M84.4577 166.233C81.3539 162.852 77.1245 165.195 75.3647 168.627C72.4583 166.107 67.6577 165.489 66.0365 169.786C63.2981 177.022 72.6641 181.437 76.9985 183.033C77.4899 183.217 77.8931 183.373 78.2291 183.486C78.5021 183.255 78.8213 182.961 79.2077 182.608C82.6349 179.513 89.6909 171.936 84.4577 166.233Z" stroke="#263238" stroke-width="0.42" stroke-linecap="round" stroke-linejoin="round"/>
<path d="M110.267 28.5603L103.921 25.9185L108.226 32.1177C105.283 34.8226 103.396 38.4838 102.9 42.4497" stroke="#263238" stroke-width="0.42" stroke-linecap="round" stroke-linejoin="round"/>
<path d="M118.44 26.7922C116.181 27.2821 114.011 28.1209 112.01 29.2786" stroke="#263238" stroke-width="0.42" stroke-linecap="round" stroke-linejoin="round"/>
<path d="M142.519 41.3995C141.49 31.9201 131.783 25.2001 120.838 26.4055" stroke="#263238" stroke-width="0.42" stroke-linecap="round" stroke-linejoin="round"/>
<path d="M139.944 51.7153C140.424 50.9723 140.845 50.1929 141.204 49.3843" stroke="#263238" stroke-width="0.42" stroke-linecap="round" stroke-linejoin="round"/>
<path d="M102.9 45.7004C103.929 55.1714 113.635 61.883 124.58 60.6944C129.543 60.2068 134.185 58.0182 137.718 54.4994" stroke="#263238" stroke-width="0.42" stroke-linecap="round" stroke-linejoin="round"/>
<path d="M127.312 51.4959C132.165 48.8982 133.993 42.8583 131.396 38.0054C128.798 33.1526 122.758 31.3244 117.905 33.9221C113.052 36.5199 111.224 42.5598 113.822 47.4126C116.42 52.2655 122.46 54.0936 127.312 51.4959Z" stroke="#263238" stroke-width="0.42" stroke-linecap="round" stroke-linejoin="round"/>
<path d="M118.822 43.97L121.804 46.784L126.777 38.2202" stroke="#263238" stroke-width="0.42" stroke-linecap="round" stroke-linejoin="round"/>
<path opacity="0.2" d="M135.068 137.638C135.068 137.638 133.572 155.732 135.735 160.121C137.898 164.51 138.982 194.498 138.012 198.27C138.012 198.27 144.975 200.025 147.731 197.53C150.486 195.036 154.724 197.438 161.704 195.01C168.684 192.583 163.649 138.701 163.649 138.701L163.863 119.1L152.351 108.843L135.068 137.638Z" fill="black" fill-opacity="0.7"/>
<path d="M144.35 146.325C144.307 146.454 144.237 146.573 144.145 146.674C142.658 148.081 136.312 149.643 130.86 150.769C126.345 151.705 122.46 152.34 122.46 152.34C122.46 152.34 119.47 127.488 119.47 124.876C119.47 122.263 114.648 79.9693 114.648 79.9693L126.206 79.4695L141.541 78.8059C141.541 78.8059 141.633 79.9357 141.788 81.9097C142.801 94.4845 146.278 141.365 144.35 146.325Z" fill="#D4D5D3"/>
<mask id="mask0_113_4921" style="mask-type:luminance" maskUnits="userSpaceOnUse" x="114" y="78" width="31" height="75">
<path d="M144.35 146.344C144.307 146.473 144.237 146.592 144.145 146.692C142.658 148.099 136.312 149.662 130.86 150.787C126.345 151.724 122.46 152.358 122.46 152.358C122.46 152.358 119.47 127.507 119.47 124.894C119.47 122.282 114.648 79.9879 114.648 79.9879L126.206 79.4881L141.541 78.8245C141.541 78.8245 141.633 79.9543 141.788 81.9283C142.801 94.5031 146.278 141.383 144.35 146.344Z" fill="white"/>
</mask>
<g mask="url(#mask0_113_4921)">
<path opacity="0.2" d="M144.35 146.344L130.86 149.103L125.765 150.149C124.384 148.793 123.329 148.767 123.329 148.767L122.909 144.966L122.25 138.746L116.446 84.0201C117.706 83.1507 118.327 81.2481 118.327 81.2481L126.097 80.9667L139.558 80.4753L141.78 81.9117C142.801 94.5033 146.278 141.384 144.35 146.344Z" fill="black" fill-opacity="0.7"/>
<path d="M144.35 146.344L130.86 149.103L125.765 150.149C124.384 148.793 123.329 148.767 123.329 148.767L122.909 144.966L122.25 138.746L116.446 84.0201C117.706 83.1507 118.327 81.2481 118.327 81.2481L126.097 80.9667L139.558 80.4753L141.78 81.9117C142.801 94.5033 146.278 141.384 144.35 146.344Z" stroke="#263238" stroke-width="0.42" stroke-linecap="round" stroke-linejoin="round"/>
<path d="M124.044 130.233L128.546 130.225L128.55 131.632L127.299 132.077L124.413 132.392L124.044 130.233Z" fill="#D4D5D3" stroke="#263238" stroke-width="0.42" stroke-linecap="round" stroke-linejoin="round"/>
<path d="M124.321 133.131L127.63 133.017L128.479 133.421L128.437 135.29L124.573 135.332L124.321 133.131Z" fill="#D4D5D3" stroke="#263238" stroke-width="0.42" stroke-linecap="round" stroke-linejoin="round"/>
<path d="M124.85 136.117L128.63 135.844L128.588 137.259L126.761 137.906L124.829 137.797L124.85 136.117Z" fill="#D4D5D3" stroke="#263238" stroke-width="0.42" stroke-linecap="round" stroke-linejoin="round"/>
<path d="M125.077 138.502L128.13 138.658L128.407 139.439L127.962 140.3L125.232 140.476L124.762 139.145L125.077 138.502Z" fill="#D4D5D3" stroke="#263238" stroke-width="0.42" stroke-linecap="round" stroke-linejoin="round"/>
<path d="M128.596 141.236L129.016 142.459C129.083 142.588 129.118 142.732 129.118 142.879C129.118 143.025 129.083 143.169 129.016 143.299C128.938 143.388 128.838 143.456 128.727 143.495C128.615 143.535 128.495 143.545 128.378 143.525C128.143 143.504 127.912 143.425 127.676 143.412C126.967 143.383 126.316 143.966 125.618 143.832C125.345 143.076 124.657 141.967 125.589 141.627C125.761 141.572 128.697 141.514 128.596 141.236Z" fill="#D4D5D3" stroke="#263238" stroke-width="0.42" stroke-linecap="round" stroke-linejoin="round"/>
<path d="M128.584 144.677C128.65 144.967 128.698 145.262 128.727 145.559C128.769 145.746 128.763 145.942 128.709 146.126C128.654 146.311 128.553 146.478 128.416 146.613C128.237 146.711 128.036 146.765 127.832 146.768L125.404 146.987C125.369 146.528 125.362 146.068 125.383 145.609C125.526 145.063 125.425 145.109 125.942 144.887C126.761 144.538 127.744 145.093 128.584 144.677Z" fill="#D4D5D3" stroke="#263238" stroke-width="0.42" stroke-linecap="round" stroke-linejoin="round"/>
<path d="M119.755 85.2634C119.755 85.2634 120.671 94.1128 120.713 95.8642" stroke="#263238" stroke-width="0.42" stroke-linecap="round" stroke-linejoin="round"/>
<path d="M121.729 85.3601L122.158 90.2363" stroke="#263238" stroke-width="0.42" stroke-linecap="round" stroke-linejoin="round"/>
<path d="M128.571 83.5156L129.125 89.2318L129.902 89.3074L129.65 83.5702L128.571 83.5156Z" fill="#D4D5D3" stroke="#263238" stroke-width="0.42" stroke-linecap="round" stroke-linejoin="round"/>
<path opacity="0.2" d="M144.35 146.344C144.307 146.473 144.237 146.592 144.145 146.692C142.658 148.099 136.312 149.662 130.86 150.787V147.007L122.926 144.974L121.729 144.668L122.267 138.754L124.321 116.158L126.114 80.9833L126.19 79.4881L141.541 78.8245C141.541 78.8245 141.633 79.9543 141.788 81.9283C142.801 94.5031 146.278 141.383 144.35 146.344Z" fill="black" fill-opacity="0.7"/>
</g>
<path d="M144.35 146.325C144.307 146.454 144.237 146.573 144.145 146.674C142.658 148.081 136.312 149.643 130.86 150.769C126.345 151.705 122.46 152.34 122.46 152.34C122.46 152.34 119.47 127.488 119.47 124.876C119.47 122.263 114.648 79.9693 114.648 79.9693L126.206 79.4695L141.541 78.8059C141.541 78.8059 141.633 79.9357 141.788 81.9097C142.801 94.4845 146.278 141.365 144.35 146.325Z" stroke="#263238" stroke-width="0.42" stroke-linecap="round" stroke-linejoin="round"/>
<path d="M152.485 202.734C152.582 201.848 151.187 189.135 151.162 187.753C151.095 183.973 150.024 179.013 150.024 179.013C148.529 175.191 147.365 166.383 143.375 160.734C139.385 155.085 139.39 148.441 138.726 142.8C138.062 137.16 138.226 137.647 138.394 132.64C138.515 128.88 138.348 125.115 137.894 121.38C137.563 118.054 136.899 112.203 137.894 109.477C138.89 106.752 141.494 106.117 144.346 108.847C147.197 111.577 148.361 122.77 148.361 124.152C148.361 125.534 148.361 129.852 149.36 131.515C149.36 131.515 155.009 128.625 155.009 127.827C155.009 127.029 154.841 119.977 155.673 119.599L152.351 108.847L158.651 106.609C159.837 107.673 160.861 108.904 161.692 110.263C162.403 111.388 162.998 112.583 163.468 113.829C166.127 120.88 170.398 125.799 171.28 127.827C172.162 129.856 171.28 145.967 171.28 148.962C171.28 151.956 169.348 165.762 169.399 168.084C169.436 169.764 170.57 176.014 171.7 180.806C172.12 182.654 174.67 196.044 175.06 197.106L152.485 202.734Z" fill="white"/>
<path opacity="0.4" d="M157.458 118.89C157.416 119.793 158.495 126.991 158.495 126.991C159.243 128.785 155.161 134.9 155.161 134.9C154.279 135.396 153.901 138.47 153.901 138.47C151.137 137.857 144.808 131.494 144.808 131.494C144.808 131.494 144.06 134.102 143.22 140.557C142.38 147.013 147.706 162.347 149.974 172.935C152.242 183.523 151.162 187.74 151.162 187.74C151.095 183.96 150.024 179 150.024 179C148.529 175.178 147.365 166.371 143.375 160.722C139.385 155.073 139.39 148.441 138.726 142.8C138.062 137.16 138.226 137.647 138.394 132.64C138.515 128.88 138.348 125.115 137.894 121.38C137.563 118.054 136.899 112.203 137.894 109.477C138.89 106.752 141.494 106.117 144.346 108.847C147.197 111.577 148.361 122.77 148.361 124.152C148.361 125.534 148.361 129.852 149.36 131.515C149.36 131.515 155.009 128.625 155.009 127.827C155.009 127.029 154.841 119.977 155.673 119.599L152.351 108.847L158.651 106.609C159.837 107.673 160.861 108.904 161.692 110.263C159.655 114.337 157.5 118.327 157.458 118.89Z" fill="#D4D5D3"/>
<path opacity="0.4" d="M168.05 169.197C168.328 166.677 169.155 160.688 169.68 156.95C169.037 159.869 168 161.348 168 161.348C168 161.348 169.789 139.928 169.966 138.621C170.142 137.315 171.948 131.444 171.284 127.806C172.166 129.831 171.284 145.946 171.284 148.941C171.284 151.935 169.352 165.741 169.403 168.063C169.441 169.743 171.242 180.449 172.372 185.241C169.945 181.713 167.773 171.73 168.05 169.197Z" fill="#D4D5D3"/>
<path d="M175.052 197.085C173.725 193.263 169.462 170.373 169.411 168.063C169.361 165.753 171.293 151.931 171.293 148.941C171.293 145.95 172.175 129.831 171.293 127.806C170.411 125.782 166.139 120.859 163.481 113.808C162.476 111.05 160.824 108.574 158.663 106.588L152.363 108.826L155.686 119.578C154.846 119.956 155.022 127.008 155.022 127.806C155.022 128.604 149.373 131.494 149.373 131.494C148.373 129.814 148.373 125.513 148.373 124.131C148.373 122.749 147.21 111.552 144.358 108.826C141.506 106.101 138.898 106.726 137.907 109.456C136.916 112.186 137.575 118.033 137.907 121.359C138.361 125.099 138.529 128.867 138.407 132.632C138.239 137.638 138.071 137.143 138.739 142.792C139.406 148.441 139.402 155.085 143.388 160.734C147.374 166.383 148.541 175.191 150.037 179.013C150.037 179.013 152.859 199.412 152.498 202.734" stroke="#263238" stroke-width="0.42" stroke-linecap="round" stroke-linejoin="round"/>
<path d="M149.36 131.494C149.36 131.494 150.356 136.143 152.599 138.47" stroke="#263238" stroke-width="0.42" stroke-linecap="round" stroke-linejoin="round"/>
<path d="M149.966 133.599C149.966 133.599 154.166 134.884 155.921 134.964" stroke="#263238" stroke-width="0.42" stroke-linecap="round" stroke-linejoin="round"/>
<path d="M155.009 127.806C155.009 127.806 158 126.424 159.911 127.256" stroke="#263238" stroke-width="0.42" stroke-linecap="round" stroke-linejoin="round"/>
<path d="M155.673 119.578C155.673 119.578 158 119.364 158.495 118.2" stroke="#263238" stroke-width="0.42" stroke-linecap="round" stroke-linejoin="round"/>
<path d="M144.144 161.918C144.144 161.918 148.613 167.467 149.94 170.289" stroke="#263238" stroke-width="0.42" stroke-linecap="round" stroke-linejoin="round"/>
<path d="M170.129 137.626C169.381 142.032 168.382 154.077 168.05 156.236" stroke="#263238" stroke-width="0.42" stroke-linecap="round" stroke-linejoin="round"/>
<path d="M171.557 129.331C171.683 133.321 170.717 135.395 170.717 135.395" stroke="#263238" stroke-width="0.42" stroke-linecap="round" stroke-linejoin="round"/>
<path d="M137.206 73.5L168 81.6228C168 81.6228 157.177 114.471 154.98 118.545L151.309 147.181C151.309 147.181 131.636 146.315 122.59 143.581C122.59 143.581 128.31 113.761 128.617 109.784C128.923 105.806 137.206 73.5 137.206 73.5Z" fill="#D4D5D3"/>
<mask id="mask1_113_4921" style="mask-type:luminance" maskUnits="userSpaceOnUse" x="122" y="73" width="46" height="75">
<path d="M137.206 73.5L168 81.6228C168 81.6228 157.177 114.471 154.98 118.545L151.309 147.181C151.309 147.181 131.636 146.315 122.59 143.581C122.59 143.581 128.31 113.761 128.617 109.784C128.923 105.806 137.206 73.5 137.206 73.5Z" fill="white"/>
</mask>
<g mask="url(#mask1_113_4921)">
<path opacity="0.2" d="M130.583 108.023L137.37 79.0054C137.37 79.0054 140.289 77.5564 141.419 76.2334L163.481 82.5082C163.481 82.5082 163.548 84.6712 164.813 86.0572L153.678 118.141L150.978 141.791C150.978 141.791 147.387 142.077 147.043 144.731C147.043 144.731 135.4 145.361 127.592 143.303C127.592 143.303 126.673 140.435 125.266 138.62L130.583 108.023Z" fill="black" fill-opacity="0.7"/>
<path d="M130.583 108.023L137.37 79.0054C137.37 79.0054 140.289 77.5564 141.419 76.2334L163.481 82.5082C163.481 82.5082 163.548 84.6712 164.813 86.0572L153.678 118.141L150.978 141.791C150.978 141.791 147.387 142.077 147.043 144.731C147.043 144.731 135.4 145.361 127.592 143.303C127.592 143.303 126.673 140.435 125.266 138.62L130.583 108.023Z" stroke="#263238" stroke-width="0.42" stroke-linecap="round" stroke-linejoin="round"/>
<path d="M136.232 109.532C136.232 109.532 138.235 101.972 145.291 103.328C152.347 104.685 148.361 114 148.361 114C148.361 114 148.403 121.518 142.679 120.481C137.714 119.582 135.068 116.856 136.232 109.532Z" fill="#D4D5D3" stroke="#263238" stroke-width="0.42" stroke-linecap="round" stroke-linejoin="round"/>
<path d="M140.054 81.7654C140.054 81.7654 137.92 90.4048 137.37 92.068" stroke="#263238" stroke-width="0.42" stroke-linecap="round" stroke-linejoin="round"/>
<path d="M141.881 82.5127L140.638 87.2503" stroke="#263238" stroke-width="0.42" stroke-linecap="round" stroke-linejoin="round"/>
<path d="M157.458 85.835L161.705 87.3302L161.238 88.6616H159.911L157.085 87.998L157.458 85.835Z" fill="#D4D5D3" stroke="#263238" stroke-width="0.42" stroke-linecap="round" stroke-linejoin="round"/>
<path d="M156.753 88.6611L159.911 89.6565L160.575 90.3201L159.911 92.0673L156.253 90.8199L156.753 88.6611Z" fill="#D4D5D3" stroke="#263238" stroke-width="0.42" stroke-linecap="round" stroke-linejoin="round"/>
<path d="M156.253 91.6519L159.911 92.6599L159.395 93.9787H157.458L155.673 93.2311L156.253 91.6519Z" fill="#D4D5D3" stroke="#263238" stroke-width="0.42" stroke-linecap="round" stroke-linejoin="round"/>
<path d="M155.674 93.9785L158.496 95.1419V95.9693L157.79 96.6371L155.161 95.8895V94.4741L155.674 93.9785Z" fill="#D4D5D3" stroke="#263238" stroke-width="0.42" stroke-linecap="round" stroke-linejoin="round"/>
<path d="M158.08 97.7288V99.0224C158.102 99.1649 158.09 99.3105 158.046 99.4476C158.001 99.5847 157.925 99.7095 157.824 99.812C157.72 99.869 157.603 99.8988 157.484 99.8988C157.365 99.8988 157.248 99.869 157.144 99.812C156.929 99.7112 156.724 99.56 156.522 99.4718C155.863 99.2072 155.052 99.539 154.422 99.1862C154.422 98.384 154.141 97.1114 155.132 97.0862C155.296 97.0988 158.08 98.0228 158.08 97.7288Z" fill="#D4D5D3" stroke="#263238" stroke-width="0.42" stroke-linecap="round" stroke-linejoin="round"/>
<path d="M156.917 100.967C156.885 101.263 156.832 101.557 156.757 101.845C156.665 102.219 156.484 102.634 156.11 102.735C155.909 102.769 155.703 102.751 155.51 102.685L153.149 102.063C153.263 101.621 153.404 101.187 153.569 100.761C153.888 100.295 153.779 100.303 154.338 100.266C155.245 100.228 155.984 101.08 156.917 100.967Z" fill="#D4D5D3" stroke="#263238" stroke-width="0.42" stroke-linecap="round" stroke-linejoin="round"/>
<path d="M148.945 83.0964L147.53 88.6614L148.235 88.9932L149.94 83.508L148.945 83.0964Z" fill="#D4D5D3" stroke="#263238" stroke-width="0.42" stroke-linecap="round" stroke-linejoin="round"/>
<path d="M131.209 120.468L135.568 121.598L135.215 122.959L133.892 123.076L131.02 122.652L131.209 120.468Z" fill="#D4D5D3" stroke="#263238" stroke-width="0.42" stroke-linecap="round" stroke-linejoin="round"/>
<path d="M130.746 123.345L133.976 124.068L134.699 124.672L134.186 126.47L130.436 125.538L130.746 123.345Z" fill="#D4D5D3" stroke="#263238" stroke-width="0.42" stroke-linecap="round" stroke-linejoin="round"/>
<path d="M130.507 126.369L134.237 127.058L133.833 128.415L131.906 128.583L130.062 127.99L130.507 126.369Z" fill="#D4D5D3" stroke="#263238" stroke-width="0.42" stroke-linecap="round" stroke-linejoin="round"/>
<path d="M130.125 128.733L133.04 129.653L133.111 130.481L132.464 131.203L129.78 130.682L129.659 129.275L130.125 128.733Z" fill="#D4D5D3" stroke="#263238" stroke-width="0.42" stroke-linecap="round" stroke-linejoin="round"/>
<path d="M132.842 132.266L132.956 133.555C132.99 133.696 132.991 133.842 132.958 133.983C132.925 134.124 132.86 134.255 132.767 134.366C132.668 134.431 132.554 134.471 132.436 134.48C132.317 134.49 132.199 134.469 132.091 134.42C131.868 134.341 131.671 134.206 131.44 134.139C130.763 133.929 129.982 134.328 129.34 134.03C129.264 133.232 128.882 131.989 129.865 131.892C130.016 131.884 132.868 132.56 132.842 132.266Z" fill="#D4D5D3" stroke="#263238" stroke-width="0.42" stroke-linecap="round" stroke-linejoin="round"/>
<path d="M131.964 135.592C131.959 135.898 131.93 136.202 131.88 136.504C131.817 136.882 131.675 137.314 131.313 137.445C131.115 137.495 130.907 137.495 130.709 137.445L128.306 137.025C128.387 136.573 128.495 136.127 128.63 135.689C128.907 135.198 128.798 135.214 129.352 135.13C130.234 135 131.04 135.786 131.964 135.592Z" fill="#D4D5D3" stroke="#263238" stroke-width="0.42" stroke-linecap="round" stroke-linejoin="round"/>
<path d="M149.361 139.67C149.361 139.67 150.36 128.523 150.36 127.402" stroke="#263238" stroke-width="0.42" stroke-linecap="round" stroke-linejoin="round"/>
<path d="M147.366 139.17C147.366 139.17 147.786 133.374 147.861 132.366" stroke="#263238" stroke-width="0.42" stroke-linecap="round" stroke-linejoin="round"/>
<path d="M139.575 134.983L138.227 141.581H139.575L140.553 134.983H139.575Z" fill="#D4D5D3" stroke="#263238" stroke-width="0.42" stroke-linecap="round" stroke-linejoin="round"/>
<path opacity="0.2" d="M155.052 118.385C152.137 117.776 149.537 116.881 147.614 115.592C147.614 115.592 149.008 119.598 153.951 126.428L151.293 147.184C151.293 147.184 138.453 146.621 128.751 144.962C131.733 136.562 137.151 120.644 136.509 117.49C135.639 113.16 138.71 108.048 138.71 108.048C148.416 106.301 157.828 98.9639 164.288 92.7605C160.999 102.483 156.509 115.503 155.052 118.385Z" fill="black" fill-opacity="0.7"/>
</g>
<path d="M137.206 73.5L168 81.6228C168 81.6228 157.177 114.471 154.98 118.545L151.309 147.181C151.309 147.181 131.636 146.315 122.59 143.581C122.59 143.581 128.31 113.761 128.617 109.784C128.923 105.806 137.206 73.5 137.206 73.5Z" stroke="#263238" stroke-width="0.42" stroke-linecap="round" stroke-linejoin="round"/>
<path d="M154.28 138.878L149.941 170.278C148.975 168.224 146.342 164.721 144.981 162.97C144.477 162.314 144.141 161.907 144.141 161.907L143.372 160.723C139.386 155.074 139.386 148.429 138.723 142.78C138.059 137.131 138.223 137.627 138.391 132.62C138.513 128.863 138.348 125.101 137.895 121.369C137.564 118.042 136.9 112.192 137.895 109.466C138.383 108.13 139.26 107.299 140.361 107.122C141.461 106.946 142.881 107.45 144.347 108.836C147.198 111.562 148.362 122.759 148.362 124.141C148.362 125.522 148.362 129.84 149.361 131.503C149.361 131.482 152.041 136.552 154.28 138.878Z" fill="white"/>
<path opacity="0.4" d="M143.044 158.496C143.951 159.655 144.568 161.327 144.98 162.982C144.476 162.326 144.14 161.919 144.14 161.919L143.371 160.735C139.385 155.086 139.385 148.441 138.722 142.792C138.058 137.143 138.222 137.639 138.39 132.632C138.512 128.875 138.346 125.113 137.894 121.381C137.563 118.054 136.899 112.204 137.894 109.478C138.382 108.142 139.259 107.311 140.36 107.134C142.46 107.731 144.56 109.868 145.291 113.527C146.551 119.667 140.868 114.707 139.553 119.911C138.239 125.114 140.15 126.517 140.935 127.828C141.721 129.138 140.717 132.028 139.553 135.908C138.39 139.789 140.553 155.308 143.044 158.496Z" fill="#D4D5D3"/>
<path d="M154.279 138.89C152.036 136.563 149.36 131.493 149.36 131.493C148.361 129.813 148.361 125.513 148.361 124.131C148.361 122.749 147.197 111.552 144.346 108.826C141.494 106.1 138.886 106.726 137.894 109.456C136.903 112.186 137.563 118.032 137.894 121.359C138.349 125.098 138.516 128.867 138.394 132.632C138.226 137.638 138.058 137.142 138.726 142.791C139.394 148.44 139.39 155.085 143.375 160.734L144.144 161.918C144.144 161.918 148.613 167.466 149.94 170.289" stroke="#263238" stroke-width="0.42" stroke-linecap="round" stroke-linejoin="round"/>
<path d="M139.574 125.586C139.574 125.586 143.384 123.616 145.291 123.784" stroke="#263238" stroke-width="0.42" stroke-linecap="round" stroke-linejoin="round"/>
<path opacity="0.2" d="M95.2591 87.8828C95.2591 87.8828 85.6243 77.2736 84.9607 76.6226C84.2971 75.9716 83.7973 64.6568 81.9661 59.6756C80.1349 54.6944 79.2487 25.4456 79.2487 25.4456C79.2487 25.4456 77.5057 23.2868 72.5917 24.4502C67.6777 25.6136 62.8603 23.4506 57.3793 26.609C51.8983 29.7674 62.5285 74.9426 62.5285 74.9426L73.3183 109.328L95.2591 87.8828Z" fill="black" fill-opacity="0.7"/>
<path d="M101.879 87.973C101.879 87.973 97.5619 115.554 93.0595 119.208C90.4597 121.308 86.4067 122.274 82.8115 122.148C80.2075 122.056 77.8387 121.401 76.4443 120.212C73.1221 117.386 68.4643 115.89 66.1459 114.063C63.8275 112.236 63.8191 105.756 62.3239 100.271C60.8287 94.7854 58.6657 94.6216 58.1701 89.1406C57.6745 83.6596 55.6753 66.8806 52.0633 62.2228C48.4513 57.565 48.3673 53.9152 46.8721 49.1776C45.3769 44.44 34.4401 27.2998 34.4401 27.2998L61.1017 21.8398C61.1017 21.8398 63.7225 32.6884 66.5281 41.5378C67.8595 45.7378 69.2329 49.4926 70.3837 51.4162C72.5934 55.137 74.5075 59.0255 76.1083 63.046C79.1239 66.2044 80.7745 73.2016 81.2743 79.3294L88.4143 83.311C93.9037 84.8104 101.879 87.973 101.879 87.973Z" fill="white"/>
<path opacity="0.4" d="M101.879 87.9734C101.879 87.9734 97.5618 115.555 93.0594 119.209C90.4596 121.309 86.4066 122.275 82.8114 122.149C74.2854 120.049 71.9922 115.294 70.8372 114.144C69.3 112.611 67.2798 103.27 68.3886 97.835C69.4974 92.4002 68.6994 90.3884 67.7838 87.734C65.7552 81.854 71.9418 78.6872 72.5802 76.4612C73.2186 74.2352 73.0002 61.7864 70.2156 57.7376C68.7372 55.583 64.9278 44.4782 66.5322 41.5466C67.8636 45.7466 69.237 49.5014 70.3878 51.425C72.5975 55.1458 74.5116 59.0343 76.1124 63.0548C79.128 66.2132 80.7786 73.2104 81.2784 79.3382L88.4184 83.3198C93.9036 84.8108 101.879 87.9734 101.879 87.9734Z" fill="#E31E26"/>
<path d="M69.3205 86.0205C69.3205 86.0205 67.8169 87.7887 66.4897 87.7887" stroke="#263238" stroke-width="0.42" stroke-linecap="round" stroke-linejoin="round"/>
<path d="M72.5927 92.0098C72.5927 92.0098 70.9757 95.4454 68.3927 96.2098" stroke="#263238" stroke-width="0.42" stroke-linecap="round" stroke-linejoin="round"/>
<path d="M69.7196 112.128C69.7196 112.128 73.3778 110.549 73.9574 107.89" stroke="#263238" stroke-width="0.42" stroke-linecap="round" stroke-linejoin="round"/>
<path d="M88.4211 83.2988C88.4211 83.2988 87.5055 84.4622 87.5055 85.3988" stroke="#263238" stroke-width="0.42" stroke-linecap="round" stroke-linejoin="round"/>
<path d="M61.1185 21.8398C61.1185 21.8398 66.8221 45.4312 70.4005 51.433C72.6102 55.1538 74.5243 59.0423 76.1251 63.0628C79.1407 66.2212 80.7913 73.2226 81.2911 79.3504L88.4311 83.332C93.9121 84.8272 101.871 87.9856 101.871 87.9856C101.871 87.9856 97.5535 115.567 93.0511 119.221C88.5487 122.875 79.8001 123.026 76.4401 120.204C73.0801 117.381 68.4601 115.882 66.1417 114.055C63.8233 112.228 63.8149 105.747 62.3197 100.262C60.8245 94.777 58.6615 94.6132 58.1659 89.1322C57.6703 83.6512 55.6711 66.8722 52.0591 62.2144C48.4471 57.5566 48.3631 53.9068 46.8679 49.1692C45.3727 44.4316 34.4401 27.2998 34.4401 27.2998" stroke="#263238" stroke-width="0.42" stroke-linecap="round" stroke-linejoin="round"/>
<path d="M111.979 86.1699L67.8833 154.046L78.2909 155.205L109.913 156.52L113.151 96.1449L111.979 86.1699Z" fill="#263238" stroke="#263238" stroke-width="0.42" stroke-linecap="round" stroke-linejoin="round"/>
<path d="M111.981 86.1801L107.907 155.375L67.8848 154.06L71.0432 101.04L72.026 84.5757L89.4644 85.2771L111.981 86.1801Z" fill="#757575"/>
<mask id="mask2_113_4921" style="mask-type:luminance" maskUnits="userSpaceOnUse" x="67" y="84" width="45" height="72">
<path d="M111.981 86.1801L107.907 155.375L67.8848 154.06L71.0432 101.04L72.026 84.5757L89.4644 85.2771L111.981 86.1801Z" fill="white"/>
</mask>
<g mask="url(#mask2_113_4921)">
<path d="M101.917 147.408C104.608 147.408 106.789 145.227 106.789 142.536C106.789 139.845 104.608 137.664 101.917 137.664C99.2266 137.664 97.0453 139.845 97.0453 142.536C97.0453 145.227 99.2266 147.408 101.917 147.408Z" fill="#BFBFBF" stroke="#263238" stroke-width="0.42" stroke-miterlimit="10"/>
<path d="M100.542 139.285L103.843 139.718" stroke="#263238" stroke-width="0.42" stroke-linecap="round" stroke-linejoin="round"/>
<path d="M99.6565 140.087L104.617 140.57" stroke="#263238" stroke-width="0.42" stroke-linecap="round" stroke-linejoin="round"/>
<path d="M99.1075 144.992L104.072 145.475" stroke="#263238" stroke-width="0.42" stroke-linecap="round" stroke-linejoin="round"/>
<path d="M101.279 141.208C101.415 141.242 101.559 141.222 101.681 141.153C101.804 141.083 101.894 140.969 101.934 140.834L102.304 140.872L101.93 144.379L101.38 144.32L101.665 141.645L101.245 141.599L101.279 141.208Z" fill="#263238"/>
<path d="M103.112 141.344C103.33 141.344 103.431 141.508 103.406 141.739V141.781L103.192 141.76V141.722C103.192 141.621 103.166 141.575 103.095 141.566C103.024 141.558 102.977 141.596 102.969 141.697C102.961 141.797 102.994 141.886 103.129 142.028C103.197 142.086 103.25 142.159 103.285 142.242C103.319 142.324 103.333 142.414 103.326 142.503C103.301 142.734 103.175 142.852 102.952 142.826C102.73 142.801 102.633 142.658 102.654 142.432V142.343L102.864 142.364V142.469C102.864 142.57 102.893 142.612 102.965 142.621C103.036 142.629 103.087 142.595 103.095 142.495C103.103 142.394 103.07 142.306 102.935 142.163C102.867 142.105 102.814 142.032 102.779 141.949C102.745 141.867 102.731 141.777 102.738 141.688C102.767 141.436 102.898 141.302 103.112 141.344Z" fill="#263238"/>
<path d="M103.509 141.414L104.206 141.485L104.181 141.691L103.946 141.666L103.816 142.892L103.593 142.871L103.723 141.641L103.488 141.615L103.509 141.414Z" fill="#263238"/>
<path d="M91.701 89.2417L83.888 87.5367C83.6863 87.4927 83.4871 87.6205 83.4431 87.8222L82.3802 92.693C82.3362 92.8947 82.4641 93.0939 82.6658 93.1379L90.4787 94.8428C90.6804 94.8869 90.8796 94.759 90.9236 94.5573L91.9865 89.6866C92.0305 89.4849 91.9027 89.2857 91.701 89.2417Z" fill="white" stroke="#263238" stroke-width="0.42" stroke-linecap="round" stroke-linejoin="round"/>
<path d="M85.2585 92.3377L85.229 92.3083C85.229 92.3083 85.2291 92.2579 85.2081 92.2369C85.188 92.218 85.1723 92.1951 85.1619 92.1697C85.16 92.1614 85.16 92.1528 85.1619 92.1445C85.1619 92.1445 85.1829 92.1445 85.1955 92.1151C85.2058 92.1088 85.2146 92.1002 85.2211 92.09C85.2277 92.0799 85.2318 92.0683 85.2333 92.0563C85.2316 92.0494 85.2316 92.0422 85.2333 92.0353H85.2585C85.2585 91.9555 85.2081 91.8967 85.1577 91.8337C85.0359 91.6825 85.0107 91.6069 85.0359 91.5061C85.0611 91.4053 85.1031 91.3759 85.1745 91.3885C85.2459 91.4011 85.2753 91.4515 85.2543 91.5523V91.6111L85.4643 91.6573V91.6111C85.4926 91.5368 85.4915 91.4545 85.461 91.3811C85.4305 91.3076 85.3731 91.2487 85.3005 91.2163L85.3257 91.1155L85.1451 91.0735L85.124 91.1785C84.9602 91.1785 84.8553 91.2835 84.8133 91.4725C84.7972 91.557 84.8031 91.6442 84.8303 91.7258C84.8575 91.8074 84.9051 91.8807 84.9687 91.9387C85.0905 92.0857 85.1157 92.1697 85.0905 92.2663C85.0653 92.3629 85.0191 92.3965 84.9477 92.3797C84.8763 92.3629 84.8427 92.3167 84.8637 92.2201L84.8889 92.1067L84.6789 92.0605V92.1571C84.6615 92.1953 84.652 92.2367 84.6509 92.2787C84.6497 92.3207 84.657 92.3625 84.6723 92.4016C84.6875 92.4407 84.7105 92.4764 84.7397 92.5065C84.769 92.5367 84.804 92.5607 84.8427 92.5771V92.6779L85.0233 92.7199L85.0443 92.6149H85.1535C85.1865 92.6034 85.2166 92.5847 85.2417 92.5603C85.2673 92.5345 85.2886 92.5047 85.3047 92.4721C85.2585 92.3629 85.2585 92.3503 85.2585 92.3377Z" fill="#263238"/>
<path d="M86.4127 92.2654C86.4108 92.2318 86.4023 92.199 86.3875 92.1688C86.3834 92.1522 86.3834 92.1349 86.3875 92.1184C86.394 92.1057 86.4042 92.0954 86.4169 92.089C86.5303 91.9882 86.3917 91.8538 86.2825 91.8286C86.2448 91.8192 86.2052 91.8196 86.1677 91.8299C86.1302 91.8402 86.096 91.86 86.0683 91.8874L86.1565 91.5598L86.5429 91.6438L86.5849 91.4422L86.0053 91.3162C85.9931 91.3443 85.9846 91.374 85.9801 91.4044C85.9801 91.4338 86.0179 91.4422 86.0179 91.4758C86.0179 91.5094 86.0179 91.5052 86.0179 91.522C86.0256 91.5466 86.042 91.5675 86.0641 91.5808C86.0851 91.5808 86.1061 91.6186 86.1019 91.6438C86.1048 91.6519 86.1048 91.6608 86.1019 91.669C86.086 91.7076 86.058 91.74 86.0221 91.7614C86.0056 91.7645 85.9907 91.7735 85.9801 91.7866V91.8118C85.9801 91.8412 85.9465 91.858 85.9213 91.8748C85.8961 91.8916 85.8331 92.026 85.8079 92.1184L86.0179 92.1646V92.1226C86.0389 92.0218 86.0935 91.9966 86.1607 92.0092C86.2279 92.0218 86.2699 92.0722 86.2447 92.173L86.1775 92.4838C86.1775 92.5804 86.1061 92.6098 86.0347 92.593C85.9633 92.5762 85.9297 92.5342 85.9507 92.4334L85.9801 92.3032L85.7701 92.257L85.7449 92.3746C85.7286 92.4201 85.7223 92.4687 85.7262 92.5169C85.7302 92.5651 85.7444 92.6119 85.7679 92.6542C85.7914 92.6965 85.8237 92.7333 85.8626 92.7622C85.9014 92.791 85.946 92.8112 85.9933 92.8215C86.0406 92.8317 86.0895 92.8317 86.1368 92.8216C86.1841 92.8114 86.2287 92.7912 86.2676 92.7624C86.3065 92.7337 86.3389 92.6969 86.3624 92.6547C86.386 92.6124 86.4003 92.5656 86.4043 92.5174C86.4192 92.4342 86.4221 92.3493 86.4127 92.2654Z" fill="#263238"/>
<path d="M89.1576 92.8711C89.1537 92.8379 89.1452 92.8054 89.1324 92.7745C89.1283 92.7579 89.1283 92.7406 89.1324 92.7241C89.1389 92.7114 89.1491 92.7011 89.1618 92.6947C89.271 92.5939 89.1324 92.4595 89.0274 92.4343C88.9897 92.4249 88.9501 92.4254 88.9126 92.4357C88.8751 92.446 88.8409 92.4657 88.8132 92.4931L88.9014 92.1655L89.2878 92.2495L89.3298 92.0479L88.7502 91.9219C88.7361 91.9493 88.7275 91.9793 88.725 92.0101C88.725 92.0395 88.7586 92.0479 88.7628 92.0815C88.767 92.1151 88.7628 92.1109 88.7628 92.1277C88.7705 92.1523 88.7869 92.1732 88.809 92.1865C88.83 92.1865 88.851 92.2243 88.8468 92.2495C88.8426 92.2747 88.8468 92.2495 88.8468 92.2747C88.8307 92.3145 88.8009 92.3472 88.7628 92.3671C88.7479 92.3714 88.7347 92.3802 88.725 92.3923C88.725 92.3923 88.725 92.3923 88.725 92.4175C88.725 92.4427 88.6956 92.4637 88.6704 92.4805C88.6452 92.4973 88.5822 92.6317 88.557 92.7241L88.767 92.7703V92.7283C88.788 92.6275 88.8426 92.6023 88.9098 92.6149C88.977 92.6275 89.0148 92.6779 88.9938 92.7787L88.9266 93.0895C88.9266 93.1861 88.8552 93.2155 88.7838 93.1987C88.7124 93.1819 88.6788 93.1399 88.6998 93.0391L88.7292 92.9089L88.5192 92.8627L88.494 92.9803C88.4813 93.0245 88.4778 93.0708 88.4838 93.1163C88.4897 93.1619 88.5049 93.2058 88.5285 93.2453C88.552 93.2847 88.5834 93.3189 88.6208 93.3458C88.6581 93.3726 88.7005 93.3915 88.7454 93.4013C88.7903 93.4111 88.8368 93.4116 88.8819 93.4027C88.9269 93.3938 88.9697 93.3758 89.0076 93.3497C89.0454 93.3236 89.0775 93.29 89.1019 93.2511C89.1263 93.2121 89.1424 93.1685 89.1492 93.1231C89.166 93.0401 89.1689 92.955 89.1576 92.8711Z" fill="#263238"/>
<path d="M86.892 91.8506C86.913 91.7498 86.9676 91.7204 87.0348 91.7372C87.0563 91.7401 87.0762 91.7506 87.0908 91.7667C87.1054 91.7829 87.1138 91.8036 87.1146 91.8254H87.186C87.1884 91.8376 87.1934 91.8491 87.2007 91.8593C87.2079 91.8694 87.2172 91.8779 87.228 91.8842C87.2532 91.9052 87.2868 91.9178 87.3162 91.9388C87.33 91.8946 87.3344 91.848 87.3289 91.8021C87.3235 91.7561 87.3083 91.7119 87.2845 91.6722C87.2607 91.6325 87.2288 91.5983 87.1908 91.5719C87.1528 91.5454 87.1097 91.5273 87.0642 91.5188C87.0179 91.5032 86.9686 91.4985 86.9202 91.505C86.8718 91.5115 86.8256 91.529 86.785 91.5562C86.7444 91.5834 86.7107 91.6195 86.6862 91.6618C86.6618 91.7041 86.6474 91.7514 86.6442 91.8002C86.6422 91.8267 86.6422 91.8534 86.6442 91.88C86.6442 91.9472 86.6442 91.9262 86.7114 91.9514C86.7786 91.9766 86.7996 92.0102 86.7408 92.0312H86.7786C86.7786 92.0312 86.7786 92.0606 86.7786 92.0732C86.7786 92.0858 86.7786 92.0942 86.7576 92.111C86.7614 92.1218 86.7614 92.1337 86.7576 92.1446C86.7576 92.1446 86.724 92.1992 86.7156 92.2076C86.7033 92.2284 86.686 92.2457 86.6652 92.258C86.6106 92.2916 86.5854 92.258 86.5686 92.342C86.5518 92.426 86.5476 92.4344 86.5392 92.4764C86.5231 92.5223 86.5169 92.5712 86.521 92.6198C86.5252 92.6683 86.5396 92.7154 86.5633 92.758C86.587 92.8006 86.6195 92.8376 86.6586 92.8667C86.6977 92.8958 86.7425 92.9162 86.7901 92.9267C86.8377 92.9372 86.887 92.9374 86.9347 92.9275C86.9824 92.9175 87.0274 92.8975 87.0668 92.8688C87.1062 92.8402 87.1391 92.8035 87.1632 92.7611C87.1874 92.7188 87.2023 92.6719 87.207 92.6234L87.2742 92.3294H87.249C87.1992 92.3069 87.1514 92.2802 87.1062 92.2496L87.0684 92.216L86.9844 92.594C86.9844 92.6948 86.9088 92.7242 86.8416 92.7074C86.7744 92.6906 86.7366 92.6444 86.7576 92.5436L86.8794 91.9724C86.8766 91.9369 86.8855 91.9015 86.9046 91.8716L86.892 91.8506Z" fill="#263238"/>
<path d="M87.9247 92.5422H87.9457C87.9457 92.5212 87.9457 92.5002 87.9457 92.4708H88.0381L88.1095 92.1474C88.1256 92.1014 88.1318 92.0525 88.1276 92.004C88.1235 91.9554 88.109 91.9083 88.0853 91.8657C88.0616 91.8232 88.0291 91.7861 87.99 91.757C87.9509 91.7279 87.9061 91.7075 87.8585 91.697C87.8109 91.6865 87.7617 91.6863 87.714 91.6963C87.6663 91.7062 87.6212 91.7262 87.5818 91.7549C87.5424 91.7836 87.5096 91.8203 87.4854 91.8626C87.4612 91.9049 87.4463 91.9519 87.4417 92.0004V92.0592C87.4711 92.0844 87.4879 92.1264 87.5173 92.1474C87.5467 92.1684 87.5929 92.1474 87.5803 92.2188C87.5677 92.2902 87.5551 92.2776 87.5803 92.2986C87.6055 92.3196 87.6097 92.2986 87.6139 92.328C87.619 92.3346 87.6217 92.3427 87.6217 92.3511C87.6217 92.3594 87.619 92.3675 87.6139 92.3742C87.6139 92.3742 87.5845 92.3742 87.5803 92.412C87.5761 92.4498 87.5803 92.475 87.5551 92.4834C87.5299 92.4918 87.4753 92.433 87.4291 92.4372C87.4125 92.442 87.3975 92.4511 87.3857 92.4637C87.3739 92.4763 87.3657 92.4917 87.3619 92.5086C87.3404 92.58 87.325 92.653 87.3157 92.727C87.3003 92.7714 87.295 92.8187 87.3001 92.8654C87.3051 92.9121 87.3204 92.9571 87.3449 92.9973C87.3694 93.0374 87.4024 93.0716 87.4417 93.0975C87.4809 93.1234 87.5253 93.1403 87.5719 93.147C87.6196 93.1598 87.6695 93.1619 87.7182 93.1532C87.7668 93.1445 87.8129 93.1251 87.8533 93.0966C87.8905 93.0645 87.9217 93.0261 87.9457 92.9832C87.9646 92.9617 87.975 92.9341 87.975 92.9055C87.975 92.8769 87.9646 92.8492 87.9457 92.8278H87.9247L87.8953 92.727C87.8953 92.727 87.8953 92.727 87.9247 92.7018C87.9541 92.6766 87.9247 92.622 87.9667 92.5926C88.0087 92.5632 87.9163 92.5506 87.9247 92.5422ZM87.7483 92.8278C87.7273 92.9286 87.6727 92.958 87.6013 92.9412C87.5299 92.9244 87.4963 92.8782 87.5173 92.7774L87.6853 92.0214C87.7063 91.9206 87.7567 91.8912 87.8281 91.908C87.8995 91.9248 87.9331 91.971 87.9121 92.0718L87.7483 92.8278Z" fill="#263238"/>
<path d="M88.3009 93.0811L88.2547 93.2953L88.0405 93.2491L88.0867 93.0349L88.3009 93.0811Z" fill="#263238"/>
<path d="M90.0566 92.7075C90.0818 92.7075 90.0818 92.6109 90.0902 92.5773C90.1063 92.5313 90.1125 92.4824 90.1083 92.4339C90.1042 92.3853 90.0898 92.3382 90.066 92.2957C90.0423 92.2531 90.0098 92.216 89.9707 92.187C89.9316 92.1579 89.8868 92.1374 89.8392 92.1269C89.7916 92.1165 89.7424 92.1162 89.6947 92.1262C89.647 92.1362 89.602 92.1562 89.5626 92.1848C89.5232 92.2135 89.4903 92.2502 89.4661 92.2925C89.442 92.3348 89.4271 92.3818 89.4224 92.4303L89.3594 92.7117C89.414 92.7621 89.3594 92.8419 89.3846 92.9007C89.4098 92.9595 89.3846 92.9007 89.3846 92.9259C89.3846 92.9511 89.3216 92.9637 89.3216 92.9973C89.3216 92.9973 89.288 93.0477 89.267 93.0729C89.2537 93.0928 89.2465 93.1162 89.246 93.1401C89.2299 93.1861 89.2237 93.235 89.2278 93.2835C89.232 93.3321 89.2464 93.3792 89.2701 93.4217C89.2938 93.4643 89.3263 93.5014 89.3654 93.5304C89.4045 93.5595 89.4493 93.58 89.4969 93.5904C89.5445 93.6009 89.5938 93.6012 89.6415 93.5912C89.6892 93.5812 89.7342 93.5612 89.7736 93.5326C89.813 93.5039 89.8459 93.4672 89.87 93.4249C89.8942 93.3826 89.9091 93.3356 89.9138 93.2871L89.9642 93.0561C89.9642 92.9973 90.0398 92.8419 89.9642 92.7957C89.8886 92.7495 89.9306 92.7957 89.9222 92.7663C89.917 92.7566 89.9143 92.7458 89.9143 92.7348C89.9143 92.7238 89.917 92.713 89.9222 92.7033C89.9726 92.6613 90.0104 92.7327 90.0566 92.7075ZM89.8004 93.0771C89.8004 93.1023 89.7584 93.1107 89.7374 93.1443C89.7212 93.186 89.7113 93.2299 89.708 93.2745C89.687 93.3753 89.6324 93.4005 89.5652 93.3879C89.498 93.3753 89.456 93.3249 89.4812 93.2241C89.4812 93.1947 89.519 93.1107 89.5106 93.0855C89.5022 93.0603 89.4686 93.0855 89.4518 93.0351C89.4392 92.9912 89.4392 92.9446 89.4518 92.9007C89.4538 92.891 89.4538 92.881 89.4518 92.8713C89.4518 92.8713 89.4308 92.8335 89.4518 92.8167C89.4518 92.8167 89.4518 92.7621 89.4518 92.7243C89.5862 92.7747 89.582 92.5689 89.603 92.4849C89.624 92.4009 89.6786 92.3547 89.7458 92.3715C89.813 92.3883 89.8508 92.4345 89.8298 92.5311C89.8013 92.6167 89.7843 92.7056 89.7794 92.7957C89.7969 92.7984 89.8131 92.8069 89.8252 92.8199C89.8374 92.8328 89.8449 92.8494 89.8466 92.8671C89.8424 92.8893 89.8424 92.9121 89.8466 92.9343C89.8466 92.9343 89.8466 92.9721 89.8466 92.9889C89.8466 93.0057 89.8214 92.9889 89.8046 92.9889C89.793 92.9935 89.7827 93.0009 89.7746 93.0104C89.7666 93.0199 89.761 93.0313 89.7584 93.0435L89.8004 93.0771Z" fill="#263238"/>
<path d="M87.7061 89.6382L89.1257 89.949" stroke="#263238" stroke-width="0.42" stroke-linecap="round" stroke-linejoin="round"/>
<path d="M84.483 88.948L87.003 89.5024" stroke="#263238" stroke-width="0.42" stroke-linecap="round" stroke-linejoin="round"/>
<path d="M84.2732 89.9221L85.9364 90.2833" stroke="#263238" stroke-width="0.42" stroke-linecap="round" stroke-linejoin="round"/>
<path opacity="0.4" d="M69.7173 153.435C71.9244 152.858 74.1939 152.553 76.4751 152.528C80.5743 152.427 83.1951 153.204 86.5551 151.541C89.9151 149.878 92.0949 152.872 95.3079 151.209C98.5209 149.546 100.012 146.883 101.868 146.942C103.725 147.001 106.488 117.252 107.379 112.132C108.269 107.013 110.163 92.741 110.814 89.843L107.156 154.342L69.7173 153.435Z" fill="white"/>
<path d="M69.8942 140.74L80.138 153.201L69.3188 152.529L69.8942 140.74Z" fill="#E31E26" stroke="#263238" stroke-width="0.42" stroke-linecap="round" stroke-linejoin="round"/>
<path d="M97.0832 116.114L96.9194 120.856C96.8966 121.517 96.7437 122.168 96.4694 122.77C96.1952 123.373 95.8049 123.916 95.3208 124.367C94.8368 124.819 94.2686 125.171 93.6485 125.403C93.0285 125.635 92.3688 125.742 91.7072 125.719L86.8352 125.547C86.1717 125.524 85.5193 125.371 84.9154 125.095C84.3114 124.819 83.7679 124.427 83.316 123.941C82.8641 123.455 82.5126 122.884 82.2819 122.262C82.0512 121.639 81.9458 120.977 81.9716 120.314L82.19 114.14C82.2371 112.804 82.8126 111.542 83.79 110.631C84.7674 109.72 86.0667 109.234 87.4022 109.28L92.2742 109.448C92.4086 109.448 92.543 109.448 92.6942 109.478C92.0124 110.134 91.5821 111.008 91.4781 111.948C91.374 112.888 91.6028 113.835 92.1246 114.624C92.6464 115.413 93.4283 115.994 94.3343 116.266C95.2402 116.538 96.2129 116.485 97.0832 116.114Z" fill="#E31E26" stroke="#263238" stroke-width="0.42" stroke-linecap="round" stroke-linejoin="round"/>
<path d="M97.9582 112.007C97.943 112.463 97.7929 112.904 97.527 113.275C97.261 113.645 96.8912 113.929 96.4642 114.089C96.0371 114.249 95.5722 114.279 95.1281 114.175C94.684 114.071 94.2807 113.838 93.9692 113.505C93.6578 113.172 93.4521 112.754 93.3783 112.303C93.3045 111.853 93.3658 111.391 93.5545 110.976C93.7433 110.561 94.0509 110.211 94.4385 109.971C94.8262 109.73 95.2764 109.61 95.7322 109.626C96.3428 109.648 96.9197 109.911 97.3369 110.357C97.7541 110.803 97.9775 111.397 97.9582 112.007Z" fill="#E31E26" stroke="#263238" stroke-width="0.42" stroke-linecap="round" stroke-linejoin="round"/>
<path opacity="0.4" d="M83.3551 120.886L90.5161 114.762C90.5161 114.762 89.6089 111.482 90.5161 110.445H87.0763C86.2479 110.442 85.4497 110.755 84.8448 111.321C84.2398 111.887 83.8737 112.663 83.8213 113.49L83.3551 120.886Z" fill="white"/>
<path opacity="0.4" d="M94.6775 112.13L96.2105 110.45C96.2105 110.45 95.2571 109.807 94.6775 110.45C94.0979 111.093 94.6775 112.13 94.6775 112.13Z" fill="white"/>
<path d="M93.9305 148.719L105.476 149.219" stroke="#263238" stroke-width="0.42" stroke-linecap="round" stroke-linejoin="round"/>
<path d="M89.9347 149.894L105.479 150.726" stroke="#263238" stroke-width="0.42" stroke-linecap="round" stroke-linejoin="round"/>
<path d="M101.409 153.217H105.479" stroke="#263238" stroke-width="0.42" stroke-linecap="round" stroke-linejoin="round"/>
<path opacity="0.2" d="M87.2594 110.809C81.3038 113.673 74.8526 103.639 72.593 102.257C72.0359 101.906 71.5166 101.498 71.0432 101.039L72.026 84.5754L89.4602 85.2768C89.3468 87.7296 89.3846 90.4386 89.9306 91.9968C91.1066 95.3946 93.2108 107.948 87.2594 110.809Z" fill="black" fill-opacity="0.7"/>
<path opacity="0.4" d="M80.5854 111.321C80.5854 111.321 85.3483 113.387 87.5071 112.161C89.6659 110.935 91.9927 108.591 92.3245 103.387C92.3245 103.387 95.1595 110.716 89.4433 112.913C83.7271 115.109 80.5854 111.321 80.5854 111.321Z" fill="white"/>
<path opacity="0.4" d="M78.7268 114.241C78.7268 114.241 88.3868 116.836 92.5196 112.141C92.5196 112.141 91.9652 114.749 87.5048 115.501C83.0444 116.253 78.7268 114.241 78.7268 114.241Z" fill="white"/>
<path opacity="0.4" d="M94.263 97.4579C93.528 96.1517 94.431 107.891 94.431 107.891C94.431 107.891 95.7582 100.137 94.263 97.4579Z" fill="white"/>
</g>
<path d="M111.981 86.1801L107.907 155.375L67.8848 154.06L71.0432 101.04L72.026 84.5757L89.4644 85.2771L111.981 86.1801Z" stroke="#263238" stroke-width="0.42" stroke-linecap="round" stroke-linejoin="round"/>
<path opacity="0.4" d="M109.956 155.745L108.499 155.375L111.98 92.0095L112.598 96.1927L109.956 155.745Z" fill="white"/>
<path d="M87.2594 110.808C86.7086 111.101 86.0962 111.259 85.4725 111.268C84.8489 111.278 84.232 111.139 83.6726 110.863C82.7044 110.355 81.9232 109.552 81.4424 108.57C79.7834 105.579 75.2936 98.767 74.4662 96.8098C73.6388 94.8526 71.8076 89.317 69.9806 86.9944C68.1536 84.6718 67.154 81.1774 67.154 81.1774L66.4904 47.2834C67.4858 52.1848 70.2284 57.7498 70.2284 57.7498C72.6112 58.9897 74.6358 60.8206 76.1084 63.067C76.537 63.5235 76.9209 64.02 77.255 64.5496C79.9682 68.7496 81.2828 76.3096 81.4256 82.1896C81.5936 88.8382 83.7524 91.8496 87.2426 97.6414C90.7328 103.433 89.5274 109.519 87.2594 110.808Z" fill="white"/>
<path opacity="0.4" d="M87.2593 110.809C86.7063 111.095 86.0947 111.248 85.4723 111.258C84.85 111.267 84.234 111.132 83.6725 110.863C85.5793 110.343 88.0825 109.364 87.5071 107.924C86.6041 105.622 83.9623 109.036 82.6351 107.924C81.3079 106.811 76.4863 100.427 79.5481 97.6167C82.6099 94.8069 81.6481 90.0945 79.5481 88.7673C77.4481 87.4401 78.8131 84.2775 79.4767 79.3005C79.8967 76.2891 78.4561 69.4683 77.2717 64.5459C79.9849 68.7459 81.2995 76.3059 81.4423 82.1859C81.6103 88.8345 83.7691 91.8459 87.2593 97.6377C90.7495 103.429 89.5273 109.599 87.2593 110.809Z" fill="#E31E26"/>
<path d="M66.4904 47.2625C67.4858 52.1639 70.2284 57.7288 70.2284 57.7288C72.6112 58.9687 74.6358 60.7996 76.1084 63.046C79.5986 66.7 81.2618 75.5074 81.4256 82.1518C81.5894 88.7962 83.7524 91.8118 87.2426 97.6036C90.7328 103.395 89.7626 109.435 87.2426 110.808C85.487 111.77 83.0888 111.56 81.4256 108.57C79.7624 105.579 75.2768 98.767 74.4494 96.8098C73.622 94.8526 71.7908 89.317 69.9638 86.9944C68.1368 84.6718 67.1372 81.1774 67.1372 81.1774" stroke="#263238" stroke-width="0.42" stroke-linecap="round" stroke-linejoin="round"/>
<path d="M77.2802 96.1929C77.2802 96.1929 79.9934 95.9493 81.2366 94.9329" stroke="#263238" stroke-width="0.42" stroke-linecap="round" stroke-linejoin="round"/>
<path d="M66.1586 81.8452C66.1586 81.8452 65.6294 83.1052 68.4014 84.3652" stroke="#263238" stroke-width="0.42" stroke-linecap="round" stroke-linejoin="round"/>
</svg>
