<svg width="48" height="48" viewBox="0 0 48 48" fill="none" xmlns="http://www.w3.org/2000/svg">
<g clip-path="url(#clip0_95_2696)">
<path fill-rule="evenodd" clip-rule="evenodd" d="M11.8901 40.5779L13.848 38.6012C14.2665 38.1789 14.9488 38.1759 15.3711 38.5938C15.7934 39.0122 15.7965 39.6946 15.3781 40.117L11.6443 43.8867C11.3405 44.193 10.8835 44.289 10.4823 44.13C10.0812 43.9711 9.81387 43.5879 9.80244 43.1569L9.45397 29.7725C9.4385 29.1782 9.90795 28.6834 10.5024 28.6677C11.0966 28.6524 11.5915 29.122 11.607 29.7163L11.8901 40.5779Z" fill="white"/>
<path fill-rule="evenodd" clip-rule="evenodd" d="M22.3685 13.0291L24.1142 12.2843C24.6612 12.051 24.9156 11.417 24.6823 10.8709C24.449 10.3239 23.8149 10.0695 23.2688 10.3036L21.5231 11.0484C20.9762 11.2817 20.7217 11.9158 20.9551 12.4619C21.1892 13.0088 21.8224 13.2633 22.3685 13.0291Z" fill="white"/>
<path fill-rule="evenodd" clip-rule="evenodd" d="M43.802 3.87702L27.8262 10.6991C27.2793 10.9325 26.6461 10.678 26.4128 10.1319C26.1794 9.58495 26.4331 8.95176 26.98 8.71844L45.4226 0.842986C45.8267 0.670531 46.2958 0.760988 46.6069 1.07208C46.918 1.38318 47.0085 1.85151 46.836 2.25645L27.9158 46.5639C27.7755 46.8928 27.4805 47.1303 27.1296 47.1988C26.7788 47.2664 26.417 47.1557 26.1634 46.9029L16.1094 36.8489C15.7349 36.4736 15.6884 35.8818 16.0004 35.4532L27.5819 19.5307L11.1327 30.638C10.705 30.9271 10.1335 30.8722 9.7683 30.5078L0.77612 21.5148C0.523355 21.262 0.412611 20.9002 0.480241 20.5494C0.548715 20.1986 0.786264 19.9035 1.11511 19.7632L17.2583 12.87C17.8044 12.6367 18.4376 12.8903 18.6709 13.4373C18.9042 13.9842 18.6506 14.6174 18.1036 14.8507L3.4255 21.1183L10.6635 28.3563L31.4537 14.3173C31.8874 14.0248 32.4681 14.0857 32.8316 14.4619C33.1943 14.8381 33.2349 15.4205 32.9272 15.8432L18.2837 35.9765L26.5607 44.2535L43.802 3.87702Z" fill="white"/>
</g>
<defs>
<clipPath id="clip0_95_2696">
<rect width="47.2615" height="48" fill="white" transform="translate(0.0612183)"/>
</clipPath>
</defs>
</svg>
