<svg width="217" height="210" viewBox="0 0 217 210" fill="none" xmlns="http://www.w3.org/2000/svg">
<g clip-path="url(#clip0_113_4273)">
<path d="M178.604 131.426L184.211 131.313L186.974 131.262C187.894 131.262 188.806 131.262 189.725 131.262L189.536 131.447L189.515 126.751L189.725 126.957L184.165 126.932C182.308 126.932 180.456 126.886 178.604 126.865L178.717 126.751C178.717 127.52 178.679 128.293 178.663 129.074L178.604 131.426ZM178.604 131.426L178.541 129.103C178.541 128.318 178.495 127.524 178.486 126.73V126.617H178.604C180.456 126.617 182.308 126.55 184.165 126.55L189.725 126.525H189.935V126.739L189.91 131.434V131.623H189.725C188.785 131.623 187.848 131.623 186.911 131.602L184.102 131.544L178.604 131.426Z" fill="#EBEBEB"/>
<path d="M184.807 137.34L190.414 137.226L193.178 137.176C194.098 137.176 195.013 137.176 195.929 137.155L195.74 137.34V132.644L195.95 132.85L190.389 132.825C188.533 132.825 186.68 132.779 184.828 132.758L184.942 132.644C184.942 133.413 184.904 134.186 184.887 134.967L184.807 137.34ZM184.807 137.34L184.748 135.017C184.727 134.232 184.698 133.438 184.69 132.644V132.531H184.807C186.659 132.51 188.512 132.464 190.368 132.464L195.929 132.438H196.139V132.653L196.114 137.34V137.529H195.929C194.992 137.529 194.051 137.529 193.115 137.508L190.318 137.457L184.807 137.34Z" fill="#EBEBEB"/>
<path d="M172.375 137.357H183.497V132.657H172.375V137.357Z" fill="#EBEBEB"/>
<path d="M26.1144 160.746L31.7088 160.632L34.464 160.582C35.3796 160.582 36.291 160.582 37.2024 160.582L37.0176 160.767L36.9924 156.084L37.2024 156.294L31.6416 156.239C29.7936 156.239 27.9456 156.189 26.0976 156.168L26.211 156.054C26.211 156.819 26.1774 157.592 26.1564 158.373L26.1144 160.746ZM26.1144 160.746L26.0556 158.432C26.0346 157.646 26.0094 156.857 26.001 156.063V155.949H26.1144C27.9624 155.924 29.8104 155.882 31.6584 155.878L37.2024 155.853H37.4124V156.063V160.746V160.935H37.2276C36.2952 160.935 35.3586 160.935 34.4262 160.914L31.6122 160.859L26.1144 160.746Z" fill="#EBEBEB"/>
<path d="M32.301 166.656H43.389V161.969H32.301V166.656Z" fill="#EBEBEB"/>
<path d="M54.9305 66.3007L60.5417 66.1831L63.3053 66.1369C64.2209 66.1159 65.1365 66.1369 66.0521 66.1159L65.8673 66.3007L65.8421 61.6009L66.0521 61.8109L60.4913 61.7857C58.6391 61.7857 56.7827 61.7395 54.9305 61.7143L55.0439 61.6009C55.0439 62.3695 55.0103 63.1465 54.9893 63.9277L54.9305 66.3007ZM54.9305 66.3007L54.8717 63.9781C54.8717 63.1927 54.8255 62.3989 54.8171 61.6009V61.4875H54.9305C56.7827 61.4665 58.6391 61.4203 60.4913 61.4203L66.0521 61.3909H66.2621V61.6009L66.2411 66.3007V66.4897H66.0563C65.1197 66.4897 64.1789 66.4897 63.2465 66.4645L60.4493 66.4183L54.9305 66.3007Z" fill="#EBEBEB"/>
<path d="M32.2632 25.6782H43.3848V20.9784H32.2632V25.6782Z" fill="#EBEBEB"/>
<path d="M26.064 31.6044L31.671 31.4994L34.4346 31.4532C35.3544 31.4532 36.2658 31.4532 37.1856 31.4532L36.9966 31.638V26.9382L37.2066 27.1482L31.6416 27.0894C29.7852 27.0894 27.933 27.0432 26.0808 27.018L26.1942 26.9046C26.1942 27.6732 26.1564 28.446 26.1396 29.2314L26.064 31.6044ZM26.064 31.6044L26.001 29.2818C26.001 28.4964 25.9548 27.7026 25.9464 26.9046V26.7912H26.064C27.9162 26.7912 29.7684 26.724 31.6248 26.7198L37.1856 26.6946H37.3956V26.9046L37.3704 31.6044V31.7934H37.1856C36.2448 31.7934 35.3082 31.7934 34.3716 31.7682L31.5744 31.722L26.064 31.6044Z" fill="#EBEBEB"/>
<path d="M178.604 25.6786L184.211 25.561L186.974 25.5148C187.894 25.5148 188.806 25.5148 189.725 25.5148L189.536 25.6996L189.515 20.9998L189.725 21.2098L184.165 21.1846C182.308 21.1846 180.456 21.1384 178.604 21.1132L178.717 20.9998C178.717 21.7684 178.679 22.5412 178.663 23.3266L178.604 25.6786ZM178.604 25.6786L178.541 23.356C178.541 22.5706 178.495 21.7768 178.486 20.9788V20.8654H178.604C180.456 20.8654 182.308 20.7982 184.165 20.794L189.725 20.7688H189.935V20.9998L189.91 25.6996V25.8886H189.725C188.785 25.8886 187.848 25.8886 186.911 25.8634L184.102 25.7962L178.604 25.6786Z" fill="#EBEBEB"/>
<path d="M161.023 84.4495H172.144V79.7497H161.023V84.4495Z" fill="#EBEBEB"/>
<path d="M136.083 100.925L196.592 100.925V20.9778L136.083 20.9778V100.925Z" fill="#EBEBEB"/>
<path d="M167.545 59.7402H193.749V24.1788H167.545V59.7402Z" fill="white"/>
<path d="M138.918 59.7402H165.122V24.1788H138.918V59.7402Z" fill="white"/>
<path d="M167.545 97.7212H193.749V62.1598H167.545V97.7212Z" fill="white"/>
<path d="M138.918 97.7212H165.122V62.1598H138.918V97.7212Z" fill="white"/>
<path d="M156.297 20.9792H136.079V135.354H147.78L139.615 77.1542L156.297 20.9792Z" fill="#DBDBDB"/>
<path d="M152.795 24.0696L149.599 37.3668L146.339 50.6472L139.817 77.2038L139.821 77.1324L142.837 104.886L144.34 118.763L145.777 132.648L144.134 118.788L142.555 104.92L139.405 77.1786L139.401 77.1408L139.409 77.103L146.071 50.58L149.401 37.3164L152.795 24.0696Z" fill="#EBEBEB"/>
<path d="M137.284 26.4177L137.385 37.8879L137.444 49.3581L137.494 72.2985L137.444 95.2389L137.385 106.709L137.284 118.179L137.179 106.709L137.12 95.2389L137.074 72.2985L137.12 49.3581L137.179 37.8879L137.284 26.4177Z" fill="#EBEBEB"/>
<path d="M141.06 28.5686L140.443 40.7612L139.783 52.9496L138.401 77.3264V77.3096L139.073 104.475L139.367 118.054L139.615 131.641L139.153 118.062L138.737 104.484L137.99 77.3222V77.3096V77.3054L139.472 52.9328L140.249 40.7486L141.06 28.5686Z" fill="#EBEBEB"/>
<path d="M143.693 129.881L142.362 116.722L141.073 103.559C140.254 94.7811 139.393 86.0031 138.607 77.2209V77.1663L142.362 56.6745L144.269 46.4307L146.205 36.1953L144.441 46.4601L142.648 56.7249L139.002 77.2377V77.1873C139.842 85.9611 140.615 94.7475 141.425 103.526L142.58 116.701L143.693 129.881Z" fill="#EBEBEB"/>
<path d="M136.083 78.8628H140.648V76.1958H136.083V78.8628Z" fill="#DBDBDB"/>
<path d="M176.323 20.9792H196.542V135.354H184.841L193.01 77.1542L176.323 20.9792Z" fill="#DBDBDB"/>
<path d="M179.826 24.0696L183.22 37.3164L186.55 50.58L193.211 77.103L193.22 77.1408L193.216 77.1786L190.066 104.92L188.486 118.788L186.844 132.648L188.281 118.763L189.788 104.886L192.8 77.1324L192.804 77.2038L186.281 50.6472L183.022 37.3668L179.826 24.0696Z" fill="#EBEBEB"/>
<path d="M195.337 26.4177L195.442 37.8879L195.5 49.3581L195.547 72.2985L195.5 95.2389L195.442 106.709L195.337 118.179L195.236 106.709L195.177 95.2389L195.131 72.2985L195.177 49.3581L195.236 37.8879L195.337 26.4177Z" fill="#EBEBEB"/>
<path d="M191.561 28.5686L192.376 40.7486L193.148 52.9328L194.631 77.3054V77.3096V77.3222L193.883 104.484L193.468 118.062L193.01 131.641L193.258 118.054L193.547 104.475L194.219 77.3096V77.3264L192.838 52.9496L192.182 40.7612L191.561 28.5686Z" fill="#EBEBEB"/>
<path d="M188.928 129.881L190.041 116.701L191.2 103.526C192.006 94.7475 192.779 85.9611 193.619 77.1873V77.2377L189.982 56.7249L188.188 46.4601L186.424 36.1953L188.365 46.4307L190.272 56.6745L194.022 77.1663V77.2209C193.233 86.0031 192.376 94.7811 191.553 103.559L190.267 116.722L188.928 129.881Z" fill="#EBEBEB"/>
<path d="M196.542 76.1963H191.977V78.8633H196.542V76.1963Z" fill="#DBDBDB"/>
<path d="M53.4312 31.7224H29.718V60.4882H53.4312V31.7224Z" fill="#EBEBEB"/>
<path d="M50.7222 34.3474H32.427V57.8632H50.7222V34.3474Z" fill="white"/>
<path d="M33.141 34.3474H32.427V57.8632H33.141V34.3474Z" fill="#DBDBDB"/>
<path d="M54.1452 31.7224H53.4312V60.4882H54.1452V31.7224Z" fill="#DBDBDB"/>
<path d="M42.8724 37.5894H38.559V50.4414H42.8724V37.5894Z" fill="#DBDBDB"/>
<path d="M48.387 52.8435H36.4674V46.1235H48.387V52.8435ZM36.8874 52.4235H47.967V46.5435H36.8874V52.4235Z" fill="#EBEBEB"/>
<path d="M75.2628 67.4644H51.5496V96.2301H75.2628V67.4644Z" fill="#EBEBEB"/>
<path d="M72.5537 70.0896H54.2585V93.6054H72.5537V70.0896Z" fill="white"/>
<path d="M54.9725 70.0896H54.2585V93.6054H54.9725V70.0896Z" fill="#DBDBDB"/>
<path d="M75.9768 67.4644H75.2628V96.2301H75.9768V67.4644Z" fill="#DBDBDB"/>
<path d="M65.3299 76.1707H61.6339V85.5157H65.3299V76.1707Z" fill="#EBEBEB"/>
<path d="M69.4415 88.4975H59.0843V81.6389H69.4415V88.4975ZM59.5127 88.0775H69.0215V82.0589H59.5043L59.5127 88.0775Z" fill="#DBDBDB"/>
<path d="M39.1421 203.486C61.5912 203.486 79.7897 201.742 79.7897 199.592C79.7897 197.442 61.5912 195.699 39.1421 195.699C16.6931 195.699 -1.50549 197.442 -1.50549 199.592C-1.50549 201.742 16.6931 203.486 39.1421 203.486Z" fill="#EBEBEB"/>
<path d="M24.6905 185.384L46.2743 185.283L67.8581 185.245L111.022 185.174L154.185 185.245L175.769 185.283L197.353 185.384L175.769 185.489L154.185 185.527L111.022 185.594L67.8581 185.527L46.2743 185.489L24.6905 185.384Z" fill="#263238"/>
<path d="M177.218 147.89C177.218 147.89 173.383 142.01 164.794 143.149C156.633 144.236 151.556 158.533 159.464 161.053C167.373 163.573 167.23 149.881 170.384 147.857C172.707 146.374 175.777 147.029 177.218 147.89Z" fill="#E31E26"/>
<path d="M157.545 150.532C158.138 150.105 158.758 149.716 159.401 149.369C160.01 149.034 160.661 148.784 161.337 148.626C162.392 147.293 163.75 146.233 165.298 145.534L165.05 145.497C164.606 145.436 164.159 145.398 163.71 145.383C162.808 145.362 161.908 145.505 161.056 145.803C161.046 145.806 161.035 145.806 161.026 145.801C161.016 145.796 161.009 145.788 161.006 145.778C161.002 145.768 161.003 145.757 161.008 145.748C161.012 145.738 161.021 145.731 161.031 145.728C161.895 145.448 162.788 145.269 163.694 145.194C164.134 145.156 164.576 145.156 165.017 145.194C165.252 145.219 165.487 145.257 165.718 145.303L165.852 145.329C166.664 145.012 167.51 144.789 168.372 144.665L168.146 144.581C167.743 144.451 167.334 144.343 166.919 144.258C166.091 144.083 165.244 144.016 164.399 144.06C164.349 144.06 164.34 143.98 164.399 143.976C165.253 143.955 166.107 144.001 166.953 144.115C167.667 144.202 168.371 144.361 169.053 144.589C169.568 144.546 170.086 144.536 170.603 144.56C173.543 144.715 176.634 146.114 178.209 148.693C179.784 151.272 179.834 154.522 179.889 157.462C179.996 161.562 179.715 165.663 179.049 169.71C179.007 169.949 178.675 169.873 178.692 169.642C178.906 166.177 179.112 162.712 179.112 159.239C179.112 157.63 179.091 156.013 178.977 154.409C178.912 153.031 178.648 151.67 178.192 150.369C177.686 149.036 176.799 147.883 175.643 147.051C174.478 146.23 173.145 145.677 171.741 145.434C170.49 145.214 169.211 145.214 167.961 145.434C167.98 145.684 167.963 145.936 167.91 146.181C167.855 146.491 167.764 146.792 167.637 147.08C167.522 147.353 167.381 147.614 167.217 147.861C167.037 148.138 166.797 148.378 166.617 148.634C166.583 148.676 166.52 148.634 166.554 148.584C166.946 148.123 167.224 147.576 167.364 146.988C167.441 146.711 167.501 146.431 167.545 146.148C167.579 145.933 167.579 145.728 167.608 145.501C166.236 145.784 164.93 146.323 163.757 147.088C163.534 147.235 163.337 147.387 163.114 147.546C163.365 147.832 163.577 148.149 163.744 148.491C163.991 148.94 164.199 149.409 164.366 149.894C164.635 150.867 164.775 151.871 164.781 152.88C164.781 152.891 164.777 152.902 164.769 152.91C164.761 152.918 164.751 152.922 164.739 152.922C164.728 152.922 164.718 152.918 164.71 152.91C164.702 152.902 164.697 152.891 164.697 152.88C164.635 151.894 164.401 150.925 164.004 150.02C163.824 149.573 163.615 149.138 163.379 148.718C163.257 148.5 163.127 148.298 162.992 148.08C162.921 147.966 162.841 147.853 162.774 147.735C161.694 148.609 160.778 149.669 160.069 150.864C160.423 151.322 160.706 151.83 160.909 152.372C161.158 152.943 161.367 153.531 161.535 154.132C161.836 155.289 162.061 156.465 162.211 157.651C162.211 157.702 162.14 157.71 162.131 157.651C161.989 156.456 161.697 155.283 161.262 154.161C161.06 153.611 160.842 153.069 160.611 152.532C160.367 152.029 160.151 151.513 159.964 150.986C159.288 152.159 158.836 153.448 158.633 154.787C158.633 154.837 158.544 154.825 158.553 154.787C158.91 152.69 159.752 150.706 161.01 148.991C160.472 149.159 159.939 149.323 159.418 149.541C158.754 149.815 158.128 150.172 157.553 150.604C157.549 150.633 157.503 150.562 157.545 150.532Z" fill="#263238"/>
<path d="M163.681 151.427C163.853 152.267 164.101 153.107 164.244 153.976C164.399 154.807 164.444 155.654 164.378 156.496C164.378 156.517 164.34 156.517 164.34 156.496C164.273 154.795 164.026 153.105 163.601 151.456C163.599 151.451 163.598 151.445 163.599 151.44C163.599 151.434 163.6 151.429 163.603 151.424C163.605 151.419 163.608 151.414 163.612 151.41C163.616 151.406 163.621 151.403 163.626 151.402C163.632 151.4 163.637 151.399 163.643 151.399C163.648 151.399 163.654 151.4 163.659 151.403C163.664 151.405 163.669 151.408 163.672 151.413C163.676 151.417 163.679 151.422 163.681 151.427Z" fill="#263238"/>
<path d="M158.553 148.865C158.913 148.578 159.313 148.346 159.741 148.176C160.176 148.027 160.623 147.914 161.077 147.84C161.123 147.84 161.136 147.916 161.077 147.92C160.632 147.995 160.198 148.128 159.788 148.315C159.373 148.484 158.97 148.682 158.582 148.907C158.579 148.909 158.576 148.91 158.573 148.911C158.57 148.912 158.566 148.912 158.563 148.911C158.56 148.911 158.557 148.909 158.554 148.908C158.551 148.906 158.548 148.903 158.547 148.901C158.545 148.898 158.543 148.895 158.542 148.891C158.542 148.888 158.542 148.885 158.542 148.881C158.543 148.878 158.544 148.875 158.546 148.872C158.548 148.869 158.55 148.867 158.553 148.865Z" fill="#263238"/>
<path d="M173.064 141.053C173.064 141.053 172.257 131.178 164.916 127.978C158.784 125.303 155.256 132.178 159.607 136.412C163.101 139.822 168.738 138.285 173.064 141.053Z" fill="#E31E26"/>
<path d="M160.968 129.889C162.084 130.341 163.174 130.857 164.231 131.435C165.105 131.942 165.947 132.503 166.751 133.115C166.629 132.867 166.524 132.602 166.398 132.359C166.209 131.976 166.004 131.607 165.777 131.241C165.324 130.496 164.781 129.808 164.16 129.196C164.122 129.158 164.181 129.104 164.219 129.141C164.838 129.756 165.407 130.419 165.92 131.124C166.174 131.482 166.406 131.855 166.617 132.241C166.834 132.593 167 132.975 167.108 133.375L167.192 133.438C168.474 134.458 169.649 135.607 170.699 136.865C170.678 136.769 170.657 136.672 170.632 136.584C170.493 136.101 170.346 135.626 170.187 135.147C169.873 134.134 169.426 133.167 168.86 132.27C168.856 132.261 168.856 132.251 168.859 132.242C168.862 132.232 168.869 132.224 168.878 132.219C168.886 132.214 168.896 132.212 168.906 132.214C168.916 132.216 168.925 132.221 168.931 132.228C169.508 133.128 170.022 134.067 170.468 135.038C170.671 135.513 170.841 136.001 170.976 136.5C171.083 136.823 171.163 137.155 171.216 137.491C171.535 137.911 171.85 138.306 172.144 138.726C175.298 143.216 176.877 148.642 177.26 154.073C177.37 155.691 177.397 157.315 177.339 158.936C177.33 160.573 177.189 162.206 176.919 163.821C176.898 163.922 176.739 163.892 176.743 163.791C176.777 162.363 176.928 160.944 176.953 159.516C176.98 158.085 176.934 156.654 176.814 155.228C176.582 152.379 176.046 149.562 175.214 146.828C174.367 144.028 173.116 141.367 171.501 138.927C171.191 138.869 170.884 138.785 170.582 138.705C170.279 138.625 169.847 138.516 169.481 138.415C168.777 138.232 168.091 137.98 167.436 137.663C167.427 137.658 167.421 137.649 167.418 137.639C167.416 137.628 167.418 137.618 167.423 137.609C167.429 137.6 167.438 137.593 167.448 137.591C167.458 137.589 167.469 137.59 167.478 137.596C168.125 137.948 168.826 138.189 169.553 138.31C170.128 138.423 170.724 138.499 171.3 138.633C170.771 137.855 170.202 137.105 169.595 136.386C168.194 136.517 166.782 136.412 165.416 136.076C164.69 135.9 163.975 135.679 163.278 135.412C162.543 135.126 161.846 134.765 161.123 134.459C161.069 134.438 161.123 134.358 161.153 134.387C162.469 135.103 163.905 135.573 165.39 135.773C166.7 135.983 168.024 136.093 169.351 136.101C168.83 135.5 168.288 134.921 167.713 134.37C165.785 132.535 163.513 130.847 160.955 129.969C160.892 129.952 160.917 129.868 160.968 129.889Z" fill="#263238"/>
<path d="M166.94 129.919C167.271 130.337 167.573 130.778 167.843 131.237C168.115 131.723 168.332 132.237 168.49 132.77C168.49 132.77 168.469 132.796 168.461 132.77C168.213 132.287 168.007 131.783 167.759 131.305C167.518 130.828 167.224 130.379 166.881 129.969C166.852 129.935 166.911 129.881 166.94 129.919Z" fill="#263238"/>
<path d="M160.115 133.207C160.592 133.471 161.096 133.682 161.619 133.837C162.121 134.006 162.633 134.146 163.152 134.257C163.177 134.257 163.173 134.303 163.152 134.299C162.611 134.242 162.079 134.125 161.564 133.95C161.055 133.761 160.558 133.539 160.077 133.287C160.027 133.253 160.069 133.182 160.115 133.207Z" fill="#263238"/>
<path d="M178.368 139.599C178.415 140.019 179.477 136.012 185.685 132.459C191.325 129.225 198.054 120.808 192.527 115.495C188.062 111.195 176.306 120.54 178.368 139.599Z" fill="#E31E26"/>
<path d="M174.093 162.603C174.184 158.425 174.514 154.256 175.08 150.116C175.571 146.313 176.449 142.57 177.701 138.944C178.163 137.638 178.692 136.357 179.263 135.089C179.231 134.597 179.24 134.104 179.288 133.615C179.322 132.98 179.376 132.355 179.435 131.72C179.494 131.086 179.557 130.46 179.633 129.83C179.708 129.2 179.843 128.57 179.868 127.949C179.868 127.89 179.96 127.903 179.948 127.949C179.823 128.609 179.748 129.277 179.725 129.948C179.675 130.557 179.641 131.166 179.62 131.775C179.599 132.384 179.62 132.997 179.62 133.61C179.62 133.829 179.62 134.064 179.62 134.299C180.204 133.064 180.83 131.851 181.51 130.666C181.09 128.092 181.636 125.404 182.161 122.888C182.161 122.837 182.249 122.858 182.237 122.909C181.975 124.223 181.834 125.559 181.817 126.899C181.791 127.957 181.842 128.999 181.846 130.07C181.993 129.818 182.144 129.562 182.295 129.314C183.102 127.999 183.975 126.71 184.874 125.458C184.799 124.848 184.819 124.231 184.933 123.627C185.036 122.948 185.187 122.277 185.382 121.619C185.584 120.964 185.802 120.317 186.071 119.683C186.34 119.049 186.697 118.423 186.957 117.755C186.978 117.701 187.062 117.755 187.029 117.789C186.7 118.408 186.439 119.062 186.252 119.738C186.048 120.372 185.879 121.017 185.744 121.67C185.613 122.321 185.508 122.976 185.416 123.64C185.353 124.06 185.315 124.526 185.24 124.967C186.57 123.188 188.023 121.504 189.587 119.927C189.624 119.889 189.679 119.948 189.641 119.986C187.278 122.645 185.169 125.519 183.341 128.57C183.27 128.684 183.207 128.801 183.14 128.919C183.484 128.701 183.875 128.533 184.198 128.352C184.799 128.02 185.399 127.688 186.008 127.361L187.764 126.399C188.066 126.231 188.364 126.055 188.671 125.899C189.037 125.734 189.388 125.539 189.721 125.315C189.767 125.282 189.818 125.353 189.767 125.383C189.171 125.71 188.642 126.197 188.066 126.567C187.491 126.937 186.899 127.294 186.294 127.63C185.189 128.243 183.992 128.688 182.904 129.31C182.153 130.628 181.46 131.985 180.804 133.363C181.464 132.943 182.136 132.523 182.82 132.157C183.261 131.909 183.702 131.666 184.148 131.431C184.595 131.227 185.017 130.973 185.408 130.675C185.445 130.641 185.5 130.7 185.462 130.733C184.74 131.384 183.938 131.942 183.077 132.392C182.279 132.859 181.472 133.308 180.645 133.715C179.981 135.169 179.385 136.655 178.847 138.159C176.235 145.559 175.273 153.413 174.815 161.213C174.681 163.54 174.609 165.862 174.58 168.193C174.551 170.524 174.672 172.843 174.668 175.165C174.668 175.237 174.555 175.253 174.546 175.165C174.265 173.103 174.219 171.003 174.126 168.928C174.034 166.853 174.047 164.716 174.093 162.603Z" fill="#263238"/>
<path d="M185.361 129.104C186.495 128.605 187.596 128.035 188.658 127.399C189.737 126.793 190.783 126.129 191.792 125.413C191.792 125.413 191.829 125.413 191.813 125.438C190.862 126.209 189.857 126.911 188.805 127.538C187.706 128.155 186.568 128.7 185.399 129.172C185.361 129.197 185.324 129.125 185.361 129.104Z" fill="#263238"/>
<path d="M183.576 120.741C183.665 120.38 183.782 120.023 183.9 119.675C183.895 119.669 183.892 119.661 183.892 119.654C183.892 119.646 183.895 119.639 183.9 119.633C183.975 119.431 184.059 119.234 184.139 119.036L184.169 118.965C184.186 118.927 184.202 118.887 184.215 118.847C184.215 118.847 184.24 118.847 184.236 118.847C184.232 118.847 184.198 118.986 184.177 119.053C184.168 119.091 184.156 119.129 184.143 119.166C183.733 120.542 183.425 121.945 183.224 123.366C183.224 123.408 183.148 123.413 183.148 123.366C183.208 122.48 183.351 121.601 183.576 120.741Z" fill="#263238"/>
<path d="M177.251 150.293C179.414 143.573 184.303 139.583 190.59 140.507C196.878 141.431 199.011 149.705 194.811 152.46C190.611 155.215 185.223 149.663 182.665 148.731C180.107 147.798 177.251 150.293 177.251 150.293Z" fill="#E31E26"/>
<path d="M176.676 167.45C176.583 166.69 176.508 165.929 176.424 165.165C176.264 163.645 176.096 162.124 175.937 160.604C175.647 157.823 175.559 155.064 176.357 152.351C177.036 149.888 178.45 147.69 180.41 146.051C181.137 145.456 181.943 144.963 182.804 144.585C183.5 143.648 184.452 142.934 185.546 142.527C186.903 142.044 188.335 141.804 189.776 141.817C189.826 141.817 189.834 141.893 189.776 141.897C188.409 141.91 187.058 142.196 185.802 142.737C185.264 142.969 184.751 143.258 184.274 143.598C183.976 143.819 183.695 144.062 183.434 144.325C184.615 143.898 185.874 143.73 187.125 143.833C187.577 143.875 188.023 143.955 188.461 144.073C188.781 143.952 189.116 143.876 189.456 143.846C189.899 143.795 190.345 143.795 190.788 143.846C191.696 143.966 192.584 144.21 193.425 144.572C193.434 144.578 193.44 144.586 193.442 144.596C193.445 144.605 193.444 144.615 193.44 144.624C193.436 144.633 193.429 144.641 193.42 144.645C193.412 144.649 193.401 144.65 193.392 144.648C192.572 144.34 191.712 144.149 190.838 144.081C190.419 144.048 189.998 144.048 189.578 144.081C189.345 144.101 189.114 144.136 188.885 144.186C190.717 144.733 192.296 145.912 193.341 147.512C193.367 147.559 193.304 147.605 193.274 147.563C192.658 146.635 191.84 145.859 190.881 145.292C189.923 144.724 188.848 144.381 187.739 144.287C187.6 144.287 187.461 144.287 187.319 144.266C187.379 144.474 187.426 144.686 187.461 144.9C187.545 145.198 187.642 145.496 187.747 145.79C187.96 146.395 188.211 146.986 188.499 147.559C188.788 148.14 189.116 148.702 189.482 149.239C189.839 149.812 190.262 150.342 190.742 150.818C190.784 150.856 190.721 150.914 190.683 150.872C190.242 150.356 189.742 149.894 189.33 149.352C188.933 148.834 188.575 148.286 188.259 147.714C187.943 147.133 187.673 146.528 187.453 145.904C187.34 145.576 187.239 145.24 187.151 144.904C187.081 144.705 187.039 144.497 187.025 144.287C186.299 144.279 185.576 144.366 184.874 144.547C185.357 146.009 185.865 147.529 186.894 148.714C186.928 148.751 186.861 148.806 186.827 148.76C186.335 148.127 185.887 147.46 185.487 146.765C185.106 146.089 184.823 145.362 184.647 144.606C183.43 144.946 182.29 145.516 181.287 146.286C179.396 147.776 178.008 149.811 177.31 152.116C176.577 154.591 176.341 157.188 176.617 159.755C176.873 162.998 177.293 166.236 177.428 169.487C177.428 169.697 177.117 169.814 177.041 169.583C176.852 168.885 176.73 168.171 176.676 167.45Z" fill="#263238"/>
<path d="M180.742 145.5C180.908 145.227 181.112 144.979 181.346 144.761C181.564 144.515 181.796 144.281 182.039 144.06C182.516 143.619 183.064 143.262 183.661 143.005C183.707 142.984 183.74 143.06 183.69 143.081C183.089 143.325 182.546 143.695 182.098 144.165C181.869 144.391 181.65 144.627 181.443 144.87C181.261 145.121 181.054 145.353 180.826 145.563C180.8 145.597 180.742 145.551 180.742 145.5Z" fill="#263238"/>
<path d="M190.842 146.387C191.438 146.902 191.999 147.455 192.522 148.042C193.034 148.634 193.483 149.277 193.862 149.961C193.862 149.982 193.862 149.999 193.829 149.982C192.933 148.715 191.922 147.532 190.809 146.45C190.754 146.416 190.821 146.353 190.842 146.387Z" fill="#263238"/>
<path d="M184.177 146.702C184.297 147.086 184.468 147.452 184.685 147.79C184.902 148.117 185.145 148.426 185.412 148.714C185.412 148.735 185.412 148.76 185.378 148.748C184.771 148.213 184.333 147.512 184.118 146.732C184.101 146.685 184.16 146.652 184.177 146.702Z" fill="#263238"/>
<path d="M167.537 164.103L167.978 169.353L169.334 185.367H183.862L185.214 169.353L185.66 164.103H167.537Z" fill="#455A64"/>
<path d="M167.537 164.103L167.978 169.353H185.214L185.66 164.103H167.537Z" fill="#263238"/>
<path d="M166.109 167.034H187.083V161.998H166.109V167.034Z" fill="#455A64"/>
<path d="M146.516 24.406H75.5356C74.5833 24.4142 73.6419 24.6101 72.7653 24.9823C71.8886 25.3545 71.0939 25.8957 70.4266 26.5752C69.7592 27.2547 69.2322 28.059 68.8758 28.9421C68.5194 29.8253 68.3406 30.7701 68.3494 31.7224V177.882C68.3383 178.835 68.515 179.78 68.8693 180.665C69.2236 181.549 69.7486 182.355 70.4144 183.036C71.0801 183.717 71.8736 184.261 72.7494 184.636C73.6252 185.01 74.5663 185.209 75.5188 185.22H146.499C148.423 185.203 150.262 184.423 151.611 183.051C152.96 181.679 153.709 179.827 153.693 177.903V31.7434C153.705 30.7902 153.528 29.8441 153.173 28.9593C152.818 28.0744 152.292 27.2683 151.626 26.5868C150.959 25.9053 150.164 25.362 149.288 24.9878C148.411 24.6136 147.469 24.4159 146.516 24.406ZM149.216 173.367C149.216 177.215 146.335 180.327 142.782 180.327H79.2652C75.6994 180.327 72.8224 177.215 72.8224 173.367V37.2622C72.8224 29.425 75.6994 29.0428 79.2652 29.0428H91.987C92.7262 29.0428 93.331 29.8828 93.331 30.9244V31.3738C93.331 33.814 94.6666 33.8224 96.3088 33.8224H125.709C127.389 33.8224 128.687 33.8224 128.687 31.3738V30.9244C128.687 29.8828 129.283 29.0428 130.039 29.0428H142.761C146.314 29.0428 149.195 30.0844 149.195 37.2622L149.216 173.367Z" fill="#263238"/>
<path d="M115.032 30.7737H107.006C106.875 30.7737 106.749 30.7215 106.656 30.6285C106.563 30.5356 106.511 30.4095 106.511 30.2781C106.511 30.1466 106.563 30.0206 106.656 29.9276C106.749 29.8347 106.875 29.7825 107.006 29.7825H115.032C115.164 29.7825 115.29 29.8347 115.383 29.9276C115.476 30.0206 115.528 30.1466 115.528 30.2781C115.528 30.4095 115.476 30.5356 115.383 30.6285C115.29 30.7215 115.164 30.7737 115.032 30.7737Z" fill="white"/>
<path d="M149.216 37.2621V173.367C149.216 177.215 146.335 180.327 142.782 180.327H79.2652C75.6994 180.327 72.8224 177.215 72.8224 173.367V37.2621C72.8224 29.4249 75.6994 29.0427 79.2652 29.0427H91.987C92.7262 29.0427 93.331 29.8827 93.331 30.9243V31.3737C93.331 33.8139 94.6666 33.8223 96.3088 33.8223H125.709C127.389 33.8223 128.687 33.8223 128.687 31.3737V30.9243C128.687 29.8827 129.283 29.0427 130.039 29.0427H142.761C146.335 29.0427 149.216 30.0843 149.216 37.2621Z" fill="white"/>
<path d="M147.074 30.2397H128.804C129.002 29.5467 129.485 29.0553 130.064 29.0553H142.795C144.433 29.0385 145.936 29.2653 147.074 30.2397Z" fill="#DBDBDB"/>
<path d="M72.8224 166.659V168.47H79.1476V166.659H72.8224ZM149.216 54.5992L128.661 76.3804H119.203V58.3792H122.962V56.5564H117.38V76.3762H107.128V33.8218H103.491V46.573H72.8308V50.2102H103.491V76.3804H73.78V83.5204H72.8224V85.3432H73.78V112.387L79.24 124.895H72.8224V128.532H80.8402L85.12 138.314C82.4702 139.462 80.2806 141.463 78.8993 143.999C77.5181 146.535 77.0246 149.461 77.4973 152.31C77.97 155.158 79.3818 157.767 81.5082 159.722C83.6345 161.676 86.3532 162.863 89.2318 163.094L98.1316 177.659L95.4478 180.343H104.041L93.3142 162.821C95.1029 162.391 96.7796 161.584 98.2324 160.456C99.6853 159.327 100.881 157.902 101.74 156.275C102.599 154.648 103.102 152.857 103.215 151.021C103.328 149.185 103.048 147.346 102.395 145.626L127.779 133.551H149.199V129.918H139.048L117.741 106.751H149.208V104.932H116.061L93.1462 80.0176H130.207L142.731 66.7372L149.199 73.2052V68.0644L145.235 64.0954L149.199 59.8954L149.216 54.5992ZM90.2818 159.532C88.4375 159.533 86.6344 158.987 85.1005 157.963C83.5666 156.939 82.3709 155.483 81.6645 153.779C80.9582 152.075 80.7729 150.2 81.1322 148.392C81.4915 146.583 82.3792 144.921 83.683 143.616C84.9869 142.312 86.6482 141.424 88.457 141.063C90.2658 140.703 92.1408 140.888 93.8448 141.593C95.5487 142.299 97.0052 143.494 98.0299 145.027C99.0546 146.561 99.6016 148.364 99.6016 150.208C99.5994 152.679 98.6169 155.049 96.8697 156.797C95.1225 158.545 92.7533 159.529 90.2818 159.532ZM134.121 129.901H126.981L100.635 142.421C99.4265 140.818 97.8626 139.517 96.0661 138.62C94.2696 137.724 92.2895 137.256 90.2818 137.255C89.7413 137.257 89.2013 137.291 88.6648 137.356L77.4214 111.631V80.0176H88.2154L134.121 129.901ZM136.826 180.326H139.401L149.229 170.494V167.919L136.826 180.326Z" fill="#EBEBEB"/>
<path d="M85.8214 82.7732H80.5336V88.061H85.8214V82.7732Z" fill="#DBDBDB"/>
<path d="M135.461 103.043V92.8368H131.748V88.5696H125.209V103.043H135.461Z" fill="#DBDBDB"/>
<path d="M117.33 33.8218V44.0866H111.794V37.837H108.799V33.8218H117.33Z" fill="#DBDBDB"/>
<path d="M149.216 37.258V40.7986H144.596V31.8904H148.317C148.889 33.1084 149.216 34.8346 149.216 37.258Z" fill="#DBDBDB"/>
<path d="M120.635 74.8396V67.2502H134.856L127.175 74.932L120.635 74.8396Z" fill="#DBDBDB"/>
<path d="M115.948 67.7878H108.804V74.932H115.948V67.7878Z" fill="#DBDBDB"/>
<path d="M101.781 51.6343H93.1757V59.5513H101.781V51.6343Z" fill="#DBDBDB"/>
<path d="M101.786 61.1052V74.9316H91.2562L84.5446 68.22V61.1052H101.786Z" fill="#DBDBDB"/>
<path d="M82.6463 69.7449L87.9341 75.0327H73.8221V69.7449H82.6463Z" fill="#DBDBDB"/>
<path d="M81.8902 136.554H72.8224V130.187H79.324L81.8902 136.554Z" fill="#DBDBDB"/>
<path d="M79.4206 161.095V164.153H72.8224V150.553H74.6242C75.1272 154.469 76.7986 158.143 79.4206 161.095Z" fill="#DBDBDB"/>
<path d="M111.021 134.677L105.49 122.728H98.77L87.262 128.066L90.2692 134.631H90.2944C94.3804 134.627 98.3035 136.233 101.214 139.1L111.021 134.677Z" fill="#DBDBDB"/>
<path d="M149.216 119.796V127.73H140.564L133.265 119.796H149.216Z" fill="#DBDBDB"/>
<path d="M94.8724 176.975L91.7056 180.335H79.261C78.7986 180.333 78.338 180.28 77.8876 180.175V176.395H83.272V168.062L87.325 164.652L94.8724 176.975Z" fill="#DBDBDB"/>
<path d="M120.497 162.96L109.577 151.578L105.377 154.849C104.763 156.836 103.763 158.682 102.435 160.282C101.106 161.882 99.4757 163.204 97.6359 164.173L106.763 179.092L120.497 162.96Z" fill="#DBDBDB"/>
<path d="M108.606 146.576L127.779 137.096H137.343V153.77L122.433 161.133L108.606 146.576Z" fill="#DBDBDB"/>
<path d="M149.208 173.674C149.078 177.034 146.738 179.772 143.727 180.251H142.631L149.208 173.674Z" fill="#DBDBDB"/>
<path d="M80.5336 90.2659V111.22L86.38 125.525L97.048 120.237H121.933L94.0282 90.2659H80.5336Z" fill="#E31E26"/>
<path d="M141.219 60.2944H120.635V65.452H136.356L141.219 60.2944Z" fill="#DBDBDB"/>
<path d="M76.4974 123.189H72.8224V114.676L76.4974 123.189Z" fill="#DBDBDB"/>
<path d="M149.216 137.096H139.993V147.999H149.216V137.096Z" fill="#DBDBDB"/>
<path d="M149.216 149.7H139.993V153.526H149.216V149.7Z" fill="#DBDBDB"/>
<path d="M137.7 176.635L134.008 180.327H109.77L122.601 164.656L137.7 176.635Z" fill="#DBDBDB"/>
<path d="M139.023 174.833L145.251 168.856L137.696 162.279V156.365L124.382 163.148L139.023 174.833Z" fill="#E31E26"/>
<path d="M149.216 155.215V164.488L146.747 166.811L139.993 161.133V155.215H149.216Z" fill="#DBDBDB"/>
<path d="M75.1911 170.55V178.761C74.4369 178.081 73.8357 177.248 73.4274 176.319C73.019 175.389 72.8128 174.383 72.8223 173.368V170.55H75.1911Z" fill="#DBDBDB"/>
<path d="M81.0964 171.41H77.8876V174.619H81.0964V171.41Z" fill="#DBDBDB"/>
<path d="M101.231 33.8229V44.3943H80.8781V32.2941L84.4187 29.0391H91.9787C92.7137 29.0391 93.3185 29.8791 93.3185 30.9249V31.3743C93.3185 33.8145 94.6583 33.8229 96.2963 33.8229H101.231Z" fill="#DBDBDB"/>
<path d="M79.156 37.9006H72.8224V44.3854H79.156V37.9006Z" fill="#DBDBDB"/>
<path d="M79.156 32.6001V36.2247H72.856C72.8773 35.0003 73.0479 33.7831 73.3642 32.6001H79.156Z" fill="#DBDBDB"/>
<path d="M82.5075 29.0391L80.2689 31.1391H73.9689C75.1281 29.1861 77.0685 29.0391 79.2651 29.0391H82.5075Z" fill="#DBDBDB"/>
<path d="M123.105 108.952L131.748 118.028H139.993V108.952H123.105Z" fill="#DBDBDB"/>
<path d="M149.216 113.857H141.707V118.032H149.216V113.857Z" fill="#DBDBDB"/>
<path d="M146.121 108.952H141.707V112.745H146.121V108.952Z" fill="#DBDBDB"/>
<path d="M149.216 108.952H147.221V112.745H149.216V108.952Z" fill="#DBDBDB"/>
<path d="M108.081 122.728H121.933V129.352L113.075 133.371L108.081 122.728Z" fill="#DBDBDB"/>
<path d="M90.2859 156.479C93.719 156.479 96.5019 153.696 96.5019 150.263C96.5019 146.83 93.719 144.047 90.2859 144.047C86.8529 144.047 84.0699 146.83 84.0699 150.263C84.0699 153.696 86.8529 156.479 90.2859 156.479Z" fill="#E31E26"/>
<path d="M76.1488 51.6343H72.8224V56.4097H76.1488V51.6343Z" fill="#DBDBDB"/>
<path d="M82.4909 68.0229V51.6387H77.4173V64.8099H73.8221V68.0229H82.4909Z" fill="#DBDBDB"/>
<path d="M91.7308 51.6343H84.5446V59.1103H91.7308V51.6343Z" fill="#DBDBDB"/>
<path d="M76.1488 57.3296H72.8224V63.365H76.1488V57.3296Z" fill="#DBDBDB"/>
<path d="M147.683 92.8367H137.007V103.047H147.683V92.8367Z" fill="#DBDBDB"/>
<path d="M98.0224 81.8408L109.161 93.962H123.143V81.8408H98.0224Z" fill="#DBDBDB"/>
<path d="M110.748 95.3606L117.817 103.047H123.105V95.3606H110.748Z" fill="#DBDBDB"/>
<path d="M131.744 81.8408H125.209V86.9018H131.744V81.8408Z" fill="#DBDBDB"/>
<path d="M147.687 86.6913V75.3093L142.521 69.7485L133.517 79.4043V90.4461H144.193V86.6913H147.687Z" fill="#E31E26"/>
<path d="M149.216 62.7349V65.7883L147.742 64.3435L149.216 62.7349Z" fill="#DBDBDB"/>
<path d="M149.216 42.4578V51.8448L143.017 58.653H134.856V42.4578H149.216Z" fill="#DBDBDB"/>
<path d="M132.962 48.3875H125.02V58.6522H132.962V48.3875Z" fill="#E31E26"/>
<path d="M143.017 31.8904V40.7986H132.958V47.0986H125.02V33.8224H125.721C127.246 33.8224 128.493 33.8224 128.661 31.8904H143.017Z" fill="#DBDBDB"/>
<path d="M123.995 33.8218H118.296V40.5838H123.995V33.8218Z" fill="#DBDBDB"/>
<path d="M123.999 45.1956H108.804V52.6674H123.999V45.1956Z" fill="#DBDBDB"/>
<path d="M123.999 41.6638H118.296V44.0872H123.999V41.6638Z" fill="#DBDBDB"/>
<path d="M115.948 66.3598H111.794L108.804 63.5206V55.2634H115.948V66.3598Z" fill="#DBDBDB"/>
<path d="M89.7904 32.0999C89.7477 32.1384 89.7071 32.1791 89.6686 32.2217L89.5972 32.2889C89.2824 31.976 88.8566 31.8004 88.4128 31.8004C87.9689 31.8004 87.5431 31.976 87.2284 32.2889L87.1612 32.2175L87.0394 32.0957L87.1948 31.9571C87.3061 31.868 87.4273 31.7919 87.556 31.7303C87.7057 31.6547 87.8656 31.601 88.0306 31.5707C88.1097 31.5554 88.1896 31.5442 88.27 31.5371H88.48H88.6396C88.7831 31.5559 88.924 31.5912 89.0596 31.6421C89.1627 31.6797 89.2625 31.7261 89.3578 31.7807C89.4574 31.8378 89.5516 31.9039 89.6392 31.9781L89.7694 32.0957L89.7904 32.0999Z" fill="#A6A6A6"/>
<path d="M87.6148 32.6751L87.4216 32.4819C87.6349 32.268 87.9121 32.1294 88.2112 32.0871C88.4264 32.0536 88.6465 32.0719 88.8533 32.1406C89.06 32.2093 89.2473 32.3263 89.3998 32.4819C89.3368 32.5449 89.2738 32.6121 89.2066 32.6751C89.1031 32.5699 88.9795 32.4866 88.8431 32.4303C88.7067 32.374 88.5603 32.3458 88.4128 32.3475C88.2646 32.3462 88.1178 32.3746 87.9807 32.4308C87.8437 32.4871 87.7193 32.5701 87.6148 32.6751Z" fill="#A6A6A6"/>
<path d="M89.0134 32.8685L88.8202 33.0617C88.7647 33.0074 88.6991 32.9646 88.627 32.9357C88.5549 32.9069 88.4778 32.8926 88.4002 32.8937C88.3221 32.8922 88.2446 32.9067 88.1723 32.9363C88.1001 32.966 88.0347 33.0101 87.9802 33.0659L87.787 32.8727C87.8653 32.7886 87.96 32.7213 88.0653 32.6752C88.1706 32.6291 88.2843 32.6051 88.3993 32.6047C88.5142 32.6043 88.6281 32.6276 88.7337 32.6729C88.8393 32.7183 88.9345 32.7849 89.0134 32.8685Z" fill="#A6A6A6"/>
<path d="M88.5849 33.2384C88.5855 33.2614 88.5814 33.2842 88.573 33.3056C88.5646 33.327 88.552 33.3465 88.536 33.3629C88.52 33.3793 88.5008 33.3924 88.4796 33.4013C88.4584 33.4102 88.4357 33.4148 88.4127 33.4148C88.3896 33.4148 88.3666 33.4102 88.3452 33.4014C88.3238 33.3925 88.3044 33.3795 88.288 33.3631C88.2716 33.3468 88.2586 33.3273 88.2498 33.3059C88.2409 33.2845 88.2363 33.2616 88.2363 33.2384C88.2363 33.2154 88.2409 33.1927 88.2498 33.1715C88.2587 33.1504 88.2718 33.1312 88.2882 33.1151C88.3047 33.0991 88.3242 33.0865 88.3455 33.0781C88.3669 33.0697 88.3898 33.0657 88.4127 33.0662C88.4584 33.0662 88.5022 33.0844 88.5345 33.1166C88.5668 33.1489 88.5849 33.1927 88.5849 33.2384Z" fill="#A6A6A6"/>
<path d="M77.7994 32.4696C77.7994 32.3691 77.8292 32.2709 77.885 32.1873C77.9409 32.1037 78.0203 32.0386 78.1131 32.0001C78.206 31.9616 78.3082 31.9516 78.4067 31.9712C78.5053 31.9908 78.5959 32.0392 78.667 32.1103C78.738 32.1813 78.7864 32.2719 78.806 32.3705C78.8256 32.4691 78.8156 32.5712 78.7771 32.6641C78.7386 32.757 78.6735 32.8363 78.5899 32.8922C78.5064 32.948 78.4081 32.9778 78.3076 32.9778C78.2407 32.9784 78.1744 32.9656 78.1125 32.9403C78.0505 32.9149 77.9943 32.8775 77.947 32.8302C77.8997 32.7829 77.8623 32.7267 77.8369 32.6648C77.8116 32.6029 77.7988 32.5365 77.7994 32.4696Z" fill="#A6A6A6"/>
<path d="M79.3955 32.4696C79.3955 32.3691 79.4253 32.2709 79.4811 32.1873C79.537 32.1037 79.6163 32.0386 79.7092 32.0001C79.8021 31.9616 79.9042 31.9516 80.0028 31.9712C80.1014 31.9908 80.1919 32.0392 80.263 32.1103C80.3341 32.1813 80.3825 32.2719 80.4021 32.3705C80.4217 32.4691 80.4116 32.5712 80.3732 32.6641C80.3347 32.757 80.2696 32.8363 80.186 32.8922C80.1024 32.948 80.0042 32.9778 79.9037 32.9778C79.8368 32.9784 79.7704 32.9656 79.7085 32.9403C79.6466 32.9149 79.5904 32.8775 79.5431 32.8302C79.4958 32.7829 79.4584 32.7267 79.433 32.6648C79.4077 32.6029 79.3949 32.5365 79.3955 32.4696Z" fill="#A6A6A6"/>
<path d="M80.9915 32.4696C80.9915 32.3689 81.0214 32.2705 81.0774 32.1868C81.1334 32.1032 81.2131 32.038 81.3062 31.9997C81.3993 31.9614 81.5017 31.9516 81.6004 31.9715C81.6991 31.9915 81.7896 32.0403 81.8605 32.1118C81.9314 32.1833 81.9795 32.2742 81.9986 32.3731C82.0177 32.4719 82.0071 32.5742 81.968 32.667C81.9289 32.7598 81.8631 32.8389 81.7789 32.8942C81.6948 32.9495 81.5962 32.9786 81.4955 32.9778C81.4289 32.9778 81.3631 32.9646 81.3016 32.939C81.2402 32.9135 81.1845 32.876 81.1376 32.8287C81.0907 32.7815 81.0537 32.7254 81.0286 32.6638C81.0035 32.6021 80.9909 32.5361 80.9915 32.4696Z" fill="#A6A6A6"/>
<path d="M82.5874 32.4696C82.5874 32.3689 82.6173 32.2705 82.6733 32.1868C82.7293 32.1032 82.809 32.038 82.9021 31.9997C82.9952 31.9614 83.0976 31.9516 83.1963 31.9715C83.2949 31.9915 83.3855 32.0403 83.4564 32.1118C83.5273 32.1833 83.5754 32.2742 83.5945 32.3731C83.6136 32.4719 83.603 32.5742 83.5639 32.667C83.5247 32.7598 83.459 32.8389 83.3748 32.8942C83.2907 32.9495 83.192 32.9786 83.0914 32.9778C83.0248 32.9778 82.9589 32.9646 82.8975 32.939C82.8361 32.9135 82.7803 32.876 82.7335 32.8287C82.6866 32.7815 82.6496 32.7254 82.6245 32.6638C82.5994 32.6021 82.5868 32.5361 82.5874 32.4696Z" fill="#A6A6A6"/>
<path d="M84.1792 32.4696C84.1792 32.3691 84.209 32.2709 84.2648 32.1873C84.3206 32.1037 84.4 32.0386 84.4929 32.0001C84.5857 31.9616 84.6879 31.9516 84.7865 31.9712C84.8851 31.9908 84.9756 32.0392 85.0467 32.1103C85.1178 32.1813 85.1662 32.2719 85.1858 32.3705C85.2054 32.4691 85.1953 32.5712 85.1569 32.6641C85.1184 32.757 85.0533 32.8363 84.9697 32.8922C84.8861 32.948 84.7879 32.9778 84.6874 32.9778C84.6205 32.9784 84.5541 32.9656 84.4922 32.9403C84.4303 32.9149 84.3741 32.8775 84.3268 32.8302C84.2795 32.7829 84.242 32.7267 84.2167 32.6648C84.1914 32.6029 84.1786 32.5365 84.1792 32.4696Z" fill="#A6A6A6"/>
<path d="M143.378 31.7732H139.468V33.4742H143.378V31.7732Z" fill="#A6A6A6"/>
<path d="M143.487 33.5745H139.363V31.6677H143.487V33.5745ZM139.573 33.3645H143.277V31.8777H139.581L139.573 33.3645Z" fill="white"/>
<path d="M142.366 31.9915H139.707V33.2515H142.366V31.9915Z" fill="#A6A6A6"/>
<path d="M143.853 32.1086H143.487V33.1292H143.853V32.1086Z" fill="#A6A6A6"/>
<path d="M114.608 138.315L114.268 137.551L128.388 131.276H137.133L88.2028 77.8522H104.944V46.4026H105.784V78.6922H90.1096L139.04 132.116H128.569L114.608 138.315Z" fill="#E31E26"/>
<path d="M108.203 41.4499C108.081 40.0303 107.082 38.6401 105.364 38.6401C103.646 38.6401 102.672 40.0513 102.529 41.4709C102.315 43.6591 103.789 45.6457 105.364 47.4559C106.943 45.6247 108.422 43.6381 108.203 41.4499ZM105.364 43.0249C105.057 43.0241 104.757 42.9323 104.502 42.761C104.247 42.5897 104.048 42.3467 103.931 42.0627C103.814 41.7787 103.784 41.4664 103.844 41.1652C103.905 40.864 104.053 40.5875 104.271 40.3706C104.488 40.1537 104.765 40.0061 105.066 39.9465C105.368 39.8869 105.68 39.9179 105.964 40.0356C106.247 40.1534 106.49 40.3526 106.661 40.608C106.831 40.8635 106.922 41.1638 106.922 41.4709C106.923 41.6755 106.883 41.8782 106.805 42.0673C106.726 42.2563 106.612 42.428 106.467 42.5725C106.322 42.717 106.15 42.8313 105.961 42.909C105.771 42.9866 105.569 43.026 105.364 43.0249Z" fill="#E31E26"/>
<path d="M112.504 143.393L112.466 139.038L108.959 136.455L117.536 136.564L112.504 143.393Z" fill="#37474F"/>
<path d="M99.2614 176.333L90.0214 160.793L90.685 160.73C94.0896 160.198 97.1598 158.379 99.2614 155.648C102.659 151.166 99.6478 144.791 99.6184 144.728L99.4294 144.346L113.067 138.113L113.415 138.877L100.551 144.757C101.189 146.286 103.176 151.897 99.9292 156.16C97.8189 158.915 94.7722 160.801 91.3654 161.461L99.9544 175.904L99.2614 176.333Z" fill="#37474F"/>
<path d="M102.441 171.437C102.298 170.017 101.319 168.606 99.6016 168.606C97.8838 168.606 96.9094 170.017 96.7666 171.437C96.5524 173.625 98.0266 175.611 99.6016 177.422C101.181 175.611 102.659 173.625 102.441 171.437ZM99.6016 173.012C99.2944 173.011 98.9944 172.919 98.7394 172.748C98.4844 172.576 98.2859 172.333 98.1689 172.049C98.0519 171.765 98.0217 171.453 98.0822 171.152C98.1426 170.851 98.2909 170.574 98.5084 170.357C98.7259 170.14 99.0028 169.993 99.3042 169.933C99.6055 169.873 99.9177 169.904 100.201 170.022C100.485 170.14 100.728 170.339 100.898 170.595C101.069 170.85 101.16 171.15 101.16 171.458C101.16 171.662 101.12 171.865 101.042 172.054C100.964 172.243 100.849 172.415 100.704 172.559C100.56 172.704 100.388 172.818 100.198 172.896C100.009 172.973 99.8062 173.013 99.6016 173.012Z" fill="#E31E26"/>
<path d="M163.467 121.166C163.468 123.702 162.696 126.178 161.254 128.263C159.812 130.349 157.767 131.945 155.394 132.839C153.021 133.732 150.432 133.881 147.972 133.265C145.512 132.648 143.299 131.296 141.627 129.389H117.401L114.012 135.66L110.623 129.389H107.527V112.942H141.631C143.304 111.037 145.518 109.687 147.977 109.072C150.437 108.457 153.025 108.607 155.398 109.501C157.77 110.394 159.814 111.99 161.256 114.075C162.699 116.16 163.471 118.635 163.471 121.17L163.467 121.166Z" fill="white"/>
<path d="M163.467 121.166C163.451 122.425 163.265 123.677 162.913 124.887C162.524 126.079 161.97 127.21 161.266 128.247C159.817 130.339 157.767 131.942 155.386 132.842C155.093 132.96 154.795 133.064 154.492 133.152L153.576 133.388C153.269 133.451 152.954 133.488 152.644 133.543C152.332 133.593 152.018 133.623 151.703 133.631C150.44 133.721 149.171 133.609 147.944 133.299C145.469 132.686 143.239 131.334 141.551 129.423L141.614 129.452L117.385 129.519L117.515 129.44L114.155 135.719L114.008 135.996L113.861 135.719L110.455 129.456L110.618 129.557H107.523H107.326V129.36C107.326 126.617 107.326 123.879 107.326 121.136L107.351 112.913V112.736H107.527L141.631 112.829L141.547 112.913V112.883L141.568 112.858C143.266 110.955 145.503 109.614 147.982 109.015C149.209 108.706 150.478 108.594 151.741 108.683C152.056 108.692 152.37 108.721 152.681 108.771C152.992 108.826 153.307 108.864 153.614 108.927L154.529 109.162C154.833 109.25 155.131 109.354 155.424 109.473C157.804 110.371 159.855 111.972 161.304 114.063C162.007 115.108 162.561 116.246 162.95 117.444C163.29 118.656 163.463 119.908 163.467 121.166ZM163.467 121.166C163.444 119.908 163.251 118.659 162.892 117.453C162.494 116.259 161.928 115.128 161.212 114.093C159.766 112.02 157.724 110.437 155.357 109.553C155.067 109.436 154.772 109.337 154.471 109.254L153.559 109.023C153.253 108.96 152.938 108.927 152.631 108.876C152.321 108.825 152.008 108.797 151.694 108.792C150.444 108.709 149.188 108.825 147.973 109.137C145.536 109.752 143.342 111.092 141.682 112.98L141.703 112.925V113.009H141.619L107.515 113.102L107.691 112.925L107.716 121.149C107.716 123.891 107.716 126.63 107.716 129.372L107.519 129.175H110.614H110.728L110.778 129.276L114.138 135.555H113.844L117.25 129.293L117.292 129.213H117.38L141.61 129.28H141.682L141.707 129.309C143.364 131.209 145.562 132.558 148.007 133.173C149.221 133.488 150.477 133.606 151.728 133.522C152.042 133.517 152.355 133.489 152.665 133.438C152.971 133.392 153.286 133.354 153.593 133.295L154.5 133.06C154.802 132.978 155.1 132.879 155.39 132.762C157.759 131.878 159.802 130.294 161.249 128.222C161.957 127.185 162.516 126.054 162.908 124.862C163.26 123.66 163.448 122.417 163.467 121.166Z" fill="#263238"/>
<path d="M156.163 130.735C161.451 127.884 163.427 121.286 160.576 115.998C157.725 110.71 151.127 108.734 145.839 111.585C140.551 114.436 138.575 121.034 141.426 126.322C144.277 131.611 150.875 133.586 156.163 130.735Z" fill="#E31E26"/>
<path d="M116.725 119.591C116.582 118.171 115.604 116.76 113.886 116.76C112.168 116.76 111.194 118.171 111.051 119.591C110.837 121.779 112.311 123.766 113.886 125.576C115.465 123.766 116.944 121.8 116.725 119.591ZM113.886 121.166C113.579 121.165 113.279 121.073 113.024 120.902C112.769 120.731 112.57 120.488 112.453 120.204C112.336 119.92 112.306 119.607 112.367 119.306C112.427 119.005 112.575 118.729 112.793 118.512C113.01 118.295 113.287 118.147 113.589 118.088C113.89 118.028 114.202 118.059 114.486 118.177C114.77 118.294 115.012 118.494 115.183 118.749C115.353 119.005 115.444 119.305 115.444 119.612C115.445 119.817 115.405 120.019 115.327 120.208C115.248 120.397 115.134 120.569 114.989 120.714C114.844 120.858 114.672 120.972 114.483 121.05C114.293 121.128 114.091 121.167 113.886 121.166Z" fill="#E31E26"/>
<path d="M137.007 118.062H119.821V118.579H137.007V118.062Z" fill="#A6A6A6"/>
<path d="M134.306 119.499H119.821V120.016H134.306V119.499Z" fill="#A6A6A6"/>
<path d="M136.159 120.935H119.821V121.452H136.159V120.935Z" fill="#A6A6A6"/>
<path d="M129.577 122.371H119.821V122.887H129.577V122.371Z" fill="#A6A6A6"/>
<path d="M158.368 129.15C156.362 131.006 153.73 132.039 150.997 132.044C150.505 132.044 150.014 132.007 149.527 131.935C149.204 131.898 148.882 131.842 148.565 131.767C148.961 130.494 149.452 129.252 150.035 128.054C150.082 127.953 150.14 127.856 150.187 127.772C150.263 127.646 150.345 127.524 150.434 127.407C150.854 126.886 151.904 126.63 153.051 126.609C153.549 126.598 154.048 126.624 154.542 126.689C154.939 126.737 155.331 126.818 155.714 126.932L155.785 126.953H155.827L156.1 127.054L156.34 127.163C156.349 127.161 156.359 127.161 156.369 127.163C156.503 127.225 156.628 127.302 156.743 127.394C156.818 127.457 156.902 127.529 156.982 127.604C157.494 128.073 157.958 128.59 158.368 129.15Z" fill="#EBEBEB"/>
<path d="M158.549 128.982C158.492 129.041 158.431 129.097 158.368 129.15C157.533 129.927 156.579 130.565 155.542 131.04C155.852 128.94 156.092 127.314 156.125 127.05C156.127 127.036 156.127 127.022 156.125 127.008C156.205 127.054 156.282 127.105 156.356 127.159C156.366 127.156 156.376 127.156 156.386 127.159C156.533 127.256 156.743 127.403 156.999 127.6C157.547 128.024 158.065 128.486 158.549 128.982Z" fill="#37474F"/>
<path d="M150.275 127.26L150.195 127.768C150.195 127.894 150.149 128.041 150.128 128.188C150.107 128.335 150.086 128.449 150.056 128.608C149.922 129.448 149.733 130.645 149.527 131.931C149.204 131.894 148.882 131.838 148.565 131.763L148.452 131.737C148.858 130.339 149.378 128.977 150.006 127.663C150.087 127.523 150.177 127.389 150.275 127.26Z" fill="#37474F"/>
<path d="M151.556 131.002C152.816 131.145 155.185 129.402 155.844 127.554C155.89 127.428 155.517 126.227 155.134 124.744C154.903 123.846 154.668 122.838 154.521 121.905C154.492 121.712 148.885 124.253 148.885 124.253C149.404 125.369 149.785 126.544 150.019 127.752C150.031 127.882 150.031 128.012 150.019 128.142V128.205C150.04 128.94 150.216 130.847 151.556 131.002Z" fill="#D3766A"/>
<path d="M150.04 128.142C150.038 128.163 150.038 128.184 150.04 128.205C150.243 128.199 150.445 128.178 150.644 128.142C154.08 127.521 154.307 123.06 154.307 121.939C153.29 122.254 148.88 124.253 148.88 124.253C149.4 125.37 149.781 126.546 150.014 127.756C150.033 127.884 150.041 128.013 150.04 128.142Z" fill="#263238"/>
<path d="M154.458 114.459C155.357 116.467 155.012 122.632 153.698 124.165C151.791 126.383 148.292 127.013 146.31 124.636C144.391 122.33 144.979 114.299 146.482 112.876C148.7 110.763 153.127 111.494 154.458 114.459Z" fill="#D3766A"/>
<path d="M150.187 118.81C150.187 118.81 150.216 118.831 150.216 118.848C150.182 119.268 150.216 119.742 150.581 119.898C150.581 119.898 150.581 119.927 150.581 119.923C150.119 119.835 150.082 119.196 150.187 118.81Z" fill="#263238"/>
<path d="M150.577 118.394C151.249 118.394 151.233 119.721 150.611 119.733C149.989 119.746 150.015 118.406 150.577 118.394Z" fill="#263238"/>
<path d="M147.641 118.86C147.641 118.86 147.608 118.86 147.608 118.897C147.608 119.317 147.557 119.792 147.188 119.926C147.188 119.926 147.188 119.952 147.188 119.947C147.641 119.876 147.717 119.242 147.641 118.86Z" fill="#263238"/>
<path d="M147.276 118.41C146.604 118.351 146.537 119.691 147.158 119.746C147.78 119.8 147.835 118.439 147.276 118.41Z" fill="#263238"/>
<path d="M151.115 117.785C150.939 117.732 150.767 117.669 150.598 117.596C150.406 117.555 150.234 117.452 150.107 117.302C150.075 117.247 150.063 117.183 150.072 117.121C150.082 117.059 150.111 117.001 150.157 116.958C150.259 116.885 150.379 116.84 150.504 116.829C150.628 116.818 150.754 116.841 150.867 116.895C151.113 116.97 151.323 117.131 151.459 117.348C151.486 117.4 151.497 117.459 151.491 117.517C151.485 117.575 151.463 117.631 151.426 117.676C151.39 117.722 151.342 117.757 151.287 117.776C151.231 117.795 151.172 117.798 151.115 117.785Z" fill="#263238"/>
<path d="M146.763 117.726C146.948 117.696 147.116 117.642 147.297 117.596C147.492 117.574 147.675 117.49 147.818 117.356C147.856 117.306 147.877 117.245 147.877 117.182C147.877 117.119 147.856 117.058 147.818 117.008C147.725 116.924 147.611 116.867 147.488 116.843C147.365 116.818 147.238 116.827 147.12 116.869C146.867 116.914 146.64 117.052 146.482 117.255C146.45 117.303 146.432 117.359 146.43 117.416C146.429 117.474 146.443 117.531 146.473 117.58C146.502 117.63 146.546 117.67 146.597 117.695C146.648 117.721 146.706 117.732 146.763 117.726Z" fill="#263238"/>
<path d="M149.805 121.422C149.698 121.586 149.559 121.726 149.396 121.833C149.232 121.94 149.048 122.012 148.855 122.044C148.685 122.067 148.513 122.067 148.343 122.044C148.311 122.048 148.278 122.048 148.246 122.044H148.154C148.108 122.044 148.083 121.997 148.074 121.951C148.072 121.937 148.072 121.923 148.074 121.909V121.876C148.074 121.552 148.108 121.065 148.108 121.065C147.99 121.124 147.39 121.384 147.402 121.22C147.454 119.776 147.654 118.34 147.999 116.936C147.999 116.926 148.002 116.917 148.01 116.91C148.017 116.903 148.026 116.899 148.036 116.899C148.046 116.899 148.056 116.903 148.063 116.91C148.07 116.917 148.074 116.926 148.074 116.936C148.032 118.272 147.755 119.591 147.692 120.926C147.906 120.833 148.132 120.768 148.364 120.733C148.41 120.733 148.276 121.674 148.288 121.817C148.55 121.845 148.816 121.821 149.068 121.745C149.321 121.67 149.555 121.544 149.758 121.376C149.8 121.38 149.83 121.38 149.805 121.422Z" fill="#263238"/>
<path d="M148.536 121.901C148.708 122.131 148.937 122.313 149.2 122.43C149.347 122.488 149.508 122.499 149.662 122.464C149.993 122.38 150.006 122.073 149.947 121.813C149.916 121.674 149.868 121.54 149.804 121.414C149.443 121.705 149 121.876 148.536 121.901Z" fill="#263238"/>
<path d="M149.2 122.431C149.347 122.489 149.508 122.5 149.662 122.464C149.993 122.38 150.006 122.074 149.947 121.813C149.771 121.818 149.602 121.881 149.467 121.993C149.331 122.105 149.237 122.259 149.2 122.431Z" fill="#FF9ABB"/>
<path d="M145.571 114.9C145.806 114.375 146.075 113.846 146.411 113.745C146.747 113.644 147.381 114.585 148.091 114.639C149.065 114.715 149.72 113.627 151.085 113.543C152.45 113.459 153.269 115.11 153.29 117.89C153.29 120.377 154.807 120.624 154.807 120.624C154.807 120.624 155.773 115.164 154.244 113.325C152.715 111.485 149.204 110.658 146.789 112.363C145.911 112.98 145.571 114.9 145.571 114.9Z" fill="#263238"/>
<path d="M153.559 119.633C153.559 119.633 154.718 117.533 155.659 117.928C156.6 118.322 155.869 121.262 154.87 121.762C154.746 121.834 154.608 121.881 154.466 121.899C154.324 121.917 154.179 121.906 154.041 121.867C153.903 121.827 153.774 121.761 153.663 121.671C153.551 121.581 153.459 121.469 153.391 121.342L153.559 119.633Z" fill="#D3766A"/>
<path d="M155.428 118.768C155.428 118.768 155.428 118.768 155.428 118.793C154.727 119.167 154.416 119.885 154.219 120.612C154.254 120.535 154.306 120.466 154.371 120.411C154.435 120.356 154.51 120.315 154.592 120.291C154.673 120.267 154.759 120.261 154.843 120.273C154.927 120.285 155.008 120.314 155.08 120.36C155.08 120.36 155.08 120.406 155.08 120.402C154.947 120.374 154.809 120.388 154.685 120.442C154.56 120.496 154.456 120.588 154.387 120.704C154.27 120.899 154.176 121.106 154.105 121.322C154.076 121.389 153.954 121.368 153.971 121.288C153.862 120.343 154.437 118.965 155.428 118.768Z" fill="#263238"/>
<path d="M41.6921 56.8017C41.3998 54.8634 40.4059 53.1089 38.9081 51.8873C37.4102 50.6657 35.5183 50.0666 33.6088 50.2091L33.2118 50.2376C28.9876 50.807 27.1017 54.8048 27.7727 59.1158L29.2456 74.4156L29.3171 77.5757L39.3814 78.5111L39.1631 71.8331C39.1631 71.8331 43.1968 70.8815 42.9506 66.7006C42.8474 64.6794 42.2558 60.5392 41.6921 56.8017Z" fill="#FFBF9D"/>
<path d="M39.1988 71.8248C37.3025 71.9643 35.4071 71.5407 33.7398 70.6047C33.7398 70.6047 35.1572 73.6224 39.1988 72.9432V71.8248Z" fill="#FF9A6C"/>
<path d="M40.1119 60.9701C40.1242 61.1255 40.0767 61.2797 39.9795 61.3997C39.8823 61.5198 39.7432 61.5962 39.5918 61.6126C39.5183 61.6236 39.4434 61.6195 39.3714 61.6006C39.2994 61.5817 39.2318 61.5485 39.1723 61.5028C39.1129 61.457 39.063 61.3997 39.0253 61.3341C38.9875 61.2685 38.9629 61.1959 38.9527 61.1205C38.9393 60.9644 38.9863 60.8092 39.0836 60.6883C39.1809 60.5673 39.3206 60.4904 39.4727 60.4739C39.5466 60.463 39.6218 60.4673 39.694 60.4864C39.7662 60.5055 39.834 60.5391 39.8935 60.5852C39.9529 60.6314 40.0029 60.6892 40.0404 60.7552C40.0779 60.8213 40.1022 60.8943 40.1119 60.9701Z" fill="#263238"/>
<path d="M40.9616 58.9124C40.8941 58.9937 40.4296 58.6928 39.8023 58.7416C39.175 58.7904 38.7383 59.1483 38.6668 59.071C38.5954 58.9937 38.6946 58.892 38.8812 58.7294C39.1395 58.5164 39.4556 58.3901 39.7864 58.3674C40.112 58.3451 40.4364 58.426 40.7154 58.5992C40.9179 58.7375 40.9933 58.8758 40.9616 58.9124Z" fill="#263238"/>
<path d="M34.236 61.544C34.2494 61.699 34.2028 61.8532 34.1062 61.9734C34.0097 62.0936 33.871 62.1701 33.7199 62.1866C33.6462 62.1986 33.5709 62.1953 33.4985 62.1769C33.4261 62.1585 33.358 62.1254 33.2984 62.0795C33.2387 62.0335 33.1887 61.9758 33.1513 61.9096C33.1139 61.8435 33.0899 61.7703 33.0807 61.6945C33.0684 61.5392 33.1152 61.3851 33.2115 61.2645C33.3077 61.1439 33.4459 61.0662 33.5968 61.0478C33.6708 61.0358 33.7464 61.0392 33.8191 61.0578C33.8917 61.0765 33.96 61.11 34.0197 61.1563C34.0794 61.2027 34.1293 61.2609 34.1665 61.3275C34.2037 61.3941 34.2273 61.4678 34.236 61.544Z" fill="#263238"/>
<path d="M34.8078 59.4898C34.7403 59.5753 34.2758 59.2743 33.6485 59.319C33.0212 59.3638 32.5845 59.7257 32.513 59.6525C32.4416 59.5793 32.5408 59.4736 32.7314 59.3068C32.9882 59.0945 33.3032 58.9694 33.6326 58.9489C33.9585 58.9219 34.2843 59.0032 34.5616 59.1808C34.7641 59.319 34.8395 59.4654 34.8078 59.4898Z" fill="#263238"/>
<path d="M37.4202 64.0818C37.7431 63.9516 38.0804 63.8629 38.4246 63.8174C38.5834 63.7889 38.7343 63.7442 38.7541 63.6303C38.7539 63.4607 38.7041 63.2949 38.6112 63.1545L38.0474 61.9344C37.2534 60.206 36.6857 58.7785 36.7532 58.7459C36.8207 58.7134 37.5115 60.0921 38.2976 61.8205C38.4842 62.2272 38.6668 62.6339 38.8375 63.0406C38.9533 63.231 38.9997 63.4571 38.9685 63.6791C38.9494 63.7383 38.9173 63.7922 38.8746 63.8366C38.8319 63.881 38.7798 63.9148 38.7224 63.9354C38.6352 63.9671 38.5445 63.9876 38.4524 63.9964C38.1132 64.0695 37.7664 64.0982 37.4202 64.0818Z" fill="#263238"/>
<path d="M35.6098 64.6619C35.7091 64.6619 35.7607 65.3451 36.376 65.7965C36.9914 66.248 37.714 66.1178 37.7259 66.2032C37.7378 66.2887 37.575 66.3496 37.2693 66.3822C36.871 66.4178 36.4731 66.3083 36.1458 66.0731C35.832 65.8467 35.6169 65.5038 35.5463 65.1174C35.4986 64.8408 35.5622 64.6619 35.6098 64.6619Z" fill="#263238"/>
<path d="M34.7919 56.964C34.7402 57.143 34.109 57.1064 33.3825 57.2528C32.6559 57.3992 32.0723 57.6595 31.9611 57.4968C31.9135 57.4236 32.0048 57.2528 32.2351 57.0657C32.5406 56.8361 32.8929 56.6803 33.2655 56.6099C33.6381 56.5394 34.0215 56.5562 34.3869 56.659C34.6648 56.7485 34.8117 56.8786 34.7919 56.964Z" fill="#263238"/>
<path d="M40.5961 57.0697C40.4969 57.2243 40.0562 57.1063 39.5361 57.1348C39.016 57.1633 38.5833 57.3056 38.4721 57.1592C38.4205 57.0901 38.4721 56.9396 38.6627 56.785C38.91 56.6019 39.2045 56.4973 39.5095 56.4843C39.8144 56.4713 40.1164 56.5504 40.3778 56.7118C40.5683 56.8501 40.6398 56.9965 40.5961 57.0697Z" fill="#263238"/>
<path d="M28.7175 63.1252C28.702 62.9724 28.6564 62.8244 28.5833 62.6903C28.5102 62.5562 28.4112 62.4387 28.2923 62.3451C28.1734 62.2515 28.0371 62.1836 27.8918 62.1458C27.7465 62.1079 27.5951 62.1007 27.447 62.1247C26.6887 62.2549 25.8589 62.7592 26.0416 64.3656C26.3314 67.2125 29.0668 66.3259 29.0629 66.2446C29.0589 66.1632 28.8524 64.3209 28.7175 63.1252Z" fill="#FFBF9D"/>
<path d="M28.3443 65.2408C28.3443 65.2408 28.3006 65.2815 28.2212 65.3303C28.1109 65.3923 27.9815 65.4084 27.8599 65.375C27.6677 65.2788 27.5043 65.1314 27.387 64.9482C27.2696 64.765 27.2026 64.5528 27.1929 64.3339C27.1626 64.0907 27.1843 63.8437 27.2564 63.61C27.2754 63.5206 27.3148 63.4372 27.3714 63.3665C27.428 63.2958 27.5002 63.2398 27.582 63.2033C27.6365 63.183 27.6962 63.1824 27.7511 63.2016C27.8059 63.2209 27.8528 63.2588 27.8837 63.309C27.9274 63.3863 27.9155 63.4432 27.9314 63.4473C27.9472 63.4514 27.9869 63.3944 27.9314 63.2806C27.9108 63.2107 27.8655 63.1512 27.8043 63.1138C27.7633 63.0877 27.7175 63.0703 27.6698 63.0626C27.622 63.0549 27.5733 63.0571 27.5264 63.0691C27.4219 63.1043 27.3273 63.1648 27.2506 63.2455C27.1739 63.3263 27.1173 63.4248 27.0857 63.5327C26.9926 63.7926 26.964 64.0721 27.0023 64.3461C27.0778 64.9155 27.3994 65.4238 27.8321 65.497C27.9092 65.5123 27.9886 65.5093 28.0643 65.4881C28.1401 65.467 28.21 65.4283 28.2688 65.375C28.3482 65.314 28.3562 65.249 28.3443 65.2408Z" fill="#FF9A6C"/>
<path d="M26.4902 60.226C26.7204 61.0394 26.6371 62.4018 27.3477 62.2147C28.7651 61.8487 28.4236 64.8216 29.1025 64.5288C29.7814 64.236 30.365 63.3982 30.4087 61.5681C30.4603 59.2499 29.5512 57.5743 30.4405 54.9145C30.7254 54.3846 31.1388 53.9389 31.6409 53.6204C32.1431 53.302 32.7169 53.1216 33.3069 53.0966C33.9016 53.0832 34.4898 53.2256 35.0158 53.5103C35.5417 53.795 35.988 54.2126 36.3123 54.7234C36.4394 53.91 36.8245 52.6899 37.5272 52.2832C37.8794 52.0855 38.2806 51.9983 38.6808 52.0323C39.081 52.0662 39.4627 52.22 39.7783 52.4744C40.08 52.7454 40.2759 53.119 40.3299 53.5263C40.3839 53.9336 40.2923 54.3472 40.0721 54.6908C40.2348 54.7413 40.409 54.7369 40.5691 54.6783C40.7292 54.6197 40.8667 54.5101 40.9614 54.3655C40.9763 54.5547 40.9526 54.7449 40.8917 54.9242C40.8309 55.1034 40.7343 55.2677 40.608 55.4066C40.9006 55.3315 41.1563 55.1492 41.3266 54.8942C41.2552 55.2318 41.1877 55.5652 41.1162 55.8987C42.3073 55.9313 43.4745 54.7478 43.808 53.6985C44.3082 52.1002 43.9231 50.4897 43.0497 49.0703C42.6229 48.3529 42.0269 47.7568 41.3165 47.3368C40.6062 46.9168 39.8042 46.6864 38.9843 46.6667C37.3485 46.6667 35.9788 47.4801 35.3476 49.0215C34.2836 48.2529 32.1318 47.9844 30.9487 48.5375C30.3568 48.8209 29.8457 49.2549 29.4641 49.7982C29.0826 50.3414 28.8433 50.9757 28.769 51.6406C28.3882 51.504 27.9787 51.4734 27.5825 51.552C27.1863 51.6306 26.8175 51.8156 26.514 52.088L26.3631 52.2222C25.947 52.6287 25.6381 53.1366 25.4653 53.6984C25.2924 54.2601 25.2612 54.8576 25.3746 55.4351C25.4619 55.9028 25.6207 56.3827 25.712 56.7569C25.986 57.8834 26.4902 60.226 26.4902 60.226Z" fill="#263238"/>
<path d="M41.148 54.3077C41.148 54.3077 41.1838 54.3077 41.2433 54.2304C41.3296 54.1518 41.4081 54.0647 41.4776 53.9701C41.7394 53.6148 41.9015 53.1929 41.946 52.7501C41.9855 52.4227 41.9564 52.0905 41.8606 51.7756C41.7647 51.4607 41.6043 51.1703 41.3902 50.924C41.1266 50.6217 40.7951 50.3896 40.4243 50.2479C40.0536 50.1062 39.6547 50.0591 39.2622 50.1106C38.8578 50.1742 38.4725 50.3298 38.1347 50.5661C37.8159 50.7746 37.5306 51.0326 37.289 51.3307C36.6109 52.1842 36.2582 53.2608 36.2965 54.3606C36.2965 54.5151 36.2965 54.6331 36.3322 54.7144C36.3351 54.7559 36.3431 54.7969 36.3561 54.8364C36.3173 54.2469 36.3722 53.6549 36.5188 53.0835C36.6875 52.4687 36.9796 51.8966 37.3764 51.4039C37.844 50.7869 38.5165 50.3672 39.2662 50.2245C39.6404 50.1775 40.0201 50.2235 40.3733 50.3587C40.7264 50.494 41.0426 50.7143 41.2949 51.0013C41.5009 51.2356 41.6564 51.5116 41.7515 51.8115C41.8466 52.1114 41.879 52.4284 41.8468 52.7419C41.8099 53.1698 41.6649 53.5805 41.4259 53.9335C41.2592 54.1776 41.1401 54.2996 41.148 54.3077Z" fill="#455A64"/>
<path d="M41.696 55.5852C41.7291 55.5427 41.7571 55.4963 41.7794 55.447C41.831 55.3534 41.9065 55.2151 41.9978 55.0403C42.2644 54.5311 42.4838 53.9973 42.6528 53.446C42.7645 53.0615 42.8259 52.6636 42.8355 52.2625C42.85 51.7986 42.7674 51.3368 42.5933 50.9082C42.3927 50.4316 42.0601 50.0258 41.6365 49.741C41.1839 49.4393 40.6628 49.2628 40.1239 49.2286C39.5828 49.1988 39.0417 49.2861 38.5358 49.4848C38.0713 49.6696 37.6363 49.9246 37.2455 50.2413C36.5622 50.7585 36.0664 51.4939 35.8361 52.3317C35.6906 52.8989 35.7198 53.4983 35.9195 54.0479C35.9733 54.1909 36.0425 54.3273 36.1259 54.4546C36.1523 54.5029 36.1858 54.5468 36.2252 54.5848C36.1208 54.4051 36.033 54.2159 35.9631 54.0195C35.7869 53.4777 35.7717 52.8945 35.9195 52.3439C36.1559 51.5279 36.6468 50.8136 37.317 50.3104C38.1005 49.6568 39.0858 49.3107 40.0961 49.3343C40.6151 49.3668 41.117 49.5364 41.5531 49.8264C41.9566 50.0967 42.2752 50.4809 42.4702 50.9326C42.6394 51.347 42.7219 51.7931 42.7124 52.2422C42.7085 52.6342 42.6538 53.024 42.5496 53.4013C42.3912 53.9504 42.1852 54.4839 41.9342 54.9955L41.7357 55.4022C41.7153 55.4613 41.7019 55.5228 41.696 55.5852Z" fill="#455A64"/>
<path d="M27.4748 58.3795C27.4748 58.3795 27.2167 58.164 26.8753 57.7532C26.4353 57.2157 26.1301 56.5763 25.986 55.8905C25.8503 55.2031 25.8831 54.4918 26.0813 53.8205C26.2321 53.304 26.4029 53.0071 26.383 53.0071C26.3303 53.0653 26.2861 53.131 26.252 53.2023C26.1511 53.3926 26.0661 53.5912 25.9979 53.7961C25.769 54.479 25.7238 55.2125 25.867 55.9195C26.0102 56.6265 26.3365 57.281 26.8118 57.8142C26.9541 57.9752 27.1095 58.1234 27.2763 58.2575C27.336 58.3083 27.4029 58.3494 27.4748 58.3795Z" fill="#455A64"/>
<path d="M30.0117 58.2983C30.0117 58.2983 29.8728 58.2333 29.6504 58.0787C29.3428 57.8617 29.0997 57.562 28.9477 57.2125L28.8326 56.94L28.8564 57.2369C28.8921 57.6435 28.9318 58.1031 28.9755 58.6034L29.0668 58.5464C28.6682 58.2675 28.3275 57.9103 28.0645 57.4957C27.8015 57.081 27.6213 56.6171 27.5343 56.1306C27.4582 55.6867 27.4582 55.2325 27.5343 54.7885C27.6215 54.3809 27.7548 53.9851 27.9314 53.6091C27.9314 53.6091 27.9115 53.6295 27.8797 53.6783C27.8343 53.7488 27.7932 53.8221 27.7567 53.8979C27.6178 54.1744 27.5151 54.4684 27.451 54.7723C27.3034 55.5028 27.3719 56.2618 27.6477 56.9522C27.9236 57.6427 28.3942 58.2331 28.9993 58.6481L29.1026 58.7172V58.5911C29.0509 58.0909 29.0033 57.6273 28.9596 57.2287L28.8683 57.2531C29.035 57.6136 29.2997 57.9172 29.6306 58.1275C29.7211 58.1817 29.8153 58.2293 29.9125 58.2699C29.9437 58.2852 29.9773 58.2948 30.0117 58.2983Z" fill="#455A64"/>
<path d="M30.786 52.2871C30.9466 51.9757 31.1651 51.6994 31.4291 51.4738C31.722 51.2351 32.0664 51.0719 32.4336 50.9979C32.882 50.9105 33.3453 50.9528 33.7715 51.1199C34.2015 51.2847 34.5867 51.5524 34.8951 51.9008C35.1474 52.186 35.3526 52.5116 35.5025 52.8647C35.6296 53.1961 35.7305 53.5375 35.8042 53.8855C35.8126 53.7887 35.8059 53.6913 35.7844 53.5967C35.7447 53.3336 35.6768 53.0759 35.5819 52.8281C35.4393 52.4595 35.2366 52.1184 34.9824 51.8194C34.6637 51.4552 34.263 51.176 33.8152 51.0061C33.3669 50.8319 32.8797 50.791 32.4098 50.8881C32.0275 50.9707 31.6713 51.1496 31.3735 51.4087C31.1744 51.5831 31.0087 51.7942 30.8852 52.0309C30.8538 52.0957 30.8259 52.1622 30.8018 52.2302C30.786 52.2587 30.782 52.2831 30.786 52.2871Z" fill="#455A64"/>
<path d="M31.4371 50.1117C31.6813 49.9826 31.9382 49.8803 32.2034 49.8066C32.8531 49.6642 33.5311 49.7622 34.117 50.0832C34.6938 50.4218 35.1637 50.9229 35.4708 51.527C35.713 51.9906 35.7924 52.3119 35.8123 52.3038C35.8112 52.2261 35.7978 52.1492 35.7726 52.076C35.7158 51.873 35.6413 51.6757 35.5502 51.4863C35.2534 50.8505 34.7741 50.3227 34.1766 49.9734C33.5693 49.6368 32.8606 49.5468 32.1915 49.7212C31.9915 49.7753 31.8002 49.8589 31.6237 49.9693C31.5543 50.0059 31.4913 50.054 31.4371 50.1117Z" fill="#455A64"/>
<path d="M40.3977 184.78L40.1158 192.601C40.1158 192.601 47.7822 195.521 47.8695 196.973H33.0449L32.9933 184.772L40.3977 184.78Z" fill="#263238"/>
<path d="M35.5344 191.942C35.3911 191.986 35.2688 192.083 35.1911 192.213C35.1133 192.344 35.0857 192.5 35.1135 192.65C35.152 192.798 35.2442 192.925 35.3712 193.005C35.4982 193.085 35.6503 193.112 35.7964 193.081C35.947 193.033 36.0749 192.93 36.1555 192.791C36.2361 192.652 36.2638 192.487 36.2331 192.329C36.1792 192.179 36.0702 192.056 35.9294 191.987C35.7885 191.918 35.6268 191.908 35.4788 191.959" fill="#E0E0E0"/>
<path d="M33.0451 196.961L33.0848 195.74L47.282 196.212C47.282 196.212 47.9451 196.509 47.8696 196.985L33.0451 196.961Z" fill="#263238"/>
<path d="M40.358 192.528C40.358 192.601 39.9928 192.634 39.6355 192.87C39.2782 193.105 39.0916 193.423 39.0241 193.39C38.9566 193.358 39.0638 192.935 39.5005 192.654C39.9372 192.373 40.3739 192.455 40.358 192.528Z" fill="white"/>
<path d="M41.9104 193.186C41.9104 193.259 41.6126 193.381 41.3665 193.699C41.1203 194.016 41.0489 194.341 40.9695 194.337C40.8901 194.333 40.8543 193.93 41.164 193.524C41.4737 193.117 41.9104 193.113 41.9104 193.186Z" fill="white"/>
<path d="M42.7917 195.094C42.7282 195.094 42.625 194.736 42.7917 194.334C42.9585 193.931 43.3158 193.764 43.3476 193.825C43.3793 193.886 43.1689 194.106 43.022 194.439C42.8751 194.773 42.8473 195.086 42.7917 195.094Z" fill="white"/>
<path d="M40.2269 190.734C40.1952 190.803 39.8656 190.702 39.4567 190.734C39.0478 190.767 38.7262 190.893 38.6905 190.828C38.6547 190.763 38.9604 190.502 39.4408 190.474C39.9212 190.445 40.2627 190.677 40.2269 190.734Z" fill="white"/>
<path d="M23.3936 185.496L22.8061 194.948L24.4418 202.561C24.4692 202.691 24.4702 202.826 24.4445 202.957C24.4189 203.088 24.3672 203.212 24.2927 203.322C24.2182 203.431 24.1225 203.524 24.0115 203.594C23.9006 203.664 23.7767 203.709 23.6477 203.728C23.4991 203.751 23.3472 203.738 23.2049 203.688C23.0625 203.639 22.9339 203.555 22.8299 203.444C21.4761 202 16.5173 196.66 16.6007 195.973C16.692 195.159 16.5769 185.964 16.5769 185.964L23.3936 185.496Z" fill="#263238"/>
<path d="M23.6477 203.727L16.6245 195.333V195.74C16.6106 196.086 16.7176 196.427 16.9262 196.7C17.482 197.428 19.0661 199.412 22.8179 203.447C22.9252 203.562 23.0585 203.648 23.206 203.698C23.3535 203.747 23.5106 203.759 23.6636 203.732L23.6477 203.727Z" fill="#263238"/>
<g opacity="0.6">
<path d="M18.6295 192.36C18.7409 192.45 18.8157 192.578 18.8392 192.721C18.8627 192.864 18.8332 193.011 18.7566 193.133C18.6724 193.249 18.5482 193.327 18.4094 193.352C18.2706 193.377 18.1278 193.347 18.0102 193.267C17.8951 193.171 17.8186 193.035 17.7951 192.885C17.7717 192.735 17.803 192.582 17.8831 192.454C17.9823 192.34 18.1211 192.271 18.2696 192.261C18.4181 192.251 18.5645 192.301 18.6772 192.401" fill="white"/>
</g>
<path d="M21.7021 199.506C21.9374 199.22 22.2229 198.981 22.5438 198.803C22.8877 198.679 23.2515 198.624 23.6157 198.64C23.6157 198.616 23.5085 198.538 23.2941 198.498C23.0111 198.453 22.7215 198.492 22.4597 198.611C22.1979 198.73 21.975 198.924 21.8172 199.169C21.7021 199.368 21.6823 199.494 21.7021 199.506Z" fill="white"/>
<path d="M22.3097 200.8C22.5804 200.659 22.8587 200.534 23.1434 200.425C23.4449 200.382 23.7483 200.355 24.0526 200.344C23.9134 200.249 23.7542 200.188 23.5879 200.168C23.4217 200.147 23.253 200.167 23.0957 200.226C22.5439 200.364 22.262 200.771 22.3097 200.8Z" fill="white"/>
<path d="M20.543 197.831C20.9432 197.577 21.3612 197.354 21.7936 197.164C22.2473 197.041 22.709 196.951 23.1752 196.895C22.695 196.777 22.192 196.803 21.7255 196.968C21.259 197.134 20.8487 197.433 20.543 197.831Z" fill="white"/>
<path d="M20.4874 194.943C20.5112 195 21.0313 194.801 21.6785 194.805C22.3256 194.809 22.8695 194.996 22.8695 194.935C22.5048 194.712 22.0877 194.594 21.6626 194.594C21.2375 194.594 20.8204 194.712 20.4557 194.935L20.4874 194.943Z" fill="white"/>
<path d="M20.5945 192.162C21.002 192.047 21.4225 191.988 21.8451 191.987C22.2629 192.053 22.6701 192.176 23.056 192.353C23.056 192.353 22.9766 192.211 22.7702 192.076C22.4937 191.907 22.1824 191.805 21.861 191.78C21.5398 191.754 21.2173 191.807 20.9201 191.934C20.6938 192.048 20.5826 192.142 20.5945 192.162Z" fill="white"/>
<path d="M21.849 191.458C21.885 191.343 21.8945 191.22 21.8768 191.1C21.858 190.772 21.7771 190.45 21.6386 190.153C21.5524 189.927 21.398 189.736 21.1979 189.608C21.1271 189.575 21.0484 189.563 20.9714 189.576C20.8945 189.588 20.8228 189.623 20.7652 189.677C20.6632 189.787 20.6051 189.932 20.6024 190.084C20.6103 190.402 20.7264 190.708 20.9307 190.949C21.1351 191.189 21.4149 191.349 21.722 191.401C22.0271 191.445 22.3381 191.396 22.6158 191.259C22.8934 191.122 23.1253 190.904 23.2823 190.633C23.3201 190.564 23.3436 190.488 23.3511 190.41C23.3586 190.331 23.3501 190.252 23.3259 190.177C23.2893 190.104 23.2318 190.043 23.1608 190.004C23.0899 189.965 23.009 189.948 22.9289 189.957C22.7004 189.998 22.4866 190.101 22.3096 190.254C22.0504 190.45 21.8272 190.691 21.6505 190.966C21.5235 191.157 21.4838 191.279 21.4957 191.283C21.7492 190.937 22.0516 190.631 22.393 190.376C22.5526 190.248 22.7409 190.163 22.9408 190.128C22.983 190.123 23.0259 190.131 23.0631 190.152C23.1002 190.174 23.1298 190.207 23.1473 190.246C23.1713 190.349 23.1556 190.456 23.1036 190.547C22.9615 190.777 22.758 190.96 22.5173 191.075C22.2766 191.189 22.0088 191.231 21.7458 191.194C21.4862 191.15 21.2489 191.017 21.0729 190.817C20.8968 190.616 20.7925 190.361 20.7771 190.092C20.7756 189.983 20.8122 189.878 20.8803 189.795C20.9094 189.762 20.9479 189.741 20.9902 189.732C21.0324 189.724 21.076 189.731 21.1146 189.75C21.2902 189.856 21.429 190.015 21.5116 190.206C21.6961 190.599 21.8104 191.023 21.849 191.458Z" fill="white"/>
<path d="M46.893 118.676C47.6796 121.9 47.9954 125.225 47.83 128.543C47.7228 130.65 41.1204 191.459 41.1204 191.459L32.7275 190.686L34.1766 133.83L33.8273 134.151C33.8273 134.151 28.8249 158.073 28.4914 161.855C28.1936 165.251 24.2036 192.557 24.2036 192.557L16.0569 192.15L17.903 157.63L20.3724 126.314L21.361 117.188L46.893 118.676Z" fill="#263238"/>
<path d="M32.5606 128.929C32.6845 129.016 32.8177 129.088 32.9576 129.144C33.3276 129.327 33.7203 129.457 34.1248 129.531C34.4099 129.581 34.7013 129.581 34.9863 129.531C35.3192 129.464 35.6273 129.304 35.8756 129.067C36.1298 128.787 36.3102 128.446 36.3997 128.075C36.499 127.701 36.5545 127.31 36.622 126.916C36.8841 125.334 37.0548 123.89 37.1501 122.849C37.1977 122.328 37.2255 121.901 37.2414 121.608C37.2592 121.456 37.2592 121.301 37.2414 121.149C37.2001 121.296 37.1735 121.447 37.162 121.6C37.1223 121.934 37.0707 122.348 37.0111 122.82C36.8801 123.865 36.6895 125.301 36.4275 126.887C36.2965 127.668 36.2091 128.461 35.7446 128.921C35.5302 129.114 35.2766 129.257 35.0019 129.337C34.7273 129.418 34.4386 129.436 34.1566 129.388C33.76 129.326 33.3712 129.22 32.9973 129.071C32.8583 129.005 32.7115 128.957 32.5606 128.929Z" fill="#455A64"/>
<path d="M35.2086 121.453C35.2086 121.453 35.1451 121.404 35.0141 121.396C34.8255 121.399 34.6428 121.464 34.494 121.583C34.3797 121.67 34.2864 121.783 34.221 121.913C34.1557 122.042 34.12 122.185 34.1169 122.331C34.1347 122.511 34.2023 122.682 34.3116 122.824C34.421 122.966 34.5675 123.073 34.7342 123.133C34.9008 123.193 35.0806 123.203 35.2526 123.162C35.4245 123.121 35.5814 123.03 35.7049 122.901C35.7893 122.786 35.8475 122.653 35.8749 122.513C35.9024 122.372 35.8986 122.226 35.8637 122.087C35.8242 121.898 35.72 121.729 35.5699 121.612C35.4627 121.53 35.3913 121.522 35.3873 121.53C35.5607 121.682 35.6806 121.888 35.7287 122.116C35.752 122.234 35.7495 122.355 35.7213 122.472C35.6932 122.589 35.6401 122.698 35.566 122.791C35.4691 122.895 35.3436 122.967 35.2061 122.997C35.0686 123.027 34.9255 123.013 34.7957 122.958C34.6621 122.917 34.5433 122.836 34.4543 122.726C34.3653 122.616 34.31 122.482 34.2955 122.34C34.2963 122.219 34.3222 122.1 34.3715 121.991C34.4208 121.881 34.4923 121.784 34.5814 121.705C34.7581 121.553 34.9783 121.465 35.2086 121.453Z" fill="#455A64"/>
<path d="M20.4874 125.757C20.5919 125.787 20.7004 125.801 20.8089 125.798C21.101 125.82 21.3943 125.82 21.6863 125.798C23.6336 125.636 25.4674 124.793 26.8793 123.41C27.092 123.203 27.2897 122.98 27.4709 122.743C27.5979 122.577 27.6614 122.479 27.6495 122.471C27.6376 122.463 27.3319 122.808 26.784 123.305C25.3518 124.601 23.5683 125.421 21.6705 125.655C20.9479 125.72 20.4913 125.708 20.4874 125.757Z" fill="#455A64"/>
<path d="M43.1174 121.442C43.2501 121.785 43.4263 122.109 43.6415 122.406C44.1146 123.15 44.6745 123.833 45.3089 124.439C45.9415 125.043 46.6442 125.565 47.4012 125.993C47.706 126.185 48.0344 126.336 48.3779 126.44C48.0862 126.234 47.784 126.044 47.4727 125.871C46.75 125.41 46.0708 124.882 45.4439 124.293C44.8225 123.696 44.2576 123.041 43.7566 122.336C43.5609 122.025 43.3475 121.727 43.1174 121.442Z" fill="#455A64"/>
<path d="M51.4507 87.0916C52.6973 90.8209 52.5583 90.4997 54.8928 101.643C55.3216 103.701 54.5633 106.93 52.7529 107.906C50.9425 108.882 47.7267 107.809 46.6508 106.019L44.9198 89.2023L51.4507 87.0916Z" fill="#FFBF9D"/>
<path d="M21.357 107.301L21.4086 98.4389L21.3729 97.5686L12.5948 95.47C12.5948 95.47 14.3179 89.6543 15.898 83.4034C16.8111 79.7919 19.8483 77.9781 20.5828 77.5876L20.7456 77.5104L29.1941 73.8501C30.9012 75.7128 33.3865 77.2094 35.7806 76.4936C37.1437 76.0376 38.3507 75.1907 39.2584 74.0534L44.9476 76.0585C46.5922 76.6365 47.9861 77.7881 48.886 79.312C50.0771 81.4878 53.8845 91.3909 53.9639 91.5942L46.9129 92.2409C46.9129 92.2409 48.1635 115.675 47.7069 119.86C47.7069 119.86 45.9918 121.08 41.6723 121.283C32.9062 121.69 19.8642 121.067 19.8642 121.067C20.0706 119.717 20.285 117.46 20.4041 116.317L21.357 107.301Z" fill="#E31E26"/>
<path d="M46.6586 83.5334C46.6228 83.5334 46.8094 89.1214 47.0754 96.0109C47.3414 102.9 47.5876 108.488 47.6114 108.488C47.6352 108.488 47.4605 102.9 47.2144 96.0068C46.9682 89.1133 46.6943 83.5294 46.6586 83.5334Z" fill="#263238"/>
<path d="M22.3215 85.0869C22.3811 85.0869 22.2064 90.0486 21.9245 96.1612C21.6426 102.274 21.3647 107.227 21.3012 107.223C21.2376 107.219 21.4163 102.266 21.6982 96.149C21.9801 90.0323 22.258 85.0869 22.3215 85.0869Z" fill="#263238"/>
<path d="M12.5512 99.688C12.837 97.4877 13.0752 95.5437 13.0752 95.5437L20.0945 97.2153L19.7927 98.3743L25.2199 92.7253L26.0815 92.8026L28.8129 95.7105C28.8129 95.7105 26.4308 100.863 25.0453 102.868C23.2428 105.479 20.4121 109.457 16.5332 109.123C12.9482 108.814 12.039 103.633 12.5512 99.688Z" fill="#FFBF9D"/>
<path d="M16.3545 101.005C16.7802 100.431 17.3017 99.9399 17.8949 99.5529C18.4445 99.1023 19.0647 98.7502 19.7291 98.5117C19.7609 98.5727 18.9351 99.0526 18.0299 99.7318C17.1247 100.411 16.3981 101.054 16.3545 101.005Z" fill="#FF9A6C"/>
<path d="M34.6967 85.3557L32.2828 84.095L29.1543 85.1117L27.606 86.5758L25.2239 92.725L23.3142 95.2018L26.6849 99.6755L28.8169 95.6899C28.8169 95.6899 30.6233 94.8765 31.3498 93.7133C32.0764 92.5502 32.3979 91.9076 32.3979 91.9076C32.3979 91.9076 33.4421 91.3952 33.6366 90.899C33.7512 90.6221 33.8132 90.3253 33.8193 90.0246L33.2912 89.2315C33.3247 88.8869 33.27 88.5393 33.1324 88.2229C33.0324 88.0756 32.8952 87.9589 32.7354 87.8854C32.7354 87.8854 32.8902 87.2184 32.6481 86.9784C32.1904 86.7028 31.7061 86.4766 31.2029 86.3033L32.255 85.6892C32.255 85.6892 34.5656 86.4497 34.6967 85.3557Z" fill="#FFBF9D"/>
<path d="M31.1156 87.5879C31.1156 87.6204 31.4848 87.6286 31.9096 87.7262C32.3344 87.8238 32.7037 87.9621 32.7037 87.9336C32.4652 87.7704 32.1937 87.6647 31.9096 87.6245C31.6509 87.5518 31.3796 87.5393 31.1156 87.5879Z" fill="#FF9A6C"/>
<path d="M31.8381 88.9663C32.0692 89.0107 32.3024 89.0419 32.5369 89.0598C32.7645 89.1145 32.9952 89.1553 33.2277 89.1818C33.0234 89.0524 32.7921 88.9743 32.5527 88.9541C32.3167 88.9024 32.0723 88.9066 31.8381 88.9663Z" fill="#FF9A6C"/>
<path d="M32.8584 91.1306C32.8862 91.1306 32.9061 90.9883 32.9021 90.8134C32.8981 90.6385 32.8743 90.5002 32.8465 90.5002C32.8187 90.5002 32.7989 90.6426 32.7989 90.8175C32.7989 90.9923 32.8306 91.1306 32.8584 91.1306Z" fill="#FF9A6C"/>
<path d="M32.3978 91.7978C32.4294 91.5933 32.5054 91.3988 32.6201 91.2284C32.7562 91.0757 32.921 90.9526 33.1045 90.8665C33.1045 90.8665 33.0291 90.8461 32.9139 90.8665C32.7569 90.9145 32.6182 91.0111 32.5169 91.143C32.4204 91.2698 32.3612 91.4222 32.3462 91.5822C32.3581 91.7246 32.3859 91.7978 32.3978 91.7978Z" fill="#FF9A6C"/>
<path d="M30.512 89.8252C30.6246 89.6624 30.7677 89.5242 30.9329 89.4185C31.1129 89.3336 31.3068 89.284 31.5046 89.2721C31.5046 89.2721 31.4411 89.2274 31.322 89.2192C31.1679 89.2116 31.0148 89.2483 30.8801 89.3253C30.7454 89.4022 30.6344 89.5162 30.5597 89.6544C30.5041 89.7479 30.5001 89.8212 30.512 89.8252Z" fill="#FF9A6C"/>
<path d="M29.4122 88.458C29.44 88.458 29.5353 88.214 29.8093 88.0513C29.975 87.9619 30.153 87.8989 30.3373 87.8642C30.3373 87.8642 30.2738 87.8276 30.1626 87.8276C30.0213 87.8375 29.8848 87.8836 29.7656 87.9618C29.6421 88.0398 29.5419 88.1509 29.4758 88.2831C29.4043 88.3848 29.4003 88.4539 29.4122 88.458Z" fill="#FF9A6C"/>
<path d="M28.674 87.7875C28.674 87.7875 28.674 87.7021 28.7018 87.576C28.7216 87.4128 28.7817 87.2574 28.8765 87.1246C28.9737 86.9922 29.1021 86.8873 29.2497 86.8196C29.3648 86.7667 29.4442 86.7504 29.4402 86.7342C29.4363 86.7179 29.3529 86.7097 29.2258 86.7342C29.0527 86.7865 28.9009 86.8949 28.7931 87.0432C28.6875 87.1922 28.6306 87.3716 28.6303 87.5557C28.6303 87.7102 28.6621 87.7916 28.674 87.7875Z" fill="#FF9A6C"/>
<path d="M29.6981 86.1812C29.6981 86.2178 30.2023 86.226 30.8098 86.3195C31.4172 86.413 31.8777 86.6367 31.8936 86.6083C31.5728 86.3905 31.2074 86.2513 30.8256 86.2016C30.5631 86.1589 30.2975 86.1385 30.0316 86.1406C29.919 86.1339 29.8061 86.1476 29.6981 86.1812Z" fill="#FF9A6C"/>
<g opacity="0.3">
<path d="M36.5665 100.065C36.5994 99.3476 36.8039 98.6493 37.1621 98.0317C37.8688 97.0109 39.2543 96.8116 40.4692 96.8564C41.6841 96.9011 42.9545 97.1614 44.0979 96.7344L47.5202 107.138C46.2369 106.807 45.1301 105.977 44.4354 104.824C44.086 104.242 43.8319 103.567 43.3039 103.152C42.5734 102.579 41.565 102.66 40.6439 102.652C39.6833 102.64 38.7285 102.497 37.8052 102.225C37.4017 102.143 37.0352 101.929 36.7611 101.615C36.4474 101.184 36.4951 100.598 36.5665 100.065Z" fill="black"/>
</g>
<path d="M45.3763 87.8893L44.3123 99.4679C44.3095 99.7309 44.2444 99.9893 44.1228 100.221C44.0011 100.453 43.8263 100.651 43.6136 100.798L36.7571 100.651C36.3465 100.086 36.1593 99.3833 36.2331 98.683L36.9953 87.6005C37.039 86.9336 37.2812 86.4537 37.575 86.4455L44.7967 86.2747C45.1659 86.2666 45.4518 87.0637 45.3763 87.8893Z" fill="#263238"/>
<path d="M46.3729 90.2159C46.5067 90.0346 46.5771 89.8125 46.5728 89.5853C46.5685 89.3581 46.4897 89.139 46.3491 88.9633C46.2019 88.7889 46.0186 88.6502 45.8126 88.5573C45.6066 88.4645 45.383 88.4198 45.1581 88.4264C44.7137 88.4391 44.2763 88.5428 43.8717 88.7315C43.3744 88.9457 42.8985 89.2085 42.4504 89.5164C42.2778 89.6058 42.1254 89.7312 42.0031 89.8846C41.8807 90.038 41.791 90.216 41.7397 90.407C41.6842 90.8137 42.109 91.2204 42.4385 91.0293C42.205 91.1375 41.9998 91.3007 41.8397 91.5057C41.6797 91.7107 41.5692 91.9516 41.5174 92.2087C41.4579 92.7008 41.7239 92.9611 42.1923 93.0912C42.0164 93.1669 41.8763 93.3101 41.8021 93.4903C41.7279 93.6704 41.7255 93.8731 41.7953 94.0551C41.906 94.2265 42.0733 94.3514 42.2666 94.4066C42.4598 94.4619 42.6661 94.444 42.8474 94.356C43.2069 94.1658 43.5141 93.8861 43.7407 93.5427C43.5152 94.1021 43.472 94.7211 43.6176 95.3077C44.6419 94.901 45.6504 93.7582 45.3447 92.652C45.5957 92.4405 45.7709 92.1495 45.8428 91.8248C45.9146 91.5001 45.8791 91.1602 45.7417 90.8585C45.9767 90.7463 46.1776 90.571 46.323 90.3511C46.4684 90.1312 46.5529 89.8751 46.5675 89.6099" fill="#FFBF9D"/>
<path d="M46.484 89.2073L46.5673 94.1568L47.8219 96.0886L53.5667 101.355C53.5667 101.355 52.7171 108.509 50.1206 107.728C47.5241 106.947 46.9008 106.439 45.3564 103.555C44.5386 102.006 44.0304 99.4885 43.558 98.0529C43.28 97.207 43.5222 94.4821 43.5222 94.4821L46.484 89.2073Z" fill="#FFBF9D"/>
<path d="M42.1923 93.0991C42.3481 92.9902 42.4954 92.8692 42.633 92.7371C42.9682 92.4376 43.3642 92.2181 43.7923 92.0945C44.0275 92.04 44.2717 92.04 44.5069 92.0945C44.6995 92.1381 44.88 92.2257 45.035 92.3507C45.1728 92.4732 45.2907 92.6174 45.3843 92.7778C45.3843 92.7778 45.3843 92.7208 45.3407 92.6273C45.2799 92.4967 45.1934 92.3804 45.0866 92.2857C44.9269 92.143 44.7364 92.0413 44.5308 91.9888C44.2801 91.9279 44.0191 91.9279 43.7685 91.9888C43.321 92.1151 42.9115 92.3542 42.5774 92.6842C42.4325 92.8053 42.3031 92.9447 42.1923 93.0991Z" fill="#FF9A6C"/>
<path d="M42.2635 91.0815C42.4513 91.0231 42.6314 90.9411 42.7995 90.8375C42.9583 90.7561 43.1489 90.6545 43.3672 90.565C43.6077 90.4751 43.8546 90.4044 44.1057 90.3535C44.3537 90.3001 44.6088 90.2904 44.86 90.3251C45.0612 90.3607 45.2523 90.4412 45.4198 90.5609C45.5796 90.6769 45.7147 90.8249 45.8168 90.9961C45.8112 90.9418 45.795 90.8893 45.7692 90.8416C45.7018 90.7072 45.607 90.5894 45.4913 90.4959C45.3174 90.3567 45.113 90.2631 44.8958 90.2234C44.6336 90.1703 44.3639 90.1703 44.1017 90.2234C43.8439 90.2751 43.5914 90.3513 43.3474 90.4511C43.1509 90.5376 42.9599 90.6368 42.7757 90.748C42.5978 90.8472 42.4267 90.9586 42.2635 91.0815Z" fill="#FF9A6C"/>
<path d="M52.9474 104.202C53.089 103.598 53.1132 102.972 53.0189 102.359C52.9046 101.697 52.6746 101.062 52.34 100.484C51.9204 99.7828 51.4103 99.1426 50.8234 98.581C50.204 97.9669 49.5688 97.4341 49.0011 96.9542C48.4937 96.5122 48.0087 96.0439 47.548 95.5511C47.2406 95.2043 46.9605 94.833 46.7103 94.4409C46.615 94.3027 46.5351 94.154 46.4721 93.9976C46.5808 94.1256 46.6803 94.2615 46.7698 94.4043C47.0404 94.7662 47.3335 95.1099 47.6472 95.4332C48.0442 95.8399 48.5405 96.3035 49.1162 96.7956C49.6919 97.2877 50.3072 97.8205 50.9544 98.4224C51.5545 98.9965 52.0718 99.6552 52.4908 100.379C52.8354 100.98 53.0658 101.642 53.1697 102.331C53.2355 102.791 53.2193 103.259 53.1221 103.714C53.0962 103.837 53.0617 103.958 53.0189 104.075C52.9712 104.157 52.9553 104.202 52.9474 104.202Z" fill="#FF9A6C"/>
</g>
<defs>
<clipPath id="clip0_113_4273">
<rect width="216.022" height="210" fill="white"/>
</clipPath>
</defs>
</svg>
