<svg width="37" height="36" viewBox="0 0 37 36" fill="none" xmlns="http://www.w3.org/2000/svg">
<path d="M33.0613 8.70007C31.9338 9.18921 30.7414 9.51257 29.5213 9.66007C30.8085 8.89105 31.7732 7.68124 32.2363 6.25507C31.0266 6.97517 29.7024 7.48252 28.3213 7.75507C27.3981 6.75393 26.1687 6.08751 24.826 5.86035C23.4833 5.63318 22.1031 5.85811 20.902 6.49985C19.7008 7.1416 18.7467 8.16387 18.1891 9.40632C17.6316 10.6488 17.5022 12.0412 17.8213 13.3651C15.3754 13.2414 12.9829 12.6045 10.7993 11.4959C8.61558 10.3872 6.68955 8.83161 5.14628 6.93007C4.60499 7.87532 4.32056 8.9458 4.32128 10.0351C4.31936 11.0466 4.56761 12.043 5.04391 12.9354C5.52022 13.8278 6.20981 14.5886 7.05128 15.1501C6.07325 15.1235 5.11611 14.861 4.26128 14.3851V14.4601C4.26861 15.8774 4.76527 17.2487 5.66725 18.342C6.56923 19.4353 7.82116 20.1835 9.21128 20.4601C8.67616 20.6229 8.12059 20.7088 7.56128 20.7151C7.17411 20.7105 6.78791 20.6754 6.40628 20.6101C6.80214 21.8293 7.56821 22.8948 8.59789 23.6583C9.62757 24.4218 10.8696 24.8454 12.1513 24.8701C9.98708 26.573 7.3151 27.5024 4.56128 27.5101C4.05988 27.5117 3.55888 27.4817 3.06128 27.4201C5.87292 29.2355 9.1495 30.1992 12.4963 30.1951C14.8058 30.2191 17.097 29.7826 19.236 28.9112C21.3749 28.0398 23.3188 26.7509 24.9541 25.1198C26.5894 23.4887 27.8832 21.5482 28.7601 19.4114C29.637 17.2747 30.0793 14.9847 30.0613 12.6751C30.0613 12.4201 30.0613 12.1501 30.0613 11.8801C31.2383 11.0023 32.2535 9.92621 33.0613 8.70007Z" fill="#515151"/>
</svg>
