<svg width="49" height="48" viewBox="0 0 49 48" fill="none" xmlns="http://www.w3.org/2000/svg">
<path d="M24.013 25.901C28.813 25.901 32.6625 22.0039 32.6625 17.2515C32.6625 12.499 28.813 8.55444 24.013 8.55444C19.213 8.55444 15.3635 12.4515 15.3635 17.2039C15.3635 21.9564 19.213 25.901 24.013 25.901ZM24.013 10.8356C27.5298 10.8356 30.3813 13.6871 30.3813 17.2039C30.3813 20.7208 27.5298 23.5723 24.013 23.5723C20.4961 23.5723 17.6447 20.7683 17.6447 17.2515C17.6447 13.7346 20.4961 10.8356 24.013 10.8356ZM8.99515 39.4455H39.1258C39.7437 39.4455 40.2664 38.9228 40.2664 38.3049C40.2664 32.3168 35.3714 27.4218 29.3833 27.4218H18.7377C12.7496 27.4218 7.85455 32.3168 7.85455 38.3049C7.85455 38.9228 8.37733 39.4455 8.99515 39.4455ZM18.7377 29.703H29.3833C33.7555 29.703 37.3199 32.9346 37.8902 37.1643H10.2308C10.8011 32.9346 14.3654 29.703 18.7377 29.703Z" fill="#515151"/>
</svg>
