<svg width="845" height="643" viewBox="0 0 845 643" fill="none" xmlns="http://www.w3.org/2000/svg">
    <path d="M-29.6609 378.082C-66.3627 305.432 -94.4964 208.601 -51.0899 139.747C-5.26364 67.054 101.749 0 200.101 0C353.852 0 478.491 115.052 478.491 256.976C478.491 398.899 353.852 513.951 200.101 513.951C93.7898 513.951 11.19 458.944 -29.6609 378.082Z" fill="#E32127" fill-opacity="0.2"/>
    <path d="M455.273 154.544H353.382V377.279H455.273V154.544Z" fill="white"/>
    <path d="M461.518 383.524H347.137V148.31H461.518V383.524ZM359.626 371.035H449.029V160.799H359.626V371.035Z" fill="#EBEBEB"/>
    <path d="M455.273 262.399H353.382V268.706H455.273V262.399Z" fill="#EBEBEB"/>
    <path d="M455.273 215.377H353.382V221.684H455.273V215.377Z" fill="#EBEBEB"/>
    <path d="M425.403 166.492V264.262H431.127V166.492H425.403Z" fill="#EBEBEB"/>
    <path d="M401.465 166.492V264.262H407.19V166.492H401.465Z" fill="#EBEBEB"/>
    <path d="M377.528 166.492V264.262H383.252V166.492H377.528Z" fill="#EBEBEB"/>
    <path d="M466.867 147.259H341.788V170.093H466.867V147.259Z" fill="#EBEBEB"/>
    <path d="M466.867 147.259H341.788V163.182H466.867V147.259Z" fill="#DBDBDB"/>
    <path d="M474.736 135.841H333.909V158.676H474.736V135.841Z" fill="#EBEBEB"/>
    <path d="M630.612 154.544H528.72V377.279H630.612V154.544Z" fill="white"/>
    <path d="M636.856 383.524H522.476V148.31H636.856V383.524ZM534.965 371.035H624.367V160.799H534.965V371.035Z" fill="#EBEBEB"/>
    <path d="M630.612 262.399H528.72V268.706H630.612V262.399Z" fill="#EBEBEB"/>
    <path d="M630.612 215.377H528.72V221.684H630.612V215.377Z" fill="#EBEBEB"/>
    <path d="M600.742 166.492V264.262H606.466V166.492H600.742Z" fill="#EBEBEB"/>
    <path d="M576.804 166.492V264.262H582.528V166.492H576.804Z" fill="#EBEBEB"/>
    <path d="M552.866 166.492V264.262H558.591V166.492H552.866Z" fill="#EBEBEB"/>
    <path d="M642.206 147.259H517.126V170.093H642.206V147.259Z" fill="#EBEBEB"/>
    <path d="M642.206 147.259H517.126V163.182H642.206V147.259Z" fill="#DBDBDB"/>
    <path d="M650.085 135.841H509.258V158.676H650.085V135.841Z" fill="#EBEBEB"/>
    <path d="M502.243 565.388C565.035 565.388 615.937 557.345 615.937 547.424C615.937 537.503 565.035 529.461 502.243 529.461C439.452 529.461 388.549 537.503 388.549 547.424C388.549 557.345 439.452 565.388 502.243 565.388Z" fill="#EBEBEB"/>
    <path d="M190.772 565.388C253.563 565.388 304.466 557.345 304.466 547.424C304.466 537.503 253.563 529.461 190.772 529.461C127.981 529.461 77.0781 537.503 77.0781 547.424C77.0781 557.345 127.981 565.388 190.772 565.388Z" fill="#EBEBEB"/>
    <path d="M74.83 523.289L146.362 523.039L217.894 522.945L360.948 522.779L504.002 522.945L575.534 523.039L647.056 523.289L575.534 523.549L504.002 523.643L360.948 523.809L217.894 523.643L146.362 523.549L74.83 523.289Z" fill="#263238"/>
    <path d="M306.68 119.811H95.6739V586.738H306.68V119.811Z" fill="#C7C7C7"/>
    <path d="M106.727 119.811H95.6739V586.738H106.727V119.811Z" fill="#DBDBDB"/>
    <path d="M253.987 562.518L106.74 586.738V119.811L253.987 153.948V562.518Z" fill="#EBEBEB"/>
    <path d="M126.979 445.558C127.136 449.969 127.227 454.393 127.332 458.803C127.436 463.214 127.54 467.625 127.606 472.035C127.753 480.874 127.853 489.704 127.906 498.525C127.997 507.346 127.984 516.181 128.01 525.015C128.036 533.849 128.01 542.684 127.893 551.518L127.005 550.435C132.89 549.717 138.75 549.039 144.687 548.438L153.534 547.564C156.483 547.29 159.433 547.016 162.382 546.794C159.433 547.381 156.483 547.916 153.534 548.438L144.687 550.004C138.789 551.022 132.943 551.962 127.005 552.862L126.118 552.992V551.779C126.027 542.945 126.014 534.097 125.987 525.25C125.961 516.402 125.987 507.555 126.066 498.695C126.144 489.834 126.222 481 126.366 472.14C126.366 467.716 126.522 463.279 126.627 458.855C126.731 454.432 126.823 449.995 126.979 445.558Z" fill="#A6A6A6"/>
    <path d="M171.477 535.872C171.32 530.992 171.229 526.098 171.125 521.218C171.02 516.337 170.916 511.444 170.851 506.55C170.694 496.764 170.585 486.972 170.524 477.177C170.446 467.39 170.446 457.603 170.407 447.79C170.368 437.977 170.407 428.216 170.498 418.377L171.399 419.551C164.091 419.656 156.775 419.699 149.45 419.682C145.783 419.682 142.129 419.682 138.476 419.591C134.822 419.499 131.155 419.499 127.488 419.382C131.155 419.095 134.809 418.873 138.476 418.664C142.142 418.455 145.783 418.22 149.45 418.051C156.766 417.703 164.082 417.407 171.399 417.163H172.299V418.364C172.39 428.151 172.39 437.938 172.416 447.712C172.443 457.485 172.417 467.285 172.338 477.072C172.26 486.859 172.195 496.646 172.051 506.459C172.051 511.353 171.908 516.259 171.803 521.166C171.699 526.072 171.62 530.9 171.477 535.872Z" fill="#A6A6A6"/>
    <path d="M189.054 442.714C189.211 446.889 189.302 451.065 189.419 455.241C189.537 459.416 189.628 463.592 189.694 467.768C189.841 476.119 189.946 484.475 190.007 492.835C190.098 501.187 190.098 509.552 190.124 517.903C190.15 526.255 190.124 534.632 190.02 542.997L189.132 541.966C195.031 541.244 200.925 540.574 206.814 539.956L215.661 539.069C218.611 538.782 221.56 538.495 224.509 538.273C221.56 538.847 218.611 539.369 215.661 539.891L206.827 541.431C200.929 542.431 195.031 543.379 189.132 544.276L188.258 544.406V543.245C188.167 534.88 188.141 526.502 188.115 518.138C188.088 509.773 188.115 501.383 188.18 493.005C188.245 484.628 188.323 476.237 188.467 467.859C188.532 463.671 188.61 459.482 188.728 455.293C188.845 451.104 188.924 446.902 189.054 442.714Z" fill="#A6A6A6"/>
    <path d="M233.63 527.886C233.474 523.279 233.369 518.66 233.265 514.054C233.161 509.447 233.056 504.815 232.978 500.195C232.839 490.957 232.73 481.713 232.652 472.466C232.547 463.214 232.547 453.962 232.508 444.71C232.469 435.458 232.508 426.193 232.508 416.941L233.422 418.038C226.101 418.155 218.78 418.194 211.473 418.194C207.806 418.194 204.152 418.194 200.485 418.116C196.819 418.038 193.165 418.038 189.511 417.933C193.165 417.659 196.832 417.45 200.485 417.242C204.139 417.033 207.806 416.824 211.46 416.654C218.78 416.315 226.101 416.015 233.422 415.793H234.309V416.928C234.413 426.167 234.413 435.406 234.453 444.645C234.492 453.884 234.453 463.123 234.453 472.361C234.453 481.6 234.322 490.865 234.192 500.117C234.192 504.75 234.048 509.369 233.944 514.015C233.839 518.66 233.774 523.24 233.63 527.886Z" fill="#A6A6A6"/>
    <path d="M126.94 235.257C127.097 239.707 127.188 244.131 127.292 248.567C127.397 253.004 127.501 257.428 127.566 261.852C127.714 270.699 127.814 279.546 127.866 288.394C127.958 297.228 127.945 306.062 127.958 314.897C127.971 323.731 127.958 332.552 127.853 341.386L126.966 340.082C132.851 340.434 138.71 340.825 144.622 341.295L153.443 342.026C156.379 342.287 159.328 342.535 162.264 342.848C159.328 342.848 156.392 342.848 153.443 342.848H144.622C138.736 342.848 132.877 342.665 126.966 342.496H126.092V341.269C126 332.422 125.987 323.574 125.961 314.714C125.935 305.853 125.961 297.019 126.053 288.185C126.144 279.35 126.196 270.503 126.34 261.669C126.401 257.258 126.492 252.848 126.614 248.437C126.692 244.065 126.796 239.668 126.94 235.257Z" fill="#A6A6A6"/>
    <path d="M171.347 333.635C171.203 328.729 171.099 323.822 170.994 318.916C170.89 314.009 170.786 309.064 170.786 304.209C170.646 294.396 170.542 284.588 170.472 274.783C170.381 264.97 170.381 255.209 170.355 245.37C170.329 235.531 170.355 225.796 170.446 215.97L171.347 217.275C164.039 216.049 156.736 214.744 149.437 213.361C145.783 212.708 142.13 212.056 138.476 211.286C134.822 210.516 131.168 209.863 127.514 209.08C131.168 209.459 134.822 209.916 138.476 210.385C142.13 210.855 145.783 211.273 149.437 211.769C156.736 212.752 164.039 213.783 171.347 214.861L172.234 214.992V216.192C172.325 225.992 172.325 235.766 172.365 245.566C172.404 255.366 172.365 265.14 172.273 274.901C172.182 284.661 172.13 294.475 171.999 304.235C171.999 309.129 171.843 314.009 171.738 318.903C171.634 323.796 171.503 328.742 171.347 333.635Z" fill="#A6A6A6"/>
    <path d="M188.924 243.687C189.08 247.889 189.172 252.078 189.276 256.279C189.38 260.481 189.485 264.657 189.563 268.846C189.711 277.223 189.815 285.597 189.876 293.966C189.968 302.33 189.968 310.695 189.981 319.046C189.994 327.398 189.981 335.762 189.889 344.127L189.054 342.991C194.935 343.331 200.82 343.727 206.71 344.179L215.531 344.897C218.48 345.145 221.416 345.392 224.365 345.693C221.416 345.693 218.48 345.693 215.531 345.693L206.71 345.627C200.82 345.558 194.935 345.436 189.054 345.262H188.18V344.101C188.088 335.723 188.062 327.345 188.036 318.968C188.01 310.59 188.036 302.226 188.115 293.848C188.193 285.47 188.245 277.119 188.389 268.767C188.454 264.592 188.532 260.416 188.65 256.24C188.767 252.064 188.767 247.85 188.924 243.687Z" fill="#A6A6A6"/>
    <path d="M233.422 336.91C233.265 332.278 233.174 327.646 233.056 323.013C232.939 318.381 232.847 313.748 232.782 309.116C232.626 299.851 232.513 290.586 232.443 281.321C232.352 272.056 232.352 262.804 232.312 253.552C232.273 244.3 232.312 235.035 232.312 225.796L233.213 227.101C225.923 225.883 218.619 224.609 211.303 223.278C207.649 222.617 203.996 221.925 200.342 221.203C196.701 220.498 193.047 219.807 189.394 219.037C193.047 219.415 196.701 219.885 200.342 220.342C203.983 220.799 207.649 221.255 211.303 221.751C218.611 222.734 225.914 223.774 233.213 224.87L234.113 225V226.136C234.205 235.388 234.205 244.626 234.244 253.865C234.283 263.104 234.244 272.343 234.244 281.569C234.244 290.795 234.113 300.033 233.983 309.259C233.983 313.879 233.839 318.498 233.735 323.104C233.63 327.711 233.526 332.291 233.422 336.91Z" fill="#A6A6A6"/>
    <path d="M126.927 157.693C127.227 162.351 127.423 166.971 127.579 171.577C127.736 176.183 127.814 180.803 127.866 185.396L126.927 183.935C129.876 184.404 132.816 184.905 135.748 185.435C138.684 185.996 141.62 186.544 144.556 187.184C147.492 187.823 150.442 188.489 153.378 189.18C156.314 189.872 159.25 190.655 162.186 191.542C159.25 191.386 156.314 191.099 153.378 190.746C150.442 190.394 147.505 190.029 144.556 189.585C141.607 189.141 138.684 188.672 135.748 188.176C132.812 187.68 129.876 187.106 126.94 186.518L125.974 186.323V185.018C125.974 180.437 126.118 175.883 126.261 171.303C126.405 166.723 126.627 162.182 126.927 157.693Z" fill="#A6A6A6"/>
    <path d="M171.268 190.616C171.112 188.006 171.007 185.488 170.903 182.93C170.798 180.372 170.707 177.802 170.629 175.257C170.485 170.142 170.381 165.026 170.329 159.937L171.242 161.333C167.601 160.681 163.948 159.911 160.294 159.18C156.64 158.45 152.999 157.627 149.345 156.766C145.692 155.905 142.077 155.083 138.397 154.078C136.57 153.608 134.743 153.099 132.916 152.577C131.09 152.055 129.263 151.56 127.436 150.972C129.263 151.155 131.09 151.403 132.916 151.651C134.743 151.899 136.57 152.147 138.397 152.447C142.042 153.021 145.692 153.652 149.345 154.339C152.999 154.992 156.64 155.761 160.294 156.492C163.948 157.223 167.588 158.032 171.242 158.906L172.182 159.128V160.303C172.129 165.366 172.029 170.424 171.881 175.479C171.816 178.01 171.738 180.529 171.62 183.047C171.503 185.566 171.412 188.11 171.268 190.616Z" fill="#A6A6A6"/>
    <path d="M188.858 170.233C189.171 174.631 189.367 179.015 189.511 183.387C189.654 187.758 189.759 192.103 189.824 196.436L188.884 195.053C191.825 195.522 194.761 196.027 197.693 196.566C200.629 197.114 203.578 197.662 206.514 198.289C209.45 198.915 212.386 199.594 215.322 200.272C218.258 200.951 221.207 201.721 224.143 202.595C221.207 202.412 218.271 202.112 215.322 201.76C212.373 201.408 209.45 201.016 206.514 200.572C203.578 200.129 200.642 199.646 197.706 199.15C194.77 198.654 191.82 198.08 188.884 197.493L187.932 197.297V196.11C187.932 191.764 188.075 187.445 188.219 183.06C188.362 178.676 188.558 174.513 188.858 170.233Z" fill="#A6A6A6"/>
    <path d="M233.213 201.864C233.056 199.437 232.952 197.01 232.847 194.596C232.743 192.182 232.639 189.755 232.573 187.34C232.43 182.512 232.312 177.684 232.26 172.869L233.174 174.174C229.533 173.508 225.879 172.738 222.225 172.008C218.572 171.277 214.931 170.455 211.277 169.594C207.623 168.732 203.969 167.871 200.329 166.984C198.502 166.527 196.675 166.018 194.848 165.509C193.021 165 191.194 164.491 189.367 163.93C191.194 164.113 193.021 164.374 194.848 164.635C196.675 164.896 198.502 165.144 200.329 165.444C203.969 166.031 207.623 166.657 211.277 167.349C214.931 168.041 218.572 168.784 222.225 169.515C225.879 170.246 229.52 171.068 233.174 171.929L234.1 172.151V173.273C234.048 178.049 233.952 182.834 233.813 187.628C233.748 190.016 233.669 192.404 233.552 194.779C233.435 197.153 233.422 199.45 233.213 201.864Z" fill="#A6A6A6"/>
    <path d="M214.774 359.199L214.826 403.488L233.395 403.292L233.343 359.773L214.774 359.199Z" fill="white"/>
    <path d="M219.198 369.012L219.211 379.007L233.369 377.768L233.356 369.312L219.198 369.012Z" fill="#EBEBEB"/>
    <path d="M219.198 364.001L219.211 374.009L243.835 374.427L243.822 364.666L219.198 364.001Z" fill="white"/>
    <path d="M325.562 100.955V586.738H306.693V119.811H95.674V586.738H76.8179V100.955H325.562Z" fill="#263238"/>
    <path d="M235.733 491.587H110.216V580.708H235.733V491.587Z" fill="#E32127"/>
    <path opacity="0.1" d="M110.227 580.698H152.961V491.577H110.227L110.227 580.698Z" fill="#263238"/>
    <path d="M113.162 574.568C116.326 568.233 119.448 561.874 122.529 555.49L131.802 536.319L140.95 517.075C143.989 510.644 146.997 504.191 149.974 497.717C146.803 504.052 143.68 510.411 140.607 516.794L131.333 535.997L122.175 555.251C119.149 561.655 116.145 568.094 113.162 574.568Z" fill="#E32127"/>
    <path d="M113.162 497.717C116.138 504.191 119.143 510.644 122.175 517.075L131.333 536.319L140.607 555.49C143.708 561.867 146.83 568.226 149.974 574.568C146.997 568.094 143.989 561.645 140.95 555.22L131.843 535.997L122.57 516.826C119.469 510.428 116.332 504.059 113.162 497.717Z" fill="#E32127"/>
    <path d="M137.984 491.587H125.006V514.401H137.984V491.587Z" fill="#EBEBEB"/>
    <path d="M212.014 562.058H211.108V574.88H212.014V562.058Z" fill="#263238"/>
    <path d="M214.2 562.058H213.294V574.88H214.2V562.058Z" fill="#263238"/>
    <path d="M216.375 562.058H215.469V574.88H216.375V562.058Z" fill="#263238"/>
    <path d="M218.56 562.058H217.655V574.88H218.56V562.058Z" fill="#263238"/>
    <path d="M220.746 562.058H219.841V574.88H220.746V562.058Z" fill="#263238"/>
    <path d="M222.921 562.058H222.016V574.88H222.921V562.058Z" fill="#263238"/>
    <path d="M225.107 562.058H224.201V574.88H225.107V562.058Z" fill="#263238"/>
    <path d="M227.282 562.058H226.377V574.88H227.282V562.058Z" fill="#263238"/>
    <path d="M229.468 562.058H228.562V574.88H229.468V562.058Z" fill="#263238"/>
    <path d="M202.189 573.902L205.686 574.88H197.474L200.971 573.891V569.187C198.474 568.854 197.474 566.387 197.474 562.068H205.686C205.686 566.377 204.645 568.854 202.189 569.187V573.902Z" fill="#263238"/>
    <path d="M195.559 568.604H193.415V574.88H187.931V568.604H185.776L190.678 562.068L195.559 568.604Z" fill="#263238"/>
    <path d="M232.59 418.39H129.47V491.608H232.59V418.39Z" fill="#E32127"/>
    <path opacity="0.1" d="M129.47 491.608H164.586V418.39H129.47V491.608Z" fill="#263238"/>
    <path d="M131.895 486.56C134.497 481.356 137.075 476.135 139.628 470.896L147.247 455.15L154.761 439.33C157.259 434.05 159.729 428.752 162.171 423.437C159.57 428.641 156.992 433.845 154.439 439.049L146.82 454.817L139.306 470.636C136.808 475.937 134.338 481.245 131.895 486.56Z" fill="#E32127"/>
    <path d="M131.895 423.437C134.345 428.745 136.815 434.043 139.306 439.33L146.82 455.15L154.407 470.896C156.961 476.135 159.538 481.356 162.14 486.56C159.698 481.252 157.228 475.955 154.73 470.667L147.247 454.817L139.628 439.101C137.082 433.869 134.504 428.648 131.895 423.437Z" fill="#E32127"/>
    <path d="M152.295 418.39H141.627V437.134H152.295V418.39Z" fill="#EBEBEB"/>
    <path d="M213.117 476.298H212.368V486.831H213.117V476.298Z" fill="#263238"/>
    <path d="M214.907 476.298H214.158V486.831H214.907V476.298Z" fill="#263238"/>
    <path d="M216.697 476.298H215.948V486.831H216.697V476.298Z" fill="#263238"/>
    <path d="M218.488 476.298H217.738V486.831H218.488V476.298Z" fill="#263238"/>
    <path d="M220.278 476.298H219.528V486.831H220.278V476.298Z" fill="#263238"/>
    <path d="M222.078 476.298H221.329V486.831H222.078V476.298Z" fill="#263238"/>
    <path d="M223.868 476.298H223.119V486.831H223.868V476.298Z" fill="#263238"/>
    <path d="M225.658 476.298H224.909V486.831H225.658V476.298Z" fill="#263238"/>
    <path d="M227.449 476.298H226.699V486.831H227.449V476.298Z" fill="#263238"/>
    <path d="M205.03 486.04L207.913 486.841H201.159L204.042 486.04V482.168C201.96 481.897 201.159 479.868 201.159 476.319H207.913C207.913 479.858 207.091 481.897 205.03 482.168V486.04Z" fill="#263238"/>
    <path d="M199.587 481.668H197.828V486.82H193.322V481.668H191.552L195.58 476.298L199.587 481.668Z" fill="#263238"/>
    <path opacity="0.1" d="M232.59 491.608V486.56L164.586 477.224V491.608H232.59Z" fill="#263238"/>
    <g clip-path="url(#clip0_0_1)">
    <path d="M721.771 584.628C721.771 584.814 598.597 584.951 446.692 584.951C294.787 584.951 171.587 584.814 171.587 584.628C171.587 584.442 294.737 584.305 446.692 584.305C598.647 584.305 721.771 584.454 721.771 584.628Z" fill="#263238"/>
    <path d="M371.311 156.115L379.488 271.932C380.136 281.047 384.214 289.577 390.902 295.803C397.589 302.029 406.388 305.489 415.526 305.485C420.472 305.486 425.365 304.47 429.902 302.502C434.44 300.534 438.525 297.655 441.904 294.043C445.282 290.431 447.883 286.164 449.545 281.505C451.207 276.847 451.894 271.897 451.563 266.962C450.843 255.939 450.184 246.917 450.184 246.917C450.184 246.917 478.231 242.555 478.579 214.521C478.778 198.366 475.982 161.582 473.609 133.436C472.824 124.258 468.623 115.708 461.837 109.479C455.051 103.249 446.174 99.7941 436.962 99.7964H419.975C413.046 100.201 406.269 101.991 400.045 105.061C393.821 108.131 388.276 112.418 383.739 117.669C379.201 122.921 375.763 129.029 373.629 135.633C371.494 142.236 370.706 149.201 371.311 156.115Z" fill="#FAD3C4"/>
    <path d="M450.209 246.569C450.209 246.569 432.488 248.011 413.662 236.181C413.662 236.181 422.298 256.362 450.271 253.839L450.209 246.569Z" fill="#F8B5A0"/>
    <path d="M464.848 167.373C464.858 168.418 464.46 169.425 463.737 170.179C463.015 170.934 462.027 171.376 460.983 171.412C460.474 171.453 459.962 171.391 459.478 171.231C458.993 171.071 458.545 170.815 458.161 170.479C457.777 170.144 457.463 169.734 457.239 169.276C457.015 168.817 456.885 168.318 456.857 167.808C456.847 166.765 457.243 165.758 457.962 165.002C458.681 164.246 459.667 163.799 460.71 163.757C461.22 163.717 461.733 163.779 462.22 163.939C462.706 164.1 463.155 164.357 463.54 164.694C463.926 165.031 464.24 165.441 464.465 165.901C464.689 166.362 464.819 166.862 464.848 167.373Z" fill="#263238"/>
    <path d="M468.725 161.607C468.228 162.129 465.196 159.892 460.896 159.905C456.596 159.917 453.44 162.067 452.955 161.545C452.732 161.309 453.241 160.303 454.608 159.358C456.473 158.069 458.691 157.387 460.958 157.407C463.191 157.398 465.368 158.103 467.172 159.42C468.526 160.439 468.973 161.384 468.725 161.607Z" fill="#263238"/>
    <path d="M422.808 167.373C422.818 168.418 422.42 169.425 421.698 170.179C420.975 170.934 419.987 171.376 418.943 171.412C418.434 171.453 417.922 171.391 417.438 171.231C416.953 171.071 416.505 170.815 416.121 170.479C415.737 170.144 415.423 169.734 415.199 169.276C414.975 168.817 414.846 168.318 414.817 167.808C414.807 166.763 415.205 165.754 415.927 164.998C416.649 164.241 417.637 163.796 418.682 163.757C419.192 163.718 419.704 163.782 420.188 163.943C420.673 164.105 421.121 164.362 421.505 164.698C421.889 165.035 422.202 165.445 422.426 165.905C422.65 166.364 422.779 166.863 422.808 167.373Z" fill="#263238"/>
    <path d="M426.387 162.403C425.89 162.925 422.845 160.675 418.545 160.688C414.246 160.7 411.089 162.862 410.605 162.328C410.381 162.092 410.878 161.16 412.257 160.153C414.126 158.871 416.341 158.186 418.608 158.19C420.838 158.198 423.01 158.902 424.821 160.203C426.175 161.235 426.623 162.179 426.387 162.403Z" fill="#263238"/>
    <path d="M442.02 194.364C442.02 194.116 444.679 193.656 449.016 193.122C450.109 192.997 451.153 192.786 451.34 192.028C451.435 190.893 451.179 189.757 450.607 188.772C449.579 186.113 448.494 183.321 447.351 180.397C442.84 168.467 439.559 158.662 440.044 158.488C440.528 158.314 444.58 167.833 449.103 179.75C450.188 182.7 451.228 185.512 452.222 188.188C452.632 189.431 453.353 190.848 452.781 192.5C452.625 192.889 452.381 193.235 452.069 193.513C451.756 193.792 451.383 193.993 450.979 194.103C450.373 194.276 449.746 194.364 449.115 194.364C444.741 194.588 442.032 194.613 442.02 194.364Z" fill="#263238"/>
    <path d="M429.344 197.347C430.04 197.347 430.053 201.982 434.054 205.3C438.055 208.618 443.026 208.108 443.063 208.755C443.138 209.053 441.957 209.662 439.857 209.724C437.117 209.762 434.451 208.834 432.327 207.102C430.288 205.437 428.978 203.043 428.673 200.429C428.499 198.44 429.021 197.322 429.344 197.347Z" fill="#263238"/>
    <path d="M427.493 145.527C427.07 146.77 422.771 146.148 417.713 146.77C412.655 147.391 408.567 148.758 407.896 147.702C407.597 147.205 408.306 146.099 409.959 144.968C412.156 143.58 414.641 142.709 417.224 142.423C419.808 142.136 422.422 142.442 424.871 143.315C426.797 144.061 427.679 145.005 427.493 145.527Z" fill="#263238"/>
    <path d="M467.147 149.143C466.389 150.125 463.419 149.143 459.852 149.056C456.286 148.969 453.266 149.715 452.57 148.696C452.259 148.199 452.732 147.217 454.061 146.285C455.834 145.174 457.898 144.617 459.99 144.683C462.081 144.749 464.105 145.437 465.805 146.658C467.06 147.652 467.482 148.733 467.147 149.143Z" fill="#263238"/>
    <path d="M380.818 177.153C380.333 176.942 361.556 171.462 362.177 190.624C362.799 209.786 381.899 205.225 381.924 204.666C381.949 204.107 380.818 177.153 380.818 177.153Z" fill="#FAD3C4"/>
    <path d="M375.772 197.595C375.685 197.595 375.449 197.844 374.89 198.117C374.109 198.479 373.22 198.527 372.405 198.254C370.354 197.57 368.552 194.414 368.341 190.959C368.245 189.318 368.513 187.676 369.124 186.15C369.291 185.54 369.604 184.979 370.038 184.518C370.471 184.056 371.01 183.708 371.609 183.503C371.99 183.39 372.399 183.414 372.765 183.571C373.13 183.727 373.429 184.007 373.61 184.361C373.883 184.883 373.772 185.268 373.871 185.305C373.97 185.342 374.281 184.97 374.095 184.174C373.972 183.705 373.691 183.293 373.299 183.006C373.033 182.814 372.731 182.677 372.411 182.602C372.091 182.527 371.759 182.517 371.435 182.571C370.654 182.754 369.933 183.132 369.339 183.672C368.745 184.211 368.299 184.893 368.043 185.653C367.287 187.341 366.95 189.187 367.061 191.034C367.31 194.899 369.397 198.49 372.193 199.161C372.714 199.295 373.258 199.309 373.785 199.204C374.312 199.099 374.809 198.876 375.238 198.552C375.747 198.068 375.847 197.633 375.772 197.595Z" fill="#F8B5A0"/>
    <path d="M370.106 176.507C373.026 175.799 378.084 178.495 379.326 181.229C380.569 183.963 380.843 187.07 382.085 189.816C383.328 192.563 386.136 195.023 389.069 194.327C390.06 194.017 390.951 193.45 391.652 192.684C392.352 191.918 392.838 190.98 393.058 189.965C393.481 187.918 393.502 185.808 393.12 183.752C391.989 174.805 390.113 165.932 389.753 156.91C389.392 147.888 390.672 138.531 395.407 130.814C400.141 123.097 408.828 117.48 417.775 118.213C423.727 118.685 429.195 121.792 435.11 122.625C438.635 123.091 442.219 122.748 445.591 121.621C448.963 120.495 452.034 118.616 454.571 116.125C455.217 115.492 458.199 113.516 458.199 113.516C458.199 113.056 457.764 109.054 456.186 107.588C444.443 96.7395 423.292 93.7074 407.784 97.6467C392.275 101.586 377.736 112.559 371.063 127.024C364.389 141.488 366.378 161.819 370.056 176.482" fill="#263238"/>
    <path d="M473.869 129.173C473.869 129.173 400.328 105.563 368.515 169.138C368.515 169.138 363.756 153.219 363.756 144.682C363.756 138.978 367.161 105.028 402.105 94.3411C402.105 94.3411 454.732 74.2594 473.869 129.173Z" fill="#E32127"/>
    <path d="M410.642 130.764C411.949 132.871 413.727 134.645 415.836 135.947C417.945 137.249 420.328 138.044 422.797 138.268C425.266 138.492 427.753 138.14 430.062 137.239C432.371 136.338 434.44 134.912 436.105 133.075C436.836 134.904 438.121 136.457 439.78 137.518C441.439 138.58 443.388 139.095 445.354 138.992C447.321 138.889 449.206 138.174 450.745 136.945C452.284 135.717 453.4 134.038 453.937 132.143C455.931 134.366 458.369 136.144 461.095 137.363C463.891 138.394 467.432 137.996 469.259 135.66C471.086 133.324 470.589 129.633 468.75 127.222C466.741 124.943 464.17 123.229 461.294 122.252C452.575 118.418 442.995 116.968 433.532 118.051C424.15 119.294 415.066 123.867 409.201 131.298" fill="#263238"/>
    <g opacity="0.4">
    <path d="M473.869 129.173C467.751 122.726 459.363 118.915 450.482 118.549C428.785 117.592 388.187 129.795 368.465 169.138C368.465 169.138 363.706 153.219 363.706 144.682C363.706 138.978 367.111 105.028 402.055 94.3411C402.105 94.3411 454.732 74.2594 473.869 129.173Z" fill="black"/>
    </g>
    <path d="M371.585 161.694C382.483 145.005 397.519 131.211 414.432 120.686C431.345 110.16 459.293 99.6847 478.554 94.5897C484.345 93.0488 490.372 91.7067 496.275 92.7257C502.178 93.7447 507.944 97.6964 509.398 103.475C511.237 110.745 498.338 121.953 492.286 126.353C486.234 130.752 473.87 137.226 473.87 137.226C473.87 137.226 474.044 123.755 452.471 120.984C423.143 117.144 371.585 161.694 371.585 161.694Z" fill="#E32127"/>
    <path d="M431.904 106.731C431.904 106.731 442.492 100.865 453.142 99.4982C451.363 98.1159 449.423 96.9558 447.363 96.0436C441.583 96.999 435.994 98.8788 430.811 101.611L431.904 106.731Z" fill="#E0E0E0"/>
    <path d="M491.59 271.087L468.265 265.943L458.771 263.569L450.868 251.316C450.868 251.316 447.139 273.225 432.985 285.018C431.069 286.586 428.822 287.7 426.414 288.277C424.006 288.853 421.499 288.878 419.08 288.348C415.886 287.677 412.133 286.857 409.35 286.111C408.753 285.95 408.107 285.739 407.411 285.49C397.178 281.69 388.653 274.338 383.39 264.775C380.258 259.207 377.612 253.491 378.519 251.316L367.446 274.244L302.206 304.292L265.161 394.784L336.951 416.009L339.188 490.57L325.668 584.566L528.759 584.702L521.551 375.572" fill="#E32127"/>
    <path d="M439.087 352.048C438.673 352.081 438.258 352.081 437.844 352.048L434.228 351.961L421.317 351.501H421.068V351.29C420.857 345.685 420.596 339.05 420.31 331.954C419.974 321.727 419.676 312.481 419.44 305.684C419.366 302.378 419.303 299.681 419.254 297.718C419.254 296.836 419.254 296.115 419.254 295.556C419.221 295.304 419.221 295.049 419.254 294.798C419.311 295.042 419.34 295.292 419.341 295.543C419.341 296.115 419.428 296.786 419.477 297.706C419.577 299.669 419.713 302.366 419.875 305.659C420.148 312.456 420.521 321.702 420.931 331.917C421.18 339.025 421.404 345.661 421.602 351.265L421.329 351.004L434.24 351.688L437.844 351.924C438.262 351.92 438.678 351.961 439.087 352.048Z" fill="#263238"/>
    <path d="M428.039 321.839C428.324 321.639 428.661 321.527 429.009 321.515C429.816 321.463 430.62 321.645 431.326 322.04C432.032 322.434 432.608 323.025 432.985 323.74C433.34 324.437 433.466 325.229 433.346 326.002C433.213 326.878 432.829 327.696 432.24 328.358C431.651 329.02 430.882 329.496 430.028 329.73C429.162 329.911 428.264 329.85 427.431 329.554C426.598 329.258 425.862 328.739 425.306 328.052C424.854 327.499 424.538 326.848 424.383 326.151C424.228 325.454 424.237 324.731 424.411 324.038C424.604 323.096 425.071 322.231 425.753 321.553C426.225 321.093 426.573 320.944 426.586 320.981C426.598 321.018 426.337 321.242 425.939 321.727C425.389 322.407 425.017 323.215 424.858 324.075C424.732 324.695 424.747 325.335 424.902 325.948C425.057 326.561 425.348 327.132 425.753 327.617C426.25 328.203 426.894 328.646 427.62 328.899C428.345 329.153 429.125 329.208 429.879 329.059C430.612 328.852 431.272 328.44 431.78 327.873C432.288 327.305 432.624 326.604 432.749 325.852C432.852 325.236 432.783 324.603 432.548 324.024C432.313 323.445 431.923 322.942 431.42 322.572C430.738 322.027 429.894 321.726 429.021 321.714C428.375 321.764 428.039 321.888 428.039 321.839Z" fill="#263238"/>
    <path d="M425.84 295.581C426.127 295.329 426.481 295.165 426.859 295.109C427.891 294.89 428.966 295.049 429.891 295.556C430.547 295.89 431.108 296.386 431.519 296.997C431.997 297.713 432.236 298.561 432.203 299.421C432.163 300.401 431.829 301.346 431.244 302.133C430.659 302.921 429.849 303.513 428.922 303.832C427.974 304.075 426.975 304.032 426.051 303.709C425.127 303.386 424.318 302.798 423.727 302.018C423.203 301.345 422.888 300.532 422.82 299.682C422.782 298.948 422.9 298.215 423.168 297.532C423.554 296.559 424.237 295.733 425.119 295.171C425.427 294.941 425.793 294.803 426.175 294.773C426.175 294.773 425.815 294.959 425.268 295.382C424.5 295.973 423.921 296.777 423.603 297.693C423.354 298.35 423.278 299.059 423.382 299.753C423.487 300.448 423.768 301.104 424.2 301.657C424.724 302.327 425.432 302.831 426.237 303.106C427.042 303.382 427.91 303.418 428.735 303.211C429.536 302.927 430.234 302.414 430.745 301.735C431.255 301.057 431.555 300.243 431.606 299.396C431.639 298.699 431.476 298.008 431.135 297.399C430.795 296.791 430.291 296.29 429.68 295.954C428.845 295.461 427.873 295.252 426.909 295.357C426.225 295.444 425.865 295.63 425.84 295.581Z" fill="#263238"/>
    <path d="M419.229 395.877C419.229 395.877 419.328 395.815 419.54 395.741L420.472 395.38C421.304 395.095 422.485 394.573 423.988 393.877C428.187 391.76 432.042 389.02 435.421 385.75C440.389 380.858 444.779 375.412 448.506 369.52C453.168 362.358 457.424 354.94 461.256 347.301C468.147 333.378 474.194 319.053 479.362 304.404C481.388 298.787 482.966 294.226 484.072 291.082L485.315 287.454C485.451 287.081 485.576 286.77 485.663 286.522C485.698 286.414 485.744 286.31 485.799 286.211C485.79 286.326 485.765 286.439 485.725 286.546C485.65 286.795 485.551 287.106 485.439 287.503C485.153 288.386 484.768 289.603 484.283 291.231C483.252 294.4 481.736 298.986 479.747 304.615C474.712 319.304 468.727 333.65 461.828 347.562C457.987 355.222 453.705 362.654 449.003 369.818C445.232 375.742 440.778 381.202 435.732 386.085C432.299 389.35 428.373 392.055 424.1 394.1C422.931 394.637 421.732 395.106 420.509 395.505L419.552 395.803C419.449 395.844 419.34 395.869 419.229 395.877Z" fill="#263238"/>
    <path d="M462.014 371.061C462.549 371.061 474.913 370.216 474.913 370.216C474.913 370.216 469.806 379.238 464.487 382.643H453.663L462.014 371.061Z" fill="#FAFAFA"/>
    <path d="M417.067 423.204C417.278 423.001 417.512 422.822 417.763 422.67L419.85 421.228C421.652 419.985 424.249 418.121 427.368 415.723C433.582 410.964 441.858 403.855 450.706 395.728C455.13 391.665 459.405 387.837 463.058 384.159C466.337 380.934 469.381 377.479 472.167 373.82C474.037 371.352 475.7 368.733 477.138 365.991C477.685 365.034 478.02 364.251 478.281 363.729C478.399 363.454 478.545 363.192 478.716 362.946C478.636 363.232 478.532 363.511 478.405 363.779C478.182 364.313 477.871 365.121 477.361 366.103C475.996 368.908 474.378 371.582 472.527 374.093C469.778 377.814 466.75 381.32 463.468 384.581C459.802 388.31 455.552 392.149 451.128 396.201C442.281 404.328 433.992 411.411 427.642 416.083C424.473 418.432 421.826 420.222 419.987 421.427C419.055 422.023 418.322 422.458 417.825 422.769C417.589 422.942 417.335 423.088 417.067 423.204Z" fill="#263238"/>
    <path d="M382.222 561.303C382.222 561.303 382.222 561.191 382.371 561.005C382.52 560.818 382.682 560.52 382.88 560.184C383.34 559.476 384.036 558.432 384.968 557.115C386.832 554.505 389.715 550.827 393.518 546.503C401.173 537.916 411.897 526.197 423.702 513.224L454.136 480.056L463.394 470.115L465.879 467.418L466.55 466.735L466.799 466.511C466.799 466.511 466.736 466.611 466.6 466.772L465.978 467.505L463.493 470.289L454.384 480.417L424.187 513.621L393.866 546.776C390.026 551.051 387.093 554.667 385.167 557.227C384.21 558.47 383.477 559.526 382.992 560.222L382.433 561.005C382.371 561.11 382.3 561.209 382.222 561.303Z" fill="#263238"/>
    <path d="M489.975 270.516C491.043 272.119 515.052 274.791 520.93 280.656C526.808 286.522 585.549 331.357 585.549 331.357L543.683 387.7L516.667 381.748L489.975 270.516Z" fill="#E32127"/>
    <path opacity="0.4" d="M578.428 325.89L531.492 385.016L543.683 387.7L585.499 331.295L578.428 325.89Z" fill="black"/>
    <path d="M502.762 329.17C502.551 328.529 502.389 327.873 502.277 327.207C502.14 326.573 501.979 325.79 501.867 324.871C501.755 323.951 501.569 322.907 501.507 321.739C501.444 320.571 501.32 319.254 501.32 317.924C501.32 316.594 501.32 315.091 501.432 313.55C501.673 310.199 502.193 306.873 502.985 303.608C503.831 300.36 504.949 297.188 506.328 294.127C506.987 292.735 507.571 291.393 508.279 290.2C508.988 289.007 509.596 287.901 510.23 286.919C510.864 285.937 511.473 285.092 512.02 284.334C512.472 283.684 512.957 283.058 513.474 282.458C513.881 281.918 514.334 281.415 514.828 280.954C514.489 281.536 514.102 282.089 513.672 282.607C513.287 283.129 512.815 283.763 512.318 284.546C511.821 285.329 511.187 286.161 510.615 287.168C510.044 288.174 509.373 289.243 508.751 290.461C508.13 291.679 507.509 292.946 506.875 294.363C505.566 297.412 504.494 300.557 503.669 303.77C502.895 306.993 502.367 310.271 502.091 313.575C502.004 315.103 501.892 316.557 501.929 317.912C501.966 319.266 501.929 320.534 502.029 321.64C502.128 322.746 502.203 323.839 502.289 324.759C502.376 325.678 502.488 326.461 502.588 327.095C502.712 327.78 502.771 328.475 502.762 329.17Z" fill="#263238"/>
    <path d="M521.551 375.497C519.627 371.766 517.897 367.938 516.369 364.028C514.638 360.206 513.103 356.299 511.771 352.321C513.696 356.05 515.429 359.874 516.966 363.779C518.7 367.601 520.23 371.513 521.551 375.497Z" fill="#263238"/>
    <path d="M336.951 334.564C336.852 334.564 335.845 332.762 333.944 329.966C331.463 326.324 328.624 322.939 325.469 319.863C322.298 316.809 318.835 314.075 315.13 311.698C312.271 309.884 310.395 308.939 310.445 308.84C310.921 308.971 311.38 309.159 311.812 309.399C313.028 309.977 314.214 310.616 315.366 311.313C319.188 313.591 322.733 316.306 325.928 319.403C329.113 322.509 331.932 325.97 334.329 329.717C335.236 331.159 335.92 332.352 336.342 333.209C336.6 333.634 336.804 334.089 336.951 334.564Z" fill="#263238"/>
    <path opacity="0.4" d="M265.161 394.746L268.057 387.7L347.464 409.323L344.32 418.159L265.161 394.746Z" fill="black"/>
    <path d="M477.15 366.898H507.384V379.325L468.7 379.076C468.7 379.076 474.677 371.881 477.15 366.898Z" fill="#FAFAFA"/>
    <g opacity="0.2">
    <path d="M369.31 276.978C370.404 286.671 371.597 296.674 376.394 305.174C381.19 313.674 390.573 320.372 400.228 318.943C406.665 317.986 412.121 313.687 416.507 308.865C420.894 304.043 424.572 298.588 429.357 294.176C432.25 297.292 435.485 300.073 439 302.465C442.551 304.871 446.815 305.997 451.091 305.659C455.304 305.149 457.628 303.472 458.957 299.445C454.459 300.837 451.986 300.626 447.5 299.769C442.546 298.819 437.895 296.687 433.942 293.555C431.308 291.48 430.351 288.361 427.008 288.584C423.914 288.758 421.49 291.206 419.452 293.555C416.162 297.322 412.553 300.798 408.666 303.944C404.938 306.889 401.334 308.915 396.587 308.778C388.771 308.604 382.371 302.465 378.059 295.941C374.079 289.926 371.138 283.284 369.36 276.294" fill="black"/>
    </g>
    <path d="M460.821 264.886C460.892 265.113 460.938 265.346 460.958 265.582C460.958 266.042 461.107 266.713 461.194 267.583C461.381 269.323 461.567 271.845 461.642 275.039C461.81 283.208 461.03 291.369 459.318 299.358V299.557V299.756H459.131C454.714 300.792 450.103 300.667 445.748 299.396C442.186 298.444 438.821 296.87 435.806 294.748C433.766 293.361 431.937 291.687 430.376 289.777C429.956 289.262 429.566 288.722 429.208 288.162C429.068 287.971 428.948 287.767 428.847 287.553C430.874 290.204 433.307 292.519 436.055 294.412C439.053 296.438 442.372 297.942 445.872 298.861C450.134 300.065 454.631 300.172 458.945 299.172L458.709 299.408V299.209C460.401 291.261 461.234 283.153 461.194 275.027C461.194 271.908 461.057 269.385 460.958 267.633C460.958 266.825 460.871 266.166 460.834 265.632C460.794 265.385 460.789 265.134 460.821 264.886Z" fill="#263238"/>
    <path d="M423.069 289.405C422.97 289.67 422.837 289.921 422.671 290.15C422.255 290.839 421.799 291.503 421.304 292.139C419.449 294.454 417.403 296.611 415.19 298.588C413.811 299.831 412.258 301.21 410.58 302.627C409.735 303.335 408.89 304.081 407.945 304.826C406.973 305.56 405.947 306.221 404.876 306.802C402.576 308.071 400.036 308.845 397.42 309.076C394.565 309.319 391.704 308.686 389.218 307.262C386.798 305.82 384.628 303.994 382.794 301.856C381.054 299.919 379.436 297.878 377.947 295.742C375.438 292.119 373.318 288.241 371.622 284.173C370.486 281.438 369.555 278.621 368.838 275.748C368.577 274.729 368.416 273.933 368.316 273.386C368.247 273.114 368.206 272.835 368.192 272.554C368.306 272.813 368.389 273.084 368.441 273.362C368.59 273.896 368.789 274.679 369.074 275.685C369.89 278.516 370.882 281.293 372.044 283.999C373.785 288.005 375.93 291.823 378.444 295.394C379.926 297.5 381.537 299.513 383.266 301.421C385.041 303.503 387.138 305.287 389.479 306.703C391.858 308.061 394.591 308.667 397.32 308.442C399.862 308.224 402.331 307.488 404.578 306.28C405.632 305.721 406.642 305.081 407.597 304.367C408.505 303.671 409.374 302.913 410.22 302.217C411.91 300.812 413.475 299.495 414.867 298.253C417.088 296.337 419.165 294.26 421.081 292.039C421.739 291.244 422.224 290.585 422.547 290.138C422.699 289.879 422.874 289.633 423.069 289.405Z" fill="#263238"/>
    <path d="M396.301 432.188L405.883 418.221C405.883 418.221 412.469 395.33 411.574 392.124C410.679 388.918 407.771 376.989 408.455 376.839C409.138 376.69 416.309 374.031 420.198 383.6C422.621 389.564 423.417 397.418 423.678 402.488C423.706 403.115 423.87 403.728 424.158 404.285C424.447 404.842 424.852 405.329 425.347 405.715C425.842 406.1 426.415 406.373 427.025 406.515C427.636 406.658 428.27 406.666 428.885 406.539C435.508 405.173 446.531 403.097 449.153 403.731C452.955 404.638 456.36 409.485 456.683 411.113C457.006 412.74 454.397 416.406 454.397 416.406C454.397 416.406 457.628 418.059 458.622 420.557C458.759 420.892 458.87 421.228 458.97 421.551C459.273 422.552 459.31 423.615 459.077 424.635C458.844 425.655 458.348 426.597 457.64 427.367L456.621 428.485C456.621 428.485 460.66 429.591 461.157 431.903C461.426 433.591 461.38 435.314 461.02 436.985L457.23 440.9C458.287 441.885 458.979 443.199 459.194 444.628C459.392 446.765 453.713 452.084 453.713 452.084L429.344 460.782L419.676 463.268L396.301 432.188Z" fill="#FAD3C4"/>
    <path d="M454.471 416.431C451.687 417.181 448.866 417.79 446.021 418.258C443.226 418.941 440.397 419.481 437.546 419.873C438.309 419.5 439.114 419.221 439.944 419.041C441.448 418.618 443.548 418.096 445.897 417.624C448.245 417.152 450.37 416.804 451.936 416.605C452.77 416.434 453.622 416.376 454.471 416.431Z" fill="#F8B5A0"/>
    <path d="M456.696 428.485C454.624 429.457 452.465 430.227 450.246 430.784C448.093 431.557 445.871 432.123 443.61 432.474C445.681 431.503 447.841 430.733 450.06 430.175C452.213 429.403 454.435 428.837 456.696 428.485Z" fill="#F8B5A0"/>
    <path d="M458.15 440.378C455.967 441.685 453.676 442.803 451.302 443.72C449.016 444.84 446.638 445.763 444.194 446.479C446.377 445.172 448.668 444.054 451.041 443.136C453.328 442.017 455.706 441.094 458.15 440.378Z" fill="#F8B5A0"/>
    <path d="M340.157 518.505L429.779 458.384L407.162 417.376L325.369 459.44L334.652 415.251L279.142 398.823L265.248 474.502C263.111 508.153 290.102 535.318 322.635 526.483C328.872 524.796 334.79 522.101 340.157 518.505Z" fill="#FAD3C4"/>
    <path d="M313.527 483.225C313.365 482.867 313.26 482.485 313.216 482.095C313.031 481.048 312.928 479.988 312.905 478.926C312.858 475.39 313.651 471.894 315.217 468.723C316.804 465.561 319.127 462.825 321.989 460.745C322.842 460.113 323.749 459.555 324.698 459.08C325.039 458.881 325.408 458.735 325.792 458.645C325.792 458.757 324.338 459.465 322.263 461.131C319.545 463.253 317.336 465.955 315.797 469.04C314.257 472.126 313.427 475.516 313.365 478.963C313.303 481.573 313.713 483.213 313.527 483.225Z" fill="#F8B5A0"/>
    <path d="M543.683 387.701C544.242 386.93 607.507 425.478 607.507 425.478L627.788 517.871L656.978 528.583C656.978 528.583 666.087 425.764 659.153 409.758C652.219 393.752 581.921 336.167 581.921 336.167L543.683 387.701Z" fill="#FAD3C4"/>
    <path d="M621.326 418.395C619.917 420.513 618.042 422.281 615.846 423.564C613.763 425.031 611.375 426.008 608.862 426.422C611.132 425.405 613.347 424.268 615.498 423.017C617.525 421.587 619.471 420.043 621.326 418.395Z" fill="#F8B5A0"/>
    <path d="M467.594 387.899L472.552 476.577L573.657 469.742L570.6 403.731L555.874 383.91L467.594 387.899Z" fill="#263238"/>
    <path d="M444.617 478.553C444.915 480.255 453.502 560.57 453.502 560.57L603.978 550.119L629.441 546.701L617.697 471.917L599.716 467.605L444.617 478.553Z" fill="#E32127"/>
    <path opacity="0.4" d="M599.716 467.592L444.617 478.553C444.915 480.255 453.502 560.57 453.502 560.57L610.167 549.671L599.716 467.592Z" fill="black"/>
    <path d="M558.496 470.761L472.552 476.577L467.594 387.899L555.874 383.91L558.496 470.761Z" fill="#455A64"/>
    <path d="M591.34 467.841C591.191 467.928 587.214 461.565 582.455 453.637C577.695 445.709 573.955 439.185 574.116 439.085C574.278 438.986 578.242 445.361 583.001 453.302C587.761 461.242 591.501 467.754 591.34 467.841Z" fill="#263238"/>
    <path d="M578.752 445.585C578.901 445.672 576.341 450.692 573.023 456.769C571.119 460.517 569.02 464.163 566.735 467.692C568.444 463.867 570.352 460.134 572.451 456.508C574.356 452.758 576.46 449.111 578.752 445.585Z" fill="#263238"/>
    <path d="M601.94 466.984C599.839 464.107 597.914 461.107 596.174 457.999C594.244 455.001 592.505 451.884 590.967 448.666C594.979 454.553 598.643 460.669 601.94 466.984Z" fill="#263238"/>
    <path d="M589.737 435.941V439.346L595.08 439.968L595.366 437.37L589.737 435.941Z" fill="white"/>
    <path d="M570.873 418.656V423.626L580.964 425.292L581.523 421.489L570.873 418.656Z" fill="white"/>
    <path d="M597.02 510.423L563.284 513.624L566.115 543.463L599.851 540.262L597.02 510.423Z" fill="#FAFAFA"/>
    <path d="M599.803 540.302C599.761 540.113 599.732 539.922 599.716 539.73C599.716 539.32 599.604 538.786 599.529 538.115C599.38 536.673 599.156 534.623 598.883 532.05C598.349 526.806 597.64 519.4 596.696 510.49L596.994 510.738L563.28 513.982C563.206 514.056 563.827 513.323 563.566 513.634V513.857V514.118V514.615L563.665 515.634L563.852 517.648C563.989 518.977 564.113 520.294 564.237 521.612C564.473 524.234 564.722 526.794 564.958 529.304C565.418 534.275 565.865 539.059 566.263 543.446L565.952 543.197L590.296 541.035L597.205 540.451L599.057 540.314C599.276 540.297 599.496 540.297 599.716 540.314C599.524 540.359 599.328 540.388 599.132 540.401L597.342 540.612L590.507 541.333L566.014 543.818H565.728V543.533C565.293 539.134 564.834 534.386 564.349 529.391C564.117 526.906 563.873 524.341 563.616 521.699C563.491 520.381 563.367 519.064 563.243 517.722C563.181 517.064 563.119 516.392 563.044 515.721L562.957 514.702V514.205V513.944V513.721C562.696 514.031 563.305 513.286 563.255 513.36L596.982 510.216H597.255V510.49C598.05 519.474 598.709 526.955 599.181 532.249C599.393 534.797 599.554 536.822 599.678 538.264C599.678 538.922 599.765 539.444 599.79 539.842C599.805 539.995 599.81 540.148 599.803 540.302Z" fill="#263238"/>
    <path d="M594.335 517.61C594.335 517.797 588.457 518.555 581.163 519.325C576.772 519.903 572.355 520.26 567.928 520.394C567.928 520.22 573.806 519.449 581.1 518.679C588.395 517.909 594.322 517.436 594.335 517.61Z" fill="#263238"/>
    <path d="M594.136 522.68C592.964 523.102 591.752 523.406 590.52 523.588C588.258 524.035 585.114 524.557 581.622 524.967C578.13 525.377 574.937 525.601 572.638 525.675C571.397 525.787 570.15 525.787 568.91 525.675C570.139 525.433 571.385 525.291 572.638 525.253C574.924 525.042 578.081 524.756 581.56 524.346C585.04 523.936 588.184 523.488 590.458 523.103C591.672 522.871 592.901 522.73 594.136 522.68Z" fill="#263238"/>
    <path d="M595.565 533.765C594.388 534.184 593.172 534.487 591.936 534.672C589.675 535.12 586.531 535.642 583.039 536.052C579.547 536.462 576.366 536.685 574.054 536.76C572.815 536.88 571.566 536.88 570.326 536.76C571.555 536.517 572.802 536.376 574.054 536.337C576.341 536.139 579.51 535.84 582.989 535.43C586.469 535.02 589.613 534.573 591.887 534.188C593.101 533.955 594.33 533.814 595.565 533.765Z" fill="#263238"/>
    <path d="M593.863 528.086C589.807 529.003 585.704 529.7 581.573 530.174C577.459 530.872 573.31 531.354 569.146 531.615C573.205 530.713 577.307 530.016 581.436 529.528C585.551 528.836 589.699 528.355 593.863 528.086Z" fill="#263238"/>
    <path d="M623.65 574.301C623.65 574.301 651.424 555.922 653.561 546.527C655.698 537.133 656.978 528.583 656.978 528.583L627.303 516.293L630.248 526.98C630.248 526.98 619.611 533.305 618.517 540.973C617.797 546.08 604.04 554.829 604.04 554.829C602.896 553.446 601.44 552.354 599.791 551.643C598.143 550.933 596.35 550.623 594.559 550.74L583.002 551.56L590.818 569.169L623.65 574.301Z" fill="#FAD3C4"/>
    <path d="M634.498 549.112C634.095 549.359 633.654 549.539 633.193 549.647C632.324 549.932 631.031 550.218 629.465 550.715C627.698 551.344 626.063 552.296 624.644 553.524C622.856 555.049 620.854 556.304 618.704 557.252C614.726 558.946 610.308 559.317 606.103 558.308C605.364 558.165 604.655 557.901 604.003 557.525C603.736 557.374 603.519 557.147 603.382 556.872C603.245 556.598 603.193 556.289 603.232 555.984C603.253 555.795 603.321 555.614 603.43 555.458C603.538 555.302 603.684 555.175 603.854 555.089C604.102 555.002 604.239 555.089 604.239 555.089C604.239 555.089 604.102 555.089 603.916 555.226C603.786 555.321 603.679 555.444 603.603 555.586C603.528 555.728 603.486 555.886 603.481 556.046C603.458 556.303 603.514 556.56 603.644 556.782C603.773 557.005 603.968 557.182 604.202 557.289C604.837 557.601 605.516 557.815 606.215 557.923C610.327 558.76 614.596 558.327 618.455 556.68C620.557 555.744 622.516 554.514 624.271 553.027C625.759 551.791 627.473 550.854 629.316 550.268C630.907 549.821 632.199 549.609 633.044 549.386C633.521 549.256 634.007 549.165 634.498 549.112Z" fill="#F8B5A0"/>
    <path d="M615.262 563.366C615.262 563.465 613.833 562.645 611.471 561.663C608.393 560.405 605.15 559.597 601.841 559.265C600.871 559.165 599.915 559.141 598.995 559.116H598.821L598.722 558.967C597.283 556.715 595.548 554.667 593.564 552.878C592.061 551.523 591.079 550.827 591.079 550.753C591.079 550.678 591.377 550.852 591.85 551.15C592.52 551.584 593.167 552.053 593.788 552.554C595.907 554.282 597.739 556.333 599.219 558.631L598.958 558.482C599.902 558.482 600.871 558.482 601.866 558.631C605.24 558.957 608.537 559.843 611.621 561.253C612.549 561.676 613.45 562.158 614.317 562.695C614.665 562.868 614.984 563.094 615.262 563.366Z" fill="#F8B5A0"/>
    <path d="M622.767 558.32C622.767 558.494 620.891 559.203 618.704 560.445C616.517 561.688 614.914 562.993 614.789 562.844C616.84 560.453 619.662 558.853 622.767 558.32Z" fill="#F8B5A0"/>
    <path d="M637.816 525.265C637.816 525.464 635.878 525.265 633.666 525.824C631.454 526.384 629.938 527.527 629.764 527.365C630.791 526.321 632.083 525.574 633.5 525.204C634.918 524.835 636.41 524.856 637.816 525.265Z" fill="#F8B5A0"/>
    <g clip-path="url(#clip1_0_1)">
    <path d="M459.166 342.466C458.02 343.329 456.513 343.303 456.14 343.303C454.84 343.303 453.604 343.08 452.548 342.283C452.149 341.983 451.904 341.708 451.608 341.316L453.758 339.918C453.951 340.219 454.054 340.362 454.183 340.467C454.685 340.911 455.625 341.107 456.243 341.107C457.041 341.107 457.595 340.859 457.595 340.415C457.595 340.31 457.543 340.232 457.531 340.193C457.466 340.062 457.363 339.944 457.106 339.866C456.797 339.748 456.217 339.67 455.432 339.513C454.209 339.265 453.552 338.964 453.127 338.585C452.844 338.337 452.342 337.736 452.355 336.756C452.355 336.508 452.367 335.959 452.676 335.384C453.578 333.698 455.947 333.724 456.282 333.724C456.732 333.724 458.342 333.75 459.603 334.691C459.887 334.9 460.041 335.07 460.286 335.318L458.509 336.821C458.393 336.664 458.329 336.586 458.252 336.521C457.737 336.037 456.835 335.893 456.166 335.893C456.101 335.893 455.767 335.893 455.496 336.011C455.445 336.037 455.149 336.181 455.149 336.481C455.149 336.651 455.252 336.795 455.38 336.887C455.612 337.03 456.14 337.135 456.372 337.174C456.681 337.226 457.518 337.344 458.406 337.631C458.96 337.814 460.337 338.311 460.337 340.114C460.337 341.434 459.552 342.166 459.166 342.466Z" fill="white"/>
    <path d="M465.706 343.028V339.239C465.706 339.043 465.694 339.003 465.668 338.899C465.616 338.638 465.41 338.298 464.767 338.298C464.561 338.298 463.994 338.324 463.852 338.912C463.814 339.043 463.814 339.186 463.814 339.291V343.028H461.213V333.999H463.801V337.069C463.942 336.886 464.007 336.821 464.097 336.743C464.355 336.494 464.947 336.129 465.887 336.129C466.518 336.129 467.239 336.325 467.702 336.795C467.87 336.965 468.127 337.292 468.23 337.853C468.294 338.167 468.307 338.389 468.307 338.716V343.041H465.706V343.028Z" fill="white"/>
    <path d="M469.376 333.358V331.607H471.977V333.358H469.376ZM469.376 343.028V334.025H471.977V343.028H469.376Z" fill="white"/>
    <path d="M477.294 343.185C477.101 343.185 476.419 343.185 475.878 342.819C475.788 342.754 475.737 342.701 475.595 342.571V345.419H473.046V336.39H475.582V336.899C475.711 336.743 475.762 336.69 475.84 336.638C476.084 336.442 476.573 336.207 477.32 336.207C479.367 336.207 480.166 337.893 480.166 339.735C480.166 341.604 479.316 343.185 477.294 343.185ZM477.333 338.494C477.101 338.193 476.767 338.141 476.638 338.141C476.535 338.141 476.342 338.154 476.136 338.272C475.608 338.572 475.582 339.225 475.582 339.761C475.582 340.271 475.621 340.95 476.123 341.238C476.329 341.355 476.483 341.355 476.573 341.355C476.689 341.355 476.87 341.342 477.076 341.212C477.539 340.911 477.603 340.284 477.603 339.787C477.603 339.369 477.578 338.833 477.333 338.494Z" fill="white"/>
    <path d="M485.174 343.185C484.981 343.185 484.299 343.185 483.758 342.819C483.668 342.754 483.616 342.701 483.475 342.571V348.059H480.925V336.39H483.462V336.899C483.591 336.743 483.642 336.69 483.719 336.638C483.964 336.442 484.453 336.207 485.2 336.207C487.247 336.207 488.045 337.893 488.045 339.735C488.045 341.604 487.196 343.185 485.174 343.185ZM485.2 338.494C484.968 338.193 484.633 338.141 484.505 338.141C484.402 338.141 484.209 338.154 484.003 338.272C483.475 338.572 483.449 339.225 483.449 339.761C483.449 340.271 483.488 340.95 483.99 341.238C484.196 341.355 484.35 341.355 484.44 341.355C484.556 341.355 484.736 341.342 484.942 341.212C485.406 340.911 485.47 340.284 485.47 339.787C485.483 339.369 485.458 338.833 485.2 338.494Z" fill="white"/>
    <path d="M491.148 340.179C491.148 340.179 491.148 340.48 491.213 340.689C491.303 340.95 491.548 341.434 492.243 341.421C492.642 341.421 492.861 341.277 492.99 341.159C493.26 340.937 493.376 340.65 493.427 340.558L495.552 341.473C495.488 341.578 495.41 341.721 495.243 341.917C494.792 342.453 494.277 342.754 494.045 342.858C493.736 343.015 493.054 343.276 492.114 343.276C491.573 343.276 491.058 343.198 490.569 342.989C489.217 342.427 488.496 341.094 488.496 339.644C488.496 338.272 489.114 337.435 489.488 337.056C490.415 336.142 491.715 336.089 492.088 336.089C492.526 336.089 493.865 336.155 494.805 337.187C495.114 337.527 495.359 337.971 495.5 338.415C495.681 338.99 495.694 339.552 495.694 340.153H491.148V340.179ZM493.003 338.415C492.822 337.867 492.346 337.788 492.14 337.788C491.934 337.801 491.818 337.853 491.741 337.893C491.264 338.115 491.2 338.651 491.174 338.794H493.067C493.041 338.716 493.041 338.585 493.003 338.415Z" fill="white"/>
    <path d="M500.702 338.455C500.496 338.441 499.389 338.376 499.08 339.278C499.002 339.5 499.002 339.67 499.002 339.905V343.028H496.414V336.403H498.912V336.978C499.041 336.86 499.131 336.782 499.26 336.69C499.839 336.285 500.393 336.259 501.075 336.259V338.481C500.947 338.468 500.818 338.455 500.702 338.455Z" fill="white"/>
    <path d="M501.23 332.496L497.728 329.83V331.607H473.148V333.384H497.728V335.162L501.23 332.496Z" fill="white"/>
    <path d="M451.453 347.262L454.955 349.928V348.151H479.792V346.373H454.955V344.596L451.453 347.262Z" fill="white"/>
    </g>
    <g clip-path="url(#clip2_0_1)">
    <path d="M475.818 533.968C474.672 534.83 473.166 534.804 472.792 534.804C471.492 534.804 470.256 534.582 469.2 533.785C468.801 533.484 468.556 533.21 468.26 532.818L470.41 531.42C470.603 531.72 470.706 531.864 470.835 531.969C471.337 532.413 472.277 532.609 472.895 532.609C473.694 532.609 474.247 532.361 474.247 531.916C474.247 531.812 474.196 531.733 474.183 531.694C474.118 531.563 474.015 531.446 473.758 531.367C473.449 531.25 472.87 531.171 472.084 531.015C470.861 530.766 470.204 530.466 469.779 530.087C469.496 529.839 468.994 529.237 469.007 528.257C469.007 528.009 469.02 527.46 469.329 526.885C470.23 525.2 472.599 525.226 472.934 525.226C473.385 525.226 474.994 525.252 476.256 526.193C476.539 526.402 476.694 526.572 476.938 526.82L475.161 528.323C475.046 528.166 474.981 528.088 474.904 528.022C474.389 527.539 473.488 527.395 472.818 527.395C472.754 527.395 472.419 527.395 472.149 527.513C472.097 527.539 471.801 527.682 471.801 527.983C471.801 528.153 471.904 528.297 472.033 528.388C472.264 528.532 472.792 528.636 473.024 528.676C473.333 528.728 474.17 528.845 475.058 529.133C475.612 529.316 476.99 529.812 476.99 531.616C476.99 532.936 476.204 533.667 475.818 533.968Z" fill="white"/>
    <path d="M482.359 534.53V530.74C482.359 530.544 482.346 530.505 482.32 530.4C482.269 530.139 482.063 529.799 481.419 529.799C481.213 529.799 480.646 529.825 480.505 530.414C480.466 530.544 480.466 530.688 480.466 530.792V534.53H477.865V525.5H480.453V528.571C480.595 528.388 480.659 528.323 480.749 528.244C481.007 527.996 481.599 527.63 482.539 527.63C483.17 527.63 483.891 527.826 484.354 528.297C484.522 528.466 484.779 528.793 484.882 529.355C484.947 529.669 484.96 529.891 484.96 530.218V534.543H482.359V534.53Z" fill="white"/>
    <path d="M486.028 524.86V523.109H488.629V524.86H486.028ZM486.028 534.53V525.526H488.629V534.53H486.028Z" fill="white"/>
    <path d="M493.947 534.687C493.754 534.687 493.071 534.687 492.53 534.321C492.44 534.255 492.389 534.203 492.247 534.072V536.921H489.698V527.892H492.234V528.401C492.363 528.244 492.415 528.192 492.492 528.14C492.736 527.944 493.226 527.709 493.973 527.709C496.02 527.709 496.818 529.394 496.818 531.237C496.818 533.105 495.968 534.687 493.947 534.687ZM493.985 529.995C493.754 529.695 493.419 529.643 493.29 529.643C493.187 529.643 492.994 529.656 492.788 529.773C492.26 530.074 492.234 530.727 492.234 531.263C492.234 531.773 492.273 532.452 492.775 532.739C492.981 532.857 493.136 532.857 493.226 532.857C493.342 532.857 493.522 532.844 493.728 532.713C494.191 532.413 494.256 531.786 494.256 531.289C494.256 530.871 494.23 530.335 493.985 529.995Z" fill="white"/>
    <path d="M501.827 534.687C501.633 534.687 500.951 534.687 500.41 534.321C500.32 534.255 500.269 534.203 500.127 534.072V539.561H497.578V527.892H500.114V528.401C500.243 528.244 500.294 528.192 500.372 528.14C500.616 527.944 501.106 527.709 501.852 527.709C503.9 527.709 504.698 529.394 504.698 531.237C504.698 533.105 503.848 534.687 501.827 534.687ZM501.852 529.995C501.621 529.695 501.286 529.643 501.157 529.643C501.054 529.643 500.861 529.656 500.655 529.773C500.127 530.074 500.101 530.727 500.101 531.263C500.101 531.773 500.14 532.452 500.642 532.739C500.848 532.857 501.003 532.857 501.093 532.857C501.209 532.857 501.389 532.844 501.595 532.713C502.058 532.413 502.123 531.786 502.123 531.289C502.136 530.871 502.11 530.335 501.852 529.995Z" fill="white"/>
    <path d="M507.801 531.681C507.801 531.681 507.801 531.982 507.865 532.191C507.955 532.452 508.2 532.935 508.895 532.922C509.294 532.922 509.513 532.779 509.642 532.661C509.912 532.439 510.028 532.151 510.08 532.06L512.204 532.975C512.14 533.079 512.063 533.223 511.895 533.419C511.445 533.955 510.93 534.255 510.698 534.36C510.389 534.517 509.706 534.778 508.766 534.778C508.226 534.778 507.711 534.7 507.221 534.491C505.869 533.929 505.148 532.596 505.148 531.145C505.148 529.773 505.766 528.937 506.14 528.558C507.067 527.643 508.367 527.591 508.741 527.591C509.178 527.591 510.518 527.656 511.457 528.689C511.766 529.028 512.011 529.473 512.153 529.917C512.333 530.492 512.346 531.054 512.346 531.655H507.801V531.681ZM509.655 529.917C509.475 529.368 508.998 529.29 508.792 529.29C508.586 529.303 508.47 529.355 508.393 529.394C507.917 529.616 507.852 530.152 507.827 530.296H509.719C509.693 530.217 509.693 530.087 509.655 529.917Z" fill="white"/>
    <path d="M517.354 529.956C517.148 529.943 516.041 529.878 515.732 530.779C515.655 531.001 515.655 531.171 515.655 531.407V534.53H513.067V527.904H515.565V528.479C515.693 528.362 515.784 528.283 515.912 528.192C516.492 527.787 517.045 527.761 517.728 527.761V529.982C517.599 529.969 517.47 529.956 517.354 529.956Z" fill="white"/>
    <path d="M517.882 523.997L514.38 521.332V523.109H489.801V524.886H514.38V526.663L517.882 523.997Z" fill="white"/>
    <path d="M468.106 538.764L471.608 541.429V539.652H496.445V537.875H471.608V536.098L468.106 538.764Z" fill="white"/>
    </g>
    </g>
    <defs>
    <clipPath id="clip0_0_1">
    <rect width="472.214" height="569.721" fill="white" transform="translate(207.378 50.1467)"/>
    </clipPath>
    <clipPath id="clip1_0_1">
    <rect width="49.957" height="19.8624" fill="white" transform="translate(451.363 329.908)"/>
    </clipPath>
    <clipPath id="clip2_0_1">
    <rect width="49.957" height="19.8624" fill="white" transform="translate(468.015 521.41)"/>
    </clipPath>
    </defs>
    </svg>
    